G04 #@! TF.FileFunction,Copper,L2,Bot,Signal*
%FSLAX46Y46*%
G04 Gerber Fmt 4.6, Leading zero omitted, Abs format (unit mm)*
G04 Created by KiCad (PCBNEW 4.0.7) date 01/02/20 10:49:18*
%MOMM*%
%LPD*%
G01*
G04 APERTURE LIST*
%ADD10C,0.100000*%
%ADD11C,1.600000*%
%ADD12C,1.440000*%
%ADD13R,1.600000X1.600000*%
%ADD14R,2.200000X2.200000*%
%ADD15O,2.200000X2.200000*%
%ADD16R,1.700000X1.700000*%
%ADD17O,1.700000X1.700000*%
%ADD18C,2.400000*%
%ADD19C,1.000000*%
%ADD20R,1.000000X1.000000*%
%ADD21O,1.600000X1.600000*%
%ADD22R,1.800000X1.800000*%
%ADD23O,1.800000X1.800000*%
%ADD24R,2.000000X2.600000*%
%ADD25O,2.000000X2.600000*%
%ADD26C,4.064000*%
%ADD27C,1.408000*%
%ADD28C,0.600000*%
%ADD29C,0.500000*%
%ADD30C,0.350000*%
G04 APERTURE END LIST*
D10*
D11*
X211400000Y-62000000D03*
X208900000Y-62000000D03*
D12*
X236000000Y-52200000D03*
X238540000Y-52200000D03*
X241080000Y-52200000D03*
D11*
X225600000Y-61800000D03*
X228100000Y-61800000D03*
D13*
X159300000Y-62500000D03*
D11*
X155800000Y-62500000D03*
D13*
X120600000Y-58200000D03*
D11*
X120600000Y-60700000D03*
X252200000Y-62050000D03*
X254700000Y-62050000D03*
D13*
X254850000Y-54850000D03*
D11*
X254850000Y-58350000D03*
D14*
X242400000Y-56700000D03*
D15*
X234780000Y-56700000D03*
D16*
X148700000Y-54300000D03*
D17*
X146160000Y-54300000D03*
D18*
X218600000Y-54800000D03*
X231600000Y-54800000D03*
D19*
X225530000Y-66430000D03*
X226800000Y-65160000D03*
D20*
X226800000Y-67700000D03*
D11*
X207200000Y-55600000D03*
D21*
X214820000Y-55600000D03*
D11*
X210000000Y-72300000D03*
D21*
X210000000Y-64680000D03*
D11*
X207250000Y-58850000D03*
D21*
X214870000Y-58850000D03*
D11*
X248650000Y-53500000D03*
D21*
X248650000Y-61120000D03*
D11*
X245250000Y-61300000D03*
D21*
X245250000Y-53680000D03*
D11*
X244550000Y-50850000D03*
D21*
X252170000Y-50850000D03*
D22*
X155200000Y-55800000D03*
D23*
X157740000Y-55800000D03*
X160280000Y-55800000D03*
D24*
X202570000Y-61240000D03*
D25*
X200030000Y-61240000D03*
X197490000Y-61240000D03*
X194950000Y-61240000D03*
X192410000Y-61240000D03*
X189870000Y-61240000D03*
X187330000Y-61240000D03*
D22*
X233500000Y-61700000D03*
D23*
X236040000Y-61700000D03*
X238580000Y-61700000D03*
D26*
X266000000Y-51600000D03*
X115000000Y-113600000D03*
X266000000Y-113600000D03*
X115000000Y-51600000D03*
D13*
X214600000Y-62100000D03*
D21*
X222220000Y-69720000D03*
X214600000Y-64640000D03*
X222220000Y-67180000D03*
X214600000Y-67180000D03*
X222220000Y-64640000D03*
X214600000Y-69720000D03*
X222220000Y-62100000D03*
D16*
X260900000Y-56450000D03*
D17*
X260900000Y-58990000D03*
D11*
X239110000Y-67700000D03*
X239110000Y-70200000D03*
X183480000Y-69150000D03*
X183480000Y-71650000D03*
X127380000Y-57890000D03*
X124880000Y-57890000D03*
D19*
X146130000Y-73420000D03*
X144860000Y-72150000D03*
D20*
X147400000Y-72150000D03*
D19*
X118080000Y-73770000D03*
X116810000Y-72500000D03*
D20*
X119350000Y-72500000D03*
D19*
X180070000Y-77070000D03*
X178800000Y-78340000D03*
D20*
X178800000Y-75800000D03*
D19*
X214120000Y-84680000D03*
X215390000Y-85950000D03*
D20*
X212850000Y-85950000D03*
D19*
X214055000Y-91270000D03*
X212785000Y-90000000D03*
D20*
X215325000Y-90000000D03*
D19*
X180070000Y-83770000D03*
X178800000Y-85040000D03*
D20*
X178800000Y-82500000D03*
D19*
X153180000Y-73770000D03*
X151910000Y-72500000D03*
D20*
X154450000Y-72500000D03*
D19*
X180270000Y-90570000D03*
X179000000Y-91840000D03*
D20*
X179000000Y-89300000D03*
D19*
X227220000Y-84480000D03*
X228490000Y-85750000D03*
D20*
X225950000Y-85750000D03*
D19*
X138880000Y-73570000D03*
X137610000Y-72300000D03*
D20*
X140150000Y-72300000D03*
D19*
X160280000Y-73870000D03*
X159010000Y-72600000D03*
D20*
X161550000Y-72600000D03*
D19*
X188095000Y-84805000D03*
X189365000Y-86075000D03*
D20*
X186825000Y-86075000D03*
D19*
X227205000Y-91195000D03*
X225935000Y-89925000D03*
D20*
X228475000Y-89925000D03*
D19*
X131880000Y-73520000D03*
X130610000Y-72250000D03*
D20*
X133150000Y-72250000D03*
D19*
X180070000Y-63370000D03*
X178800000Y-64640000D03*
D20*
X178800000Y-62100000D03*
D19*
X188030000Y-91495000D03*
X186760000Y-90225000D03*
D20*
X189300000Y-90225000D03*
D19*
X240120000Y-84430000D03*
X241390000Y-85700000D03*
D20*
X238850000Y-85700000D03*
D19*
X200720000Y-84805000D03*
X201990000Y-86075000D03*
D20*
X199450000Y-86075000D03*
D19*
X124630000Y-73620000D03*
X123360000Y-72350000D03*
D20*
X125900000Y-72350000D03*
D19*
X240205000Y-91045000D03*
X238935000Y-89775000D03*
D20*
X241475000Y-89775000D03*
D19*
X180270000Y-70270000D03*
X179000000Y-71540000D03*
D20*
X179000000Y-69000000D03*
D19*
X200755000Y-91470000D03*
X199485000Y-90200000D03*
D20*
X202025000Y-90200000D03*
D19*
X252870000Y-84130000D03*
X254140000Y-85400000D03*
D20*
X251600000Y-85400000D03*
D19*
X252830000Y-90970000D03*
X251560000Y-89700000D03*
D20*
X254100000Y-89700000D03*
D11*
X147400000Y-83700000D03*
D21*
X147400000Y-76080000D03*
D11*
X119500000Y-83950000D03*
D21*
X119500000Y-76330000D03*
D11*
X168100000Y-75200000D03*
D21*
X175720000Y-75200000D03*
D11*
X213750000Y-81350000D03*
D21*
X221370000Y-81350000D03*
D11*
X218425000Y-91750000D03*
D21*
X218425000Y-84130000D03*
D11*
X144250000Y-76000000D03*
D21*
X144250000Y-83620000D03*
D11*
X116300000Y-76250000D03*
D21*
X116300000Y-83870000D03*
D11*
X175800000Y-78400000D03*
D21*
X168180000Y-78400000D03*
D11*
X221625000Y-84200000D03*
D21*
X221625000Y-91820000D03*
D11*
X168200000Y-82000000D03*
D21*
X175820000Y-82000000D03*
D11*
X154300000Y-83950000D03*
D21*
X154300000Y-76330000D03*
D11*
X168200000Y-88800000D03*
D21*
X175820000Y-88800000D03*
D11*
X227225000Y-81175000D03*
D21*
X234845000Y-81175000D03*
D11*
X175800000Y-85200000D03*
D21*
X168180000Y-85200000D03*
D11*
X151200000Y-76350000D03*
D21*
X151200000Y-83970000D03*
D11*
X175800000Y-92000000D03*
D21*
X168180000Y-92000000D03*
D11*
X140350000Y-83650000D03*
D21*
X140350000Y-76030000D03*
D11*
X161500000Y-84050000D03*
D21*
X161500000Y-76430000D03*
D11*
X187950000Y-81375000D03*
D21*
X195570000Y-81375000D03*
D11*
X231600000Y-91525000D03*
D21*
X231600000Y-83905000D03*
D11*
X234800000Y-83875000D03*
D21*
X234800000Y-91495000D03*
D11*
X137150000Y-76000000D03*
D21*
X137150000Y-83620000D03*
D11*
X158350000Y-76400000D03*
D21*
X158350000Y-84020000D03*
D11*
X192350000Y-91875000D03*
D21*
X192350000Y-84255000D03*
D11*
X133450000Y-83650000D03*
D21*
X133450000Y-76030000D03*
D11*
X175700000Y-61500000D03*
D21*
X168080000Y-61500000D03*
D11*
X195400000Y-84275000D03*
D21*
X195400000Y-91895000D03*
D11*
X239950000Y-81075000D03*
D21*
X247570000Y-81075000D03*
D11*
X130200000Y-76100000D03*
D21*
X130200000Y-83720000D03*
D11*
X175700000Y-64700000D03*
D21*
X168080000Y-64700000D03*
D11*
X200800000Y-81450000D03*
D21*
X208420000Y-81450000D03*
D11*
X244475000Y-91375000D03*
D21*
X244475000Y-83755000D03*
D11*
X126250000Y-83750000D03*
D21*
X126250000Y-76130000D03*
D11*
X168000000Y-68400000D03*
D21*
X175620000Y-68400000D03*
D11*
X247650000Y-83750000D03*
D21*
X247650000Y-91370000D03*
D11*
X205000000Y-91950000D03*
D21*
X205000000Y-84330000D03*
D11*
X252800000Y-80900000D03*
D21*
X260420000Y-80900000D03*
D11*
X123250000Y-76150000D03*
D21*
X123250000Y-83770000D03*
D11*
X208250000Y-84350000D03*
D21*
X208250000Y-91970000D03*
D11*
X175700000Y-71600000D03*
D21*
X168080000Y-71600000D03*
D11*
X257400000Y-91300000D03*
D21*
X257400000Y-83680000D03*
D11*
X260800000Y-83750000D03*
D21*
X260800000Y-91370000D03*
D13*
X130850000Y-65550000D03*
D21*
X148630000Y-57930000D03*
X133390000Y-65550000D03*
X146090000Y-57930000D03*
X135930000Y-65550000D03*
X143550000Y-57930000D03*
X138470000Y-65550000D03*
X141010000Y-57930000D03*
X141010000Y-65550000D03*
X138470000Y-57930000D03*
X143550000Y-65550000D03*
X135930000Y-57930000D03*
X146090000Y-65550000D03*
X133390000Y-57930000D03*
X148630000Y-65550000D03*
X130850000Y-57930000D03*
D13*
X186425000Y-76775000D03*
D21*
X204205000Y-69155000D03*
X188965000Y-76775000D03*
X201665000Y-69155000D03*
X191505000Y-76775000D03*
X199125000Y-69155000D03*
X194045000Y-76775000D03*
X196585000Y-69155000D03*
X196585000Y-76775000D03*
X194045000Y-69155000D03*
X199125000Y-76775000D03*
X191505000Y-69155000D03*
X201665000Y-76775000D03*
X188965000Y-69155000D03*
X204205000Y-76775000D03*
X186425000Y-69155000D03*
D13*
X242300000Y-75250000D03*
D21*
X260080000Y-67630000D03*
X244840000Y-75250000D03*
X257540000Y-67630000D03*
X247380000Y-75250000D03*
X255000000Y-67630000D03*
X249920000Y-75250000D03*
X252460000Y-67630000D03*
X252460000Y-75250000D03*
X249920000Y-67630000D03*
X255000000Y-75250000D03*
X247380000Y-67630000D03*
X257540000Y-75250000D03*
X244840000Y-67630000D03*
X260080000Y-75250000D03*
X242300000Y-67630000D03*
D27*
X244448000Y-109246000D03*
X241721000Y-110643000D03*
X246450000Y-103130000D03*
X246220000Y-106554000D03*
X235631000Y-108994000D03*
X234011000Y-106463000D03*
X240100000Y-97923000D03*
X234868000Y-100427000D03*
X233707000Y-103093000D03*
X245180000Y-100463000D03*
X236996000Y-98648000D03*
X238278000Y-110613000D03*
X243078000Y-98675000D03*
X222234000Y-109358000D03*
X219507000Y-110755000D03*
X224236000Y-103242000D03*
X224006000Y-106666000D03*
X213417000Y-109106000D03*
X211797000Y-106575000D03*
X217886000Y-98035000D03*
X212654000Y-100539000D03*
X211493000Y-103205000D03*
X222966000Y-100575000D03*
X214782000Y-98760000D03*
X216064000Y-110725000D03*
X220864000Y-98787000D03*
X156448000Y-109358000D03*
X153721000Y-110755000D03*
X158450000Y-103242000D03*
X158220000Y-106666000D03*
X147631000Y-109106000D03*
X146011000Y-106575000D03*
X152100000Y-98035000D03*
X146868000Y-100539000D03*
X145707000Y-103205000D03*
X157180000Y-100575000D03*
X148996000Y-98760000D03*
X150278000Y-110725000D03*
X155078000Y-98787000D03*
X134350000Y-109358000D03*
X131623000Y-110755000D03*
X136352000Y-103242000D03*
X136122000Y-106666000D03*
X125533000Y-109106000D03*
X123913000Y-106575000D03*
X130002000Y-98035000D03*
X124770000Y-100539000D03*
X123609000Y-103205000D03*
X135082000Y-100575000D03*
X126898000Y-98760000D03*
X128180000Y-110725000D03*
X132980000Y-98787000D03*
X178292000Y-109358000D03*
X175565000Y-110755000D03*
X180294000Y-103242000D03*
X180064000Y-106666000D03*
X169475000Y-109106000D03*
X167855000Y-106575000D03*
X173944000Y-98035000D03*
X168712000Y-100539000D03*
X167551000Y-103205000D03*
X179024000Y-100575000D03*
X170840000Y-98760000D03*
X172122000Y-110725000D03*
X176922000Y-98787000D03*
X200390000Y-109358000D03*
X197663000Y-110755000D03*
X202392000Y-103242000D03*
X202162000Y-106666000D03*
X191573000Y-109106000D03*
X189953000Y-106575000D03*
X196042000Y-98035000D03*
X190810000Y-100539000D03*
X189649000Y-103205000D03*
X201122000Y-100575000D03*
X192938000Y-98760000D03*
X194220000Y-110725000D03*
X199020000Y-98787000D03*
D28*
X235300000Y-68400000D03*
X210700000Y-75300000D03*
X207900000Y-76600000D03*
X143210000Y-61920000D03*
X184900000Y-55700000D03*
X244720000Y-69770000D03*
X201400000Y-63900000D03*
X194040000Y-64040000D03*
D29*
X146160000Y-54300000D02*
X145300000Y-54300000D01*
X129570000Y-55700000D02*
X127380000Y-57890000D01*
X143900000Y-55700000D02*
X129570000Y-55700000D01*
X145300000Y-54300000D02*
X143900000Y-55700000D01*
X120600000Y-58200000D02*
X120600000Y-57900000D01*
X120600000Y-57900000D02*
X122600000Y-55900000D01*
X122600000Y-55900000D02*
X125390000Y-55900000D01*
X125390000Y-55900000D02*
X127380000Y-57890000D01*
D30*
X168100000Y-59240000D02*
X168100000Y-59349998D01*
X144490000Y-63200000D02*
X143210000Y-61920000D01*
X150000000Y-63200000D02*
X144490000Y-63200000D01*
X153100000Y-66800000D02*
X150000000Y-63200000D01*
X162149998Y-66800000D02*
X153100000Y-66800000D01*
X168100000Y-59349998D02*
X162149998Y-66800000D01*
X189870000Y-62700000D02*
X189870000Y-64170000D01*
X235300000Y-72200000D02*
X235300000Y-68400000D01*
X234700000Y-72800000D02*
X235300000Y-72200000D01*
X221500000Y-72800000D02*
X234700000Y-72800000D01*
X218800000Y-75500000D02*
X221500000Y-72800000D01*
X210900000Y-75500000D02*
X218800000Y-75500000D01*
X210700000Y-75300000D02*
X210900000Y-75500000D01*
X207100000Y-76600000D02*
X207900000Y-76600000D01*
X205900000Y-75400000D02*
X207100000Y-76600000D01*
X195100000Y-75400000D02*
X205900000Y-75400000D01*
X190200000Y-70500000D02*
X195100000Y-75400000D01*
X190200000Y-64500000D02*
X190200000Y-70500000D01*
X189870000Y-64170000D02*
X190200000Y-64500000D01*
X239120000Y-67700000D02*
X242230000Y-67700000D01*
X242230000Y-67700000D02*
X242300000Y-67630000D01*
X183480000Y-69150000D02*
X186420000Y-69150000D01*
X186420000Y-69150000D02*
X186425000Y-69155000D01*
X180500000Y-59240000D02*
X168100000Y-59240000D01*
X188190000Y-59250000D02*
X180820000Y-59250000D01*
X180820000Y-59250000D02*
X180500000Y-59240000D01*
X189870000Y-60930000D02*
X188190000Y-59250000D01*
X189870000Y-61240000D02*
X189870000Y-60930000D01*
X186425000Y-69155000D02*
X186005000Y-69155000D01*
X130850000Y-57930000D02*
X127420000Y-57930000D01*
X127420000Y-57930000D02*
X127380000Y-57890000D01*
X189870000Y-61240000D02*
X189870000Y-62700000D01*
X189870000Y-62700000D02*
X189870000Y-63150000D01*
X186425000Y-66595000D02*
X186425000Y-69155000D01*
X189870000Y-63150000D02*
X186425000Y-66595000D01*
X167000000Y-57380000D02*
X166820000Y-57380000D01*
X143550000Y-58850000D02*
X143550000Y-57930000D01*
X145800000Y-61100000D02*
X143550000Y-58850000D01*
X151200000Y-61100000D02*
X145800000Y-61100000D01*
X154200000Y-64800000D02*
X151200000Y-61100000D01*
X160900000Y-64800000D02*
X154200000Y-64800000D01*
X166820000Y-57380000D02*
X160900000Y-64800000D01*
X199125000Y-69155000D02*
X199125000Y-68375000D01*
X199125000Y-68375000D02*
X200300000Y-67200000D01*
X252360000Y-64990000D02*
X255000000Y-67630000D01*
X237330000Y-64990000D02*
X252360000Y-64990000D01*
X236180000Y-66140000D02*
X237330000Y-64990000D01*
X236180000Y-72939998D02*
X236180000Y-66140000D01*
X235659998Y-73460000D02*
X236180000Y-72939998D01*
X221860000Y-73460000D02*
X235659998Y-73460000D01*
X219040000Y-76280000D02*
X221860000Y-73460000D01*
X210518635Y-76201752D02*
X219040000Y-76280000D01*
X206602230Y-72102334D02*
X210518635Y-76201752D01*
X206600000Y-67970000D02*
X206602230Y-72102334D01*
X205899650Y-67208368D02*
X206600000Y-67970000D01*
X200300000Y-67200000D02*
X205899650Y-67208368D01*
X197490000Y-61240000D02*
X197490000Y-67520000D01*
X197490000Y-67520000D02*
X199125000Y-69155000D01*
X197490000Y-61240000D02*
X197490000Y-60280000D01*
X197490000Y-60280000D02*
X194590000Y-57380000D01*
X194590000Y-57380000D02*
X167000000Y-57380000D01*
X167000000Y-58300000D02*
X167100000Y-58300000D01*
X167100000Y-58300000D02*
X167370000Y-58030000D01*
X145300000Y-61800000D02*
X143500000Y-60000000D01*
X150900000Y-61800000D02*
X145300000Y-61800000D01*
X153900000Y-65400000D02*
X150900000Y-61800000D01*
X161500000Y-65400000D02*
X153900000Y-65400000D01*
X167000000Y-58300000D02*
X161500000Y-65400000D01*
X210300000Y-76900000D02*
X219800000Y-76920000D01*
X196585000Y-69155000D02*
X196585000Y-70015000D01*
X250540000Y-65710000D02*
X252460000Y-67630000D01*
X237940000Y-65710000D02*
X250540000Y-65710000D01*
X237130000Y-66520000D02*
X237940000Y-65710000D01*
X237130000Y-73420000D02*
X237130000Y-66520000D01*
X236340000Y-74210000D02*
X237130000Y-73420000D01*
X222510000Y-74210000D02*
X236340000Y-74210000D01*
X219800000Y-76920000D02*
X222510000Y-74210000D01*
X205800000Y-72500000D02*
X210300000Y-76900000D01*
X205930000Y-68350000D02*
X205800000Y-72500000D01*
X205550000Y-67970000D02*
X205930000Y-68350000D01*
X203440000Y-67970000D02*
X205550000Y-67970000D01*
X202970000Y-68440000D02*
X203440000Y-67970000D01*
X202970000Y-70030000D02*
X202970000Y-68440000D01*
X202230000Y-70770000D02*
X202970000Y-70030000D01*
X197340000Y-70770000D02*
X202230000Y-70770000D01*
X196585000Y-70015000D02*
X197340000Y-70770000D01*
X194950000Y-61240000D02*
X194950000Y-60560000D01*
X194950000Y-60560000D02*
X192420000Y-58030000D01*
X192420000Y-58030000D02*
X167370000Y-58030000D01*
X143080000Y-60000000D02*
X141010000Y-57930000D01*
X143500000Y-60000000D02*
X143080000Y-60000000D01*
X194950000Y-61240000D02*
X194950000Y-67520000D01*
X194950000Y-67520000D02*
X196585000Y-69155000D01*
D29*
X260900000Y-58990000D02*
X260900000Y-59100000D01*
X260900000Y-59100000D02*
X262900000Y-61100000D01*
X262900000Y-61100000D02*
X262900000Y-82700000D01*
X262900000Y-82700000D02*
X261850000Y-83750000D01*
X261850000Y-83750000D02*
X260800000Y-83750000D01*
D30*
X189300000Y-90225000D02*
X189450000Y-90225000D01*
X189450000Y-90225000D02*
X195400000Y-84275000D01*
X202025000Y-90200000D02*
X202025000Y-89750000D01*
X202025000Y-89750000D02*
X200550000Y-88275000D01*
X195400000Y-86100000D02*
X195400000Y-84275000D01*
X197575000Y-88275000D02*
X195400000Y-86100000D01*
X200550000Y-88275000D02*
X197575000Y-88275000D01*
X202025000Y-90200000D02*
X202400000Y-90200000D01*
X202400000Y-90200000D02*
X208250000Y-84350000D01*
X215325000Y-90000000D02*
X215325000Y-89400000D01*
X208250000Y-85850000D02*
X208250000Y-84350000D01*
X210525000Y-88125000D02*
X208250000Y-85850000D01*
X214050000Y-88125000D02*
X210525000Y-88125000D01*
X215325000Y-89400000D02*
X214050000Y-88125000D01*
X221625000Y-84200000D02*
X221125000Y-84200000D01*
X221125000Y-84200000D02*
X215325000Y-90000000D01*
X228475000Y-89925000D02*
X228475000Y-89100000D01*
X225600000Y-88175000D02*
X221625000Y-84200000D01*
X227550000Y-88175000D02*
X225600000Y-88175000D01*
X228475000Y-89100000D02*
X227550000Y-88175000D01*
X228475000Y-89925000D02*
X228750000Y-89925000D01*
X228750000Y-89925000D02*
X234800000Y-83875000D01*
X241475000Y-89775000D02*
X241475000Y-88925000D01*
X234800000Y-85550000D02*
X234800000Y-83875000D01*
X237100000Y-87850000D02*
X234800000Y-85550000D01*
X240400000Y-87850000D02*
X237100000Y-87850000D01*
X241475000Y-88925000D02*
X240400000Y-87850000D01*
X241475000Y-89775000D02*
X241625000Y-89775000D01*
X241625000Y-89775000D02*
X247650000Y-83750000D01*
X247650000Y-83750000D02*
X247650000Y-86550000D01*
X252025000Y-87625000D02*
X254100000Y-89700000D01*
X248725000Y-87625000D02*
X252025000Y-87625000D01*
X247650000Y-86550000D02*
X248725000Y-87625000D01*
X260800000Y-83750000D02*
X260800000Y-85650000D01*
X256750000Y-89700000D02*
X254100000Y-89700000D01*
X260800000Y-85650000D02*
X256750000Y-89700000D01*
X167300000Y-58900000D02*
X167400000Y-58900000D01*
X189820000Y-58650000D02*
X192410000Y-61240000D01*
X167650000Y-58650000D02*
X189820000Y-58650000D01*
X167400000Y-58900000D02*
X167650000Y-58650000D01*
X135930000Y-58960000D02*
X136120000Y-59740000D01*
X136120000Y-59740000D02*
X141630000Y-59740000D01*
X141630000Y-59740000D02*
X142490000Y-60710000D01*
X142490000Y-60710000D02*
X143213452Y-60713452D01*
X135930000Y-58960000D02*
X135930000Y-57930000D01*
X161800000Y-66200000D02*
X153600000Y-66200000D01*
X153600000Y-66200000D02*
X150400000Y-62400000D01*
X150400000Y-62400000D02*
X144900000Y-62400000D01*
X144900000Y-62400000D02*
X143213452Y-60713452D01*
X167400000Y-58800000D02*
X167300000Y-58900000D01*
X167300000Y-58900000D02*
X161800000Y-66200000D01*
X203000000Y-66500000D02*
X201200000Y-66500000D01*
X200030000Y-65330000D02*
X200030000Y-61240000D01*
X201200000Y-66500000D02*
X200030000Y-65330000D01*
X260080000Y-67630000D02*
X260080000Y-67480000D01*
X260080000Y-67480000D02*
X256800000Y-64200000D01*
X256800000Y-64200000D02*
X236100000Y-64200000D01*
X236100000Y-64200000D02*
X234500000Y-65800000D01*
X234500000Y-65800000D02*
X234500000Y-71700000D01*
X234500000Y-71700000D02*
X234200000Y-72000000D01*
X234200000Y-72000000D02*
X221400000Y-72000000D01*
X221400000Y-72000000D02*
X218900000Y-74500000D01*
X218900000Y-74500000D02*
X209900000Y-74500000D01*
X209900000Y-74500000D02*
X207500000Y-72100000D01*
X207500000Y-72100000D02*
X207500000Y-67700000D01*
X207500000Y-67700000D02*
X206300000Y-66500000D01*
X206300000Y-66500000D02*
X203000000Y-66500000D01*
X203000000Y-66500000D02*
X202700000Y-66500000D01*
X214600000Y-64640000D02*
X215740000Y-64640000D01*
X218280000Y-67180000D02*
X222220000Y-67180000D01*
X215740000Y-64640000D02*
X218280000Y-67180000D01*
D29*
X214870000Y-58850000D02*
X214550000Y-58850000D01*
X214550000Y-58850000D02*
X211400000Y-62000000D01*
X218600000Y-54800000D02*
X218600000Y-55300000D01*
X218600000Y-55300000D02*
X216650000Y-57250000D01*
X208850000Y-57250000D02*
X207200000Y-55600000D01*
X216650000Y-57250000D02*
X208850000Y-57250000D01*
D30*
X218600000Y-54800000D02*
X218350000Y-54800000D01*
X225600000Y-61800000D02*
X222520000Y-61800000D01*
X222520000Y-61800000D02*
X222220000Y-62100000D01*
D29*
X218600000Y-54800000D02*
X218600000Y-54850000D01*
X218600000Y-54850000D02*
X222220000Y-58470000D01*
X222220000Y-58470000D02*
X222220000Y-62100000D01*
X214600000Y-69720000D02*
X212580000Y-69720000D01*
X212580000Y-69720000D02*
X210000000Y-72300000D01*
X218600000Y-54800000D02*
X218200000Y-54800000D01*
X184900000Y-55700000D02*
X207100000Y-55700000D01*
X207100000Y-55700000D02*
X207200000Y-55600000D01*
X155200000Y-55800000D02*
X155200000Y-58400000D01*
X155200000Y-58400000D02*
X159300000Y-62500000D01*
X159300000Y-62500000D02*
X159300000Y-62400000D01*
X159300000Y-62400000D02*
X166000000Y-55700000D01*
X166000000Y-55700000D02*
X184900000Y-55700000D01*
X248650000Y-61120000D02*
X248650000Y-61300000D01*
X248650000Y-61300000D02*
X249400000Y-62050000D01*
X249400000Y-62050000D02*
X252200000Y-62050000D01*
X254850000Y-54850000D02*
X256350000Y-54850000D01*
X257950000Y-56450000D02*
X260900000Y-56450000D01*
X256350000Y-54850000D02*
X257950000Y-56450000D01*
X242400000Y-56700000D02*
X253000000Y-56700000D01*
X253000000Y-56700000D02*
X254850000Y-54850000D01*
X242400000Y-56700000D02*
X244150000Y-58450000D01*
X244150000Y-61000000D02*
X245250000Y-61300000D01*
X244150000Y-58450000D02*
X244150000Y-61000000D01*
X248650000Y-53500000D02*
X248650000Y-54150000D01*
X248650000Y-54150000D02*
X247500000Y-55300000D01*
X247500000Y-55300000D02*
X244600000Y-55300000D01*
X244600000Y-55300000D02*
X244050000Y-54750000D01*
X244050000Y-54750000D02*
X239500000Y-54750000D01*
X239500000Y-54750000D02*
X239000000Y-55250000D01*
X239000000Y-55250000D02*
X236230000Y-55250000D01*
X236230000Y-55250000D02*
X234780000Y-56700000D01*
X234780000Y-56700000D02*
X234780000Y-57080000D01*
X234780000Y-57080000D02*
X236040000Y-58340000D01*
X236040000Y-58340000D02*
X236040000Y-61700000D01*
X231600000Y-54800000D02*
X232880000Y-54800000D01*
X232880000Y-54800000D02*
X234780000Y-56700000D01*
X245250000Y-53680000D02*
X244530000Y-53680000D01*
X244530000Y-53680000D02*
X243800000Y-53650000D01*
X243800000Y-53650000D02*
X240090000Y-53650000D01*
X240090000Y-53650000D02*
X238540000Y-52200000D01*
X236000000Y-52200000D02*
X238540000Y-52200000D01*
D30*
X225530000Y-66430000D02*
X225530000Y-66180000D01*
X225530000Y-66180000D02*
X225150000Y-65800000D01*
X225150000Y-65800000D02*
X225150000Y-64600000D01*
X225150000Y-64600000D02*
X226150000Y-63600000D01*
X226150000Y-63600000D02*
X229750000Y-63600000D01*
X229750000Y-63600000D02*
X229800000Y-63550000D01*
X229800000Y-63550000D02*
X229800000Y-57300000D01*
X229800000Y-57300000D02*
X229150000Y-56650000D01*
X229150000Y-56650000D02*
X229150000Y-53450000D01*
X229150000Y-53450000D02*
X230400000Y-52200000D01*
X230400000Y-52200000D02*
X236000000Y-52200000D01*
X222220000Y-69720000D02*
X222780000Y-69720000D01*
X222780000Y-69720000D02*
X223900000Y-68600000D01*
X217770000Y-52650000D02*
X214820000Y-55600000D01*
X220400000Y-52650000D02*
X217770000Y-52650000D01*
X226850000Y-59100000D02*
X220400000Y-52650000D01*
X226850000Y-62550000D02*
X226850000Y-59100000D01*
X226400000Y-63000000D02*
X226850000Y-62550000D01*
X224850000Y-63000000D02*
X226400000Y-63000000D01*
X223900000Y-63950000D02*
X224850000Y-63000000D01*
X223900000Y-68600000D02*
X223900000Y-63950000D01*
X226800000Y-65160000D02*
X227410000Y-65160000D01*
X227980000Y-69720000D02*
X222220000Y-69720000D01*
X228350000Y-69350000D02*
X227980000Y-69720000D01*
X228350000Y-66100000D02*
X228350000Y-69350000D01*
X227410000Y-65160000D02*
X228350000Y-66100000D01*
X210000000Y-64680000D02*
X210670000Y-64680000D01*
X210670000Y-64680000D02*
X212000000Y-63350000D01*
X220930000Y-63350000D02*
X222220000Y-64640000D01*
X212000000Y-63350000D02*
X220930000Y-63350000D01*
D29*
X207250000Y-58850000D02*
X207250000Y-59250000D01*
X207250000Y-59250000D02*
X206600000Y-59900000D01*
X206600000Y-59900000D02*
X206600000Y-63700000D01*
X206600000Y-63700000D02*
X207580000Y-64680000D01*
X207580000Y-64680000D02*
X210000000Y-64680000D01*
D30*
X241080000Y-52200000D02*
X243200000Y-52200000D01*
X243200000Y-52200000D02*
X244550000Y-50850000D01*
X233500000Y-61700000D02*
X233500000Y-62350000D01*
X233500000Y-62350000D02*
X232950000Y-62900000D01*
X232950000Y-62900000D02*
X232950000Y-68150000D01*
X232950000Y-68150000D02*
X229950000Y-71150000D01*
X229950000Y-71150000D02*
X217300000Y-71150000D01*
X217300000Y-71150000D02*
X215850000Y-69700000D01*
X215850000Y-69700000D02*
X215850000Y-68430000D01*
X215850000Y-68430000D02*
X214600000Y-67180000D01*
D29*
X160280000Y-55800000D02*
X160280000Y-54980000D01*
X160280000Y-54980000D02*
X158500000Y-53200000D01*
X158500000Y-53200000D02*
X149800000Y-53200000D01*
X149800000Y-53200000D02*
X148700000Y-54300000D01*
D30*
X146130000Y-73420000D02*
X146130000Y-73720000D01*
X146130000Y-73720000D02*
X145850000Y-74000000D01*
X145850000Y-74000000D02*
X145850000Y-82150000D01*
X145850000Y-82150000D02*
X147400000Y-83700000D01*
X144860000Y-72150000D02*
X144860000Y-72290000D01*
X144860000Y-72290000D02*
X144250000Y-72900000D01*
X144250000Y-72900000D02*
X144250000Y-76000000D01*
X144860000Y-72150000D02*
X144860000Y-72390000D01*
X118080000Y-82680000D02*
X119500000Y-83950000D01*
X118080000Y-73770000D02*
X118080000Y-82680000D01*
X116300000Y-73200000D02*
X116300000Y-76250000D01*
X116810000Y-72690000D02*
X116300000Y-73200000D01*
X116810000Y-72500000D02*
X116810000Y-72690000D01*
X116810000Y-72500000D02*
X116700000Y-72500000D01*
X180070000Y-77070000D02*
X177220000Y-77070000D01*
X169600000Y-76700000D02*
X168100000Y-75200000D01*
X176850000Y-76700000D02*
X169600000Y-76700000D01*
X177220000Y-77070000D02*
X176850000Y-76700000D01*
X178800000Y-78340000D02*
X175860000Y-78340000D01*
X175860000Y-78340000D02*
X175800000Y-78400000D01*
X175915000Y-78515000D02*
X175800000Y-78400000D01*
X213750000Y-81350000D02*
X213750000Y-84310000D01*
X213750000Y-84310000D02*
X214120000Y-84680000D01*
X215390000Y-85950000D02*
X216605000Y-85950000D01*
X216605000Y-85950000D02*
X218425000Y-84130000D01*
X218425000Y-91750000D02*
X221555000Y-91750000D01*
X221555000Y-91750000D02*
X221625000Y-91820000D01*
X214055000Y-91270000D02*
X214055000Y-91555000D01*
X214055000Y-91555000D02*
X214250000Y-91750000D01*
X214250000Y-91750000D02*
X218425000Y-91750000D01*
X212785000Y-90000000D02*
X212500000Y-90000000D01*
X212500000Y-90000000D02*
X211400000Y-91100000D01*
X175279000Y-96700000D02*
X173944000Y-98035000D01*
X194200000Y-96700000D02*
X175279000Y-96700000D01*
X196000000Y-94900000D02*
X194200000Y-96700000D01*
X209900000Y-94900000D02*
X196000000Y-94900000D01*
X211400000Y-93400000D02*
X209900000Y-94900000D01*
X211400000Y-91100000D02*
X211400000Y-93400000D01*
X212785000Y-90000000D02*
X212725000Y-90000000D01*
X180070000Y-83770000D02*
X177020000Y-83770000D01*
X169800000Y-83600000D02*
X168200000Y-82000000D01*
X176850000Y-83600000D02*
X169800000Y-83600000D01*
X177020000Y-83770000D02*
X176850000Y-83600000D01*
X178800000Y-85040000D02*
X175960000Y-85040000D01*
X175960000Y-85040000D02*
X175800000Y-85200000D01*
X175990000Y-85390000D02*
X175800000Y-85200000D01*
X153180000Y-73770000D02*
X153180000Y-74370000D01*
X152650000Y-82300000D02*
X154300000Y-83950000D01*
X152650000Y-74900000D02*
X152650000Y-82300000D01*
X153180000Y-74370000D02*
X152650000Y-74900000D01*
X153180000Y-73770000D02*
X153180000Y-74170000D01*
X151910000Y-72500000D02*
X151850000Y-72500000D01*
X151850000Y-72500000D02*
X151200000Y-73150000D01*
X151200000Y-73150000D02*
X151200000Y-76350000D01*
X151910000Y-72500000D02*
X151910000Y-72740000D01*
X180270000Y-90570000D02*
X177170000Y-90570000D01*
X169800000Y-90400000D02*
X168200000Y-88800000D01*
X177000000Y-90400000D02*
X169800000Y-90400000D01*
X177170000Y-90570000D02*
X177000000Y-90400000D01*
X179000000Y-91840000D02*
X175815000Y-92015000D01*
X175815000Y-92015000D02*
X175800000Y-92000000D01*
X227220000Y-84480000D02*
X227220000Y-81180000D01*
X227220000Y-81180000D02*
X227225000Y-81175000D01*
X231600000Y-83905000D02*
X230335000Y-83905000D01*
X230335000Y-83905000D02*
X228490000Y-85750000D01*
X138880000Y-73570000D02*
X138880000Y-74120000D01*
X138650000Y-81950000D02*
X140350000Y-83650000D01*
X138650000Y-74350000D02*
X138650000Y-81950000D01*
X138880000Y-74120000D02*
X138650000Y-74350000D01*
X137610000Y-72300000D02*
X137500000Y-72300000D01*
X137500000Y-72300000D02*
X137150000Y-72650000D01*
X137150000Y-72650000D02*
X137150000Y-76000000D01*
X137610000Y-72300000D02*
X137600000Y-72300000D01*
X160280000Y-73870000D02*
X160280000Y-74570000D01*
X159950000Y-82500000D02*
X161500000Y-84050000D01*
X159950000Y-74900000D02*
X159950000Y-82500000D01*
X160280000Y-74570000D02*
X159950000Y-74900000D01*
X160280000Y-73870000D02*
X160280000Y-74070000D01*
X158350000Y-76400000D02*
X158350000Y-73260000D01*
X158350000Y-73260000D02*
X159010000Y-72600000D01*
X159010000Y-72600000D02*
X159010000Y-72690000D01*
X187950000Y-81375000D02*
X187950000Y-84660000D01*
X187950000Y-84660000D02*
X188095000Y-84805000D01*
X189365000Y-86075000D02*
X190530000Y-86075000D01*
X190530000Y-86075000D02*
X192350000Y-84255000D01*
X231600000Y-91525000D02*
X234770000Y-91525000D01*
X234770000Y-91525000D02*
X234800000Y-91495000D01*
X227205000Y-91195000D02*
X227420000Y-91195000D01*
X227420000Y-91195000D02*
X227750000Y-91525000D01*
X227750000Y-91525000D02*
X231600000Y-91525000D01*
X225935000Y-89925000D02*
X225935000Y-92565000D01*
X197477000Y-96600000D02*
X196042000Y-98035000D01*
X216300000Y-96600000D02*
X197477000Y-96600000D01*
X217700000Y-95200000D02*
X216300000Y-96600000D01*
X223300000Y-95200000D02*
X217700000Y-95200000D01*
X225935000Y-92565000D02*
X223300000Y-95200000D01*
X131880000Y-82080000D02*
X133450000Y-83650000D01*
X131880000Y-73520000D02*
X131880000Y-82080000D01*
X130610000Y-72250000D02*
X130610000Y-72590000D01*
X130610000Y-72590000D02*
X130200000Y-73000000D01*
X130200000Y-73000000D02*
X130200000Y-76100000D01*
X130610000Y-72250000D02*
X130350000Y-72250000D01*
X130350000Y-72250000D02*
X130250000Y-72350000D01*
X180070000Y-63370000D02*
X177570000Y-63370000D01*
X177570000Y-63370000D02*
X175700000Y-61500000D01*
X178800000Y-64640000D02*
X175760000Y-64640000D01*
X175760000Y-64640000D02*
X175700000Y-64700000D01*
X178535000Y-64375000D02*
X178800000Y-64640000D01*
X192350000Y-91875000D02*
X195380000Y-91875000D01*
X195380000Y-91875000D02*
X195400000Y-91895000D01*
X188030000Y-91495000D02*
X188030000Y-91730000D01*
X188030000Y-91730000D02*
X188175000Y-91875000D01*
X188175000Y-91875000D02*
X192350000Y-91875000D01*
X186760000Y-90225000D02*
X186760000Y-90740000D01*
X131237000Y-96800000D02*
X130002000Y-98035000D01*
X146900000Y-96800000D02*
X131237000Y-96800000D01*
X148100000Y-95600000D02*
X146900000Y-96800000D01*
X171900000Y-95600000D02*
X148100000Y-95600000D01*
X173600000Y-93900000D02*
X171900000Y-95600000D01*
X183600000Y-93900000D02*
X173600000Y-93900000D01*
X186760000Y-90740000D02*
X183600000Y-93900000D01*
X239950000Y-81075000D02*
X239950000Y-84260000D01*
X239950000Y-84260000D02*
X240120000Y-84430000D01*
X244475000Y-83755000D02*
X243335000Y-83755000D01*
X243335000Y-83755000D02*
X241390000Y-85700000D01*
X200800000Y-81450000D02*
X200800000Y-84725000D01*
X200800000Y-84725000D02*
X200720000Y-84805000D01*
X205000000Y-84330000D02*
X203735000Y-84330000D01*
X203735000Y-84330000D02*
X201990000Y-86075000D01*
X124630000Y-82130000D02*
X126250000Y-83750000D01*
X124630000Y-73620000D02*
X124630000Y-82130000D01*
X123250000Y-72500000D02*
X123250000Y-76150000D01*
X123360000Y-72390000D02*
X123250000Y-72500000D01*
X123360000Y-72350000D02*
X123360000Y-72390000D01*
X123360000Y-72350000D02*
X123050000Y-72350000D01*
X240205000Y-91045000D02*
X240205000Y-91280000D01*
X240205000Y-91280000D02*
X240300000Y-91375000D01*
X240300000Y-91375000D02*
X244475000Y-91375000D01*
X244475000Y-91375000D02*
X247645000Y-91375000D01*
X247645000Y-91375000D02*
X247650000Y-91370000D01*
X238935000Y-89775000D02*
X238625000Y-89775000D01*
X238625000Y-89775000D02*
X237200000Y-91200000D01*
X237200000Y-91200000D02*
X237200000Y-94800000D01*
X237200000Y-94800000D02*
X235400000Y-96600000D01*
X235400000Y-96600000D02*
X219321000Y-96600000D01*
X219321000Y-96600000D02*
X217886000Y-98035000D01*
X180270000Y-70270000D02*
X177620000Y-70270000D01*
X169400000Y-69800000D02*
X168000000Y-68400000D01*
X177150000Y-69800000D02*
X169400000Y-69800000D01*
X177620000Y-70270000D02*
X177150000Y-69800000D01*
X179000000Y-71540000D02*
X175760000Y-71540000D01*
X175760000Y-71540000D02*
X175700000Y-71600000D01*
X178860000Y-71400000D02*
X179000000Y-71540000D01*
X205000000Y-91950000D02*
X208230000Y-91950000D01*
X208230000Y-91950000D02*
X208250000Y-91970000D01*
X200755000Y-91470000D02*
X201120000Y-91470000D01*
X201120000Y-91470000D02*
X201600000Y-91950000D01*
X201600000Y-91950000D02*
X205000000Y-91950000D01*
X195300000Y-93600000D02*
X197000000Y-93600000D01*
X195300000Y-93600000D02*
X193700000Y-95200000D01*
X193700000Y-95200000D02*
X174100000Y-95200000D01*
X174100000Y-95200000D02*
X172400000Y-96900000D01*
X172400000Y-96900000D02*
X153235000Y-96900000D01*
X152100000Y-98035000D02*
X153235000Y-96900000D01*
X199485000Y-91115000D02*
X199485000Y-90200000D01*
X197000000Y-93600000D02*
X199485000Y-91115000D01*
X199485000Y-90200000D02*
X199485000Y-90390000D01*
X252800000Y-80900000D02*
X252800000Y-84060000D01*
X252800000Y-84060000D02*
X252870000Y-84130000D01*
X257400000Y-83680000D02*
X255860000Y-83680000D01*
X255860000Y-83680000D02*
X254140000Y-85400000D01*
X257400000Y-91300000D02*
X260730000Y-91300000D01*
X260730000Y-91300000D02*
X260800000Y-91370000D01*
X252830000Y-90970000D02*
X254445000Y-90970000D01*
X254775000Y-91300000D02*
X257400000Y-91300000D01*
X254445000Y-90970000D02*
X254775000Y-91300000D01*
X251560000Y-89700000D02*
X251560000Y-95540000D01*
X242035000Y-97000000D02*
X240100000Y-97923000D01*
X250100000Y-97000000D02*
X242035000Y-97000000D01*
X251560000Y-95540000D02*
X250100000Y-97000000D01*
X251560000Y-89700000D02*
X251550000Y-89700000D01*
X130850000Y-65550000D02*
X130850000Y-66150000D01*
X130850000Y-66150000D02*
X131900000Y-67200000D01*
X131900000Y-67200000D02*
X140850000Y-67200000D01*
X140850000Y-67200000D02*
X144050000Y-70400000D01*
X144050000Y-70400000D02*
X148300000Y-70400000D01*
X148300000Y-70400000D02*
X149400000Y-71500000D01*
X149400000Y-71500000D02*
X149400000Y-74080000D01*
X149400000Y-74080000D02*
X147400000Y-76080000D01*
X141010000Y-65550000D02*
X141010000Y-63010000D01*
X120500000Y-75330000D02*
X119500000Y-76330000D01*
X120500000Y-64400000D02*
X120500000Y-75330000D01*
X124760000Y-61150000D02*
X120500000Y-64400000D01*
X138260000Y-61150000D02*
X124760000Y-61150000D01*
X141010000Y-63010000D02*
X138260000Y-61150000D01*
X175720000Y-75200000D02*
X175720000Y-74580000D01*
X175720000Y-74580000D02*
X175750000Y-74550000D01*
X175750000Y-74550000D02*
X182475000Y-74550000D01*
X182475000Y-74550000D02*
X184700000Y-76775000D01*
X184700000Y-76775000D02*
X186425000Y-76775000D01*
X244840000Y-75250000D02*
X244840000Y-76085000D01*
X223475000Y-81350000D02*
X221370000Y-81350000D01*
X227000000Y-77825000D02*
X223475000Y-81350000D01*
X243100000Y-77825000D02*
X227000000Y-77825000D01*
X244840000Y-76085000D02*
X243100000Y-77825000D01*
X202392000Y-103242000D02*
X202392000Y-103308000D01*
X202392000Y-103308000D02*
X200900603Y-104799397D01*
X156375000Y-91425000D02*
X163275000Y-91425000D01*
X166400000Y-80180000D02*
X168180000Y-78400000D01*
X166400000Y-84800000D02*
X166400000Y-80180000D01*
X165300000Y-85900000D02*
X166400000Y-84800000D01*
X165300000Y-89400000D02*
X165300000Y-85900000D01*
X163275000Y-91425000D02*
X165300000Y-89400000D01*
X150500000Y-91825000D02*
X156375000Y-91425000D01*
X168180000Y-78400000D02*
X168175000Y-78400000D01*
X150500000Y-91825000D02*
X125300000Y-91825000D01*
X125300000Y-91825000D02*
X122425000Y-94350000D01*
X122425000Y-94350000D02*
X122425000Y-100400000D01*
X122425000Y-100400000D02*
X123600000Y-101600000D01*
X123600000Y-101600000D02*
X124400000Y-102000000D01*
X124400000Y-102000000D02*
X126300000Y-102750000D01*
X126300000Y-102750000D02*
X134600000Y-102800000D01*
X134600000Y-102800000D02*
X136352000Y-103242000D01*
X158450000Y-103242000D02*
X158450000Y-103496000D01*
X158450000Y-103496000D02*
X157180000Y-104766000D01*
X180294000Y-103242000D02*
X178770000Y-104766000D01*
X224236000Y-103242000D02*
X223728000Y-103242000D01*
X223728000Y-103242000D02*
X222204000Y-104766000D01*
X136352000Y-103242000D02*
X136352000Y-103750000D01*
X136352000Y-103750000D02*
X137368000Y-104766000D01*
X137368000Y-104766000D02*
X157180000Y-104766000D01*
X157180000Y-104766000D02*
X178770000Y-104766000D01*
X178770000Y-104766000D02*
X200900603Y-104799397D01*
X200900603Y-104799397D02*
X201300000Y-104800000D01*
X201300000Y-104800000D02*
X222204000Y-104766000D01*
X222204000Y-104766000D02*
X245826000Y-104766000D01*
X245826000Y-104766000D02*
X246450000Y-103130000D01*
X188965000Y-76775000D02*
X188965000Y-77285000D01*
X188965000Y-77285000D02*
X187800000Y-78450000D01*
X187800000Y-78450000D02*
X186200000Y-78450000D01*
X186200000Y-78450000D02*
X184100000Y-80550000D01*
X184100000Y-80550000D02*
X177270000Y-80550000D01*
X177270000Y-80550000D02*
X175820000Y-82000000D01*
X143550000Y-65550000D02*
X143550000Y-66250000D01*
X143550000Y-66250000D02*
X146600000Y-69300000D01*
X156550000Y-74080000D02*
X154300000Y-76330000D01*
X156550000Y-70900000D02*
X156550000Y-74080000D01*
X154950000Y-69300000D02*
X156550000Y-70900000D01*
X146600000Y-69300000D02*
X154950000Y-69300000D01*
X143550000Y-65550000D02*
X143550000Y-66350000D01*
X175820000Y-88800000D02*
X175820000Y-88330000D01*
X175820000Y-88330000D02*
X176975000Y-87175000D01*
X176975000Y-87175000D02*
X182725000Y-87175000D01*
X182725000Y-87175000D02*
X185275000Y-84625000D01*
X185275000Y-84625000D02*
X185275000Y-81350000D01*
X185275000Y-81350000D02*
X187300000Y-79325000D01*
X187300000Y-79325000D02*
X188955000Y-79325000D01*
X188955000Y-79325000D02*
X191505000Y-76775000D01*
X247380000Y-75250000D02*
X247380000Y-76420000D01*
X237045000Y-78975000D02*
X234845000Y-81175000D01*
X244825000Y-78975000D02*
X237045000Y-78975000D01*
X247380000Y-76420000D02*
X244825000Y-78975000D01*
X234802662Y-101993712D02*
X235700000Y-102600000D01*
X222966000Y-100575000D02*
X231500000Y-100500000D01*
X231500000Y-100500000D02*
X233400000Y-101400000D01*
X233400000Y-101400000D02*
X234802662Y-101993712D01*
X244700000Y-101800000D02*
X244700000Y-100943000D01*
X243900000Y-102600000D02*
X244700000Y-101800000D01*
X235700000Y-102600000D02*
X243900000Y-102600000D01*
X244700000Y-100943000D02*
X245180000Y-100463000D01*
X155000000Y-102680000D02*
X156120000Y-102680000D01*
X157180000Y-101620000D02*
X157180000Y-100575000D01*
X156120000Y-102680000D02*
X157180000Y-101620000D01*
X157800000Y-93000000D02*
X164000000Y-93000000D01*
X166500000Y-86880000D02*
X168180000Y-85200000D01*
X166500000Y-90500000D02*
X166500000Y-86880000D01*
X164000000Y-93000000D02*
X166500000Y-90500000D01*
X157775000Y-93025000D02*
X157800000Y-93000000D01*
X152225000Y-93025000D02*
X157775000Y-93025000D01*
X168180000Y-85200000D02*
X167650000Y-85200000D01*
X152225000Y-93025000D02*
X127775000Y-93025000D01*
X127775000Y-93025000D02*
X125150000Y-95650000D01*
X125150000Y-95650000D02*
X125150000Y-99050000D01*
X125150000Y-99050000D02*
X127525000Y-100825000D01*
X127525000Y-100825000D02*
X133432000Y-100825000D01*
X133432000Y-100825000D02*
X135082000Y-100575000D01*
X201122000Y-100575000D02*
X209885000Y-100575000D01*
X221800000Y-102700000D02*
X222966000Y-100575000D01*
X213314000Y-102734000D02*
X221800000Y-102700000D01*
X211200000Y-101400000D02*
X213314000Y-102734000D01*
X210900000Y-101200000D02*
X211200000Y-101400000D01*
X209885000Y-100575000D02*
X210900000Y-101200000D01*
X179024000Y-100575000D02*
X188041000Y-100575000D01*
X199900000Y-102700000D02*
X201122000Y-100575000D01*
X191470000Y-102734000D02*
X199900000Y-102700000D01*
X190500000Y-102050000D02*
X191470000Y-102734000D01*
X189150000Y-101450000D02*
X190500000Y-102050000D01*
X188041000Y-100575000D02*
X189150000Y-101450000D01*
X135082000Y-100575000D02*
X144099000Y-100575000D01*
X147728000Y-102680000D02*
X155000000Y-102680000D01*
X155000000Y-102680000D02*
X155094000Y-102680000D01*
X146641000Y-101818000D02*
X147728000Y-102680000D01*
X145117000Y-101818000D02*
X146641000Y-101818000D01*
X144099000Y-100575000D02*
X145117000Y-101818000D01*
X156799000Y-100575000D02*
X157180000Y-100575000D01*
X157180000Y-100575000D02*
X157307000Y-100702000D01*
X157307000Y-100702000D02*
X166070000Y-100702000D01*
X166070000Y-100702000D02*
X167075000Y-101475000D01*
X167075000Y-101475000D02*
X168250000Y-101975000D01*
X168250000Y-101975000D02*
X169718000Y-102880000D01*
X169718000Y-102880000D02*
X177719000Y-102880000D01*
X177719000Y-102880000D02*
X179024000Y-100575000D01*
X151200000Y-83970000D02*
X151400000Y-83500000D01*
X151400000Y-83500000D02*
X149300000Y-86050000D01*
X151000000Y-84270000D02*
X151090000Y-84270000D01*
X149300000Y-86050000D02*
X121960000Y-86170000D01*
X121960000Y-86170000D02*
X116290000Y-90340000D01*
X116290000Y-90340000D02*
X116290000Y-106030000D01*
X116290000Y-106030000D02*
X122190000Y-111930000D01*
X122190000Y-111930000D02*
X126975000Y-111930000D01*
X126975000Y-111930000D02*
X128180000Y-110725000D01*
X168180000Y-92000000D02*
X168180000Y-92445000D01*
X168180000Y-92445000D02*
X166300000Y-94200000D01*
X166300000Y-94200000D02*
X130325000Y-94275000D01*
X130325000Y-94275000D02*
X128375000Y-96225000D01*
X128375000Y-96225000D02*
X128375000Y-98875000D01*
X128375000Y-98875000D02*
X129225000Y-99725000D01*
X129225000Y-99725000D02*
X131242000Y-99725000D01*
X131242000Y-99725000D02*
X132980000Y-98787000D01*
X220864000Y-98787000D02*
X234800000Y-98700000D01*
X242317000Y-100448000D02*
X243078000Y-98675000D01*
X237200000Y-100400000D02*
X242317000Y-100448000D01*
X234800000Y-98700000D02*
X237200000Y-100400000D01*
X199020000Y-98787000D02*
X212923000Y-98787000D01*
X219203000Y-100448000D02*
X220864000Y-98787000D01*
X214584000Y-100448000D02*
X219203000Y-100448000D01*
X212923000Y-98787000D02*
X214584000Y-100448000D01*
X176922000Y-98787000D02*
X191079000Y-98787000D01*
X197105000Y-100702000D02*
X199020000Y-98787000D01*
X192994000Y-100702000D02*
X197105000Y-100702000D01*
X191079000Y-98787000D02*
X192994000Y-100702000D01*
X155078000Y-98787000D02*
X168981000Y-98787000D01*
X175007000Y-100702000D02*
X176922000Y-98787000D01*
X170896000Y-100702000D02*
X175007000Y-100702000D01*
X168981000Y-98787000D02*
X170896000Y-100702000D01*
X132980000Y-98787000D02*
X147137000Y-98787000D01*
X153417000Y-100448000D02*
X155078000Y-98787000D01*
X148798000Y-100448000D02*
X153417000Y-100448000D01*
X147137000Y-98787000D02*
X148798000Y-100448000D01*
X133390000Y-65550000D02*
X133390000Y-63690000D01*
X141600000Y-74780000D02*
X140350000Y-76030000D01*
X141600000Y-71050000D02*
X141600000Y-74780000D01*
X138400000Y-68100000D02*
X141600000Y-71050000D01*
X125000000Y-68100000D02*
X138400000Y-68100000D01*
X124650000Y-67500000D02*
X125000000Y-68100000D01*
X124650000Y-64650000D02*
X124650000Y-67500000D01*
X126300000Y-63000000D02*
X124650000Y-64650000D01*
X132700000Y-63000000D02*
X126300000Y-63000000D01*
X133390000Y-63690000D02*
X132700000Y-63000000D01*
X146090000Y-65550000D02*
X146090000Y-65840000D01*
X146090000Y-65840000D02*
X148200000Y-68350000D01*
X148200000Y-68350000D02*
X160700000Y-68350000D01*
X160700000Y-68350000D02*
X162650000Y-69900000D01*
X162650000Y-69900000D02*
X162650000Y-75280000D01*
X162650000Y-75280000D02*
X161500000Y-76430000D01*
X238825000Y-75825000D02*
X223450000Y-75825000D01*
X223450000Y-75825000D02*
X220950000Y-78325000D01*
X220950000Y-78325000D02*
X209625000Y-78325000D01*
X209625000Y-78325000D02*
X208950000Y-79000000D01*
X208950000Y-79000000D02*
X197945000Y-79000000D01*
X197945000Y-79000000D02*
X195570000Y-81375000D01*
X242560000Y-72090000D02*
X238825000Y-75825000D01*
X242560000Y-70520000D02*
X242560000Y-72090000D01*
X243080000Y-70000000D02*
X242560000Y-70520000D01*
X244490000Y-70000000D02*
X243080000Y-70000000D01*
X244720000Y-69770000D02*
X244490000Y-70000000D01*
X244840000Y-67630000D02*
X244570000Y-67630000D01*
X158350000Y-84020000D02*
X158200000Y-84800000D01*
X130168000Y-109300000D02*
X131623000Y-110755000D01*
X127550000Y-109300000D02*
X130168000Y-109300000D01*
X126260000Y-110590000D02*
X127550000Y-109300000D01*
X122527334Y-110523289D02*
X126260000Y-110590000D01*
X117481518Y-105507942D02*
X122527334Y-110523289D01*
X117590000Y-91220000D02*
X117481518Y-105507942D01*
X122250000Y-87460000D02*
X117590000Y-91220000D01*
X154000000Y-87460000D02*
X122250000Y-87460000D01*
X156390000Y-86610000D02*
X154000000Y-87460000D01*
X158200000Y-84800000D02*
X156390000Y-86610000D01*
X153721000Y-110755000D02*
X153721000Y-112379000D01*
X153721000Y-112379000D02*
X153200000Y-112900000D01*
X175565000Y-110755000D02*
X175565000Y-111635000D01*
X175565000Y-111635000D02*
X174300000Y-112900000D01*
X197663000Y-110755000D02*
X197663000Y-111437000D01*
X197663000Y-111437000D02*
X196200000Y-112900000D01*
X219507000Y-110755000D02*
X219507000Y-110993000D01*
X219507000Y-110993000D02*
X217600000Y-112900000D01*
X131623000Y-110755000D02*
X131623000Y-111923000D01*
X240476000Y-112900000D02*
X241721000Y-110643000D01*
X132600000Y-112900000D02*
X153200000Y-112900000D01*
X153200000Y-112900000D02*
X174300000Y-112900000D01*
X174300000Y-112900000D02*
X196200000Y-112900000D01*
X196200000Y-112900000D02*
X217600000Y-112900000D01*
X217600000Y-112900000D02*
X240476000Y-112900000D01*
X131623000Y-111923000D02*
X132600000Y-112900000D01*
X135930000Y-65550000D02*
X135930000Y-62780000D01*
X135050000Y-74430000D02*
X133450000Y-76030000D01*
X135050000Y-70350000D02*
X135050000Y-74430000D01*
X133450000Y-68750000D02*
X135050000Y-70350000D01*
X123650000Y-68750000D02*
X133450000Y-68750000D01*
X123100000Y-68200000D02*
X123650000Y-68750000D01*
X123100000Y-64800000D02*
X123100000Y-68200000D01*
X125750000Y-62410000D02*
X123100000Y-64800000D01*
X135300000Y-62410000D02*
X125750000Y-62410000D01*
X135930000Y-62780000D02*
X135300000Y-62410000D01*
X143470000Y-63980000D02*
X142960000Y-63980000D01*
X141850000Y-61500000D02*
X140940000Y-60450000D01*
X141850000Y-62870000D02*
X141850000Y-61500000D01*
X142960000Y-63980000D02*
X141850000Y-62870000D01*
X140970000Y-60450000D02*
X140940000Y-60450000D01*
X140940000Y-60450000D02*
X134610000Y-60450000D01*
X133390000Y-57930000D02*
X133390000Y-58040000D01*
X133390000Y-58040000D02*
X134610000Y-60450000D01*
X134610000Y-60450000D02*
X134620000Y-60460000D01*
X163080000Y-67400000D02*
X168080000Y-61500000D01*
X152600000Y-67400000D02*
X163080000Y-67400000D01*
X149360000Y-63980000D02*
X152600000Y-67400000D01*
X143460000Y-63980000D02*
X143470000Y-63980000D01*
X143470000Y-63980000D02*
X143500000Y-63980000D01*
X143500000Y-63980000D02*
X149360000Y-63980000D01*
X133390000Y-57930000D02*
X133390000Y-58540000D01*
X249920000Y-75250000D02*
X249920000Y-78725000D01*
X249920000Y-78725000D02*
X247570000Y-81075000D01*
X134400000Y-107200000D02*
X134400000Y-109308000D01*
X134400000Y-109308000D02*
X134350000Y-109358000D01*
X124825000Y-107625000D02*
X124825000Y-107575000D01*
X134000000Y-106800000D02*
X134400000Y-107200000D01*
X125600000Y-106800000D02*
X134000000Y-106800000D01*
X124825000Y-107575000D02*
X125600000Y-106800000D01*
X154800000Y-88725000D02*
X160500000Y-87600000D01*
X166300000Y-66480000D02*
X168080000Y-64700000D01*
X166300000Y-69400000D02*
X166300000Y-66480000D01*
X164500000Y-71200000D02*
X166300000Y-69400000D01*
X164500000Y-77500000D02*
X164500000Y-71200000D01*
X163600000Y-78400000D02*
X164500000Y-77500000D01*
X163600000Y-83800000D02*
X163600000Y-78400000D01*
X163450000Y-84450000D02*
X163600000Y-83800000D01*
X162250000Y-86650000D02*
X163450000Y-84450000D01*
X160500000Y-87600000D02*
X162250000Y-86650000D01*
X124175000Y-108275000D02*
X124825000Y-107625000D01*
X124825000Y-107625000D02*
X124900000Y-107550000D01*
X121925000Y-108275000D02*
X124175000Y-108275000D01*
X119250000Y-105600000D02*
X121925000Y-108275000D01*
X119250000Y-92250000D02*
X119250000Y-105600000D01*
X124075000Y-88725000D02*
X119250000Y-92250000D01*
X154800000Y-88725000D02*
X124075000Y-88725000D01*
X222234000Y-109358000D02*
X222234000Y-109834000D01*
X222234000Y-109834000D02*
X223500000Y-111100000D01*
X238500000Y-108800000D02*
X243990000Y-108788000D01*
X235300000Y-111100000D02*
X238500000Y-108800000D01*
X223500000Y-111100000D02*
X235300000Y-111100000D01*
X243990000Y-108788000D02*
X244448000Y-109246000D01*
X200390000Y-109358000D02*
X200758000Y-109358000D01*
X200758000Y-109358000D02*
X202500000Y-111100000D01*
X215600000Y-109000000D02*
X221876000Y-109000000D01*
X213500000Y-111100000D02*
X215600000Y-109000000D01*
X202500000Y-111100000D02*
X213500000Y-111100000D01*
X221876000Y-109000000D02*
X222234000Y-109358000D01*
X178292000Y-109358000D02*
X178292000Y-109992000D01*
X178292000Y-109992000D02*
X179400000Y-111100000D01*
X193700000Y-109100000D02*
X200132000Y-109100000D01*
X191700000Y-111100000D02*
X193700000Y-109100000D01*
X179400000Y-111100000D02*
X191700000Y-111100000D01*
X200132000Y-109100000D02*
X200390000Y-109358000D01*
X156448000Y-109358000D02*
X156448000Y-109648000D01*
X156448000Y-109648000D02*
X158000000Y-111200000D01*
X171600000Y-109100000D02*
X178034000Y-109100000D01*
X169500000Y-111200000D02*
X171600000Y-109100000D01*
X158000000Y-111200000D02*
X169500000Y-111200000D01*
X178034000Y-109100000D02*
X178292000Y-109358000D01*
X134350000Y-109358000D02*
X134350000Y-109650000D01*
X134350000Y-109650000D02*
X135800000Y-111100000D01*
X135800000Y-111100000D02*
X147700000Y-111100000D01*
X147700000Y-111100000D02*
X149800000Y-109000000D01*
X149800000Y-109000000D02*
X156090000Y-109000000D01*
X156090000Y-109000000D02*
X156448000Y-109358000D01*
X242300000Y-75250000D02*
X241650000Y-75250000D01*
X241650000Y-75250000D02*
X239975000Y-76925000D01*
X239975000Y-76925000D02*
X224050000Y-76925000D01*
X224050000Y-76925000D02*
X221750000Y-79225000D01*
X221750000Y-79225000D02*
X210645000Y-79225000D01*
X210645000Y-79225000D02*
X208420000Y-81450000D01*
X138470000Y-65550000D02*
X138470000Y-62570000D01*
X128150000Y-74230000D02*
X126250000Y-76130000D01*
X128150000Y-71200000D02*
X128150000Y-74230000D01*
X126750000Y-69800000D02*
X128150000Y-71200000D01*
X123400000Y-69800000D02*
X126750000Y-69800000D01*
X121750000Y-68150000D02*
X123400000Y-69800000D01*
X121750000Y-64550000D02*
X121750000Y-68150000D01*
X125070000Y-61780000D02*
X121750000Y-64550000D01*
X136970000Y-61780000D02*
X125070000Y-61780000D01*
X138470000Y-62570000D02*
X136970000Y-61780000D01*
X188965000Y-69155000D02*
X188965000Y-71205000D01*
X176820000Y-67200000D02*
X175620000Y-68400000D01*
X180270000Y-67200000D02*
X176820000Y-67200000D01*
X181470000Y-68400000D02*
X180270000Y-67200000D01*
X181470000Y-72360000D02*
X181470000Y-68400000D01*
X182480000Y-73370000D02*
X181470000Y-72360000D01*
X186800000Y-73370000D02*
X182480000Y-73370000D01*
X188965000Y-71205000D02*
X186800000Y-73370000D01*
X188965000Y-69155000D02*
X188965000Y-69460000D01*
X188965000Y-69155000D02*
X188570000Y-69155000D01*
X252460000Y-75250000D02*
X252460000Y-75410000D01*
X252460000Y-75410000D02*
X257950000Y-80900000D01*
X257950000Y-80900000D02*
X260420000Y-80900000D01*
X155600000Y-90250000D02*
X162100000Y-89400000D01*
X166200000Y-73480000D02*
X168080000Y-71600000D01*
X166200000Y-77900000D02*
X166200000Y-73480000D01*
X164900000Y-79200000D02*
X166200000Y-77900000D01*
X164900000Y-84700000D02*
X164900000Y-79200000D01*
X164050000Y-86700000D02*
X164900000Y-84700000D01*
X163200000Y-87950000D02*
X164050000Y-86700000D01*
X162100000Y-89400000D02*
X163200000Y-87950000D01*
X148950000Y-90475000D02*
X155600000Y-90250000D01*
X134381000Y-104725000D02*
X136122000Y-106666000D01*
X122200000Y-104725000D02*
X134381000Y-104725000D01*
X121000000Y-103725000D02*
X122200000Y-104725000D01*
X121000000Y-93375000D02*
X121000000Y-103725000D01*
X124500000Y-90475000D02*
X121000000Y-93375000D01*
X148950000Y-90475000D02*
X124500000Y-90475000D01*
X224106000Y-106866000D02*
X224266000Y-106666000D01*
X224266000Y-106666000D02*
X225800000Y-108200000D01*
X236400000Y-106700000D02*
X246020000Y-106654000D01*
X235200000Y-107300000D02*
X236400000Y-106700000D01*
X234200000Y-108000000D02*
X235200000Y-107300000D01*
X232600000Y-108200000D02*
X234200000Y-108000000D01*
X225800000Y-108200000D02*
X232600000Y-108200000D01*
X202162000Y-106866000D02*
X202162000Y-106962000D01*
X202162000Y-106962000D02*
X203800000Y-108400000D01*
X214134000Y-106866000D02*
X224106000Y-106866000D01*
X213100000Y-107500000D02*
X214134000Y-106866000D01*
X212525000Y-107950000D02*
X213100000Y-107500000D01*
X211450000Y-108475000D02*
X212525000Y-107950000D01*
X203800000Y-108400000D02*
X211450000Y-108475000D01*
X180064000Y-106866000D02*
X180064000Y-106964000D01*
X180064000Y-106964000D02*
X181400000Y-108300000D01*
X192034000Y-106866000D02*
X202162000Y-106866000D01*
X191125000Y-107575000D02*
X192034000Y-106866000D01*
X190550000Y-107975000D02*
X191125000Y-107575000D01*
X189900000Y-108300000D02*
X190550000Y-107975000D01*
X181400000Y-108300000D02*
X189900000Y-108300000D01*
X158020000Y-106866000D02*
X158572000Y-106666000D01*
X158572000Y-106666000D02*
X160228000Y-108322000D01*
X169758000Y-106866000D02*
X180064000Y-106866000D01*
X168610000Y-107814000D02*
X169758000Y-106866000D01*
X168425000Y-107950000D02*
X168610000Y-107814000D01*
X167848000Y-108322000D02*
X168425000Y-107950000D01*
X160228000Y-108322000D02*
X167848000Y-108322000D01*
X136122000Y-106666000D02*
X136122000Y-107076000D01*
X136122000Y-107076000D02*
X137368000Y-108322000D01*
X137368000Y-108322000D02*
X146004000Y-108322000D01*
X146004000Y-108322000D02*
X146550000Y-107950000D01*
X146550000Y-107950000D02*
X147050000Y-107700000D01*
X147050000Y-107700000D02*
X148222000Y-106866000D01*
X148222000Y-106866000D02*
X158020000Y-106866000D01*
X166700000Y-56650000D02*
X166650000Y-56650000D01*
X148630000Y-59130000D02*
X148630000Y-57930000D01*
X150000000Y-60500000D02*
X148630000Y-59130000D01*
X151700000Y-60500000D02*
X150000000Y-60500000D01*
X154461090Y-64061090D02*
X151700000Y-60500000D01*
X160638910Y-64061090D02*
X154461090Y-64061090D01*
X166650000Y-56650000D02*
X160638910Y-64061090D01*
X191505000Y-69155000D02*
X191505000Y-66575000D01*
X201505000Y-63795000D02*
X204355000Y-63875000D01*
X201400000Y-63900000D02*
X201505000Y-63795000D01*
X191505000Y-66575000D02*
X194040000Y-64040000D01*
X202200000Y-56650000D02*
X166700000Y-56650000D01*
X204790000Y-59240000D02*
X202200000Y-56650000D01*
X204790000Y-63440000D02*
X204790000Y-59240000D01*
X204355000Y-63875000D02*
X204790000Y-63440000D01*
X241510000Y-71410000D02*
X241510000Y-71530000D01*
X237940000Y-75100000D02*
X236480000Y-75100000D01*
X204205000Y-71775000D02*
X204205000Y-69155000D01*
X223010000Y-75050000D02*
X236480000Y-75100000D01*
X220410000Y-77650000D02*
X223010000Y-75050000D01*
X210080000Y-77650000D02*
X220410000Y-77650000D01*
X204205000Y-71775000D02*
X210080000Y-77650000D01*
X241510000Y-71530000D02*
X237940000Y-75100000D01*
X246090000Y-68920000D02*
X247380000Y-67630000D01*
X242520000Y-68920000D02*
X246090000Y-68920000D01*
X241510000Y-69930000D02*
X242520000Y-68920000D01*
X241510000Y-71460000D02*
X241510000Y-71410000D01*
X241510000Y-71410000D02*
X241510000Y-69930000D01*
M02*
