M48
;DRILL file {KiCad 4.0.7} date 12/29/19 05:16:10
;FORMAT={-:-/ absolute / metric / decimal}
FMAT,2
METRIC,TZ
T1C0.400
T2C0.600
T3C0.800
T4C0.900
T5C1.000
T6C1.100
T7C1.200
T8C3.048
%
G90
G05
M71
T1
X70.2Y-49.
X70.3Y-51.7
X70.4Y-41.8
X79.44Y-51.62
X79.55Y-48.96
X105.93Y-51.76
X106.1Y-42.69
X106.15Y-49.19
X115.4Y-51.64
X115.57Y-49.05
X142.17Y-43.29
X142.19Y-51.68
X142.45Y-49.13
X151.52Y-48.98
X151.6Y-51.53
X178.04Y-51.72
X178.18Y-49.16
X178.29Y-42.54
X187.35Y-51.56
X187.51Y-49.1
X213.89Y-51.68
X213.93Y-49.05
X214.Y-42.37
X223.41Y-49.09
X223.64Y-51.61
X249.97Y-51.76
X250.07Y-49.07
X250.18Y-42.48
X259.3Y-51.57
X259.57Y-49.05
X272.2Y-56.
T2
X37.755Y-65.93
X39.025Y-64.66
X39.025Y-67.2
X60.9Y-64.4
X60.9Y-66.94
X61.Y-58.9
X61.Y-61.44
X62.17Y-65.67
X62.27Y-60.17
X65.6Y-58.7
X65.6Y-61.24
X65.6Y-64.3
X65.6Y-66.84
X66.87Y-59.97
X66.87Y-65.57
X67.2Y-81.4
X67.2Y-83.94
X68.47Y-82.67
X71.8Y-81.4
X71.8Y-83.94
X73.07Y-82.67
X76.2Y-81.6
X76.2Y-84.14
X77.47Y-82.87
X80.6Y-81.6
X80.6Y-84.14
X81.87Y-82.87
X82.3Y-64.7
X82.3Y-67.24
X82.5Y-59.
X82.5Y-61.54
X83.57Y-65.97
X83.77Y-60.27
X86.9Y-64.6
X86.9Y-67.14
X87.3Y-59.
X87.3Y-61.54
X88.17Y-65.87
X88.57Y-60.27
X96.9Y-64.4
X96.9Y-66.94
X97.Y-58.9
X97.Y-61.44
X98.17Y-65.67
X98.27Y-60.17
X101.6Y-58.7
X101.6Y-61.24
X101.6Y-64.3
X101.6Y-66.84
X102.87Y-59.97
X102.87Y-65.57
X103.2Y-81.4
X103.2Y-83.94
X104.47Y-82.67
X107.8Y-81.4
X107.8Y-83.94
X109.07Y-82.67
X112.2Y-81.6
X112.2Y-84.14
X113.47Y-82.87
X116.6Y-81.6
X116.6Y-84.14
X117.87Y-82.87
X118.3Y-64.7
X118.3Y-67.24
X118.5Y-59.
X118.5Y-61.54
X119.57Y-65.97
X119.77Y-60.27
X122.9Y-64.6
X122.9Y-67.14
X123.3Y-59.
X123.3Y-61.54
X124.17Y-65.87
X124.57Y-60.27
X132.9Y-64.4
X132.9Y-66.94
X133.Y-58.9
X133.Y-61.44
X134.17Y-65.67
X134.27Y-60.17
X137.6Y-58.7
X137.6Y-61.24
X137.6Y-64.3
X137.6Y-66.84
X138.87Y-59.97
X138.87Y-65.57
X139.2Y-81.4
X139.2Y-83.94
X140.47Y-82.67
X143.8Y-81.4
X143.8Y-83.94
X145.07Y-82.67
X148.2Y-81.6
X148.2Y-84.14
X149.47Y-82.87
X152.6Y-81.6
X152.6Y-84.14
X153.87Y-82.87
X154.3Y-64.7
X154.3Y-67.24
X154.5Y-59.
X154.5Y-61.54
X155.57Y-65.97
X155.77Y-60.27
X158.9Y-64.6
X158.9Y-67.14
X159.3Y-59.
X159.3Y-61.54
X160.17Y-65.87
X160.57Y-60.27
X168.9Y-64.4
X168.9Y-66.94
X169.Y-58.9
X169.Y-61.44
X170.17Y-65.67
X170.27Y-60.17
X173.6Y-58.7
X173.6Y-61.24
X173.6Y-64.3
X173.6Y-66.84
X174.87Y-59.97
X174.87Y-65.57
X175.2Y-81.4
X175.2Y-83.94
X176.47Y-82.67
X179.8Y-81.4
X179.8Y-83.94
X181.07Y-82.67
X184.2Y-81.6
X184.2Y-84.14
X185.47Y-82.87
X188.6Y-81.6
X188.6Y-84.14
X189.87Y-82.87
X190.3Y-64.7
X190.3Y-67.24
X190.5Y-59.
X190.5Y-61.54
X191.57Y-65.97
X191.77Y-60.27
X194.9Y-64.6
X194.9Y-67.14
X195.3Y-59.
X195.3Y-61.54
X196.17Y-65.87
X196.57Y-60.27
X204.9Y-64.4
X204.9Y-66.94
X205.Y-58.9
X205.Y-61.44
X206.17Y-65.67
X206.27Y-60.17
X209.6Y-58.7
X209.6Y-61.24
X209.6Y-64.3
X209.6Y-66.84
X210.87Y-59.97
X210.87Y-65.57
X211.2Y-81.4
X211.2Y-83.94
X212.47Y-82.67
X215.8Y-81.4
X215.8Y-83.94
X217.07Y-82.67
X220.2Y-81.6
X220.2Y-84.14
X221.47Y-82.87
X224.6Y-81.6
X224.6Y-84.14
X225.87Y-82.87
X226.3Y-64.7
X226.3Y-67.24
X226.5Y-59.
X226.5Y-61.54
X227.57Y-65.97
X227.77Y-60.27
X230.9Y-64.6
X230.9Y-67.14
X231.3Y-59.
X231.3Y-61.54
X232.17Y-65.87
X232.57Y-60.27
X240.9Y-64.4
X240.9Y-66.94
X241.Y-58.9
X241.Y-61.44
X242.17Y-65.67
X242.27Y-60.17
X245.6Y-58.7
X245.6Y-61.24
X245.6Y-64.3
X245.6Y-66.84
X246.87Y-59.97
X246.87Y-65.57
X247.2Y-81.4
X247.2Y-83.94
X248.47Y-82.67
X251.8Y-81.4
X251.8Y-83.94
X253.07Y-82.67
X256.2Y-81.6
X256.2Y-84.14
X257.47Y-82.87
X260.6Y-81.6
X260.6Y-84.14
X261.87Y-82.87
X262.3Y-64.7
X262.3Y-67.24
X262.5Y-59.
X262.5Y-61.54
X263.57Y-65.97
X263.77Y-60.27
X266.9Y-64.6
X266.9Y-67.14
X267.3Y-59.
X267.3Y-61.54
X268.17Y-65.87
X268.57Y-60.27
T3
X34.8Y-59.98
X34.8Y-67.6
X35.21Y-46.6
X35.21Y-49.902
X35.9Y-71.3
X35.9Y-73.84
X35.9Y-76.38
X37.99Y-53.61
X37.99Y-61.23
X38.258Y-79.874
X38.258Y-87.494
X40.53Y-53.61
X40.53Y-61.23
X41.56Y-79.874
X41.56Y-87.494
X41.854Y-90.288
X42.4Y-64.025
X42.83Y-46.6
X42.83Y-49.902
X43.07Y-53.61
X43.07Y-61.23
X44.354Y-90.288
X44.862Y-79.874
X44.862Y-87.494
X44.9Y-64.025
X45.37Y-47.362
X45.37Y-49.862
X45.61Y-53.61
X45.61Y-61.23
X50.4Y-56.4
X53.9Y-56.4
X55.5Y-65.
X55.5Y-67.5
X58.15Y-86.
X58.15Y-89.5
X58.7Y-47.18
X58.7Y-54.8
X58.9Y-37.08
X58.9Y-44.7
X61.7Y-37.08
X61.7Y-44.7
X61.9Y-47.18
X61.9Y-54.8
X62.4Y-70.38
X62.4Y-78.
X65.2Y-70.38
X65.2Y-78.
X65.4Y-37.7
X65.4Y-40.24
X65.4Y-42.78
X65.4Y-45.32
X65.4Y-47.86
X65.4Y-50.4
X65.4Y-52.94
X65.4Y-55.48
X68.Y-70.38
X68.Y-78.
X70.Y-59.78
X70.Y-67.4
X70.25Y-87.13
X70.25Y-94.75
X70.8Y-70.38
X70.8Y-78.
X72.88Y-33.7
X73.Y-59.78
X73.Y-67.4
X73.Y-87.13
X73.Y-94.75
X73.02Y-37.7
X73.02Y-40.24
X73.02Y-42.78
X73.02Y-45.32
X73.02Y-47.86
X73.02Y-50.4
X73.02Y-52.94
X73.02Y-55.48
X75.38Y-33.7
X75.75Y-87.13
X75.75Y-94.75
X75.8Y-59.78
X75.8Y-67.4
X76.7Y-37.6
X76.7Y-40.14
X76.7Y-42.68
X76.7Y-45.22
X76.7Y-47.76
X76.7Y-50.3
X76.7Y-52.84
X76.7Y-55.38
X78.5Y-87.13
X78.5Y-94.75
X78.7Y-70.38
X78.7Y-78.
X78.8Y-59.78
X78.8Y-67.4
X81.7Y-70.38
X81.7Y-78.
X84.01Y-33.81
X84.32Y-37.6
X84.32Y-40.14
X84.32Y-42.68
X84.32Y-45.22
X84.32Y-47.76
X84.32Y-50.3
X84.32Y-52.84
X84.32Y-55.38
X84.7Y-70.38
X84.7Y-78.
X86.51Y-33.81
X87.1Y-36.88
X87.1Y-44.5
X87.1Y-46.68
X87.1Y-54.3
X87.7Y-70.38
X87.7Y-78.
X90.1Y-36.88
X90.1Y-44.5
X90.2Y-46.68
X90.2Y-54.3
X94.7Y-47.18
X94.7Y-54.8
X94.9Y-37.08
X94.9Y-44.7
X97.7Y-37.08
X97.7Y-44.7
X97.9Y-47.18
X97.9Y-54.8
X98.4Y-70.38
X98.4Y-78.
X101.2Y-70.38
X101.2Y-78.
X101.4Y-37.7
X101.4Y-40.24
X101.4Y-42.78
X101.4Y-45.32
X101.4Y-47.86
X101.4Y-50.4
X101.4Y-52.94
X101.4Y-55.48
X104.Y-70.38
X104.Y-78.
X106.Y-59.78
X106.Y-67.4
X106.25Y-87.13
X106.25Y-94.75
X106.8Y-70.38
X106.8Y-78.
X108.89Y-33.71
X109.Y-59.78
X109.Y-67.4
X109.Y-87.13
X109.Y-94.75
X109.02Y-37.7
X109.02Y-40.24
X109.02Y-42.78
X109.02Y-45.32
X109.02Y-47.86
X109.02Y-50.4
X109.02Y-52.94
X109.02Y-55.48
X111.39Y-33.71
X111.75Y-87.13
X111.75Y-94.75
X111.8Y-59.78
X111.8Y-67.4
X112.7Y-37.6
X112.7Y-40.14
X112.7Y-42.68
X112.7Y-45.22
X112.7Y-47.76
X112.7Y-50.3
X112.7Y-52.84
X112.7Y-55.38
X114.5Y-87.13
X114.5Y-94.75
X114.7Y-70.38
X114.7Y-78.
X114.8Y-59.78
X114.8Y-67.4
X117.7Y-70.38
X117.7Y-78.
X120.01Y-33.82
X120.32Y-37.6
X120.32Y-40.14
X120.32Y-42.68
X120.32Y-45.22
X120.32Y-47.76
X120.32Y-50.3
X120.32Y-52.84
X120.32Y-55.38
X120.7Y-70.38
X120.7Y-78.
X122.51Y-33.82
X123.1Y-36.88
X123.1Y-44.5
X123.1Y-46.68
X123.1Y-54.3
X123.7Y-70.38
X123.7Y-78.
X126.1Y-36.88
X126.1Y-44.5
X126.2Y-46.68
X126.2Y-54.3
X130.7Y-47.18
X130.7Y-54.8
X130.9Y-37.08
X130.9Y-44.7
X133.7Y-37.08
X133.7Y-44.7
X133.9Y-47.18
X133.9Y-54.8
X134.4Y-70.38
X134.4Y-78.
X137.2Y-70.38
X137.2Y-78.
X137.4Y-37.7
X137.4Y-40.24
X137.4Y-42.78
X137.4Y-45.32
X137.4Y-47.86
X137.4Y-50.4
X137.4Y-52.94
X137.4Y-55.48
X140.Y-70.38
X140.Y-78.
X142.Y-59.78
X142.Y-67.4
X142.25Y-87.13
X142.25Y-94.75
X142.8Y-70.38
X142.8Y-78.
X144.88Y-33.71
X145.Y-59.78
X145.Y-67.4
X145.Y-87.13
X145.Y-94.75
X145.02Y-37.7
X145.02Y-40.24
X145.02Y-42.78
X145.02Y-45.32
X145.02Y-47.86
X145.02Y-50.4
X145.02Y-52.94
X145.02Y-55.48
X147.38Y-33.71
X147.75Y-87.13
X147.75Y-94.75
X147.8Y-59.78
X147.8Y-67.4
X148.7Y-37.6
X148.7Y-40.14
X148.7Y-42.68
X148.7Y-45.22
X148.7Y-47.76
X148.7Y-50.3
X148.7Y-52.84
X148.7Y-55.38
X150.5Y-87.13
X150.5Y-94.75
X150.7Y-59.78
X150.7Y-67.4
X150.7Y-70.38
X150.7Y-78.
X153.7Y-70.38
X153.7Y-78.
X156.Y-33.82
X156.32Y-37.6
X156.32Y-40.14
X156.32Y-42.68
X156.32Y-45.22
X156.32Y-47.76
X156.32Y-50.3
X156.32Y-52.84
X156.32Y-55.38
X156.7Y-70.38
X156.7Y-78.
X158.5Y-33.82
X159.1Y-36.88
X159.1Y-44.5
X159.1Y-46.68
X159.1Y-54.3
X159.7Y-70.38
X159.7Y-78.
X162.1Y-36.88
X162.1Y-44.5
X162.2Y-46.68
X162.2Y-54.3
X166.7Y-47.18
X166.7Y-54.8
X166.9Y-37.08
X166.9Y-44.7
X169.7Y-37.08
X169.7Y-44.7
X169.9Y-47.18
X169.9Y-54.8
X170.4Y-70.38
X170.4Y-78.
X173.2Y-70.38
X173.2Y-78.
X173.4Y-37.7
X173.4Y-40.24
X173.4Y-42.78
X173.4Y-45.32
X173.4Y-47.86
X173.4Y-50.4
X173.4Y-52.94
X173.4Y-55.48
X176.Y-70.38
X176.Y-78.
X178.Y-59.78
X178.Y-67.4
X178.25Y-87.13
X178.25Y-94.75
X178.8Y-70.38
X178.8Y-78.
X180.92Y-33.71
X181.Y-59.78
X181.Y-67.4
X181.Y-87.13
X181.Y-94.75
X181.02Y-37.7
X181.02Y-40.24
X181.02Y-42.78
X181.02Y-45.32
X181.02Y-47.86
X181.02Y-50.4
X181.02Y-52.94
X181.02Y-55.48
X183.42Y-33.71
X183.75Y-87.13
X183.75Y-94.75
X183.8Y-59.78
X183.8Y-67.4
X184.7Y-37.6
X184.7Y-40.14
X184.7Y-42.68
X184.7Y-45.22
X184.7Y-47.76
X184.7Y-50.3
X184.7Y-52.84
X184.7Y-55.38
X186.5Y-87.13
X186.5Y-94.75
X186.7Y-59.78
X186.7Y-67.4
X186.7Y-70.38
X186.7Y-78.
X189.7Y-70.38
X189.7Y-78.
X191.98Y-33.82
X192.32Y-37.6
X192.32Y-40.14
X192.32Y-42.68
X192.32Y-45.22
X192.32Y-47.76
X192.32Y-50.3
X192.32Y-52.84
X192.32Y-55.38
X192.7Y-70.38
X192.7Y-78.
X194.48Y-33.82
X195.1Y-36.88
X195.1Y-44.5
X195.1Y-46.68
X195.1Y-54.3
X195.7Y-70.38
X195.7Y-78.
X198.1Y-36.88
X198.1Y-44.5
X198.2Y-46.68
X198.2Y-54.3
X202.7Y-47.18
X202.7Y-54.8
X202.9Y-37.08
X202.9Y-44.7
X205.7Y-37.08
X205.7Y-44.7
X205.9Y-47.18
X205.9Y-54.8
X206.4Y-70.38
X206.4Y-78.
X209.2Y-70.38
X209.2Y-78.
X209.4Y-37.7
X209.4Y-40.24
X209.4Y-42.78
X209.4Y-45.32
X209.4Y-47.86
X209.4Y-50.4
X209.4Y-52.94
X209.4Y-55.48
X212.Y-70.38
X212.Y-78.
X214.Y-59.78
X214.Y-67.4
X214.25Y-87.13
X214.25Y-94.75
X214.8Y-70.38
X214.8Y-78.
X216.91Y-33.71
X217.Y-59.78
X217.Y-67.4
X217.Y-87.13
X217.Y-94.75
X217.02Y-37.7
X217.02Y-40.24
X217.02Y-42.78
X217.02Y-45.32
X217.02Y-47.86
X217.02Y-50.4
X217.02Y-52.94
X217.02Y-55.48
X219.41Y-33.71
X219.75Y-87.13
X219.75Y-94.75
X219.8Y-59.78
X219.8Y-67.4
X220.7Y-37.6
X220.7Y-40.14
X220.7Y-42.68
X220.7Y-45.22
X220.7Y-47.76
X220.7Y-50.3
X220.7Y-52.84
X220.7Y-55.38
X222.5Y-87.13
X222.5Y-94.75
X222.7Y-59.78
X222.7Y-67.4
X222.7Y-70.38
X222.7Y-78.
X225.7Y-70.38
X225.7Y-78.
X228.03Y-33.82
X228.32Y-37.6
X228.32Y-40.14
X228.32Y-42.68
X228.32Y-45.22
X228.32Y-47.76
X228.32Y-50.3
X228.32Y-52.84
X228.32Y-55.38
X228.7Y-70.38
X228.7Y-78.
X230.53Y-33.82
X231.1Y-36.88
X231.1Y-44.5
X231.1Y-46.68
X231.1Y-54.3
X231.7Y-70.38
X231.7Y-78.
X234.1Y-36.88
X234.1Y-44.5
X234.2Y-46.68
X234.2Y-54.3
X238.7Y-47.18
X238.7Y-54.8
X238.9Y-37.08
X238.9Y-44.7
X241.7Y-37.08
X241.7Y-44.7
X241.9Y-47.18
X241.9Y-54.8
X242.4Y-70.38
X242.4Y-78.
X245.2Y-70.38
X245.2Y-78.
X245.4Y-37.7
X245.4Y-40.24
X245.4Y-42.78
X245.4Y-45.32
X245.4Y-47.86
X245.4Y-50.4
X245.4Y-52.94
X245.4Y-55.48
X248.Y-70.38
X248.Y-78.
X250.Y-59.78
X250.Y-67.4
X250.25Y-87.13
X250.25Y-94.75
X250.8Y-70.38
X250.8Y-78.
X252.89Y-33.71
X253.Y-59.78
X253.Y-67.4
X253.Y-87.13
X253.Y-94.75
X253.02Y-37.7
X253.02Y-40.24
X253.02Y-42.78
X253.02Y-45.32
X253.02Y-47.86
X253.02Y-50.4
X253.02Y-52.94
X253.02Y-55.48
X255.39Y-33.71
X255.75Y-87.13
X255.75Y-94.75
X255.8Y-59.78
X255.8Y-67.4
X256.7Y-37.6
X256.7Y-40.14
X256.7Y-42.68
X256.7Y-45.22
X256.7Y-47.76
X256.7Y-50.3
X256.7Y-52.84
X256.7Y-55.38
X258.5Y-87.13
X258.5Y-94.75
X258.7Y-59.78
X258.7Y-67.4
X258.7Y-70.38
X258.7Y-78.
X261.7Y-70.38
X261.7Y-78.
X264.01Y-33.82
X264.32Y-37.6
X264.32Y-40.14
X264.32Y-42.68
X264.32Y-45.22
X264.32Y-47.76
X264.32Y-50.3
X264.32Y-52.84
X264.32Y-55.38
X264.7Y-70.38
X264.7Y-78.
X266.51Y-33.82
X267.1Y-36.88
X267.1Y-44.5
X267.1Y-46.68
X267.1Y-54.3
X267.7Y-70.38
X267.7Y-78.
X270.1Y-36.88
X270.1Y-44.5
X270.2Y-46.68
X270.2Y-54.3
T4
X67.607Y-103.693
X67.911Y-107.063
X68.768Y-101.027
X69.531Y-109.594
X70.896Y-99.248
X72.178Y-111.213
X74.Y-98.523
X75.621Y-111.243
X76.978Y-99.275
X78.348Y-109.846
X79.08Y-101.063
X80.12Y-107.154
X80.35Y-103.73
X103.607Y-103.693
X103.911Y-107.063
X104.768Y-101.027
X105.531Y-109.594
X106.896Y-99.248
X108.178Y-111.213
X110.Y-98.523
X111.621Y-111.243
X112.978Y-99.275
X114.348Y-109.846
X115.08Y-101.063
X116.12Y-107.154
X116.35Y-103.73
X139.607Y-103.693
X139.911Y-107.063
X140.768Y-101.027
X141.531Y-109.594
X142.896Y-99.248
X144.178Y-111.213
X146.Y-98.523
X147.621Y-111.243
X148.978Y-99.275
X150.348Y-109.846
X151.08Y-101.063
X152.12Y-107.154
X152.35Y-103.73
X175.607Y-103.693
X175.911Y-107.063
X176.768Y-101.027
X177.531Y-109.594
X178.896Y-99.248
X180.178Y-111.213
X182.Y-98.523
X183.621Y-111.243
X184.978Y-99.275
X186.348Y-109.846
X187.08Y-101.063
X188.12Y-107.154
X188.35Y-103.73
X211.607Y-103.693
X211.911Y-107.063
X212.768Y-101.027
X213.531Y-109.594
X214.896Y-99.248
X216.178Y-111.213
X218.Y-98.523
X219.621Y-111.243
X220.978Y-99.275
X222.348Y-109.846
X223.08Y-101.063
X224.12Y-107.154
X224.35Y-103.73
X247.607Y-103.693
X247.911Y-107.063
X248.768Y-101.027
X249.531Y-109.594
X250.896Y-99.248
X252.178Y-111.213
X254.Y-98.523
X255.621Y-111.243
X256.978Y-99.275
X258.348Y-109.846
X259.08Y-101.063
X260.12Y-107.154
X260.35Y-103.73
T5
X42.Y-71.2
X42.Y-73.74
X42.Y-76.28
X50.35Y-64.12
X50.35Y-66.66
X50.35Y-69.2
X50.8Y-91.6
X53.34Y-91.6
X54.3Y-70.6
X56.84Y-70.6
T6
X56.6Y-74.13
X56.6Y-81.75
T7
X50.6Y-74.
X50.6Y-87.
X51.1Y-34.16
X51.1Y-36.7
X51.1Y-39.24
X51.1Y-41.78
X51.1Y-44.32
X51.1Y-46.86
X51.1Y-49.4
T8
X35.Y-30.6
X35.Y-112.6
X275.Y-30.6
X275.Y-112.6
T0
M30
