M48
;DRILL file {KiCad 4.0.7} date 01/02/20 10:49:20
;FORMAT={-:-/ absolute / metric / decimal}
FMAT,2
METRIC,TZ
T1C0.400
T2C0.600
T3C0.800
T4C0.900
T5C1.000
T6C1.100
T7C1.200
T8C3.048
%
G90
G05
M71
T1
X143.21Y-61.92
X184.9Y-55.7
X194.04Y-64.04
X201.4Y-63.9
X207.9Y-76.6
X210.7Y-75.3
X235.3Y-68.4
X244.72Y-69.77
T2
X116.81Y-72.5
X118.08Y-73.77
X119.35Y-72.5
X123.36Y-72.35
X124.63Y-73.62
X125.9Y-72.35
X130.61Y-72.25
X131.88Y-73.52
X133.15Y-72.25
X137.61Y-72.3
X138.88Y-73.57
X140.15Y-72.3
X144.86Y-72.15
X146.13Y-73.42
X147.4Y-72.15
X151.91Y-72.5
X153.18Y-73.77
X154.45Y-72.5
X159.01Y-72.6
X160.28Y-73.87
X161.55Y-72.6
X178.8Y-62.1
X178.8Y-64.64
X178.8Y-75.8
X178.8Y-78.34
X178.8Y-82.5
X178.8Y-85.04
X179.Y-69.
X179.Y-71.54
X179.Y-89.3
X179.Y-91.84
X180.07Y-63.37
X180.07Y-77.07
X180.07Y-83.77
X180.27Y-70.27
X180.27Y-90.57
X186.76Y-90.225
X186.825Y-86.075
X188.03Y-91.495
X188.095Y-84.805
X189.3Y-90.225
X189.365Y-86.075
X199.45Y-86.075
X199.485Y-90.2
X200.72Y-84.805
X200.755Y-91.47
X201.99Y-86.075
X202.025Y-90.2
X212.785Y-90.
X212.85Y-85.95
X214.055Y-91.27
X214.12Y-84.68
X215.325Y-90.
X215.39Y-85.95
X225.53Y-66.43
X225.935Y-89.925
X225.95Y-85.75
X226.8Y-65.16
X226.8Y-67.7
X227.205Y-91.195
X227.22Y-84.48
X228.475Y-89.925
X228.49Y-85.75
X238.85Y-85.7
X238.935Y-89.775
X240.12Y-84.43
X240.205Y-91.045
X241.39Y-85.7
X241.475Y-89.775
X251.56Y-89.7
X251.6Y-85.4
X252.83Y-90.97
X252.87Y-84.13
X254.1Y-89.7
X254.14Y-85.4
T3
X116.3Y-76.25
X116.3Y-83.87
X119.5Y-76.33
X119.5Y-83.95
X120.6Y-58.2
X120.6Y-60.7
X123.25Y-76.15
X123.25Y-83.77
X124.88Y-57.89
X126.25Y-76.13
X126.25Y-83.75
X127.38Y-57.89
X130.2Y-76.1
X130.2Y-83.72
X130.85Y-57.93
X130.85Y-65.55
X133.39Y-57.93
X133.39Y-65.55
X133.45Y-76.03
X133.45Y-83.65
X135.93Y-57.93
X135.93Y-65.55
X137.15Y-76.
X137.15Y-83.62
X138.47Y-57.93
X138.47Y-65.55
X140.35Y-76.03
X140.35Y-83.65
X141.01Y-57.93
X141.01Y-65.55
X143.55Y-57.93
X143.55Y-65.55
X144.25Y-76.
X144.25Y-83.62
X146.09Y-57.93
X146.09Y-65.55
X147.4Y-76.08
X147.4Y-83.7
X148.63Y-57.93
X148.63Y-65.55
X151.2Y-76.35
X151.2Y-83.97
X154.3Y-76.33
X154.3Y-83.95
X155.8Y-62.5
X158.35Y-76.4
X158.35Y-84.02
X159.3Y-62.5
X161.5Y-76.43
X161.5Y-84.05
X168.Y-68.4
X168.08Y-61.5
X168.08Y-64.7
X168.08Y-71.6
X168.1Y-75.2
X168.18Y-78.4
X168.18Y-85.2
X168.18Y-92.
X168.2Y-82.
X168.2Y-88.8
X175.62Y-68.4
X175.7Y-61.5
X175.7Y-64.7
X175.7Y-71.6
X175.72Y-75.2
X175.8Y-78.4
X175.8Y-85.2
X175.8Y-92.
X175.82Y-82.
X175.82Y-88.8
X183.48Y-69.15
X183.48Y-71.65
X186.425Y-69.155
X186.425Y-76.775
X187.95Y-81.375
X188.965Y-69.155
X188.965Y-76.775
X191.505Y-69.155
X191.505Y-76.775
X192.35Y-84.255
X192.35Y-91.875
X194.045Y-69.155
X194.045Y-76.775
X195.4Y-84.275
X195.4Y-91.895
X195.57Y-81.375
X196.585Y-69.155
X196.585Y-76.775
X199.125Y-69.155
X199.125Y-76.775
X200.8Y-81.45
X201.665Y-69.155
X201.665Y-76.775
X204.205Y-69.155
X204.205Y-76.775
X205.Y-84.33
X205.Y-91.95
X207.2Y-55.6
X207.25Y-58.85
X208.25Y-84.35
X208.25Y-91.97
X208.42Y-81.45
X208.9Y-62.
X210.Y-64.68
X210.Y-72.3
X211.4Y-62.
X213.75Y-81.35
X214.6Y-62.1
X214.6Y-64.64
X214.6Y-67.18
X214.6Y-69.72
X214.82Y-55.6
X214.87Y-58.85
X218.425Y-84.13
X218.425Y-91.75
X221.37Y-81.35
X221.625Y-84.2
X221.625Y-91.82
X222.22Y-62.1
X222.22Y-64.64
X222.22Y-67.18
X222.22Y-69.72
X225.6Y-61.8
X227.225Y-81.175
X228.1Y-61.8
X231.6Y-83.905
X231.6Y-91.525
X234.8Y-83.875
X234.8Y-91.495
X234.845Y-81.175
X236.Y-52.2
X238.54Y-52.2
X239.11Y-67.7
X239.11Y-70.2
X239.95Y-81.075
X241.08Y-52.2
X242.3Y-67.63
X242.3Y-75.25
X244.475Y-83.755
X244.475Y-91.375
X244.55Y-50.85
X244.84Y-67.63
X244.84Y-75.25
X245.25Y-53.68
X245.25Y-61.3
X247.38Y-67.63
X247.38Y-75.25
X247.57Y-81.075
X247.65Y-83.75
X247.65Y-91.37
X248.65Y-53.5
X248.65Y-61.12
X249.92Y-67.63
X249.92Y-75.25
X252.17Y-50.85
X252.2Y-62.05
X252.46Y-67.63
X252.46Y-75.25
X252.8Y-80.9
X254.7Y-62.05
X254.85Y-54.85
X254.85Y-58.35
X255.Y-67.63
X255.Y-75.25
X257.4Y-83.68
X257.4Y-91.3
X257.54Y-67.63
X257.54Y-75.25
X260.08Y-67.63
X260.08Y-75.25
X260.42Y-80.9
X260.8Y-83.75
X260.8Y-91.37
T4
X123.609Y-103.205
X123.913Y-106.575
X124.77Y-100.539
X125.533Y-109.106
X126.898Y-98.76
X128.18Y-110.725
X130.002Y-98.035
X131.623Y-110.755
X132.98Y-98.787
X134.35Y-109.358
X135.082Y-100.575
X136.122Y-106.666
X136.352Y-103.242
X145.707Y-103.205
X146.011Y-106.575
X146.868Y-100.539
X147.631Y-109.106
X148.996Y-98.76
X150.278Y-110.725
X152.1Y-98.035
X153.721Y-110.755
X155.078Y-98.787
X156.448Y-109.358
X157.18Y-100.575
X158.22Y-106.666
X158.45Y-103.242
X167.551Y-103.205
X167.855Y-106.575
X168.712Y-100.539
X169.475Y-109.106
X170.84Y-98.76
X172.122Y-110.725
X173.944Y-98.035
X175.565Y-110.755
X176.922Y-98.787
X178.292Y-109.358
X179.024Y-100.575
X180.064Y-106.666
X180.294Y-103.242
X189.649Y-103.205
X189.953Y-106.575
X190.81Y-100.539
X191.573Y-109.106
X192.938Y-98.76
X194.22Y-110.725
X196.042Y-98.035
X197.663Y-110.755
X199.02Y-98.787
X200.39Y-109.358
X201.122Y-100.575
X202.162Y-106.666
X202.392Y-103.242
X211.493Y-103.205
X211.797Y-106.575
X212.654Y-100.539
X213.417Y-109.106
X214.782Y-98.76
X216.064Y-110.725
X217.886Y-98.035
X219.507Y-110.755
X220.864Y-98.787
X222.234Y-109.358
X222.966Y-100.575
X224.006Y-106.666
X224.236Y-103.242
X233.707Y-103.093
X234.011Y-106.463
X234.868Y-100.427
X235.631Y-108.994
X236.996Y-98.648
X238.278Y-110.613
X240.1Y-97.923
X241.721Y-110.643
X243.078Y-98.675
X244.448Y-109.246
X245.18Y-100.463
X246.22Y-106.554
X246.45Y-103.13
T5
X146.16Y-54.3
X148.7Y-54.3
X155.2Y-55.8
X157.74Y-55.8
X160.28Y-55.8
X233.5Y-61.7
X236.04Y-61.7
X238.58Y-61.7
X260.9Y-56.45
X260.9Y-58.99
T6
X234.78Y-56.7
X242.4Y-56.7
T7
X187.33Y-61.24
X189.87Y-61.24
X192.41Y-61.24
X194.95Y-61.24
X197.49Y-61.24
X200.03Y-61.24
X202.57Y-61.24
X218.6Y-54.8
X231.6Y-54.8
T8
X115.Y-51.6
X115.Y-113.6
X266.Y-51.6
X266.Y-113.6
T0
M30
