G04 #@! TF.FileFunction,Copper,L1,Top,Signal*
%FSLAX46Y46*%
G04 Gerber Fmt 4.6, Leading zero omitted, Abs format (unit mm)*
G04 Created by KiCad (PCBNEW 4.0.7) date 02/25/20 00:54:48*
%MOMM*%
%LPD*%
G01*
G04 APERTURE LIST*
%ADD10C,0.100000*%
%ADD11C,2.400000*%
%ADD12C,1.600000*%
%ADD13O,1.600000X1.600000*%
%ADD14C,1.440000*%
%ADD15R,1.600000X1.600000*%
%ADD16R,2.200000X2.200000*%
%ADD17O,2.200000X2.200000*%
%ADD18R,1.700000X1.700000*%
%ADD19O,1.700000X1.700000*%
%ADD20C,1.000000*%
%ADD21R,1.000000X1.000000*%
%ADD22R,1.800000X1.800000*%
%ADD23O,1.800000X1.800000*%
%ADD24R,2.000000X2.600000*%
%ADD25O,2.000000X2.600000*%
%ADD26C,4.064000*%
%ADD27C,1.408000*%
%ADD28R,2.400000X2.400000*%
%ADD29C,0.600000*%
%ADD30C,0.350000*%
%ADD31C,0.500000*%
%ADD32C,1.000000*%
G04 APERTURE END LIST*
D10*
D11*
X212900000Y-53300000D03*
X225900000Y-53300000D03*
D12*
X201250000Y-52150000D03*
D13*
X208870000Y-52150000D03*
D12*
X207250000Y-62000000D03*
X204750000Y-62000000D03*
D14*
X236000000Y-52200000D03*
X238540000Y-52200000D03*
X241080000Y-52200000D03*
D12*
X217500000Y-59150000D03*
X215000000Y-59150000D03*
D15*
X159300000Y-62500000D03*
D12*
X155800000Y-62500000D03*
D15*
X120600000Y-58200000D03*
D12*
X120600000Y-60700000D03*
X257400000Y-50800000D03*
X254900000Y-50800000D03*
D16*
X242400000Y-56700000D03*
D17*
X234780000Y-56700000D03*
D18*
X148700000Y-54300000D03*
D19*
X146160000Y-54300000D03*
D20*
X220660000Y-66240000D03*
X221930000Y-64970000D03*
D21*
X221930000Y-67510000D03*
D12*
X210200000Y-58550000D03*
D13*
X202580000Y-58550000D03*
D12*
X202400000Y-55300000D03*
D13*
X210020000Y-55300000D03*
D12*
X248400000Y-61400000D03*
D13*
X248400000Y-53780000D03*
D12*
X245250000Y-61300000D03*
D13*
X245250000Y-53680000D03*
D12*
X244550000Y-50850000D03*
D13*
X252170000Y-50850000D03*
D22*
X159500000Y-52500000D03*
D23*
X156960000Y-52500000D03*
X154420000Y-52500000D03*
D24*
X194410000Y-55210000D03*
D25*
X191870000Y-55210000D03*
X189330000Y-55210000D03*
X186790000Y-55210000D03*
X184250000Y-55210000D03*
X181710000Y-55210000D03*
X179170000Y-55210000D03*
D22*
X230790000Y-64888000D03*
D23*
X230790000Y-67428000D03*
X230790000Y-69968000D03*
D26*
X266000000Y-51600000D03*
X115000000Y-113600000D03*
X266000000Y-113600000D03*
X115000000Y-51600000D03*
D15*
X210300000Y-62250000D03*
D13*
X217920000Y-69870000D03*
X210300000Y-64790000D03*
X217920000Y-67330000D03*
X210300000Y-67330000D03*
X217920000Y-64790000D03*
X210300000Y-69870000D03*
X217920000Y-62250000D03*
D18*
X266510000Y-69680000D03*
D19*
X266510000Y-72220000D03*
D12*
X239110000Y-67700000D03*
X239110000Y-70200000D03*
X183480000Y-69150000D03*
X183480000Y-71650000D03*
X127380000Y-57890000D03*
X124880000Y-57890000D03*
D20*
X146130000Y-73420000D03*
X144860000Y-72150000D03*
D21*
X147400000Y-72150000D03*
D20*
X118080000Y-73770000D03*
X116810000Y-72500000D03*
D21*
X119350000Y-72500000D03*
D20*
X180070000Y-77070000D03*
X178800000Y-78340000D03*
D21*
X178800000Y-75800000D03*
D20*
X214120000Y-84680000D03*
X215390000Y-85950000D03*
D21*
X212850000Y-85950000D03*
D20*
X214055000Y-91270000D03*
X212785000Y-90000000D03*
D21*
X215325000Y-90000000D03*
D20*
X180070000Y-83770000D03*
X178800000Y-85040000D03*
D21*
X178800000Y-82500000D03*
D20*
X153180000Y-73770000D03*
X151910000Y-72500000D03*
D21*
X154450000Y-72500000D03*
D20*
X180270000Y-90570000D03*
X179000000Y-91840000D03*
D21*
X179000000Y-89300000D03*
D20*
X227220000Y-84480000D03*
X228490000Y-85750000D03*
D21*
X225950000Y-85750000D03*
D20*
X138880000Y-73570000D03*
X137610000Y-72300000D03*
D21*
X140150000Y-72300000D03*
D20*
X160280000Y-73870000D03*
X159010000Y-72600000D03*
D21*
X161550000Y-72600000D03*
D20*
X188095000Y-84805000D03*
X189365000Y-86075000D03*
D21*
X186825000Y-86075000D03*
D20*
X227205000Y-91195000D03*
X225935000Y-89925000D03*
D21*
X228475000Y-89925000D03*
D20*
X131880000Y-73520000D03*
X130610000Y-72250000D03*
D21*
X133150000Y-72250000D03*
D20*
X180070000Y-63370000D03*
X178800000Y-64640000D03*
D21*
X178800000Y-62100000D03*
D20*
X188030000Y-91495000D03*
X186760000Y-90225000D03*
D21*
X189300000Y-90225000D03*
D20*
X240120000Y-84430000D03*
X241390000Y-85700000D03*
D21*
X238850000Y-85700000D03*
D20*
X200720000Y-84805000D03*
X201990000Y-86075000D03*
D21*
X199450000Y-86075000D03*
D20*
X124630000Y-73620000D03*
X123360000Y-72350000D03*
D21*
X125900000Y-72350000D03*
D20*
X240205000Y-91045000D03*
X238935000Y-89775000D03*
D21*
X241475000Y-89775000D03*
D20*
X180270000Y-70270000D03*
X179000000Y-71540000D03*
D21*
X179000000Y-69000000D03*
D20*
X200755000Y-91470000D03*
X199485000Y-90200000D03*
D21*
X202025000Y-90200000D03*
D20*
X252870000Y-84130000D03*
X254140000Y-85400000D03*
D21*
X251600000Y-85400000D03*
D20*
X252830000Y-90970000D03*
X251560000Y-89700000D03*
D21*
X254100000Y-89700000D03*
D12*
X147400000Y-83700000D03*
D13*
X147400000Y-76080000D03*
D12*
X119500000Y-83950000D03*
D13*
X119500000Y-76330000D03*
D12*
X168100000Y-75200000D03*
D13*
X175720000Y-75200000D03*
D12*
X213750000Y-81350000D03*
D13*
X221370000Y-81350000D03*
D12*
X218425000Y-91750000D03*
D13*
X218425000Y-84130000D03*
D12*
X144250000Y-76000000D03*
D13*
X144250000Y-83620000D03*
D12*
X116300000Y-76250000D03*
D13*
X116300000Y-83870000D03*
D12*
X175800000Y-78400000D03*
D13*
X168180000Y-78400000D03*
D12*
X221625000Y-84200000D03*
D13*
X221625000Y-91820000D03*
D12*
X168200000Y-82000000D03*
D13*
X175820000Y-82000000D03*
D12*
X154300000Y-83950000D03*
D13*
X154300000Y-76330000D03*
D12*
X168200000Y-88800000D03*
D13*
X175820000Y-88800000D03*
D12*
X227225000Y-81175000D03*
D13*
X234845000Y-81175000D03*
D12*
X175800000Y-85200000D03*
D13*
X168180000Y-85200000D03*
D12*
X151200000Y-76350000D03*
D13*
X151200000Y-83970000D03*
D12*
X175800000Y-92000000D03*
D13*
X168180000Y-92000000D03*
D12*
X140350000Y-83650000D03*
D13*
X140350000Y-76030000D03*
D12*
X161500000Y-84050000D03*
D13*
X161500000Y-76430000D03*
D12*
X187950000Y-81375000D03*
D13*
X195570000Y-81375000D03*
D12*
X231600000Y-91525000D03*
D13*
X231600000Y-83905000D03*
D12*
X234800000Y-83875000D03*
D13*
X234800000Y-91495000D03*
D12*
X137150000Y-76000000D03*
D13*
X137150000Y-83620000D03*
D12*
X158350000Y-76400000D03*
D13*
X158350000Y-84020000D03*
D12*
X192350000Y-91875000D03*
D13*
X192350000Y-84255000D03*
D12*
X133450000Y-83650000D03*
D13*
X133450000Y-76030000D03*
D12*
X175700000Y-61500000D03*
D13*
X168080000Y-61500000D03*
D12*
X195400000Y-84275000D03*
D13*
X195400000Y-91895000D03*
D12*
X239950000Y-81075000D03*
D13*
X247570000Y-81075000D03*
D12*
X130200000Y-76100000D03*
D13*
X130200000Y-83720000D03*
D12*
X175700000Y-64700000D03*
D13*
X168080000Y-64700000D03*
D12*
X200800000Y-81450000D03*
D13*
X208420000Y-81450000D03*
D12*
X244475000Y-91375000D03*
D13*
X244475000Y-83755000D03*
D12*
X126250000Y-83750000D03*
D13*
X126250000Y-76130000D03*
D12*
X168000000Y-68400000D03*
D13*
X175620000Y-68400000D03*
D12*
X247650000Y-83750000D03*
D13*
X247650000Y-91370000D03*
D12*
X205000000Y-91950000D03*
D13*
X205000000Y-84330000D03*
D12*
X252800000Y-80900000D03*
D13*
X260420000Y-80900000D03*
D12*
X123250000Y-76150000D03*
D13*
X123250000Y-83770000D03*
D12*
X208250000Y-84350000D03*
D13*
X208250000Y-91970000D03*
D12*
X175700000Y-71600000D03*
D13*
X168080000Y-71600000D03*
D12*
X257400000Y-91300000D03*
D13*
X257400000Y-83680000D03*
D12*
X260800000Y-83750000D03*
D13*
X260800000Y-91370000D03*
D15*
X130850000Y-65550000D03*
D13*
X148630000Y-57930000D03*
X133390000Y-65550000D03*
X146090000Y-57930000D03*
X135930000Y-65550000D03*
X143550000Y-57930000D03*
X138470000Y-65550000D03*
X141010000Y-57930000D03*
X141010000Y-65550000D03*
X138470000Y-57930000D03*
X143550000Y-65550000D03*
X135930000Y-57930000D03*
X146090000Y-65550000D03*
X133390000Y-57930000D03*
X148630000Y-65550000D03*
X130850000Y-57930000D03*
D15*
X186425000Y-76775000D03*
D13*
X204205000Y-69155000D03*
X188965000Y-76775000D03*
X201665000Y-69155000D03*
X191505000Y-76775000D03*
X199125000Y-69155000D03*
X194045000Y-76775000D03*
X196585000Y-69155000D03*
X196585000Y-76775000D03*
X194045000Y-69155000D03*
X199125000Y-76775000D03*
X191505000Y-69155000D03*
X201665000Y-76775000D03*
X188965000Y-69155000D03*
X204205000Y-76775000D03*
X186425000Y-69155000D03*
D15*
X242300000Y-75250000D03*
D13*
X260080000Y-67630000D03*
X244840000Y-75250000D03*
X257540000Y-67630000D03*
X247380000Y-75250000D03*
X255000000Y-67630000D03*
X249920000Y-75250000D03*
X252460000Y-67630000D03*
X252460000Y-75250000D03*
X249920000Y-67630000D03*
X255000000Y-75250000D03*
X247380000Y-67630000D03*
X257540000Y-75250000D03*
X244840000Y-67630000D03*
X260080000Y-75250000D03*
X242300000Y-67630000D03*
D27*
X244448000Y-109246000D03*
X241721000Y-110643000D03*
X246450000Y-103130000D03*
X246220000Y-106554000D03*
X235631000Y-108994000D03*
X234011000Y-106463000D03*
X240100000Y-97923000D03*
X234868000Y-100427000D03*
X233707000Y-103093000D03*
X245180000Y-100463000D03*
X236996000Y-98648000D03*
X238278000Y-110613000D03*
X243078000Y-98675000D03*
X222234000Y-109358000D03*
X219507000Y-110755000D03*
X224236000Y-103242000D03*
X224006000Y-106666000D03*
X213417000Y-109106000D03*
X211797000Y-106575000D03*
X217886000Y-98035000D03*
X212654000Y-100539000D03*
X211493000Y-103205000D03*
X222966000Y-100575000D03*
X214782000Y-98760000D03*
X216064000Y-110725000D03*
X220864000Y-98787000D03*
X156448000Y-109358000D03*
X153721000Y-110755000D03*
X158450000Y-103242000D03*
X158220000Y-106666000D03*
X147631000Y-109106000D03*
X146011000Y-106575000D03*
X152100000Y-98035000D03*
X146868000Y-100539000D03*
X145707000Y-103205000D03*
X157180000Y-100575000D03*
X148996000Y-98760000D03*
X150278000Y-110725000D03*
X155078000Y-98787000D03*
X134350000Y-109358000D03*
X131623000Y-110755000D03*
X136352000Y-103242000D03*
X136122000Y-106666000D03*
X125533000Y-109106000D03*
X123913000Y-106575000D03*
X130002000Y-98035000D03*
X124770000Y-100539000D03*
X123609000Y-103205000D03*
X135082000Y-100575000D03*
X126898000Y-98760000D03*
X128180000Y-110725000D03*
X132980000Y-98787000D03*
X178292000Y-109358000D03*
X175565000Y-110755000D03*
X180294000Y-103242000D03*
X180064000Y-106666000D03*
X169475000Y-109106000D03*
X167855000Y-106575000D03*
X173944000Y-98035000D03*
X168712000Y-100539000D03*
X167551000Y-103205000D03*
X179024000Y-100575000D03*
X170840000Y-98760000D03*
X172122000Y-110725000D03*
X176922000Y-98787000D03*
X200390000Y-109358000D03*
X197663000Y-110755000D03*
X202392000Y-103242000D03*
X202162000Y-106666000D03*
X191573000Y-109106000D03*
X189953000Y-106575000D03*
X196042000Y-98035000D03*
X190810000Y-100539000D03*
X189649000Y-103205000D03*
X201122000Y-100575000D03*
X192938000Y-98760000D03*
X194220000Y-110725000D03*
X199020000Y-98787000D03*
D28*
X257400000Y-55000000D03*
D11*
X257400000Y-62500000D03*
D12*
X263100000Y-70250000D03*
X263100000Y-67750000D03*
X263550000Y-80400000D03*
D13*
X263550000Y-72780000D03*
D29*
X243800000Y-71400000D03*
X201600000Y-71800000D03*
X143210000Y-61920000D03*
X235300000Y-68400000D03*
X210700000Y-75300000D03*
X207900000Y-76600000D03*
X214026000Y-66158000D03*
X167100000Y-56900000D03*
X161500000Y-56800000D03*
X212650000Y-58390000D03*
X244720000Y-69770000D03*
X200975000Y-65050000D03*
X193198000Y-66666000D03*
D30*
X240100000Y-67700000D02*
X243800000Y-71400000D01*
X239110000Y-67700000D02*
X240100000Y-67700000D01*
X201665000Y-69155000D02*
X201665000Y-71735000D01*
X201665000Y-71735000D02*
X201600000Y-71800000D01*
X132588871Y-61197745D02*
X130850000Y-57930000D01*
X143210000Y-61920000D02*
X143170000Y-61880000D01*
X143170000Y-61880000D02*
X140750000Y-61880000D01*
X140750000Y-61880000D02*
X139638871Y-61197745D01*
X139638871Y-61197745D02*
X132588871Y-61197745D01*
X236000000Y-67700000D02*
X239110000Y-67700000D01*
X235300000Y-68400000D02*
X236000000Y-67700000D01*
X209200000Y-75300000D02*
X210700000Y-75300000D01*
X207900000Y-76600000D02*
X209200000Y-75300000D01*
D31*
X215000000Y-59150000D02*
X215000000Y-58072000D01*
X227996000Y-67174000D02*
X230514000Y-69692000D01*
X226980000Y-66158000D02*
X227996000Y-67174000D01*
X226980000Y-61332000D02*
X226980000Y-66158000D01*
X223170000Y-57522000D02*
X226980000Y-61332000D01*
X215550000Y-57522000D02*
X223170000Y-57522000D01*
X215000000Y-58072000D02*
X215550000Y-57522000D01*
X230514000Y-69692000D02*
X230790000Y-69968000D01*
X221930000Y-67510000D02*
X230730000Y-70028000D01*
X230730000Y-70028000D02*
X230790000Y-69968000D01*
X215000000Y-59150000D02*
X215000000Y-59850000D01*
X215000000Y-59850000D02*
X212600000Y-62250000D01*
X212600000Y-62250000D02*
X210300000Y-62250000D01*
X204750000Y-62000000D02*
X204750000Y-61972000D01*
X204750000Y-61972000D02*
X206152000Y-60570000D01*
X206152000Y-60570000D02*
X208620000Y-60570000D01*
X208620000Y-60570000D02*
X210300000Y-62250000D01*
D30*
X231270000Y-70548000D02*
X231190000Y-70548000D01*
X179000000Y-89300000D02*
X179000000Y-88350000D01*
X179000000Y-88350000D02*
X178750000Y-88100000D01*
X178800000Y-82500000D02*
X178800000Y-81150000D01*
X178800000Y-81150000D02*
X178750000Y-81100000D01*
X178800000Y-75800000D02*
X178800000Y-74800000D01*
X178800000Y-74800000D02*
X179000000Y-74600000D01*
X179000000Y-69000000D02*
X179000000Y-67850000D01*
X179000000Y-67850000D02*
X178750000Y-67600000D01*
X178800000Y-62100000D02*
X178800000Y-60650000D01*
X178800000Y-60650000D02*
X178750000Y-60600000D01*
X161550000Y-72600000D02*
X163000000Y-72600000D01*
X163000000Y-72600000D02*
X163250000Y-72350000D01*
X154450000Y-72500000D02*
X155850000Y-72500000D01*
X155850000Y-72500000D02*
X156250000Y-72100000D01*
X147400000Y-72150000D02*
X148800000Y-72150000D01*
X148800000Y-72150000D02*
X149000000Y-72350000D01*
X140150000Y-72300000D02*
X141800000Y-72300000D01*
X141800000Y-72300000D02*
X142000000Y-72100000D01*
X133150000Y-72250000D02*
X134350000Y-72250000D01*
X134350000Y-72250000D02*
X134500000Y-72100000D01*
X119350000Y-72500000D02*
X120600000Y-72500000D01*
X120600000Y-72500000D02*
X120750000Y-72350000D01*
X125900000Y-72350000D02*
X127500000Y-72350000D01*
X127500000Y-72350000D02*
X127750000Y-72100000D01*
X251600000Y-85400000D02*
X250050000Y-85400000D01*
X250050000Y-85400000D02*
X249750000Y-85100000D01*
X238850000Y-85700000D02*
X237100000Y-85700000D01*
X237100000Y-85700000D02*
X236750000Y-85350000D01*
X225950000Y-85750000D02*
X224150000Y-85750000D01*
X224150000Y-85750000D02*
X224000000Y-85600000D01*
X212850000Y-85950000D02*
X210850000Y-85950000D01*
X210850000Y-85950000D02*
X210500000Y-85600000D01*
X186825000Y-86075000D02*
X185475000Y-86075000D01*
X185475000Y-86075000D02*
X185000000Y-85600000D01*
X199450000Y-86075000D02*
X197475000Y-86075000D01*
X197475000Y-86075000D02*
X197250000Y-85850000D01*
X213010000Y-65142000D02*
X210652000Y-65142000D01*
X214026000Y-66158000D02*
X213010000Y-65142000D01*
X210652000Y-65142000D02*
X210300000Y-64790000D01*
X217920000Y-62250000D02*
X216780000Y-62250000D01*
X214670000Y-69870000D02*
X210300000Y-69870000D01*
X216060000Y-68480000D02*
X214670000Y-69870000D01*
X216060000Y-62970000D02*
X216060000Y-68480000D01*
X216780000Y-62250000D02*
X216060000Y-62970000D01*
X217500000Y-59150000D02*
X217500000Y-61830000D01*
X217500000Y-61830000D02*
X217920000Y-62250000D01*
D31*
X161600000Y-56900000D02*
X167100000Y-56900000D01*
X161500000Y-56800000D02*
X161600000Y-56900000D01*
D30*
X212430000Y-55500000D02*
X209080000Y-52150000D01*
X212430000Y-58170000D02*
X212430000Y-55500000D01*
X212650000Y-58390000D02*
X212430000Y-58170000D01*
X209080000Y-52150000D02*
X208870000Y-52150000D01*
X144250000Y-83620000D02*
X144200000Y-88250000D01*
X126898000Y-97798000D02*
X126898000Y-98760000D01*
X126200000Y-97100000D02*
X126898000Y-97798000D01*
X126200000Y-95050000D02*
X126200000Y-97100000D01*
X128000000Y-93250000D02*
X126200000Y-95050000D01*
X139200000Y-93250000D02*
X128000000Y-93250000D01*
X144200000Y-88250000D02*
X139200000Y-93250000D01*
X214782000Y-98760000D02*
X214782000Y-98868000D01*
X214782000Y-98868000D02*
X216362000Y-100448000D01*
X222876000Y-98760000D02*
X236996000Y-98648000D01*
X221188000Y-100448000D02*
X222876000Y-98760000D01*
X216362000Y-100448000D02*
X221188000Y-100448000D01*
X192938000Y-98760000D02*
X192938000Y-99122000D01*
X192938000Y-99122000D02*
X194518000Y-100702000D01*
X200778000Y-98760000D02*
X214782000Y-98760000D01*
X198836000Y-100702000D02*
X200778000Y-98760000D01*
X194518000Y-100702000D02*
X198836000Y-100702000D01*
X170840000Y-98760000D02*
X170840000Y-99122000D01*
X170840000Y-99122000D02*
X172420000Y-100702000D01*
X178680000Y-98760000D02*
X192938000Y-98760000D01*
X176738000Y-100702000D02*
X178680000Y-98760000D01*
X172420000Y-100702000D02*
X176738000Y-100702000D01*
X148996000Y-98760000D02*
X148996000Y-99376000D01*
X148996000Y-99376000D02*
X150068000Y-100448000D01*
X157090000Y-98760000D02*
X170840000Y-98760000D01*
X155402000Y-100448000D02*
X157090000Y-98760000D01*
X150068000Y-100448000D02*
X155402000Y-100448000D01*
X126898000Y-98760000D02*
X126898000Y-99884000D01*
X134992000Y-98760000D02*
X148996000Y-98760000D01*
X133558000Y-100194000D02*
X134992000Y-98760000D01*
X127208000Y-100194000D02*
X133558000Y-100194000D01*
X126898000Y-99884000D02*
X127208000Y-100194000D01*
X116300000Y-83870000D02*
X116000000Y-84500000D01*
X119300000Y-109600000D02*
X125039000Y-109600000D01*
X116800000Y-107100000D02*
X119300000Y-109600000D01*
X116800000Y-85100000D02*
X116800000Y-107100000D01*
X116000000Y-84500000D02*
X116800000Y-85100000D01*
X125039000Y-109600000D02*
X125533000Y-109106000D01*
X213417000Y-109106000D02*
X220006000Y-109106000D01*
X234537000Y-111100000D02*
X235631000Y-108994000D01*
X222000000Y-111100000D02*
X234537000Y-111100000D01*
X220006000Y-109106000D02*
X222000000Y-111100000D01*
X191573000Y-109106000D02*
X198106000Y-109106000D01*
X211423000Y-111100000D02*
X213417000Y-109106000D01*
X200100000Y-111100000D02*
X211423000Y-111100000D01*
X198106000Y-109106000D02*
X200100000Y-111100000D01*
X169475000Y-109106000D02*
X176106000Y-109106000D01*
X189579000Y-111100000D02*
X191573000Y-109106000D01*
X178100000Y-111100000D02*
X189579000Y-111100000D01*
X176106000Y-109106000D02*
X178100000Y-111100000D01*
X147631000Y-109106000D02*
X154306000Y-109106000D01*
X167381000Y-111200000D02*
X169475000Y-109106000D01*
X156400000Y-111200000D02*
X167381000Y-111200000D01*
X154306000Y-109106000D02*
X156400000Y-111200000D01*
X125533000Y-109106000D02*
X132106000Y-109106000D01*
X145200000Y-111000000D02*
X147094000Y-109106000D01*
X134000000Y-111000000D02*
X145200000Y-111000000D01*
X132106000Y-109106000D02*
X134000000Y-111000000D01*
X147094000Y-109106000D02*
X147631000Y-109106000D01*
X150278000Y-110725000D02*
X150278000Y-111622000D01*
X150278000Y-111622000D02*
X149000000Y-112900000D01*
X172122000Y-110725000D02*
X172122000Y-111878000D01*
X172122000Y-111878000D02*
X171100000Y-112900000D01*
X194220000Y-110725000D02*
X194220000Y-111280000D01*
X194220000Y-111280000D02*
X192600000Y-112900000D01*
X216064000Y-110725000D02*
X216064000Y-111436000D01*
X216064000Y-111436000D02*
X214600000Y-112900000D01*
X128180000Y-110725000D02*
X128180000Y-111780000D01*
X237003000Y-112900000D02*
X238278000Y-110613000D01*
X129300000Y-112900000D02*
X149000000Y-112900000D01*
X149000000Y-112900000D02*
X171100000Y-112900000D01*
X171100000Y-112900000D02*
X192600000Y-112900000D01*
X192600000Y-112900000D02*
X214600000Y-112900000D01*
X214600000Y-112900000D02*
X237003000Y-112900000D01*
X128180000Y-111780000D02*
X129300000Y-112900000D01*
X244840000Y-67630000D02*
X244840000Y-69650000D01*
X244840000Y-69650000D02*
X244720000Y-69770000D01*
X137150000Y-83620000D02*
X137050000Y-89200000D01*
X123750000Y-99519000D02*
X124770000Y-100539000D01*
X123750000Y-92950000D02*
X123750000Y-99519000D01*
X124850000Y-91850000D02*
X123750000Y-92950000D01*
X134400000Y-91850000D02*
X124850000Y-91850000D01*
X137050000Y-89200000D02*
X134400000Y-91850000D01*
X212654000Y-100539000D02*
X212654000Y-101312000D01*
X225415000Y-100539000D02*
X234868000Y-100427000D01*
X223850000Y-101750000D02*
X225415000Y-100539000D01*
X223625000Y-101875000D02*
X223850000Y-101750000D01*
X222458000Y-102734000D02*
X223625000Y-101875000D01*
X214076000Y-102734000D02*
X222458000Y-102734000D01*
X212654000Y-101312000D02*
X214076000Y-102734000D01*
X190810000Y-100539000D02*
X190810000Y-101312000D01*
X203317000Y-100539000D02*
X212654000Y-100539000D01*
X202200000Y-101525000D02*
X203317000Y-100539000D01*
X201850000Y-101800000D02*
X202200000Y-101525000D01*
X200500000Y-102725000D02*
X201850000Y-101800000D01*
X192232000Y-102734000D02*
X200500000Y-102725000D01*
X190810000Y-101312000D02*
X192232000Y-102734000D01*
X168712000Y-100539000D02*
X168712000Y-101058000D01*
X168712000Y-101058000D02*
X169934000Y-102880000D01*
X181981000Y-100539000D02*
X190810000Y-100539000D01*
X180650000Y-101350000D02*
X181981000Y-100539000D01*
X179825000Y-101775000D02*
X180650000Y-101350000D01*
X177800000Y-102800000D02*
X179825000Y-101775000D01*
X169934000Y-102880000D02*
X177800000Y-102800000D01*
X146868000Y-100539000D02*
X146868000Y-100550000D01*
X146868000Y-100550000D02*
X147998000Y-102680000D01*
X160150000Y-100550000D02*
X168712000Y-100539000D01*
X156634000Y-102680000D02*
X160150000Y-100550000D01*
X147998000Y-102680000D02*
X156634000Y-102680000D01*
X124770000Y-100539000D02*
X124770000Y-100804000D01*
X124770000Y-100804000D02*
X125800000Y-102800000D01*
X125800000Y-102800000D02*
X134682000Y-102880000D01*
X134682000Y-102880000D02*
X137023000Y-100539000D01*
X137023000Y-100539000D02*
X146868000Y-100539000D01*
X130200000Y-83720000D02*
X130250000Y-86900000D01*
X121505000Y-103205000D02*
X123609000Y-103205000D01*
X120800000Y-102500000D02*
X121505000Y-103205000D01*
X120800000Y-92650000D02*
X120800000Y-102500000D01*
X123250000Y-90200000D02*
X120800000Y-92650000D01*
X126950000Y-90200000D02*
X123250000Y-90200000D01*
X130250000Y-86900000D02*
X126950000Y-90200000D01*
X145707000Y-103205000D02*
X145707000Y-103285000D01*
X145707000Y-103285000D02*
X144226000Y-104766000D01*
X167551000Y-103205000D02*
X166869000Y-103205000D01*
X166869000Y-103205000D02*
X165308000Y-104766000D01*
X189649000Y-103205000D02*
X189475000Y-103205000D01*
X189475000Y-103205000D02*
X187914000Y-104766000D01*
X211493000Y-103205000D02*
X211319000Y-103205000D01*
X211319000Y-103205000D02*
X209758000Y-104766000D01*
X123609000Y-103205000D02*
X123609000Y-103453000D01*
X123609000Y-103453000D02*
X124922000Y-104766000D01*
X124922000Y-104766000D02*
X144226000Y-104766000D01*
X144226000Y-104766000D02*
X165308000Y-104766000D01*
X165308000Y-104766000D02*
X187914000Y-104766000D01*
X187914000Y-104766000D02*
X209758000Y-104766000D01*
X209758000Y-104766000D02*
X233046000Y-104766000D01*
X233046000Y-104766000D02*
X233707000Y-103093000D01*
X123250000Y-83770000D02*
X123150000Y-87500000D01*
X120225000Y-106575000D02*
X123913000Y-106575000D01*
X118700000Y-105050000D02*
X120225000Y-106575000D01*
X118700000Y-91950000D02*
X118700000Y-105050000D01*
X123150000Y-87500000D02*
X118700000Y-91950000D01*
X211797000Y-106875000D02*
X221219000Y-106875000D01*
X233418000Y-108068000D02*
X234011000Y-106463000D01*
X223220000Y-108068000D02*
X233418000Y-108068000D01*
X222966000Y-107814000D02*
X223220000Y-108068000D01*
X222100000Y-107000000D02*
X222966000Y-107814000D01*
X221219000Y-106875000D02*
X222100000Y-107000000D01*
X189953000Y-106875000D02*
X199375000Y-106875000D01*
X210050000Y-108322000D02*
X211797000Y-106875000D01*
X202100000Y-108325000D02*
X210050000Y-108322000D01*
X201100000Y-107950000D02*
X202100000Y-108325000D01*
X200500000Y-107200000D02*
X201100000Y-107950000D01*
X199375000Y-106875000D02*
X200500000Y-107200000D01*
X167800000Y-106800000D02*
X177500000Y-106800000D01*
X188206000Y-108322000D02*
X189953000Y-106875000D01*
X180350000Y-108375000D02*
X188206000Y-108322000D01*
X179100000Y-107925000D02*
X180350000Y-108375000D01*
X178475000Y-107450000D02*
X179100000Y-107925000D01*
X177500000Y-106800000D02*
X178475000Y-107450000D01*
X146411000Y-106775000D02*
X156087000Y-106775000D01*
X165500000Y-108400000D02*
X167800000Y-106800000D01*
X158400000Y-108425000D02*
X165500000Y-108400000D01*
X157775000Y-108125000D02*
X158400000Y-108425000D01*
X156950000Y-107750000D02*
X157775000Y-108125000D01*
X156087000Y-106775000D02*
X156950000Y-107750000D01*
X123913000Y-106575000D02*
X125207000Y-106575000D01*
X144264000Y-108322000D02*
X146411000Y-106775000D01*
X135844000Y-108322000D02*
X144264000Y-108322000D01*
X134536000Y-106814000D02*
X135844000Y-108322000D01*
X125646000Y-106814000D02*
X134536000Y-106814000D01*
X125207000Y-106575000D02*
X125646000Y-106814000D01*
X198434000Y-66666000D02*
X193198000Y-66666000D01*
X200975000Y-65050000D02*
X198434000Y-66666000D01*
D32*
G36*
X152675925Y-50802944D02*
X152155670Y-51581560D01*
X151972981Y-52500000D01*
X152155670Y-53418440D01*
X152675925Y-54197056D01*
X153454541Y-54717311D01*
X154372981Y-54900000D01*
X154467019Y-54900000D01*
X155385459Y-54717311D01*
X156147154Y-54208362D01*
X156225479Y-54260978D01*
X156510000Y-54102202D01*
X156510000Y-53679343D01*
X156684330Y-53418440D01*
X156867019Y-52500000D01*
X156684330Y-51581560D01*
X156510000Y-51320657D01*
X156510000Y-50897798D01*
X156225479Y-50739022D01*
X156147154Y-50791638D01*
X155598442Y-50425000D01*
X157655944Y-50425000D01*
X157533604Y-50503724D01*
X157191108Y-51004983D01*
X157070614Y-51600000D01*
X157070614Y-53400000D01*
X157175207Y-53955867D01*
X157503724Y-54466396D01*
X158004983Y-54808892D01*
X158600000Y-54929386D01*
X160400000Y-54929386D01*
X160794559Y-54855145D01*
X176670000Y-54855145D01*
X176670000Y-55564855D01*
X176860301Y-56521564D01*
X177402233Y-57332622D01*
X178213291Y-57874554D01*
X179170000Y-58064855D01*
X180126709Y-57874554D01*
X180440000Y-57665220D01*
X180753291Y-57874554D01*
X181710000Y-58064855D01*
X182666709Y-57874554D01*
X182980000Y-57665220D01*
X183293291Y-57874554D01*
X184250000Y-58064855D01*
X185206709Y-57874554D01*
X185520000Y-57665220D01*
X185833291Y-57874554D01*
X186790000Y-58064855D01*
X187746709Y-57874554D01*
X188060000Y-57665220D01*
X188373291Y-57874554D01*
X189330000Y-58064855D01*
X190286709Y-57874554D01*
X190600000Y-57665220D01*
X190913291Y-57874554D01*
X191870000Y-58064855D01*
X192826709Y-57874554D01*
X193360329Y-57518000D01*
X193658000Y-57518000D01*
X193910000Y-57266000D01*
X193910000Y-56925197D01*
X194179699Y-56521564D01*
X194311292Y-55860000D01*
X194910000Y-55860000D01*
X194910000Y-57266000D01*
X195162000Y-57518000D01*
X195610504Y-57518000D01*
X195980986Y-57364541D01*
X196264541Y-57080986D01*
X196418000Y-56710503D01*
X196418000Y-56112000D01*
X196166000Y-55860000D01*
X194910000Y-55860000D01*
X194311292Y-55860000D01*
X194370000Y-55564855D01*
X194370000Y-54855145D01*
X194179699Y-53898436D01*
X193910000Y-53494803D01*
X193910000Y-53154000D01*
X194910000Y-53154000D01*
X194910000Y-54560000D01*
X196166000Y-54560000D01*
X196418000Y-54308000D01*
X196418000Y-53709497D01*
X196264541Y-53339014D01*
X195980986Y-53055459D01*
X195610504Y-52902000D01*
X195162000Y-52902000D01*
X194910000Y-53154000D01*
X193910000Y-53154000D01*
X193658000Y-52902000D01*
X193360329Y-52902000D01*
X192826709Y-52545446D01*
X191870000Y-52355145D01*
X190913291Y-52545446D01*
X190600000Y-52754780D01*
X190286709Y-52545446D01*
X189330000Y-52355145D01*
X188373291Y-52545446D01*
X188060000Y-52754780D01*
X187746709Y-52545446D01*
X186790000Y-52355145D01*
X185833291Y-52545446D01*
X185520000Y-52754780D01*
X185206709Y-52545446D01*
X184250000Y-52355145D01*
X183293291Y-52545446D01*
X182980000Y-52754780D01*
X182666709Y-52545446D01*
X181710000Y-52355145D01*
X180753291Y-52545446D01*
X180440000Y-52754780D01*
X180126709Y-52545446D01*
X179170000Y-52355145D01*
X178213291Y-52545446D01*
X177402233Y-53087378D01*
X176860301Y-53898436D01*
X176670000Y-54855145D01*
X160794559Y-54855145D01*
X160955867Y-54824793D01*
X161466396Y-54496276D01*
X161808892Y-53995017D01*
X161929386Y-53400000D01*
X161929386Y-51600000D01*
X161824793Y-51044133D01*
X161496276Y-50533604D01*
X161337329Y-50425000D01*
X199722480Y-50425000D01*
X199301292Y-50845453D01*
X198950400Y-51690495D01*
X198949601Y-52605491D01*
X199299018Y-53451143D01*
X199945453Y-54098708D01*
X200340331Y-54262676D01*
X200100400Y-54840495D01*
X200099601Y-55755491D01*
X200449018Y-56601143D01*
X200853410Y-57006242D01*
X200410017Y-57669828D01*
X200234940Y-58550000D01*
X200410017Y-59430172D01*
X200908594Y-60176346D01*
X201654768Y-60674923D01*
X202534940Y-60850000D01*
X202625060Y-60850000D01*
X203505232Y-60674923D01*
X204009308Y-60338110D01*
X203943664Y-60627979D01*
X204750000Y-61434315D01*
X205032843Y-61151472D01*
X205088730Y-61207359D01*
X204950400Y-61540495D01*
X204949601Y-62455491D01*
X205088857Y-62792514D01*
X205032843Y-62848528D01*
X204750000Y-62565685D01*
X203943664Y-63372021D01*
X204015887Y-63690940D01*
X204718863Y-63843157D01*
X205108294Y-63772511D01*
X205339460Y-64003677D01*
X205670182Y-63672955D01*
X205945453Y-63948708D01*
X206790495Y-64299600D01*
X207705491Y-64300399D01*
X208083387Y-64144255D01*
X207954940Y-64790000D01*
X208130017Y-65670172D01*
X208390491Y-66060000D01*
X208130017Y-66449828D01*
X207954940Y-67330000D01*
X208130017Y-68210172D01*
X208390491Y-68600000D01*
X208130017Y-68989828D01*
X207954940Y-69870000D01*
X208130017Y-70750172D01*
X208628594Y-71496346D01*
X209374768Y-71994923D01*
X210254940Y-72170000D01*
X210345060Y-72170000D01*
X211225232Y-71994923D01*
X211898590Y-71545000D01*
X214670000Y-71545000D01*
X215310995Y-71417498D01*
X215854404Y-71054404D01*
X215913687Y-70995121D01*
X216248594Y-71496346D01*
X216994768Y-71994923D01*
X217874940Y-72170000D01*
X217965060Y-72170000D01*
X218845232Y-71994923D01*
X219591406Y-71496346D01*
X220089983Y-70750172D01*
X220099461Y-70702521D01*
X229029022Y-70702521D01*
X229444157Y-71320506D01*
X230055483Y-71728952D01*
X230340000Y-71561686D01*
X230340000Y-70418000D01*
X231240000Y-70418000D01*
X231240000Y-71561686D01*
X231524517Y-71728952D01*
X231759397Y-71572021D01*
X238303664Y-71572021D01*
X238375887Y-71890940D01*
X239078863Y-72043157D01*
X239786580Y-71914771D01*
X239844113Y-71890940D01*
X239916336Y-71572021D01*
X239110000Y-70765685D01*
X238303664Y-71572021D01*
X231759397Y-71572021D01*
X232135843Y-71320506D01*
X232550978Y-70702521D01*
X232392202Y-70418000D01*
X231240000Y-70418000D01*
X230340000Y-70418000D01*
X229187798Y-70418000D01*
X229029022Y-70702521D01*
X220099461Y-70702521D01*
X220265060Y-69870000D01*
X220089983Y-68989828D01*
X219829509Y-68600000D01*
X220089983Y-68210172D01*
X220097571Y-68172027D01*
X220260430Y-68239652D01*
X220422000Y-68239793D01*
X220422000Y-68510002D01*
X220546057Y-68510002D01*
X220575459Y-68580986D01*
X220859014Y-68864541D01*
X221229496Y-69018000D01*
X221428000Y-69018000D01*
X221680000Y-68766000D01*
X221680000Y-67982547D01*
X221791429Y-67936506D01*
X221968243Y-67760000D01*
X222180000Y-67760000D01*
X222180000Y-68766000D01*
X222432000Y-69018000D01*
X222630504Y-69018000D01*
X223000986Y-68864541D01*
X223284541Y-68580986D01*
X223438000Y-68210503D01*
X223438000Y-68012000D01*
X223186000Y-67760000D01*
X222180000Y-67760000D01*
X221968243Y-67760000D01*
X222354529Y-67374388D01*
X222402027Y-67260000D01*
X223186000Y-67260000D01*
X223438000Y-67008000D01*
X223438000Y-66809497D01*
X223285939Y-66442388D01*
X223624529Y-66104388D01*
X223929652Y-65369570D01*
X223930346Y-64573921D01*
X223688249Y-63988000D01*
X228360614Y-63988000D01*
X228360614Y-65788000D01*
X228465207Y-66343867D01*
X228565341Y-66499480D01*
X228390000Y-67380981D01*
X228390000Y-67475019D01*
X228572689Y-68393459D01*
X229081638Y-69155154D01*
X229029022Y-69233479D01*
X229187798Y-69518000D01*
X229610657Y-69518000D01*
X229871560Y-69692330D01*
X230790000Y-69875019D01*
X231708440Y-69692330D01*
X231969343Y-69518000D01*
X232392202Y-69518000D01*
X232550978Y-69233479D01*
X232498362Y-69155154D01*
X232764753Y-68756471D01*
X233499688Y-68756471D01*
X233773145Y-69418286D01*
X234279051Y-69925076D01*
X234940387Y-70199687D01*
X235656471Y-70200312D01*
X236318286Y-69926855D01*
X236825076Y-69420949D01*
X236844156Y-69375000D01*
X237341863Y-69375000D01*
X237106323Y-69610540D01*
X237337649Y-69841866D01*
X237266843Y-70168863D01*
X237395229Y-70876580D01*
X237419060Y-70934113D01*
X237737979Y-71006336D01*
X238544315Y-70200000D01*
X238261472Y-69917157D01*
X238317359Y-69861270D01*
X238650495Y-69999600D01*
X239565491Y-70000399D01*
X239895312Y-69864120D01*
X239953439Y-69922247D01*
X239675685Y-70200000D01*
X240482021Y-71006336D01*
X240800940Y-70934113D01*
X240830196Y-70799004D01*
X242148983Y-72117791D01*
X242273145Y-72418286D01*
X242774597Y-72920614D01*
X241500000Y-72920614D01*
X240944133Y-73025207D01*
X240433604Y-73353724D01*
X240091108Y-73854983D01*
X239970614Y-74450000D01*
X239970614Y-76050000D01*
X240075207Y-76605867D01*
X240403724Y-77116396D01*
X240904983Y-77458892D01*
X241500000Y-77579386D01*
X243100000Y-77579386D01*
X243655867Y-77474793D01*
X243852496Y-77348266D01*
X243959828Y-77419983D01*
X244840000Y-77595060D01*
X245720172Y-77419983D01*
X246110000Y-77159509D01*
X246499828Y-77419983D01*
X247380000Y-77595060D01*
X248260172Y-77419983D01*
X248650000Y-77159509D01*
X249039828Y-77419983D01*
X249920000Y-77595060D01*
X250800172Y-77419983D01*
X251190000Y-77159509D01*
X251579828Y-77419983D01*
X252460000Y-77595060D01*
X253340172Y-77419983D01*
X253730000Y-77159509D01*
X254119828Y-77419983D01*
X255000000Y-77595060D01*
X255880172Y-77419983D01*
X256270000Y-77159509D01*
X256659828Y-77419983D01*
X257540000Y-77595060D01*
X258420172Y-77419983D01*
X259166346Y-76921406D01*
X259234004Y-76820149D01*
X259367210Y-76911591D01*
X259409100Y-76928915D01*
X259680000Y-76753707D01*
X259680000Y-76099435D01*
X259769398Y-75650000D01*
X260480000Y-75650000D01*
X260480000Y-76753707D01*
X260750900Y-76928915D01*
X260792790Y-76911591D01*
X261374395Y-76512337D01*
X261758941Y-75920904D01*
X261591223Y-75650000D01*
X260480000Y-75650000D01*
X259769398Y-75650000D01*
X259840000Y-75295060D01*
X259840000Y-75204940D01*
X259680000Y-74400565D01*
X259680000Y-73746293D01*
X260480000Y-73746293D01*
X260480000Y-74850000D01*
X261591223Y-74850000D01*
X261758941Y-74579096D01*
X261374395Y-73987663D01*
X260792790Y-73588409D01*
X260750900Y-73571085D01*
X260480000Y-73746293D01*
X259680000Y-73746293D01*
X259409100Y-73571085D01*
X259367210Y-73588409D01*
X259234004Y-73679851D01*
X259166346Y-73578594D01*
X258420172Y-73080017D01*
X257540000Y-72904940D01*
X256659828Y-73080017D01*
X256270000Y-73340491D01*
X255880172Y-73080017D01*
X255000000Y-72904940D01*
X254119828Y-73080017D01*
X253730000Y-73340491D01*
X253340172Y-73080017D01*
X252460000Y-72904940D01*
X251579828Y-73080017D01*
X251190000Y-73340491D01*
X250800172Y-73080017D01*
X249920000Y-72904940D01*
X249039828Y-73080017D01*
X248650000Y-73340491D01*
X248260172Y-73080017D01*
X247380000Y-72904940D01*
X246499828Y-73080017D01*
X246110000Y-73340491D01*
X245720172Y-73080017D01*
X244840200Y-72904980D01*
X245325076Y-72420949D01*
X245599687Y-71759613D01*
X245600041Y-71353977D01*
X245738286Y-71296855D01*
X246245076Y-70790949D01*
X246519687Y-70129613D01*
X246519971Y-69803990D01*
X247380000Y-69975060D01*
X248260172Y-69799983D01*
X249006346Y-69301406D01*
X249074004Y-69200149D01*
X249207210Y-69291591D01*
X249249100Y-69308915D01*
X249520000Y-69133707D01*
X249520000Y-68479435D01*
X249680000Y-67675060D01*
X249680000Y-67584940D01*
X249520000Y-66780565D01*
X249520000Y-66126293D01*
X249249100Y-65951085D01*
X249207210Y-65968409D01*
X249074004Y-66059851D01*
X249006346Y-65958594D01*
X248260172Y-65460017D01*
X247380000Y-65284940D01*
X246499828Y-65460017D01*
X246110000Y-65720491D01*
X245720172Y-65460017D01*
X244840000Y-65284940D01*
X243959828Y-65460017D01*
X243570000Y-65720491D01*
X243180172Y-65460017D01*
X242300000Y-65284940D01*
X241419828Y-65460017D01*
X240673654Y-65958594D01*
X240652737Y-65989898D01*
X240414547Y-65751292D01*
X239569505Y-65400400D01*
X238654509Y-65399601D01*
X237808857Y-65749018D01*
X237532393Y-66025000D01*
X236000000Y-66025000D01*
X235359005Y-66152502D01*
X234815596Y-66515596D01*
X234582209Y-66748983D01*
X234281714Y-66873145D01*
X233774924Y-67379051D01*
X233500313Y-68040387D01*
X233499688Y-68756471D01*
X232764753Y-68756471D01*
X233007311Y-68393459D01*
X233190000Y-67475019D01*
X233190000Y-67380981D01*
X233015709Y-66504760D01*
X233098892Y-66383017D01*
X233219386Y-65788000D01*
X233219386Y-64272787D01*
X256475741Y-64272787D01*
X256610017Y-64608100D01*
X257476886Y-64749944D01*
X258189983Y-64608100D01*
X258324259Y-64272787D01*
X257400000Y-63348528D01*
X256475741Y-64272787D01*
X233219386Y-64272787D01*
X233219386Y-63988000D01*
X233114793Y-63432133D01*
X232786276Y-62921604D01*
X232285017Y-62579108D01*
X231690000Y-62458614D01*
X229890000Y-62458614D01*
X229334133Y-62563207D01*
X228823604Y-62891724D01*
X228481108Y-63392983D01*
X228360614Y-63988000D01*
X223688249Y-63988000D01*
X223626506Y-63838571D01*
X223064388Y-63275471D01*
X222329570Y-62970348D01*
X221533921Y-62969654D01*
X220798571Y-63273494D01*
X220235471Y-63835612D01*
X220127123Y-64096543D01*
X220089983Y-63909828D01*
X219829509Y-63520000D01*
X220089983Y-63130172D01*
X220265060Y-62250000D01*
X220166697Y-61755491D01*
X242949601Y-61755491D01*
X243299018Y-62601143D01*
X243945453Y-63248708D01*
X244790495Y-63599600D01*
X245705491Y-63600399D01*
X246551143Y-63250982D01*
X246774910Y-63027605D01*
X247095453Y-63348708D01*
X247940495Y-63699600D01*
X248855491Y-63700399D01*
X249701143Y-63350982D01*
X250348708Y-62704547D01*
X250401717Y-62576886D01*
X255150056Y-62576886D01*
X255291900Y-63289983D01*
X255627213Y-63424259D01*
X256551472Y-62500000D01*
X258248528Y-62500000D01*
X259172787Y-63424259D01*
X259508100Y-63289983D01*
X259649944Y-62423114D01*
X259508100Y-61710017D01*
X259172787Y-61575741D01*
X258248528Y-62500000D01*
X256551472Y-62500000D01*
X255627213Y-61575741D01*
X255291900Y-61710017D01*
X255150056Y-62576886D01*
X250401717Y-62576886D01*
X250699600Y-61859505D01*
X250700399Y-60944509D01*
X250610614Y-60727213D01*
X256475741Y-60727213D01*
X257400000Y-61651472D01*
X258324259Y-60727213D01*
X258189983Y-60391900D01*
X257323114Y-60250056D01*
X256610017Y-60391900D01*
X256475741Y-60727213D01*
X250610614Y-60727213D01*
X250350982Y-60098857D01*
X249704547Y-59451292D01*
X248859505Y-59100400D01*
X247944509Y-59099601D01*
X247098857Y-59449018D01*
X246875090Y-59672395D01*
X246554547Y-59351292D01*
X245709505Y-59000400D01*
X244794509Y-58999601D01*
X243948857Y-59349018D01*
X243301292Y-59995453D01*
X242950400Y-60840495D01*
X242949601Y-61755491D01*
X220166697Y-61755491D01*
X220089983Y-61369828D01*
X219591406Y-60623654D01*
X219404446Y-60498732D01*
X219448708Y-60454547D01*
X219799600Y-59609505D01*
X219800399Y-58694509D01*
X219450982Y-57848857D01*
X218804547Y-57201292D01*
X217959505Y-56850400D01*
X217044509Y-56849601D01*
X216198857Y-57199018D01*
X215920263Y-57477126D01*
X215589460Y-57146323D01*
X215358134Y-57377649D01*
X215031137Y-57306843D01*
X214641706Y-57377489D01*
X214410540Y-57146323D01*
X214179280Y-57377583D01*
X214176855Y-57371714D01*
X214105000Y-57299733D01*
X214105000Y-55723508D01*
X214427429Y-55590283D01*
X215187614Y-54831424D01*
X215599530Y-53839419D01*
X215599534Y-53834707D01*
X223199532Y-53834707D01*
X223609717Y-54827429D01*
X224368576Y-55587614D01*
X225360581Y-55999530D01*
X226434707Y-56000468D01*
X227427429Y-55590283D01*
X228187614Y-54831424D01*
X228599530Y-53839419D01*
X228600468Y-52765293D01*
X228190283Y-51772571D01*
X227431424Y-51012386D01*
X226439419Y-50600470D01*
X225365293Y-50599532D01*
X224372571Y-51009717D01*
X223612386Y-51768576D01*
X223200470Y-52760581D01*
X223199532Y-53834707D01*
X215599534Y-53834707D01*
X215600468Y-52765293D01*
X215190283Y-51772571D01*
X214431424Y-51012386D01*
X213439419Y-50600470D01*
X212365293Y-50599532D01*
X211372571Y-51009717D01*
X211051915Y-51329814D01*
X211039983Y-51269828D01*
X210541406Y-50523654D01*
X210393760Y-50425000D01*
X234635804Y-50425000D01*
X234119073Y-50940829D01*
X233780387Y-51756477D01*
X233779616Y-52639648D01*
X234116879Y-53455886D01*
X234740829Y-54080927D01*
X234786762Y-54100000D01*
X234729063Y-54100000D01*
X233734086Y-54297913D01*
X232890585Y-54861522D01*
X232326976Y-55705023D01*
X232129063Y-56700000D01*
X232326976Y-57694977D01*
X232890585Y-58538478D01*
X233734086Y-59102087D01*
X234729063Y-59300000D01*
X234830937Y-59300000D01*
X235825914Y-59102087D01*
X236669415Y-58538478D01*
X237233024Y-57694977D01*
X237430937Y-56700000D01*
X237233024Y-55705023D01*
X236669415Y-54861522D01*
X236008642Y-54420008D01*
X236439648Y-54420384D01*
X237255886Y-54083121D01*
X237269476Y-54069554D01*
X237280829Y-54080927D01*
X238096477Y-54419613D01*
X238979648Y-54420384D01*
X239795886Y-54083121D01*
X239809476Y-54069554D01*
X239820829Y-54080927D01*
X240471059Y-54350926D01*
X240233604Y-54503724D01*
X239891108Y-55004983D01*
X239770614Y-55600000D01*
X239770614Y-57800000D01*
X239875207Y-58355867D01*
X240203724Y-58866396D01*
X240704983Y-59208892D01*
X241300000Y-59329386D01*
X243500000Y-59329386D01*
X244055867Y-59224793D01*
X244566396Y-58896276D01*
X244908892Y-58395017D01*
X245029386Y-57800000D01*
X245029386Y-55981177D01*
X245250000Y-56025060D01*
X246130172Y-55849983D01*
X246759157Y-55429709D01*
X246773654Y-55451406D01*
X247519828Y-55949983D01*
X248400000Y-56125060D01*
X249280172Y-55949983D01*
X250026346Y-55451406D01*
X250524923Y-54705232D01*
X250700000Y-53825060D01*
X250700000Y-53734940D01*
X250524923Y-52854768D01*
X250026346Y-52108594D01*
X249280172Y-51610017D01*
X248832151Y-51520900D01*
X250491085Y-51520900D01*
X250508409Y-51562790D01*
X250907663Y-52144395D01*
X251499096Y-52528941D01*
X251770000Y-52361223D01*
X251770000Y-51250000D01*
X250666293Y-51250000D01*
X250491085Y-51520900D01*
X248832151Y-51520900D01*
X248400000Y-51434940D01*
X247519828Y-51610017D01*
X246890843Y-52030291D01*
X246876346Y-52008594D01*
X246628170Y-51842768D01*
X246849600Y-51309505D01*
X246850372Y-50425000D01*
X250650124Y-50425000D01*
X250666293Y-50450000D01*
X251770000Y-50450000D01*
X251770000Y-50425000D01*
X252570000Y-50425000D01*
X252570000Y-50450000D01*
X252970000Y-50450000D01*
X252970000Y-51250000D01*
X252570000Y-51250000D01*
X252570000Y-52361223D01*
X252840904Y-52528941D01*
X253432337Y-52144395D01*
X253634429Y-51850002D01*
X253978000Y-51850002D01*
X253978000Y-51156315D01*
X254334315Y-50800000D01*
X254051472Y-50517157D01*
X254143629Y-50425000D01*
X255100326Y-50425000D01*
X255099601Y-51255491D01*
X255238857Y-51592514D01*
X255182843Y-51648528D01*
X254900000Y-51365685D01*
X254093664Y-52172021D01*
X254165887Y-52490940D01*
X254868863Y-52643157D01*
X255258294Y-52572511D01*
X255289311Y-52603528D01*
X255133604Y-52703724D01*
X254791108Y-53204983D01*
X254670614Y-53800000D01*
X254670614Y-56200000D01*
X254775207Y-56755867D01*
X255103724Y-57266396D01*
X255604983Y-57608892D01*
X256200000Y-57729386D01*
X258600000Y-57729386D01*
X259155867Y-57624793D01*
X259666396Y-57296276D01*
X260008892Y-56795017D01*
X260129386Y-56200000D01*
X260129386Y-53800000D01*
X260024793Y-53244133D01*
X259696276Y-52733604D01*
X259195017Y-52391108D01*
X259084139Y-52368655D01*
X259348708Y-52104547D01*
X259699600Y-51259505D01*
X259700329Y-50425000D01*
X262663509Y-50425000D01*
X262468614Y-50894360D01*
X262467388Y-52299476D01*
X263003970Y-53598104D01*
X263996670Y-54592538D01*
X265294360Y-55131386D01*
X266699476Y-55132612D01*
X267175000Y-54936130D01*
X267175000Y-67300614D01*
X265660000Y-67300614D01*
X265104133Y-67405207D01*
X264898916Y-67537261D01*
X264814771Y-67073420D01*
X264790940Y-67015887D01*
X264472021Y-66943664D01*
X263665685Y-67750000D01*
X263948528Y-68032843D01*
X263892641Y-68088730D01*
X263559505Y-67950400D01*
X262644509Y-67949601D01*
X262307486Y-68088857D01*
X262299316Y-68080687D01*
X262323075Y-67961240D01*
X262534315Y-67750000D01*
X262380000Y-67595685D01*
X262380000Y-67584940D01*
X262339134Y-67379495D01*
X262817157Y-66901472D01*
X263100000Y-67184315D01*
X263906336Y-66377979D01*
X263834113Y-66059060D01*
X263131137Y-65906843D01*
X262741706Y-65977489D01*
X262510540Y-65746323D01*
X261943437Y-66313426D01*
X261706346Y-65958594D01*
X260960172Y-65460017D01*
X260080000Y-65284940D01*
X259199828Y-65460017D01*
X258810000Y-65720491D01*
X258420172Y-65460017D01*
X257540000Y-65284940D01*
X256659828Y-65460017D01*
X256270000Y-65720491D01*
X255880172Y-65460017D01*
X255000000Y-65284940D01*
X254119828Y-65460017D01*
X253730000Y-65720491D01*
X253340172Y-65460017D01*
X252460000Y-65284940D01*
X251579828Y-65460017D01*
X250833654Y-65958594D01*
X250765996Y-66059851D01*
X250632790Y-65968409D01*
X250590900Y-65951085D01*
X250320000Y-66126293D01*
X250320000Y-66780565D01*
X250160000Y-67584940D01*
X250160000Y-67675060D01*
X250320000Y-68479435D01*
X250320000Y-69133707D01*
X250590900Y-69308915D01*
X250632790Y-69291591D01*
X250765996Y-69200149D01*
X250833654Y-69301406D01*
X251579828Y-69799983D01*
X252460000Y-69975060D01*
X253340172Y-69799983D01*
X253730000Y-69539509D01*
X254119828Y-69799983D01*
X255000000Y-69975060D01*
X255880172Y-69799983D01*
X256270000Y-69539509D01*
X256659828Y-69799983D01*
X257540000Y-69975060D01*
X258420172Y-69799983D01*
X258810000Y-69539509D01*
X259199828Y-69799983D01*
X260080000Y-69975060D01*
X260800364Y-69831771D01*
X260799601Y-70705491D01*
X261149018Y-71551143D01*
X261435918Y-71838544D01*
X261425077Y-71854768D01*
X261250000Y-72734940D01*
X261250000Y-72825060D01*
X261425077Y-73705232D01*
X261923654Y-74451406D01*
X262669828Y-74949983D01*
X263550000Y-75125060D01*
X264430172Y-74949983D01*
X265176346Y-74451406D01*
X265324051Y-74230350D01*
X265564655Y-74391117D01*
X266463961Y-74570000D01*
X266556039Y-74570000D01*
X267175000Y-74446881D01*
X267175000Y-95350000D01*
X128268808Y-95350000D01*
X128693808Y-94925000D01*
X139200000Y-94925000D01*
X139840995Y-94797498D01*
X140384404Y-94434404D01*
X145384404Y-89434404D01*
X145561013Y-89170090D01*
X145740486Y-88907668D01*
X145742381Y-88898653D01*
X145747498Y-88890994D01*
X145809521Y-88579184D01*
X145874902Y-88268087D01*
X145905247Y-85458169D01*
X146095453Y-85648708D01*
X146940495Y-85999600D01*
X147855491Y-86000399D01*
X148701143Y-85650982D01*
X149228379Y-85124666D01*
X149573654Y-85641406D01*
X150319828Y-86139983D01*
X151200000Y-86315060D01*
X152080172Y-86139983D01*
X152773709Y-85676577D01*
X152995453Y-85898708D01*
X153840495Y-86249600D01*
X154755491Y-86250399D01*
X155601143Y-85900982D01*
X156248708Y-85254547D01*
X156318864Y-85085594D01*
X156723654Y-85691406D01*
X157469828Y-86189983D01*
X158350000Y-86365060D01*
X159230172Y-86189983D01*
X159923762Y-85726542D01*
X160195453Y-85998708D01*
X161040495Y-86349600D01*
X161955491Y-86350399D01*
X162801143Y-86000982D01*
X163448708Y-85354547D01*
X163799600Y-84509505D01*
X163800399Y-83594509D01*
X163450982Y-82748857D01*
X162804547Y-82101292D01*
X161959505Y-81750400D01*
X161044509Y-81749601D01*
X160198857Y-82099018D01*
X159959872Y-82337586D01*
X159230172Y-81850017D01*
X158350000Y-81674940D01*
X157469828Y-81850017D01*
X156723654Y-82348594D01*
X156354930Y-82900429D01*
X156250982Y-82648857D01*
X155604547Y-82001292D01*
X154759505Y-81650400D01*
X153844509Y-81649601D01*
X152998857Y-81999018D01*
X152749916Y-82247525D01*
X152080172Y-81800017D01*
X151200000Y-81624940D01*
X150319828Y-81800017D01*
X149573654Y-82298594D01*
X149410467Y-82542821D01*
X149350982Y-82398857D01*
X148704547Y-81751292D01*
X147859505Y-81400400D01*
X146944509Y-81399601D01*
X146098857Y-81749018D01*
X145885383Y-81962119D01*
X145876346Y-81948594D01*
X145130172Y-81450017D01*
X144250000Y-81274940D01*
X143369828Y-81450017D01*
X142623654Y-81948594D01*
X142322084Y-82399927D01*
X142300982Y-82348857D01*
X141654547Y-81701292D01*
X140809505Y-81350400D01*
X139894509Y-81349601D01*
X139048857Y-81699018D01*
X138785348Y-81962067D01*
X138776346Y-81948594D01*
X138030172Y-81450017D01*
X137150000Y-81274940D01*
X136269828Y-81450017D01*
X135523654Y-81948594D01*
X135314256Y-82261980D01*
X134754547Y-81701292D01*
X133909505Y-81350400D01*
X132994509Y-81349601D01*
X132148857Y-81699018D01*
X131809767Y-82037516D01*
X131080172Y-81550017D01*
X130200000Y-81374940D01*
X129319828Y-81550017D01*
X128573654Y-82048594D01*
X128241189Y-82546164D01*
X128200982Y-82448857D01*
X127554547Y-81801292D01*
X126709505Y-81450400D01*
X125794509Y-81449601D01*
X124948857Y-81799018D01*
X124740012Y-82007499D01*
X124130172Y-81600017D01*
X123250000Y-81424940D01*
X122369828Y-81600017D01*
X121623654Y-82098594D01*
X121334169Y-82531840D01*
X120804547Y-82001292D01*
X119959505Y-81650400D01*
X119044509Y-81649601D01*
X118198857Y-81999018D01*
X117955389Y-82242061D01*
X117926346Y-82198594D01*
X117180172Y-81700017D01*
X116300000Y-81524940D01*
X115419828Y-81700017D01*
X114673654Y-82198594D01*
X114175077Y-82944768D01*
X114000000Y-83824940D01*
X114000000Y-83915060D01*
X114175077Y-84795232D01*
X114673654Y-85541406D01*
X114731009Y-85579730D01*
X114755950Y-85621590D01*
X114886381Y-85718858D01*
X114995000Y-85840000D01*
X115125000Y-85937500D01*
X115125000Y-95350000D01*
X113825000Y-95350000D01*
X113825000Y-76705491D01*
X113999601Y-76705491D01*
X114349018Y-77551143D01*
X114995453Y-78198708D01*
X115840495Y-78549600D01*
X116755491Y-78550399D01*
X117601143Y-78200982D01*
X117844611Y-77957939D01*
X117873654Y-78001406D01*
X118619828Y-78499983D01*
X119500000Y-78675060D01*
X120380172Y-78499983D01*
X121126346Y-78001406D01*
X121415831Y-77568160D01*
X121945453Y-78098708D01*
X122790495Y-78449600D01*
X123705491Y-78450399D01*
X124551143Y-78100982D01*
X124759988Y-77892501D01*
X125369828Y-78299983D01*
X126250000Y-78475060D01*
X127130172Y-78299983D01*
X127876346Y-77801406D01*
X128208811Y-77303836D01*
X128249018Y-77401143D01*
X128895453Y-78048708D01*
X129740495Y-78399600D01*
X130655491Y-78400399D01*
X131501143Y-78050982D01*
X131840233Y-77712484D01*
X132569828Y-78199983D01*
X133450000Y-78375060D01*
X134330172Y-78199983D01*
X135076346Y-77701406D01*
X135285744Y-77388020D01*
X135845453Y-77948708D01*
X136690495Y-78299600D01*
X137605491Y-78300399D01*
X138451143Y-77950982D01*
X138714652Y-77687933D01*
X138723654Y-77701406D01*
X139469828Y-78199983D01*
X140350000Y-78375060D01*
X141230172Y-78199983D01*
X141976346Y-77701406D01*
X142277916Y-77250073D01*
X142299018Y-77301143D01*
X142945453Y-77948708D01*
X143790495Y-78299600D01*
X144705491Y-78300399D01*
X145551143Y-77950982D01*
X145764617Y-77737881D01*
X145773654Y-77751406D01*
X146519828Y-78249983D01*
X147400000Y-78425060D01*
X148280172Y-78249983D01*
X149026346Y-77751406D01*
X149189533Y-77507179D01*
X149249018Y-77651143D01*
X149895453Y-78298708D01*
X150740495Y-78649600D01*
X151655491Y-78650399D01*
X152501143Y-78300982D01*
X152750084Y-78052475D01*
X153419828Y-78499983D01*
X154300000Y-78675060D01*
X155180172Y-78499983D01*
X155926346Y-78001406D01*
X156295070Y-77449571D01*
X156399018Y-77701143D01*
X157045453Y-78348708D01*
X157890495Y-78699600D01*
X158805491Y-78700399D01*
X159651143Y-78350982D01*
X159890128Y-78112414D01*
X160619828Y-78599983D01*
X161500000Y-78775060D01*
X162380172Y-78599983D01*
X163126346Y-78101406D01*
X163624923Y-77355232D01*
X163800000Y-76475060D01*
X163800000Y-76384940D01*
X163624923Y-75504768D01*
X163126346Y-74758594D01*
X162380172Y-74260017D01*
X162279678Y-74240027D01*
X162279793Y-74108000D01*
X162550002Y-74108000D01*
X162550002Y-73983943D01*
X162620986Y-73954541D01*
X162904541Y-73670986D01*
X163058000Y-73300504D01*
X163058000Y-73102000D01*
X162806000Y-72850000D01*
X162022547Y-72850000D01*
X161976506Y-72738571D01*
X161414388Y-72175471D01*
X161300000Y-72127973D01*
X161300000Y-71344000D01*
X161800000Y-71344000D01*
X161800000Y-72350000D01*
X162806000Y-72350000D01*
X163058000Y-72098000D01*
X163058000Y-71899496D01*
X162904541Y-71529014D01*
X162620986Y-71245459D01*
X162250503Y-71092000D01*
X162052000Y-71092000D01*
X161800000Y-71344000D01*
X161300000Y-71344000D01*
X161048000Y-71092000D01*
X160849497Y-71092000D01*
X160482388Y-71244061D01*
X160144388Y-70905471D01*
X159409570Y-70600348D01*
X158613921Y-70599654D01*
X157878571Y-70903494D01*
X157315471Y-71465612D01*
X157010348Y-72200430D01*
X157009654Y-72996079D01*
X157313494Y-73731429D01*
X157743366Y-74162052D01*
X157048857Y-74449018D01*
X156401292Y-75095453D01*
X156331136Y-75264406D01*
X155926346Y-74658594D01*
X155180172Y-74160017D01*
X155179660Y-74159915D01*
X155179793Y-74008000D01*
X155450002Y-74008000D01*
X155450002Y-73883943D01*
X155520986Y-73854541D01*
X155804541Y-73570986D01*
X155958000Y-73200504D01*
X155958000Y-73002000D01*
X155706000Y-72750000D01*
X154922547Y-72750000D01*
X154876506Y-72638571D01*
X154314388Y-72075471D01*
X154200000Y-72027973D01*
X154200000Y-71244000D01*
X154700000Y-71244000D01*
X154700000Y-72250000D01*
X155706000Y-72250000D01*
X155958000Y-71998000D01*
X155958000Y-71799496D01*
X155804541Y-71429014D01*
X155520986Y-71145459D01*
X155150503Y-70992000D01*
X154952000Y-70992000D01*
X154700000Y-71244000D01*
X154200000Y-71244000D01*
X153948000Y-70992000D01*
X153749497Y-70992000D01*
X153382388Y-71144061D01*
X153044388Y-70805471D01*
X152309570Y-70500348D01*
X151513921Y-70499654D01*
X150778571Y-70803494D01*
X150215471Y-71365612D01*
X149910348Y-72100430D01*
X149909654Y-72896079D01*
X150213494Y-73631429D01*
X150664102Y-74082824D01*
X149898857Y-74399018D01*
X149371621Y-74925334D01*
X149026346Y-74408594D01*
X148280172Y-73910017D01*
X148106444Y-73875460D01*
X148129652Y-73819570D01*
X148129793Y-73658000D01*
X148400002Y-73658000D01*
X148400002Y-73533943D01*
X148470986Y-73504541D01*
X148754541Y-73220986D01*
X148908000Y-72850504D01*
X148908000Y-72652000D01*
X148656000Y-72400000D01*
X147872547Y-72400000D01*
X147826506Y-72288571D01*
X147264388Y-71725471D01*
X147150000Y-71677973D01*
X147150000Y-70894000D01*
X147650000Y-70894000D01*
X147650000Y-71900000D01*
X148656000Y-71900000D01*
X148908000Y-71648000D01*
X148908000Y-71449496D01*
X148754541Y-71079014D01*
X148470986Y-70795459D01*
X148100503Y-70642000D01*
X147902000Y-70642000D01*
X147650000Y-70894000D01*
X147150000Y-70894000D01*
X146898000Y-70642000D01*
X146699497Y-70642000D01*
X146332388Y-70794061D01*
X145994388Y-70455471D01*
X145259570Y-70150348D01*
X144463921Y-70149654D01*
X143728571Y-70453494D01*
X143165471Y-71015612D01*
X142860348Y-71750430D01*
X142859654Y-72546079D01*
X143163494Y-73281429D01*
X143643304Y-73762078D01*
X142948857Y-74049018D01*
X142301292Y-74695453D01*
X142263017Y-74787629D01*
X141976346Y-74358594D01*
X141230172Y-73860017D01*
X140968666Y-73808000D01*
X141150002Y-73808000D01*
X141150002Y-73683943D01*
X141220986Y-73654541D01*
X141504541Y-73370986D01*
X141658000Y-73000504D01*
X141658000Y-72802000D01*
X141406000Y-72550000D01*
X140622547Y-72550000D01*
X140576506Y-72438571D01*
X140014388Y-71875471D01*
X139900000Y-71827973D01*
X139900000Y-71044000D01*
X140400000Y-71044000D01*
X140400000Y-72050000D01*
X141406000Y-72050000D01*
X141658000Y-71798000D01*
X141658000Y-71599496D01*
X141504541Y-71229014D01*
X141220986Y-70945459D01*
X140850503Y-70792000D01*
X140652000Y-70792000D01*
X140400000Y-71044000D01*
X139900000Y-71044000D01*
X139648000Y-70792000D01*
X139449497Y-70792000D01*
X139082388Y-70944061D01*
X138744388Y-70605471D01*
X138009570Y-70300348D01*
X137213921Y-70299654D01*
X136478571Y-70603494D01*
X135915471Y-71165612D01*
X135610348Y-71900430D01*
X135609654Y-72696079D01*
X135913494Y-73431429D01*
X136331096Y-73849761D01*
X135848857Y-74049018D01*
X135261361Y-74635489D01*
X135076346Y-74358594D01*
X134330172Y-73860017D01*
X133879782Y-73770429D01*
X133879793Y-73758000D01*
X134150002Y-73758000D01*
X134150002Y-73633943D01*
X134220986Y-73604541D01*
X134504541Y-73320986D01*
X134658000Y-72950504D01*
X134658000Y-72752000D01*
X134406000Y-72500000D01*
X133622547Y-72500000D01*
X133576506Y-72388571D01*
X133014388Y-71825471D01*
X132900000Y-71777973D01*
X132900000Y-70994000D01*
X133400000Y-70994000D01*
X133400000Y-72000000D01*
X134406000Y-72000000D01*
X134658000Y-71748000D01*
X134658000Y-71549496D01*
X134504541Y-71179014D01*
X134220986Y-70895459D01*
X133850503Y-70742000D01*
X133652000Y-70742000D01*
X133400000Y-70994000D01*
X132900000Y-70994000D01*
X132648000Y-70742000D01*
X132449497Y-70742000D01*
X132082388Y-70894061D01*
X131744388Y-70555471D01*
X131009570Y-70250348D01*
X130213921Y-70249654D01*
X129478571Y-70553494D01*
X128915471Y-71115612D01*
X128610348Y-71850430D01*
X128609654Y-72646079D01*
X128913494Y-73381429D01*
X129451709Y-73920584D01*
X128898857Y-74149018D01*
X128251292Y-74795453D01*
X128193854Y-74933779D01*
X127876346Y-74458594D01*
X127130172Y-73960017D01*
X126629791Y-73860485D01*
X126629793Y-73858000D01*
X126900002Y-73858000D01*
X126900002Y-73733943D01*
X126970986Y-73704541D01*
X127254541Y-73420986D01*
X127408000Y-73050504D01*
X127408000Y-72852000D01*
X127156000Y-72600000D01*
X126372547Y-72600000D01*
X126326506Y-72488571D01*
X125764388Y-71925471D01*
X125650000Y-71877973D01*
X125650000Y-71094000D01*
X126150000Y-71094000D01*
X126150000Y-72100000D01*
X127156000Y-72100000D01*
X127408000Y-71848000D01*
X127408000Y-71649496D01*
X127254541Y-71279014D01*
X126970986Y-70995459D01*
X126600503Y-70842000D01*
X126402000Y-70842000D01*
X126150000Y-71094000D01*
X125650000Y-71094000D01*
X125398000Y-70842000D01*
X125199497Y-70842000D01*
X124832388Y-70994061D01*
X124494388Y-70655471D01*
X123759570Y-70350348D01*
X122963921Y-70349654D01*
X122228571Y-70653494D01*
X121665471Y-71215612D01*
X121360348Y-71950430D01*
X121359654Y-72746079D01*
X121663494Y-73481429D01*
X122225612Y-74044529D01*
X122274060Y-74064646D01*
X121948857Y-74199018D01*
X121301292Y-74845453D01*
X121282094Y-74891687D01*
X121126346Y-74658594D01*
X120380172Y-74160017D01*
X120079712Y-74100252D01*
X120079793Y-74008000D01*
X120350002Y-74008000D01*
X120350002Y-73883943D01*
X120420986Y-73854541D01*
X120704541Y-73570986D01*
X120858000Y-73200504D01*
X120858000Y-73002000D01*
X120606000Y-72750000D01*
X119822547Y-72750000D01*
X119776506Y-72638571D01*
X119214388Y-72075471D01*
X119100000Y-72027973D01*
X119100000Y-71244000D01*
X119600000Y-71244000D01*
X119600000Y-72250000D01*
X120606000Y-72250000D01*
X120858000Y-71998000D01*
X120858000Y-71799496D01*
X120704541Y-71429014D01*
X120420986Y-71145459D01*
X120050503Y-70992000D01*
X119852000Y-70992000D01*
X119600000Y-71244000D01*
X119100000Y-71244000D01*
X118848000Y-70992000D01*
X118649497Y-70992000D01*
X118282388Y-71144061D01*
X117944388Y-70805471D01*
X117209570Y-70500348D01*
X116413921Y-70499654D01*
X115678571Y-70803494D01*
X115115471Y-71365612D01*
X114810348Y-72100430D01*
X114809654Y-72896079D01*
X115113494Y-73631429D01*
X115551832Y-74070533D01*
X114998857Y-74299018D01*
X114351292Y-74945453D01*
X114000400Y-75790495D01*
X113999601Y-76705491D01*
X113825000Y-76705491D01*
X113825000Y-68855491D01*
X165699601Y-68855491D01*
X166049018Y-69701143D01*
X166373493Y-70026186D01*
X165910017Y-70719828D01*
X165734940Y-71600000D01*
X165910017Y-72480172D01*
X166408594Y-73226346D01*
X166655981Y-73391645D01*
X166151292Y-73895453D01*
X165800400Y-74740495D01*
X165799601Y-75655491D01*
X166149018Y-76501143D01*
X166473493Y-76826186D01*
X166010017Y-77519828D01*
X165834940Y-78400000D01*
X166010017Y-79280172D01*
X166508594Y-80026346D01*
X166755981Y-80191645D01*
X166251292Y-80695453D01*
X165900400Y-81540495D01*
X165899601Y-82455491D01*
X166249018Y-83301143D01*
X166516068Y-83568660D01*
X166508594Y-83573654D01*
X166010017Y-84319828D01*
X165834940Y-85200000D01*
X166010017Y-86080172D01*
X166508594Y-86826346D01*
X166755981Y-86991645D01*
X166251292Y-87495453D01*
X165900400Y-88340495D01*
X165899601Y-89255491D01*
X166249018Y-90101143D01*
X166516068Y-90368660D01*
X166508594Y-90373654D01*
X166010017Y-91119828D01*
X165834940Y-92000000D01*
X166010017Y-92880172D01*
X166508594Y-93626346D01*
X167254768Y-94124923D01*
X168134940Y-94300000D01*
X168225060Y-94300000D01*
X169105232Y-94124923D01*
X169851406Y-93626346D01*
X170349983Y-92880172D01*
X170525060Y-92000000D01*
X170349983Y-91119828D01*
X169862499Y-90390256D01*
X170148708Y-90104547D01*
X170499600Y-89259505D01*
X170500399Y-88344509D01*
X170150982Y-87498857D01*
X169628395Y-86975357D01*
X169851406Y-86826346D01*
X170349983Y-86080172D01*
X170525060Y-85200000D01*
X170349983Y-84319828D01*
X169862499Y-83590256D01*
X170148708Y-83304547D01*
X170499600Y-82459505D01*
X170500399Y-81544509D01*
X170150982Y-80698857D01*
X169628395Y-80175357D01*
X169851406Y-80026346D01*
X170349983Y-79280172D01*
X170525060Y-78400000D01*
X170349983Y-77519828D01*
X169851406Y-76773654D01*
X169808110Y-76744725D01*
X170048708Y-76504547D01*
X170399600Y-75659505D01*
X170400399Y-74744509D01*
X170050982Y-73898857D01*
X169528395Y-73375357D01*
X169751406Y-73226346D01*
X170249983Y-72480172D01*
X170425060Y-71600000D01*
X170249983Y-70719828D01*
X169751406Y-69973654D01*
X169708110Y-69944725D01*
X169948708Y-69704547D01*
X170299600Y-68859505D01*
X170300001Y-68400000D01*
X173274940Y-68400000D01*
X173450017Y-69280172D01*
X173948594Y-70026346D01*
X173991890Y-70055275D01*
X173751292Y-70295453D01*
X173400400Y-71140495D01*
X173399601Y-72055491D01*
X173749018Y-72901143D01*
X174271605Y-73424643D01*
X174048594Y-73573654D01*
X173550017Y-74319828D01*
X173374940Y-75200000D01*
X173550017Y-76080172D01*
X174048594Y-76826346D01*
X174091890Y-76855275D01*
X173851292Y-77095453D01*
X173500400Y-77940495D01*
X173499601Y-78855491D01*
X173849018Y-79701143D01*
X174371605Y-80224643D01*
X174148594Y-80373654D01*
X173650017Y-81119828D01*
X173474940Y-82000000D01*
X173650017Y-82880172D01*
X174137501Y-83609744D01*
X173851292Y-83895453D01*
X173500400Y-84740495D01*
X173499601Y-85655491D01*
X173849018Y-86501143D01*
X174371605Y-87024643D01*
X174148594Y-87173654D01*
X173650017Y-87919828D01*
X173474940Y-88800000D01*
X173650017Y-89680172D01*
X174137501Y-90409744D01*
X173851292Y-90695453D01*
X173500400Y-91540495D01*
X173499601Y-92455491D01*
X173849018Y-93301143D01*
X174495453Y-93948708D01*
X175340495Y-94299600D01*
X176255491Y-94300399D01*
X177101143Y-93950982D01*
X177692271Y-93360885D01*
X177865612Y-93534529D01*
X178600430Y-93839652D01*
X179396079Y-93840346D01*
X180131429Y-93536506D01*
X180694529Y-92974388D01*
X180902941Y-92472477D01*
X181401429Y-92266506D01*
X181964529Y-91704388D01*
X182269652Y-90969570D01*
X182269955Y-90621079D01*
X184759654Y-90621079D01*
X185063494Y-91356429D01*
X185625612Y-91919529D01*
X186127523Y-92127941D01*
X186333494Y-92626429D01*
X186895612Y-93189529D01*
X187630430Y-93494652D01*
X188426079Y-93495346D01*
X189161429Y-93191506D01*
X189724529Y-92629388D01*
X189887044Y-92238008D01*
X190049708Y-92207400D01*
X190049601Y-92330491D01*
X190399018Y-93176143D01*
X191045453Y-93823708D01*
X191890495Y-94174600D01*
X192805491Y-94175399D01*
X193651143Y-93825982D01*
X193856033Y-93621450D01*
X194519828Y-94064983D01*
X195400000Y-94240060D01*
X196280172Y-94064983D01*
X197026346Y-93566406D01*
X197524923Y-92820232D01*
X197700000Y-91940060D01*
X197700000Y-91849940D01*
X197524923Y-90969768D01*
X197275233Y-90596079D01*
X197484654Y-90596079D01*
X197788494Y-91331429D01*
X198350612Y-91894529D01*
X198852523Y-92102941D01*
X199058494Y-92601429D01*
X199620612Y-93164529D01*
X200355430Y-93469652D01*
X201151079Y-93470346D01*
X201886429Y-93166506D01*
X202449529Y-92604388D01*
X202612044Y-92213008D01*
X202699783Y-92196498D01*
X202699601Y-92405491D01*
X203049018Y-93251143D01*
X203695453Y-93898708D01*
X204540495Y-94249600D01*
X205455491Y-94250399D01*
X206301143Y-93900982D01*
X206598654Y-93603990D01*
X206623654Y-93641406D01*
X207369828Y-94139983D01*
X208250000Y-94315060D01*
X209130172Y-94139983D01*
X209876346Y-93641406D01*
X210374923Y-92895232D01*
X210550000Y-92015060D01*
X210550000Y-91924940D01*
X210374923Y-91044768D01*
X209941484Y-90396079D01*
X210784654Y-90396079D01*
X211088494Y-91131429D01*
X211650612Y-91694529D01*
X212152523Y-91902941D01*
X212358494Y-92401429D01*
X212920612Y-92964529D01*
X213655430Y-93269652D01*
X214451079Y-93270346D01*
X215186429Y-92966506D01*
X215749529Y-92404388D01*
X215912044Y-92013008D01*
X216124804Y-91972974D01*
X216124601Y-92205491D01*
X216474018Y-93051143D01*
X217120453Y-93698708D01*
X217965495Y-94049600D01*
X218880491Y-94050399D01*
X219726143Y-93700982D01*
X219973619Y-93453938D01*
X219998654Y-93491406D01*
X220744828Y-93989983D01*
X221625000Y-94165060D01*
X222505172Y-93989983D01*
X223251346Y-93491406D01*
X223749923Y-92745232D01*
X223925000Y-91865060D01*
X223925000Y-91774940D01*
X223749923Y-90894768D01*
X223366597Y-90321079D01*
X223934654Y-90321079D01*
X224238494Y-91056429D01*
X224800612Y-91619529D01*
X225302523Y-91827941D01*
X225508494Y-92326429D01*
X226070612Y-92889529D01*
X226805430Y-93194652D01*
X227601079Y-93195346D01*
X228336429Y-92891506D01*
X228899529Y-92329388D01*
X229062044Y-91938008D01*
X229299677Y-91893294D01*
X229299601Y-91980491D01*
X229649018Y-92826143D01*
X230295453Y-93473708D01*
X231140495Y-93824600D01*
X232055491Y-93825399D01*
X232901143Y-93475982D01*
X233196181Y-93181458D01*
X233919828Y-93664983D01*
X234800000Y-93840060D01*
X235680172Y-93664983D01*
X236426346Y-93166406D01*
X236924923Y-92420232D01*
X237100000Y-91540060D01*
X237100000Y-91449940D01*
X236924923Y-90569768D01*
X236658528Y-90171079D01*
X236934654Y-90171079D01*
X237238494Y-90906429D01*
X237800612Y-91469529D01*
X238302523Y-91677941D01*
X238508494Y-92176429D01*
X239070612Y-92739529D01*
X239805430Y-93044652D01*
X240601079Y-93045346D01*
X241336429Y-92741506D01*
X241899529Y-92179388D01*
X242062044Y-91788008D01*
X242174657Y-91766818D01*
X242174601Y-91830491D01*
X242524018Y-92676143D01*
X243170453Y-93323708D01*
X244015495Y-93674600D01*
X244930491Y-93675399D01*
X245776143Y-93325982D01*
X246046155Y-93056441D01*
X246769828Y-93539983D01*
X247650000Y-93715060D01*
X248530172Y-93539983D01*
X249276346Y-93041406D01*
X249774923Y-92295232D01*
X249950000Y-91415060D01*
X249950000Y-91324940D01*
X249841011Y-90777017D01*
X249863494Y-90831429D01*
X250425612Y-91394529D01*
X250927523Y-91602941D01*
X251133494Y-92101429D01*
X251695612Y-92664529D01*
X252430430Y-92969652D01*
X253226079Y-92970346D01*
X253961429Y-92666506D01*
X254524529Y-92104388D01*
X254687044Y-91713008D01*
X255099706Y-91635360D01*
X255099601Y-91755491D01*
X255449018Y-92601143D01*
X256095453Y-93248708D01*
X256940495Y-93599600D01*
X257855491Y-93600399D01*
X258701143Y-93250982D01*
X259068594Y-92884172D01*
X259173654Y-93041406D01*
X259919828Y-93539983D01*
X260800000Y-93715060D01*
X261680172Y-93539983D01*
X262426346Y-93041406D01*
X262924923Y-92295232D01*
X263100000Y-91415060D01*
X263100000Y-91324940D01*
X262924923Y-90444768D01*
X262426346Y-89698594D01*
X261680172Y-89200017D01*
X260800000Y-89024940D01*
X259919828Y-89200017D01*
X259173654Y-89698594D01*
X259124572Y-89772051D01*
X258704547Y-89351292D01*
X257859505Y-89000400D01*
X256944509Y-88999601D01*
X256129386Y-89336404D01*
X256129386Y-89200000D01*
X256024793Y-88644133D01*
X255696276Y-88133604D01*
X255195017Y-87791108D01*
X254600000Y-87670614D01*
X253600000Y-87670614D01*
X253044133Y-87775207D01*
X252689468Y-88003428D01*
X251959570Y-87700348D01*
X251163921Y-87699654D01*
X250428571Y-88003494D01*
X249865471Y-88565612D01*
X249560348Y-89300430D01*
X249559654Y-90096079D01*
X249588364Y-90165562D01*
X249276346Y-89698594D01*
X248530172Y-89200017D01*
X247650000Y-89024940D01*
X246769828Y-89200017D01*
X246040282Y-89687483D01*
X245779547Y-89426292D01*
X244934505Y-89075400D01*
X244019509Y-89074601D01*
X243504386Y-89287446D01*
X243504386Y-89275000D01*
X243399793Y-88719133D01*
X243071276Y-88208604D01*
X242570017Y-87866108D01*
X241975000Y-87745614D01*
X240975000Y-87745614D01*
X240419133Y-87850207D01*
X240064468Y-88078428D01*
X239334570Y-87775348D01*
X238538921Y-87774654D01*
X237803571Y-88078494D01*
X237240471Y-88640612D01*
X236935348Y-89375430D01*
X236934654Y-90171079D01*
X236658528Y-90171079D01*
X236426346Y-89823594D01*
X235680172Y-89325017D01*
X234800000Y-89149940D01*
X233919828Y-89325017D01*
X233173654Y-89823594D01*
X233164738Y-89836938D01*
X232904547Y-89576292D01*
X232059505Y-89225400D01*
X231144509Y-89224601D01*
X230504386Y-89489095D01*
X230504386Y-89425000D01*
X230399793Y-88869133D01*
X230071276Y-88358604D01*
X229570017Y-88016108D01*
X228975000Y-87895614D01*
X227975000Y-87895614D01*
X227419133Y-88000207D01*
X227064468Y-88228428D01*
X226334570Y-87925348D01*
X225538921Y-87924654D01*
X224803571Y-88228494D01*
X224240471Y-88790612D01*
X223935348Y-89525430D01*
X223934654Y-90321079D01*
X223366597Y-90321079D01*
X223251346Y-90148594D01*
X222505172Y-89650017D01*
X221625000Y-89474940D01*
X220744828Y-89650017D01*
X220045198Y-90117495D01*
X219729547Y-89801292D01*
X218884505Y-89450400D01*
X217969509Y-89449601D01*
X217354386Y-89703765D01*
X217354386Y-89500000D01*
X217249793Y-88944133D01*
X216921276Y-88433604D01*
X216420017Y-88091108D01*
X215825000Y-87970614D01*
X214825000Y-87970614D01*
X214269133Y-88075207D01*
X213914468Y-88303428D01*
X213184570Y-88000348D01*
X212388921Y-87999654D01*
X211653571Y-88303494D01*
X211090471Y-88865612D01*
X210785348Y-89600430D01*
X210784654Y-90396079D01*
X209941484Y-90396079D01*
X209876346Y-90298594D01*
X209130172Y-89800017D01*
X208250000Y-89624940D01*
X207369828Y-89800017D01*
X206623654Y-90298594D01*
X206614703Y-90311990D01*
X206304547Y-90001292D01*
X205459505Y-89650400D01*
X204544509Y-89649601D01*
X204054386Y-89852116D01*
X204054386Y-89700000D01*
X203949793Y-89144133D01*
X203621276Y-88633604D01*
X203120017Y-88291108D01*
X202525000Y-88170614D01*
X201525000Y-88170614D01*
X200969133Y-88275207D01*
X200614468Y-88503428D01*
X199884570Y-88200348D01*
X199088921Y-88199654D01*
X198353571Y-88503494D01*
X197790471Y-89065612D01*
X197485348Y-89800430D01*
X197484654Y-90596079D01*
X197275233Y-90596079D01*
X197026346Y-90223594D01*
X196280172Y-89725017D01*
X195400000Y-89549940D01*
X194519828Y-89725017D01*
X193880238Y-90152377D01*
X193654547Y-89926292D01*
X192809505Y-89575400D01*
X191894509Y-89574601D01*
X191329386Y-89808106D01*
X191329386Y-89725000D01*
X191224793Y-89169133D01*
X190896276Y-88658604D01*
X190395017Y-88316108D01*
X189800000Y-88195614D01*
X188800000Y-88195614D01*
X188244133Y-88300207D01*
X187889468Y-88528428D01*
X187159570Y-88225348D01*
X186363921Y-88224654D01*
X185628571Y-88528494D01*
X185065471Y-89090612D01*
X184760348Y-89825430D01*
X184759654Y-90621079D01*
X182269955Y-90621079D01*
X182270346Y-90173921D01*
X181966506Y-89438571D01*
X181404388Y-88875471D01*
X180669570Y-88570348D01*
X180508000Y-88570207D01*
X180508000Y-88299998D01*
X180383943Y-88299998D01*
X180354541Y-88229014D01*
X180070986Y-87945459D01*
X179700504Y-87792000D01*
X179502000Y-87792000D01*
X179250000Y-88044000D01*
X179250000Y-88827453D01*
X179138571Y-88873494D01*
X178575471Y-89435612D01*
X178527973Y-89550000D01*
X178500000Y-89550000D01*
X178500000Y-89050000D01*
X178750000Y-89050000D01*
X178750000Y-88044000D01*
X178498000Y-87792000D01*
X178299496Y-87792000D01*
X177990052Y-87920176D01*
X177989983Y-87919828D01*
X177491406Y-87173654D01*
X177244019Y-87008355D01*
X177592097Y-86660885D01*
X177665612Y-86734529D01*
X178400430Y-87039652D01*
X179196079Y-87040346D01*
X179931429Y-86736506D01*
X180091213Y-86577000D01*
X185317000Y-86577000D01*
X185317000Y-86775504D01*
X185470459Y-87145986D01*
X185754014Y-87429541D01*
X186124497Y-87583000D01*
X186323000Y-87583000D01*
X186575000Y-87331000D01*
X186575000Y-86325000D01*
X185569000Y-86325000D01*
X185317000Y-86577000D01*
X180091213Y-86577000D01*
X180494529Y-86174388D01*
X180702941Y-85672477D01*
X181201429Y-85466506D01*
X181293599Y-85374496D01*
X185317000Y-85374496D01*
X185317000Y-85573000D01*
X185569000Y-85825000D01*
X186352453Y-85825000D01*
X186398494Y-85936429D01*
X186960612Y-86499529D01*
X187075000Y-86547027D01*
X187075000Y-87331000D01*
X187327000Y-87583000D01*
X187525503Y-87583000D01*
X187892612Y-87430939D01*
X188230612Y-87769529D01*
X188965430Y-88074652D01*
X189761079Y-88075346D01*
X190496429Y-87771506D01*
X191059529Y-87209388D01*
X191364652Y-86474570D01*
X191364756Y-86354777D01*
X191469828Y-86424983D01*
X192350000Y-86600060D01*
X192465930Y-86577000D01*
X197942000Y-86577000D01*
X197942000Y-86775504D01*
X198095459Y-87145986D01*
X198379014Y-87429541D01*
X198749497Y-87583000D01*
X198948000Y-87583000D01*
X199200000Y-87331000D01*
X199200000Y-86325000D01*
X198194000Y-86325000D01*
X197942000Y-86577000D01*
X192465930Y-86577000D01*
X193230172Y-86424983D01*
X193869762Y-85997623D01*
X194095453Y-86223708D01*
X194940495Y-86574600D01*
X195855491Y-86575399D01*
X196701143Y-86225982D01*
X197348708Y-85579547D01*
X197433852Y-85374496D01*
X197942000Y-85374496D01*
X197942000Y-85573000D01*
X198194000Y-85825000D01*
X198977453Y-85825000D01*
X199023494Y-85936429D01*
X199585612Y-86499529D01*
X199700000Y-86547027D01*
X199700000Y-87331000D01*
X199952000Y-87583000D01*
X200150503Y-87583000D01*
X200517612Y-87430939D01*
X200855612Y-87769529D01*
X201590430Y-88074652D01*
X202386079Y-88075346D01*
X203121429Y-87771506D01*
X203684529Y-87209388D01*
X203989652Y-86474570D01*
X203989706Y-86413038D01*
X204119828Y-86499983D01*
X205000000Y-86675060D01*
X205880172Y-86499983D01*
X206626346Y-86001406D01*
X206635297Y-85988010D01*
X206945453Y-86298708D01*
X207790495Y-86649600D01*
X208705491Y-86650399D01*
X209185652Y-86452000D01*
X211342000Y-86452000D01*
X211342000Y-86650504D01*
X211495459Y-87020986D01*
X211779014Y-87304541D01*
X212149497Y-87458000D01*
X212348000Y-87458000D01*
X212600000Y-87206000D01*
X212600000Y-86200000D01*
X211594000Y-86200000D01*
X211342000Y-86452000D01*
X209185652Y-86452000D01*
X209551143Y-86300982D01*
X210198708Y-85654547D01*
X210366899Y-85249496D01*
X211342000Y-85249496D01*
X211342000Y-85448000D01*
X211594000Y-85700000D01*
X212377453Y-85700000D01*
X212423494Y-85811429D01*
X212985612Y-86374529D01*
X213100000Y-86422027D01*
X213100000Y-87206000D01*
X213352000Y-87458000D01*
X213550503Y-87458000D01*
X213917612Y-87305939D01*
X214255612Y-87644529D01*
X214990430Y-87949652D01*
X215786079Y-87950346D01*
X216521429Y-87646506D01*
X217084529Y-87084388D01*
X217389652Y-86349570D01*
X217389786Y-86196387D01*
X217544828Y-86299983D01*
X218425000Y-86475060D01*
X219305172Y-86299983D01*
X220004802Y-85832505D01*
X220320453Y-86148708D01*
X221165495Y-86499600D01*
X222080491Y-86500399D01*
X222681661Y-86252000D01*
X224442000Y-86252000D01*
X224442000Y-86450504D01*
X224595459Y-86820986D01*
X224879014Y-87104541D01*
X225249497Y-87258000D01*
X225448000Y-87258000D01*
X225700000Y-87006000D01*
X225700000Y-86000000D01*
X224694000Y-86000000D01*
X224442000Y-86252000D01*
X222681661Y-86252000D01*
X222926143Y-86150982D01*
X223573708Y-85504547D01*
X223762661Y-85049496D01*
X224442000Y-85049496D01*
X224442000Y-85248000D01*
X224694000Y-85500000D01*
X225477453Y-85500000D01*
X225523494Y-85611429D01*
X226085612Y-86174529D01*
X226200000Y-86222027D01*
X226200000Y-87006000D01*
X226452000Y-87258000D01*
X226650503Y-87258000D01*
X227017612Y-87105939D01*
X227355612Y-87444529D01*
X228090430Y-87749652D01*
X228886079Y-87750346D01*
X229621429Y-87446506D01*
X230184529Y-86884388D01*
X230489652Y-86149570D01*
X230489851Y-85921318D01*
X230719828Y-86074983D01*
X231600000Y-86250060D01*
X231841614Y-86202000D01*
X237342000Y-86202000D01*
X237342000Y-86400504D01*
X237495459Y-86770986D01*
X237779014Y-87054541D01*
X238149497Y-87208000D01*
X238348000Y-87208000D01*
X238600000Y-86956000D01*
X238600000Y-85950000D01*
X237594000Y-85950000D01*
X237342000Y-86202000D01*
X231841614Y-86202000D01*
X232480172Y-86074983D01*
X233226346Y-85576406D01*
X233235262Y-85563062D01*
X233495453Y-85823708D01*
X234340495Y-86174600D01*
X235255491Y-86175399D01*
X236101143Y-85825982D01*
X236748708Y-85179547D01*
X236823471Y-84999496D01*
X237342000Y-84999496D01*
X237342000Y-85198000D01*
X237594000Y-85450000D01*
X238377453Y-85450000D01*
X238423494Y-85561429D01*
X238985612Y-86124529D01*
X239100000Y-86172027D01*
X239100000Y-86956000D01*
X239352000Y-87208000D01*
X239550503Y-87208000D01*
X239917612Y-87055939D01*
X240255612Y-87394529D01*
X240990430Y-87699652D01*
X241786079Y-87700346D01*
X242521429Y-87396506D01*
X243084529Y-86834388D01*
X243389652Y-86099570D01*
X243389924Y-85788070D01*
X243594828Y-85924983D01*
X244475000Y-86100060D01*
X245355172Y-85924983D01*
X246084718Y-85437517D01*
X246345453Y-85698708D01*
X247190495Y-86049600D01*
X248105491Y-86050399D01*
X248464643Y-85902000D01*
X250092000Y-85902000D01*
X250092000Y-86100504D01*
X250245459Y-86470986D01*
X250529014Y-86754541D01*
X250899497Y-86908000D01*
X251098000Y-86908000D01*
X251350000Y-86656000D01*
X251350000Y-85650000D01*
X250344000Y-85650000D01*
X250092000Y-85902000D01*
X248464643Y-85902000D01*
X248951143Y-85700982D01*
X249598708Y-85054547D01*
X249746138Y-84699496D01*
X250092000Y-84699496D01*
X250092000Y-84898000D01*
X250344000Y-85150000D01*
X251127453Y-85150000D01*
X251173494Y-85261429D01*
X251735612Y-85824529D01*
X251850000Y-85872027D01*
X251850000Y-86656000D01*
X252102000Y-86908000D01*
X252300503Y-86908000D01*
X252667612Y-86755939D01*
X253005612Y-87094529D01*
X253740430Y-87399652D01*
X254536079Y-87400346D01*
X255271429Y-87096506D01*
X255834529Y-86534388D01*
X256139652Y-85799570D01*
X256139829Y-85596076D01*
X256519828Y-85849983D01*
X257400000Y-86025060D01*
X258280172Y-85849983D01*
X259026346Y-85351406D01*
X259075428Y-85277949D01*
X259495453Y-85698708D01*
X260340495Y-86049600D01*
X261255491Y-86050399D01*
X262101143Y-85700982D01*
X262748708Y-85054547D01*
X263099600Y-84209505D01*
X263100399Y-83294509D01*
X262805729Y-82581355D01*
X263090495Y-82699600D01*
X264005491Y-82700399D01*
X264851143Y-82350982D01*
X265498708Y-81704547D01*
X265849600Y-80859505D01*
X265850399Y-79944509D01*
X265500982Y-79098857D01*
X264854547Y-78451292D01*
X264009505Y-78100400D01*
X263094509Y-78099601D01*
X262248857Y-78449018D01*
X261690874Y-79006027D01*
X261345232Y-78775077D01*
X260465060Y-78600000D01*
X260374940Y-78600000D01*
X259494768Y-78775077D01*
X258748594Y-79273654D01*
X258250017Y-80019828D01*
X258074940Y-80900000D01*
X258192824Y-81492642D01*
X257400000Y-81334940D01*
X256519828Y-81510017D01*
X255773654Y-82008594D01*
X255275077Y-82754768D01*
X255100346Y-83633202D01*
X254772477Y-83497059D01*
X254566506Y-82998571D01*
X254260436Y-82691967D01*
X254748708Y-82204547D01*
X255099600Y-81359505D01*
X255100399Y-80444509D01*
X254750982Y-79598857D01*
X254104547Y-78951292D01*
X253259505Y-78600400D01*
X252344509Y-78599601D01*
X251498857Y-78949018D01*
X250851292Y-79595453D01*
X250500400Y-80440495D01*
X250499601Y-81355491D01*
X250849018Y-82201143D01*
X251409193Y-82762297D01*
X251175471Y-82995612D01*
X250870348Y-83730430D01*
X250870207Y-83892000D01*
X250599998Y-83892000D01*
X250599998Y-84016057D01*
X250529014Y-84045459D01*
X250245459Y-84329014D01*
X250092000Y-84699496D01*
X249746138Y-84699496D01*
X249949600Y-84209505D01*
X249950399Y-83294509D01*
X249600982Y-82448857D01*
X249486645Y-82334320D01*
X249739983Y-81955172D01*
X249915060Y-81075000D01*
X249739983Y-80194828D01*
X249241406Y-79448654D01*
X248495232Y-78950077D01*
X247615060Y-78775000D01*
X247524940Y-78775000D01*
X246644768Y-78950077D01*
X245898594Y-79448654D01*
X245400017Y-80194828D01*
X245224940Y-81075000D01*
X245325203Y-81579056D01*
X244475000Y-81409940D01*
X243594828Y-81585017D01*
X242848654Y-82083594D01*
X242350077Y-82829768D01*
X242175000Y-83709940D01*
X242175000Y-83800060D01*
X242188081Y-83865824D01*
X242022477Y-83797059D01*
X241816506Y-83298571D01*
X241398024Y-82879358D01*
X241898708Y-82379547D01*
X242249600Y-81534505D01*
X242250399Y-80619509D01*
X241900982Y-79773857D01*
X241254547Y-79126292D01*
X240409505Y-78775400D01*
X239494509Y-78774601D01*
X238648857Y-79124018D01*
X238001292Y-79770453D01*
X237650400Y-80615495D01*
X237649601Y-81530491D01*
X237999018Y-82376143D01*
X238645453Y-83023708D01*
X238682458Y-83039074D01*
X238425471Y-83295612D01*
X238120348Y-84030430D01*
X238120207Y-84192000D01*
X237849998Y-84192000D01*
X237849998Y-84316057D01*
X237779014Y-84345459D01*
X237495459Y-84629014D01*
X237342000Y-84999496D01*
X236823471Y-84999496D01*
X237099600Y-84334505D01*
X237100399Y-83419509D01*
X236750982Y-82573857D01*
X236701518Y-82524306D01*
X237014983Y-82055172D01*
X237190060Y-81175000D01*
X237014983Y-80294828D01*
X236516406Y-79548654D01*
X235770232Y-79050077D01*
X234890060Y-78875000D01*
X234799940Y-78875000D01*
X233919768Y-79050077D01*
X233173594Y-79548654D01*
X232675017Y-80294828D01*
X232499940Y-81175000D01*
X232631439Y-81836090D01*
X232480172Y-81735017D01*
X231600000Y-81559940D01*
X230719828Y-81735017D01*
X229973654Y-82233594D01*
X229475077Y-82979768D01*
X229300000Y-83859940D01*
X229300000Y-83920773D01*
X229122477Y-83847059D01*
X228916506Y-83348571D01*
X228610371Y-83041901D01*
X229173708Y-82479547D01*
X229524600Y-81634505D01*
X229525399Y-80719509D01*
X229175982Y-79873857D01*
X228529547Y-79226292D01*
X227684505Y-78875400D01*
X226769509Y-78874601D01*
X225923857Y-79224018D01*
X225276292Y-79870453D01*
X224925400Y-80715495D01*
X224924601Y-81630491D01*
X225274018Y-82476143D01*
X225834259Y-83037363D01*
X225525471Y-83345612D01*
X225220348Y-84080430D01*
X225220207Y-84242000D01*
X224949998Y-84242000D01*
X224949998Y-84366057D01*
X224879014Y-84395459D01*
X224595459Y-84679014D01*
X224442000Y-85049496D01*
X223762661Y-85049496D01*
X223924600Y-84659505D01*
X223925399Y-83744509D01*
X223575982Y-82898857D01*
X223286767Y-82609137D01*
X223539983Y-82230172D01*
X223715060Y-81350000D01*
X223539983Y-80469828D01*
X223041406Y-79723654D01*
X222295232Y-79225077D01*
X221415060Y-79050000D01*
X221324940Y-79050000D01*
X220444768Y-79225077D01*
X219698594Y-79723654D01*
X219200017Y-80469828D01*
X219024940Y-81350000D01*
X219139734Y-81927109D01*
X218425000Y-81784940D01*
X217544828Y-81960017D01*
X216798654Y-82458594D01*
X216300077Y-83204768D01*
X216125000Y-84084940D01*
X216125000Y-84089631D01*
X216022477Y-84047059D01*
X215816506Y-83548571D01*
X215310698Y-83041880D01*
X215698708Y-82654547D01*
X216049600Y-81809505D01*
X216050399Y-80894509D01*
X215700982Y-80048857D01*
X215054547Y-79401292D01*
X214209505Y-79050400D01*
X213294509Y-79049601D01*
X212448857Y-79399018D01*
X211801292Y-80045453D01*
X211450400Y-80890495D01*
X211449601Y-81805491D01*
X211799018Y-82651143D01*
X212445453Y-83298708D01*
X212606018Y-83365380D01*
X212425471Y-83545612D01*
X212120348Y-84280430D01*
X212120207Y-84442000D01*
X211849998Y-84442000D01*
X211849998Y-84566057D01*
X211779014Y-84595459D01*
X211495459Y-84879014D01*
X211342000Y-85249496D01*
X210366899Y-85249496D01*
X210549600Y-84809505D01*
X210550399Y-83894509D01*
X210200982Y-83048857D01*
X210146345Y-82994124D01*
X210589983Y-82330172D01*
X210765060Y-81450000D01*
X210589983Y-80569828D01*
X210091406Y-79823654D01*
X209345232Y-79325077D01*
X208465060Y-79150000D01*
X208374940Y-79150000D01*
X207494768Y-79325077D01*
X206748594Y-79823654D01*
X206250017Y-80569828D01*
X206074940Y-81450000D01*
X206250017Y-82330172D01*
X206342924Y-82469218D01*
X205880172Y-82160017D01*
X205000000Y-81984940D01*
X204119828Y-82160017D01*
X203373654Y-82658594D01*
X202875077Y-83404768D01*
X202714826Y-84210406D01*
X202622477Y-84172059D01*
X202416506Y-83673571D01*
X202122805Y-83379357D01*
X202748708Y-82754547D01*
X203099600Y-81909505D01*
X203100399Y-80994509D01*
X202750982Y-80148857D01*
X202104547Y-79501292D01*
X201259505Y-79150400D01*
X200344509Y-79149601D01*
X199498857Y-79499018D01*
X198851292Y-80145453D01*
X198500400Y-80990495D01*
X198499601Y-81905491D01*
X198849018Y-82751143D01*
X199396824Y-83299907D01*
X199025471Y-83670612D01*
X198720348Y-84405430D01*
X198720207Y-84567000D01*
X198449998Y-84567000D01*
X198449998Y-84691057D01*
X198379014Y-84720459D01*
X198095459Y-85004014D01*
X197942000Y-85374496D01*
X197433852Y-85374496D01*
X197699600Y-84734505D01*
X197700399Y-83819509D01*
X197350982Y-82973857D01*
X197296345Y-82919124D01*
X197739983Y-82255172D01*
X197915060Y-81375000D01*
X197739983Y-80494828D01*
X197241406Y-79748654D01*
X196495232Y-79250077D01*
X195615060Y-79075000D01*
X195524940Y-79075000D01*
X194644768Y-79250077D01*
X193898594Y-79748654D01*
X193400017Y-80494828D01*
X193224940Y-81375000D01*
X193387017Y-82189817D01*
X193230172Y-82085017D01*
X192350000Y-81909940D01*
X191469828Y-82085017D01*
X190723654Y-82583594D01*
X190225077Y-83329768D01*
X190052953Y-84195095D01*
X189997477Y-84172059D01*
X189791506Y-83673571D01*
X189348002Y-83229292D01*
X189898708Y-82679547D01*
X190249600Y-81834505D01*
X190250399Y-80919509D01*
X189900982Y-80073857D01*
X189254547Y-79426292D01*
X188409505Y-79075400D01*
X187494509Y-79074601D01*
X186648857Y-79424018D01*
X186001292Y-80070453D01*
X185650400Y-80915495D01*
X185649601Y-81830491D01*
X185999018Y-82676143D01*
X186645453Y-83323708D01*
X186717862Y-83353775D01*
X186400471Y-83670612D01*
X186095348Y-84405430D01*
X186095207Y-84567000D01*
X185824998Y-84567000D01*
X185824998Y-84691057D01*
X185754014Y-84720459D01*
X185470459Y-85004014D01*
X185317000Y-85374496D01*
X181293599Y-85374496D01*
X181764529Y-84904388D01*
X182069652Y-84169570D01*
X182070346Y-83373921D01*
X181766506Y-82638571D01*
X181204388Y-82075471D01*
X180469570Y-81770348D01*
X180308000Y-81770207D01*
X180308000Y-81499998D01*
X180183943Y-81499998D01*
X180154541Y-81429014D01*
X179870986Y-81145459D01*
X179500504Y-80992000D01*
X179302000Y-80992000D01*
X179050000Y-81244000D01*
X179050000Y-82027453D01*
X178938571Y-82073494D01*
X178375471Y-82635612D01*
X178327973Y-82750000D01*
X178300000Y-82750000D01*
X178300000Y-82250000D01*
X178550000Y-82250000D01*
X178550000Y-81244000D01*
X178298000Y-80992000D01*
X178099496Y-80992000D01*
X177946826Y-81055238D01*
X177491406Y-80373654D01*
X177244019Y-80208355D01*
X177542097Y-79910798D01*
X177665612Y-80034529D01*
X178400430Y-80339652D01*
X179196079Y-80340346D01*
X179931429Y-80036506D01*
X180494529Y-79474388D01*
X180702941Y-78972477D01*
X181201429Y-78766506D01*
X181764529Y-78204388D01*
X182069652Y-77469570D01*
X182070346Y-76673921D01*
X181781559Y-75975000D01*
X184095614Y-75975000D01*
X184095614Y-77575000D01*
X184200207Y-78130867D01*
X184528724Y-78641396D01*
X185029983Y-78983892D01*
X185625000Y-79104386D01*
X187225000Y-79104386D01*
X187780867Y-78999793D01*
X187977496Y-78873266D01*
X188084828Y-78944983D01*
X188965000Y-79120060D01*
X189845172Y-78944983D01*
X190235000Y-78684509D01*
X190624828Y-78944983D01*
X191505000Y-79120060D01*
X192385172Y-78944983D01*
X192775000Y-78684509D01*
X193164828Y-78944983D01*
X194045000Y-79120060D01*
X194925172Y-78944983D01*
X195315000Y-78684509D01*
X195704828Y-78944983D01*
X196585000Y-79120060D01*
X197465172Y-78944983D01*
X197855000Y-78684509D01*
X198244828Y-78944983D01*
X199125000Y-79120060D01*
X200005172Y-78944983D01*
X200395000Y-78684509D01*
X200784828Y-78944983D01*
X201665000Y-79120060D01*
X202545172Y-78944983D01*
X203291346Y-78446406D01*
X203359004Y-78345149D01*
X203492210Y-78436591D01*
X203534100Y-78453915D01*
X203805000Y-78278707D01*
X203805000Y-77624435D01*
X203894398Y-77175000D01*
X204605000Y-77175000D01*
X204605000Y-78278707D01*
X204875900Y-78453915D01*
X204917790Y-78436591D01*
X205499395Y-78037337D01*
X205883941Y-77445904D01*
X205716223Y-77175000D01*
X204605000Y-77175000D01*
X203894398Y-77175000D01*
X203937866Y-76956471D01*
X206099688Y-76956471D01*
X206373145Y-77618286D01*
X206879051Y-78125076D01*
X207540387Y-78399687D01*
X208256471Y-78400312D01*
X208918286Y-78126855D01*
X209425076Y-77620949D01*
X209550917Y-77317891D01*
X209893808Y-76975000D01*
X210040108Y-76975000D01*
X210340387Y-77099687D01*
X211056471Y-77100312D01*
X211718286Y-76826855D01*
X212225076Y-76320949D01*
X212499687Y-75659613D01*
X212500312Y-74943529D01*
X212226855Y-74281714D01*
X211720949Y-73774924D01*
X211059613Y-73500313D01*
X210343529Y-73499688D01*
X210040251Y-73625000D01*
X209200000Y-73625000D01*
X208559006Y-73752501D01*
X208015596Y-74115596D01*
X207182209Y-74948983D01*
X206881714Y-75073145D01*
X206374924Y-75579051D01*
X206100313Y-76240387D01*
X206099688Y-76956471D01*
X203937866Y-76956471D01*
X203965000Y-76820060D01*
X203965000Y-76729940D01*
X203805000Y-75925565D01*
X203805000Y-75271293D01*
X204605000Y-75271293D01*
X204605000Y-76375000D01*
X205716223Y-76375000D01*
X205883941Y-76104096D01*
X205499395Y-75512663D01*
X204917790Y-75113409D01*
X204875900Y-75096085D01*
X204605000Y-75271293D01*
X203805000Y-75271293D01*
X203534100Y-75096085D01*
X203492210Y-75113409D01*
X203359004Y-75204851D01*
X203291346Y-75103594D01*
X202545172Y-74605017D01*
X201665000Y-74429940D01*
X200784828Y-74605017D01*
X200395000Y-74865491D01*
X200005172Y-74605017D01*
X199125000Y-74429940D01*
X198244828Y-74605017D01*
X197855000Y-74865491D01*
X197465172Y-74605017D01*
X196585000Y-74429940D01*
X195704828Y-74605017D01*
X195315000Y-74865491D01*
X194925172Y-74605017D01*
X194045000Y-74429940D01*
X193164828Y-74605017D01*
X192775000Y-74865491D01*
X192385172Y-74605017D01*
X191505000Y-74429940D01*
X190624828Y-74605017D01*
X190235000Y-74865491D01*
X189845172Y-74605017D01*
X188965000Y-74429940D01*
X188084828Y-74605017D01*
X187979734Y-74675238D01*
X187820017Y-74566108D01*
X187225000Y-74445614D01*
X185625000Y-74445614D01*
X185069133Y-74550207D01*
X184558604Y-74878724D01*
X184216108Y-75379983D01*
X184095614Y-75975000D01*
X181781559Y-75975000D01*
X181766506Y-75938571D01*
X181204388Y-75375471D01*
X180469570Y-75070348D01*
X180308000Y-75070207D01*
X180308000Y-74799998D01*
X180183943Y-74799998D01*
X180154541Y-74729014D01*
X179870986Y-74445459D01*
X179500504Y-74292000D01*
X179302000Y-74292000D01*
X179050000Y-74544000D01*
X179050000Y-75327453D01*
X178938571Y-75373494D01*
X178375471Y-75935612D01*
X178327973Y-76050000D01*
X178300000Y-76050000D01*
X178300000Y-75550000D01*
X178550000Y-75550000D01*
X178550000Y-74544000D01*
X178298000Y-74292000D01*
X178099496Y-74292000D01*
X177900817Y-74374296D01*
X177889983Y-74319828D01*
X177391406Y-73573654D01*
X177144019Y-73408355D01*
X177592359Y-72960798D01*
X177865612Y-73234529D01*
X178600430Y-73539652D01*
X179396079Y-73540346D01*
X180131429Y-73236506D01*
X180346288Y-73022021D01*
X182673664Y-73022021D01*
X182745887Y-73340940D01*
X183448863Y-73493157D01*
X184156580Y-73364771D01*
X184214113Y-73340940D01*
X184286336Y-73022021D01*
X183480000Y-72215685D01*
X182673664Y-73022021D01*
X180346288Y-73022021D01*
X180694529Y-72674388D01*
X180902941Y-72172477D01*
X181401429Y-71966506D01*
X181654144Y-71714232D01*
X181765229Y-72326580D01*
X181789060Y-72384113D01*
X182107979Y-72456336D01*
X182914315Y-71650000D01*
X182631472Y-71367157D01*
X182687359Y-71311270D01*
X183020495Y-71449600D01*
X183935491Y-71450399D01*
X184272514Y-71311143D01*
X184328528Y-71367157D01*
X184045685Y-71650000D01*
X184852021Y-72456336D01*
X185170940Y-72384113D01*
X185323157Y-71681137D01*
X185252511Y-71291706D01*
X185349649Y-71194568D01*
X185544828Y-71324983D01*
X186425000Y-71500060D01*
X187305172Y-71324983D01*
X187695000Y-71064509D01*
X188084828Y-71324983D01*
X188965000Y-71500060D01*
X189845172Y-71324983D01*
X190235000Y-71064509D01*
X190624828Y-71324983D01*
X191505000Y-71500060D01*
X192385172Y-71324983D01*
X193131346Y-70826406D01*
X193199004Y-70725149D01*
X193332210Y-70816591D01*
X193374100Y-70833915D01*
X193645000Y-70658707D01*
X193645000Y-70004435D01*
X193805000Y-69200060D01*
X193805000Y-69109940D01*
X193667671Y-68419539D01*
X193823867Y-68355000D01*
X194435167Y-68355000D01*
X194285000Y-69109940D01*
X194285000Y-69200060D01*
X194445000Y-70004435D01*
X194445000Y-70658707D01*
X194715900Y-70833915D01*
X194757790Y-70816591D01*
X194890996Y-70725149D01*
X194958654Y-70826406D01*
X195704828Y-71324983D01*
X196585000Y-71500060D01*
X197465172Y-71324983D01*
X197855000Y-71064509D01*
X198244828Y-71324983D01*
X199125000Y-71500060D01*
X199834103Y-71359011D01*
X199800313Y-71440387D01*
X199799688Y-72156471D01*
X200073145Y-72818286D01*
X200579051Y-73325076D01*
X201240387Y-73599687D01*
X201956471Y-73600312D01*
X202618286Y-73326855D01*
X203125076Y-72820949D01*
X203399687Y-72159613D01*
X203400312Y-71443529D01*
X203353703Y-71330727D01*
X204205000Y-71500060D01*
X205085172Y-71324983D01*
X205831346Y-70826406D01*
X206329923Y-70080232D01*
X206505000Y-69200060D01*
X206505000Y-69109940D01*
X206329923Y-68229768D01*
X205831346Y-67483594D01*
X205085172Y-66985017D01*
X204205000Y-66809940D01*
X203324828Y-66985017D01*
X202935000Y-67245491D01*
X202545172Y-66985017D01*
X201665000Y-66809940D01*
X201176005Y-66907207D01*
X201265557Y-66850254D01*
X201331471Y-66850312D01*
X201993286Y-66576855D01*
X202500076Y-66070949D01*
X202774687Y-65409613D01*
X202775312Y-64693529D01*
X202501855Y-64031714D01*
X201995949Y-63524924D01*
X201334613Y-63250313D01*
X200618529Y-63249688D01*
X199956714Y-63523145D01*
X199449924Y-64029051D01*
X199446645Y-64036949D01*
X197946493Y-64991000D01*
X193857892Y-64991000D01*
X193557613Y-64866313D01*
X192841529Y-64865688D01*
X192179714Y-65139145D01*
X191672924Y-65645051D01*
X191398313Y-66306387D01*
X191397855Y-66831252D01*
X190624828Y-66985017D01*
X190235000Y-67245491D01*
X189845172Y-66985017D01*
X188965000Y-66809940D01*
X188084828Y-66985017D01*
X187695000Y-67245491D01*
X187305172Y-66985017D01*
X186425000Y-66809940D01*
X185544828Y-66985017D01*
X184959242Y-67376293D01*
X184784547Y-67201292D01*
X183939505Y-66850400D01*
X183024509Y-66849601D01*
X182178857Y-67199018D01*
X181531292Y-67845453D01*
X181254079Y-68513057D01*
X180669570Y-68270348D01*
X180508000Y-68270207D01*
X180508000Y-67999998D01*
X180383943Y-67999998D01*
X180354541Y-67929014D01*
X180070986Y-67645459D01*
X179700504Y-67492000D01*
X179502000Y-67492000D01*
X179250000Y-67744000D01*
X179250000Y-68527453D01*
X179138571Y-68573494D01*
X178575471Y-69135612D01*
X178527973Y-69250000D01*
X178500000Y-69250000D01*
X178500000Y-68750000D01*
X178750000Y-68750000D01*
X178750000Y-67744000D01*
X178498000Y-67492000D01*
X178299496Y-67492000D01*
X177929014Y-67645459D01*
X177833893Y-67740580D01*
X177789983Y-67519828D01*
X177291406Y-66773654D01*
X177043914Y-66608285D01*
X177492184Y-66160798D01*
X177665612Y-66334529D01*
X178400430Y-66639652D01*
X179196079Y-66640346D01*
X179931429Y-66336506D01*
X180494529Y-65774388D01*
X180702941Y-65272477D01*
X181201429Y-65066506D01*
X181764529Y-64504388D01*
X182069652Y-63769570D01*
X182070346Y-62973921D01*
X181766506Y-62238571D01*
X181497269Y-61968863D01*
X202906843Y-61968863D01*
X203035229Y-62676580D01*
X203059060Y-62734113D01*
X203377979Y-62806336D01*
X204184315Y-62000000D01*
X203377979Y-61193664D01*
X203059060Y-61265887D01*
X202906843Y-61968863D01*
X181497269Y-61968863D01*
X181204388Y-61675471D01*
X180469570Y-61370348D01*
X180308000Y-61370207D01*
X180308000Y-61099998D01*
X180183943Y-61099998D01*
X180154541Y-61029014D01*
X179870986Y-60745459D01*
X179500504Y-60592000D01*
X179302000Y-60592000D01*
X179050000Y-60844000D01*
X179050000Y-61627453D01*
X178938571Y-61673494D01*
X178375471Y-62235612D01*
X178327973Y-62350000D01*
X178300000Y-62350000D01*
X178300000Y-61850000D01*
X178550000Y-61850000D01*
X178550000Y-60844000D01*
X178298000Y-60592000D01*
X178099496Y-60592000D01*
X177855232Y-60693178D01*
X177650982Y-60198857D01*
X177004547Y-59551292D01*
X176159505Y-59200400D01*
X175244509Y-59199601D01*
X174398857Y-59549018D01*
X173751292Y-60195453D01*
X173400400Y-61040495D01*
X173399601Y-61955491D01*
X173749018Y-62801143D01*
X174047308Y-63099954D01*
X173751292Y-63395453D01*
X173400400Y-64240495D01*
X173399601Y-65155491D01*
X173749018Y-66001143D01*
X174291475Y-66544548D01*
X173948594Y-66773654D01*
X173450017Y-67519828D01*
X173274940Y-68400000D01*
X170300001Y-68400000D01*
X170300399Y-67944509D01*
X169950982Y-67098857D01*
X169408525Y-66555452D01*
X169751406Y-66326346D01*
X170249983Y-65580172D01*
X170425060Y-64700000D01*
X170249983Y-63819828D01*
X169769010Y-63100000D01*
X170249983Y-62380172D01*
X170425060Y-61500000D01*
X170249983Y-60619828D01*
X169751406Y-59873654D01*
X169005232Y-59375077D01*
X168125060Y-59200000D01*
X168034940Y-59200000D01*
X167154768Y-59375077D01*
X166408594Y-59873654D01*
X165910017Y-60619828D01*
X165734940Y-61500000D01*
X165910017Y-62380172D01*
X166390990Y-63100000D01*
X165910017Y-63819828D01*
X165734940Y-64700000D01*
X165910017Y-65580172D01*
X166408594Y-66326346D01*
X166656086Y-66491715D01*
X166051292Y-67095453D01*
X165700400Y-67940495D01*
X165699601Y-68855491D01*
X113825000Y-68855491D01*
X113825000Y-62072021D01*
X119793664Y-62072021D01*
X119865887Y-62390940D01*
X120568863Y-62543157D01*
X121276580Y-62414771D01*
X121334113Y-62390940D01*
X121406336Y-62072021D01*
X120600000Y-61265685D01*
X119793664Y-62072021D01*
X113825000Y-62072021D01*
X113825000Y-57400000D01*
X118270614Y-57400000D01*
X118270614Y-59000000D01*
X118375207Y-59555867D01*
X118678957Y-60027906D01*
X118596323Y-60110540D01*
X118827648Y-60341865D01*
X118756843Y-60668863D01*
X118885229Y-61376580D01*
X118909060Y-61434113D01*
X119227979Y-61506336D01*
X120034315Y-60700000D01*
X119863701Y-60529386D01*
X121336299Y-60529386D01*
X121165685Y-60700000D01*
X121972021Y-61506336D01*
X122290940Y-61434113D01*
X122443157Y-60731137D01*
X122372511Y-60341706D01*
X122603677Y-60110540D01*
X122516331Y-60023194D01*
X122808892Y-59595017D01*
X122929386Y-59000000D01*
X122929386Y-57858863D01*
X123036843Y-57858863D01*
X123165229Y-58566580D01*
X123189060Y-58624113D01*
X123507979Y-58696336D01*
X124314315Y-57890000D01*
X123507979Y-57083664D01*
X123189060Y-57155887D01*
X123036843Y-57858863D01*
X122929386Y-57858863D01*
X122929386Y-57400000D01*
X122824793Y-56844133D01*
X122614919Y-56517979D01*
X124073664Y-56517979D01*
X124880000Y-57324315D01*
X125162843Y-57041472D01*
X125218730Y-57097359D01*
X125080400Y-57430495D01*
X125079601Y-58345491D01*
X125218857Y-58682514D01*
X125162843Y-58738528D01*
X124880000Y-58455685D01*
X124073664Y-59262021D01*
X124145887Y-59580940D01*
X124848863Y-59733157D01*
X125238294Y-59662511D01*
X125469460Y-59893677D01*
X125800182Y-59562955D01*
X126075453Y-59838708D01*
X126920495Y-60189600D01*
X127835491Y-60190399D01*
X128681143Y-59840982D01*
X129102610Y-59420251D01*
X129223654Y-59601406D01*
X129969828Y-60099983D01*
X130123607Y-60130572D01*
X131110193Y-61984596D01*
X131266907Y-62176276D01*
X131404467Y-62382149D01*
X131472260Y-62427447D01*
X131523866Y-62490567D01*
X131742008Y-62607687D01*
X131947876Y-62745243D01*
X132027841Y-62761149D01*
X132099676Y-62799717D01*
X132346034Y-62824442D01*
X132588871Y-62872745D01*
X139165670Y-62872745D01*
X139873550Y-63307397D01*
X139998359Y-63353567D01*
X140083886Y-63410714D01*
X139740000Y-63640491D01*
X139350172Y-63380017D01*
X138470000Y-63204940D01*
X137589828Y-63380017D01*
X137200000Y-63640491D01*
X136810172Y-63380017D01*
X135930000Y-63204940D01*
X135049828Y-63380017D01*
X134660000Y-63640491D01*
X134270172Y-63380017D01*
X133390000Y-63204940D01*
X132509828Y-63380017D01*
X132404734Y-63450238D01*
X132245017Y-63341108D01*
X131650000Y-63220614D01*
X130050000Y-63220614D01*
X129494133Y-63325207D01*
X128983604Y-63653724D01*
X128641108Y-64154983D01*
X128520614Y-64750000D01*
X128520614Y-66350000D01*
X128625207Y-66905867D01*
X128953724Y-67416396D01*
X129454983Y-67758892D01*
X130050000Y-67879386D01*
X131650000Y-67879386D01*
X132205867Y-67774793D01*
X132402496Y-67648266D01*
X132509828Y-67719983D01*
X133390000Y-67895060D01*
X134270172Y-67719983D01*
X134660000Y-67459509D01*
X135049828Y-67719983D01*
X135930000Y-67895060D01*
X136810172Y-67719983D01*
X137200000Y-67459509D01*
X137589828Y-67719983D01*
X138470000Y-67895060D01*
X139350172Y-67719983D01*
X139740000Y-67459509D01*
X140129828Y-67719983D01*
X141010000Y-67895060D01*
X141890172Y-67719983D01*
X142280000Y-67459509D01*
X142669828Y-67719983D01*
X143550000Y-67895060D01*
X144430172Y-67719983D01*
X144820000Y-67459509D01*
X145209828Y-67719983D01*
X146090000Y-67895060D01*
X146970172Y-67719983D01*
X147716346Y-67221406D01*
X147784004Y-67120149D01*
X147917210Y-67211591D01*
X147959100Y-67228915D01*
X148230000Y-67053707D01*
X148230000Y-66399435D01*
X148319398Y-65950000D01*
X149030000Y-65950000D01*
X149030000Y-67053707D01*
X149300900Y-67228915D01*
X149342790Y-67211591D01*
X149924395Y-66812337D01*
X150308941Y-66220904D01*
X150141223Y-65950000D01*
X149030000Y-65950000D01*
X148319398Y-65950000D01*
X148390000Y-65595060D01*
X148390000Y-65504940D01*
X148230000Y-64700565D01*
X148230000Y-64046293D01*
X149030000Y-64046293D01*
X149030000Y-65150000D01*
X150141223Y-65150000D01*
X150308941Y-64879096D01*
X149924395Y-64287663D01*
X149342790Y-63888409D01*
X149300900Y-63871085D01*
X149030000Y-64046293D01*
X148230000Y-64046293D01*
X147959100Y-63871085D01*
X147917210Y-63888409D01*
X147784004Y-63979851D01*
X147716346Y-63878594D01*
X146970172Y-63380017D01*
X146090000Y-63204940D01*
X145209828Y-63380017D01*
X144820000Y-63640491D01*
X144430172Y-63380017D01*
X144317660Y-63357637D01*
X144735076Y-62940949D01*
X144931103Y-62468863D01*
X153956843Y-62468863D01*
X154085229Y-63176580D01*
X154109060Y-63234113D01*
X154427979Y-63306336D01*
X155234315Y-62500000D01*
X154427979Y-61693664D01*
X154109060Y-61765887D01*
X153956843Y-62468863D01*
X144931103Y-62468863D01*
X145009687Y-62279613D01*
X145010312Y-61563529D01*
X144830347Y-61127979D01*
X154993664Y-61127979D01*
X155800000Y-61934315D01*
X156082843Y-61651472D01*
X156648528Y-62217157D01*
X156365685Y-62500000D01*
X156648528Y-62782843D01*
X156082843Y-63348528D01*
X155800000Y-63065685D01*
X154993664Y-63872021D01*
X155065887Y-64190940D01*
X155768863Y-64343157D01*
X156158294Y-64272511D01*
X156389460Y-64503677D01*
X157069199Y-63823938D01*
X157075207Y-63855867D01*
X157403724Y-64366396D01*
X157904983Y-64708892D01*
X158500000Y-64829386D01*
X160100000Y-64829386D01*
X160655867Y-64724793D01*
X161166396Y-64396276D01*
X161508892Y-63895017D01*
X161629386Y-63300000D01*
X161629386Y-61700000D01*
X161524793Y-61144133D01*
X161196276Y-60633604D01*
X160695017Y-60291108D01*
X160100000Y-60170614D01*
X158500000Y-60170614D01*
X157944133Y-60275207D01*
X157433604Y-60603724D01*
X157091108Y-61104983D01*
X157075449Y-61182312D01*
X156389460Y-60496323D01*
X156158134Y-60727649D01*
X155831137Y-60656843D01*
X155123420Y-60785229D01*
X155065887Y-60809060D01*
X154993664Y-61127979D01*
X144830347Y-61127979D01*
X144736855Y-60901714D01*
X144230949Y-60394924D01*
X143815230Y-60222302D01*
X144430172Y-60099983D01*
X144820000Y-59839509D01*
X145209828Y-60099983D01*
X146090000Y-60275060D01*
X146970172Y-60099983D01*
X147360000Y-59839509D01*
X147749828Y-60099983D01*
X148630000Y-60275060D01*
X149510172Y-60099983D01*
X150256346Y-59601406D01*
X150754923Y-58855232D01*
X150930000Y-57975060D01*
X150930000Y-57884940D01*
X150785099Y-57156471D01*
X159699688Y-57156471D01*
X159973145Y-57818286D01*
X160479051Y-58325076D01*
X160913161Y-58505334D01*
X160930304Y-58516789D01*
X160950349Y-58520776D01*
X161140387Y-58599687D01*
X161347971Y-58599868D01*
X161600000Y-58650000D01*
X166620728Y-58650000D01*
X166740387Y-58699687D01*
X167456471Y-58700312D01*
X168118286Y-58426855D01*
X168625076Y-57920949D01*
X168899687Y-57259613D01*
X168900312Y-56543529D01*
X168626855Y-55881714D01*
X168120949Y-55374924D01*
X167459613Y-55100313D01*
X166743529Y-55099688D01*
X166621765Y-55150000D01*
X162220099Y-55150000D01*
X161859613Y-55000313D01*
X161143529Y-54999688D01*
X160481714Y-55273145D01*
X159974924Y-55779051D01*
X159700313Y-56440387D01*
X159699688Y-57156471D01*
X150785099Y-57156471D01*
X150754923Y-57004768D01*
X150358850Y-56412002D01*
X150616396Y-56246276D01*
X150958892Y-55745017D01*
X151079386Y-55150000D01*
X151079386Y-53450000D01*
X150974793Y-52894133D01*
X150646276Y-52383604D01*
X150145017Y-52041108D01*
X149550000Y-51920614D01*
X147850000Y-51920614D01*
X147294133Y-52025207D01*
X147130567Y-52130459D01*
X147059306Y-52082844D01*
X146160000Y-51903961D01*
X145260694Y-52082844D01*
X144498299Y-52592260D01*
X143988883Y-53354655D01*
X143810000Y-54253961D01*
X143810000Y-54346039D01*
X143988883Y-55245345D01*
X144317847Y-55737674D01*
X143550000Y-55584940D01*
X142669828Y-55760017D01*
X142280000Y-56020491D01*
X141890172Y-55760017D01*
X141010000Y-55584940D01*
X140129828Y-55760017D01*
X139383654Y-56258594D01*
X139315996Y-56359851D01*
X139182790Y-56268409D01*
X139140900Y-56251085D01*
X138870000Y-56426293D01*
X138870000Y-57080565D01*
X138710000Y-57884940D01*
X138710000Y-57975060D01*
X138860167Y-58730000D01*
X138079833Y-58730000D01*
X138230000Y-57975060D01*
X138230000Y-57884940D01*
X138070000Y-57080565D01*
X138070000Y-56426293D01*
X137799100Y-56251085D01*
X137757210Y-56268409D01*
X137624004Y-56359851D01*
X137556346Y-56258594D01*
X136810172Y-55760017D01*
X135930000Y-55584940D01*
X135049828Y-55760017D01*
X134660000Y-56020491D01*
X134270172Y-55760017D01*
X133390000Y-55584940D01*
X132509828Y-55760017D01*
X132120000Y-56020491D01*
X131730172Y-55760017D01*
X130850000Y-55584940D01*
X129969828Y-55760017D01*
X129223654Y-56258594D01*
X129134496Y-56392028D01*
X128684547Y-55941292D01*
X127839505Y-55590400D01*
X126924509Y-55589601D01*
X126078857Y-55939018D01*
X125800263Y-56217126D01*
X125469460Y-55886323D01*
X125238134Y-56117649D01*
X124911137Y-56046843D01*
X124203420Y-56175229D01*
X124145887Y-56199060D01*
X124073664Y-56517979D01*
X122614919Y-56517979D01*
X122496276Y-56333604D01*
X121995017Y-55991108D01*
X121400000Y-55870614D01*
X119800000Y-55870614D01*
X119244133Y-55975207D01*
X118733604Y-56303724D01*
X118391108Y-56804983D01*
X118270614Y-57400000D01*
X113825000Y-57400000D01*
X113825000Y-54936491D01*
X114294360Y-55131386D01*
X115699476Y-55132612D01*
X116998104Y-54596030D01*
X117992538Y-53603330D01*
X118531386Y-52305640D01*
X118532612Y-50900524D01*
X118336130Y-50425000D01*
X153241558Y-50425000D01*
X152675925Y-50802944D01*
X152675925Y-50802944D01*
G37*
X152675925Y-50802944D02*
X152155670Y-51581560D01*
X151972981Y-52500000D01*
X152155670Y-53418440D01*
X152675925Y-54197056D01*
X153454541Y-54717311D01*
X154372981Y-54900000D01*
X154467019Y-54900000D01*
X155385459Y-54717311D01*
X156147154Y-54208362D01*
X156225479Y-54260978D01*
X156510000Y-54102202D01*
X156510000Y-53679343D01*
X156684330Y-53418440D01*
X156867019Y-52500000D01*
X156684330Y-51581560D01*
X156510000Y-51320657D01*
X156510000Y-50897798D01*
X156225479Y-50739022D01*
X156147154Y-50791638D01*
X155598442Y-50425000D01*
X157655944Y-50425000D01*
X157533604Y-50503724D01*
X157191108Y-51004983D01*
X157070614Y-51600000D01*
X157070614Y-53400000D01*
X157175207Y-53955867D01*
X157503724Y-54466396D01*
X158004983Y-54808892D01*
X158600000Y-54929386D01*
X160400000Y-54929386D01*
X160794559Y-54855145D01*
X176670000Y-54855145D01*
X176670000Y-55564855D01*
X176860301Y-56521564D01*
X177402233Y-57332622D01*
X178213291Y-57874554D01*
X179170000Y-58064855D01*
X180126709Y-57874554D01*
X180440000Y-57665220D01*
X180753291Y-57874554D01*
X181710000Y-58064855D01*
X182666709Y-57874554D01*
X182980000Y-57665220D01*
X183293291Y-57874554D01*
X184250000Y-58064855D01*
X185206709Y-57874554D01*
X185520000Y-57665220D01*
X185833291Y-57874554D01*
X186790000Y-58064855D01*
X187746709Y-57874554D01*
X188060000Y-57665220D01*
X188373291Y-57874554D01*
X189330000Y-58064855D01*
X190286709Y-57874554D01*
X190600000Y-57665220D01*
X190913291Y-57874554D01*
X191870000Y-58064855D01*
X192826709Y-57874554D01*
X193360329Y-57518000D01*
X193658000Y-57518000D01*
X193910000Y-57266000D01*
X193910000Y-56925197D01*
X194179699Y-56521564D01*
X194311292Y-55860000D01*
X194910000Y-55860000D01*
X194910000Y-57266000D01*
X195162000Y-57518000D01*
X195610504Y-57518000D01*
X195980986Y-57364541D01*
X196264541Y-57080986D01*
X196418000Y-56710503D01*
X196418000Y-56112000D01*
X196166000Y-55860000D01*
X194910000Y-55860000D01*
X194311292Y-55860000D01*
X194370000Y-55564855D01*
X194370000Y-54855145D01*
X194179699Y-53898436D01*
X193910000Y-53494803D01*
X193910000Y-53154000D01*
X194910000Y-53154000D01*
X194910000Y-54560000D01*
X196166000Y-54560000D01*
X196418000Y-54308000D01*
X196418000Y-53709497D01*
X196264541Y-53339014D01*
X195980986Y-53055459D01*
X195610504Y-52902000D01*
X195162000Y-52902000D01*
X194910000Y-53154000D01*
X193910000Y-53154000D01*
X193658000Y-52902000D01*
X193360329Y-52902000D01*
X192826709Y-52545446D01*
X191870000Y-52355145D01*
X190913291Y-52545446D01*
X190600000Y-52754780D01*
X190286709Y-52545446D01*
X189330000Y-52355145D01*
X188373291Y-52545446D01*
X188060000Y-52754780D01*
X187746709Y-52545446D01*
X186790000Y-52355145D01*
X185833291Y-52545446D01*
X185520000Y-52754780D01*
X185206709Y-52545446D01*
X184250000Y-52355145D01*
X183293291Y-52545446D01*
X182980000Y-52754780D01*
X182666709Y-52545446D01*
X181710000Y-52355145D01*
X180753291Y-52545446D01*
X180440000Y-52754780D01*
X180126709Y-52545446D01*
X179170000Y-52355145D01*
X178213291Y-52545446D01*
X177402233Y-53087378D01*
X176860301Y-53898436D01*
X176670000Y-54855145D01*
X160794559Y-54855145D01*
X160955867Y-54824793D01*
X161466396Y-54496276D01*
X161808892Y-53995017D01*
X161929386Y-53400000D01*
X161929386Y-51600000D01*
X161824793Y-51044133D01*
X161496276Y-50533604D01*
X161337329Y-50425000D01*
X199722480Y-50425000D01*
X199301292Y-50845453D01*
X198950400Y-51690495D01*
X198949601Y-52605491D01*
X199299018Y-53451143D01*
X199945453Y-54098708D01*
X200340331Y-54262676D01*
X200100400Y-54840495D01*
X200099601Y-55755491D01*
X200449018Y-56601143D01*
X200853410Y-57006242D01*
X200410017Y-57669828D01*
X200234940Y-58550000D01*
X200410017Y-59430172D01*
X200908594Y-60176346D01*
X201654768Y-60674923D01*
X202534940Y-60850000D01*
X202625060Y-60850000D01*
X203505232Y-60674923D01*
X204009308Y-60338110D01*
X203943664Y-60627979D01*
X204750000Y-61434315D01*
X205032843Y-61151472D01*
X205088730Y-61207359D01*
X204950400Y-61540495D01*
X204949601Y-62455491D01*
X205088857Y-62792514D01*
X205032843Y-62848528D01*
X204750000Y-62565685D01*
X203943664Y-63372021D01*
X204015887Y-63690940D01*
X204718863Y-63843157D01*
X205108294Y-63772511D01*
X205339460Y-64003677D01*
X205670182Y-63672955D01*
X205945453Y-63948708D01*
X206790495Y-64299600D01*
X207705491Y-64300399D01*
X208083387Y-64144255D01*
X207954940Y-64790000D01*
X208130017Y-65670172D01*
X208390491Y-66060000D01*
X208130017Y-66449828D01*
X207954940Y-67330000D01*
X208130017Y-68210172D01*
X208390491Y-68600000D01*
X208130017Y-68989828D01*
X207954940Y-69870000D01*
X208130017Y-70750172D01*
X208628594Y-71496346D01*
X209374768Y-71994923D01*
X210254940Y-72170000D01*
X210345060Y-72170000D01*
X211225232Y-71994923D01*
X211898590Y-71545000D01*
X214670000Y-71545000D01*
X215310995Y-71417498D01*
X215854404Y-71054404D01*
X215913687Y-70995121D01*
X216248594Y-71496346D01*
X216994768Y-71994923D01*
X217874940Y-72170000D01*
X217965060Y-72170000D01*
X218845232Y-71994923D01*
X219591406Y-71496346D01*
X220089983Y-70750172D01*
X220099461Y-70702521D01*
X229029022Y-70702521D01*
X229444157Y-71320506D01*
X230055483Y-71728952D01*
X230340000Y-71561686D01*
X230340000Y-70418000D01*
X231240000Y-70418000D01*
X231240000Y-71561686D01*
X231524517Y-71728952D01*
X231759397Y-71572021D01*
X238303664Y-71572021D01*
X238375887Y-71890940D01*
X239078863Y-72043157D01*
X239786580Y-71914771D01*
X239844113Y-71890940D01*
X239916336Y-71572021D01*
X239110000Y-70765685D01*
X238303664Y-71572021D01*
X231759397Y-71572021D01*
X232135843Y-71320506D01*
X232550978Y-70702521D01*
X232392202Y-70418000D01*
X231240000Y-70418000D01*
X230340000Y-70418000D01*
X229187798Y-70418000D01*
X229029022Y-70702521D01*
X220099461Y-70702521D01*
X220265060Y-69870000D01*
X220089983Y-68989828D01*
X219829509Y-68600000D01*
X220089983Y-68210172D01*
X220097571Y-68172027D01*
X220260430Y-68239652D01*
X220422000Y-68239793D01*
X220422000Y-68510002D01*
X220546057Y-68510002D01*
X220575459Y-68580986D01*
X220859014Y-68864541D01*
X221229496Y-69018000D01*
X221428000Y-69018000D01*
X221680000Y-68766000D01*
X221680000Y-67982547D01*
X221791429Y-67936506D01*
X221968243Y-67760000D01*
X222180000Y-67760000D01*
X222180000Y-68766000D01*
X222432000Y-69018000D01*
X222630504Y-69018000D01*
X223000986Y-68864541D01*
X223284541Y-68580986D01*
X223438000Y-68210503D01*
X223438000Y-68012000D01*
X223186000Y-67760000D01*
X222180000Y-67760000D01*
X221968243Y-67760000D01*
X222354529Y-67374388D01*
X222402027Y-67260000D01*
X223186000Y-67260000D01*
X223438000Y-67008000D01*
X223438000Y-66809497D01*
X223285939Y-66442388D01*
X223624529Y-66104388D01*
X223929652Y-65369570D01*
X223930346Y-64573921D01*
X223688249Y-63988000D01*
X228360614Y-63988000D01*
X228360614Y-65788000D01*
X228465207Y-66343867D01*
X228565341Y-66499480D01*
X228390000Y-67380981D01*
X228390000Y-67475019D01*
X228572689Y-68393459D01*
X229081638Y-69155154D01*
X229029022Y-69233479D01*
X229187798Y-69518000D01*
X229610657Y-69518000D01*
X229871560Y-69692330D01*
X230790000Y-69875019D01*
X231708440Y-69692330D01*
X231969343Y-69518000D01*
X232392202Y-69518000D01*
X232550978Y-69233479D01*
X232498362Y-69155154D01*
X232764753Y-68756471D01*
X233499688Y-68756471D01*
X233773145Y-69418286D01*
X234279051Y-69925076D01*
X234940387Y-70199687D01*
X235656471Y-70200312D01*
X236318286Y-69926855D01*
X236825076Y-69420949D01*
X236844156Y-69375000D01*
X237341863Y-69375000D01*
X237106323Y-69610540D01*
X237337649Y-69841866D01*
X237266843Y-70168863D01*
X237395229Y-70876580D01*
X237419060Y-70934113D01*
X237737979Y-71006336D01*
X238544315Y-70200000D01*
X238261472Y-69917157D01*
X238317359Y-69861270D01*
X238650495Y-69999600D01*
X239565491Y-70000399D01*
X239895312Y-69864120D01*
X239953439Y-69922247D01*
X239675685Y-70200000D01*
X240482021Y-71006336D01*
X240800940Y-70934113D01*
X240830196Y-70799004D01*
X242148983Y-72117791D01*
X242273145Y-72418286D01*
X242774597Y-72920614D01*
X241500000Y-72920614D01*
X240944133Y-73025207D01*
X240433604Y-73353724D01*
X240091108Y-73854983D01*
X239970614Y-74450000D01*
X239970614Y-76050000D01*
X240075207Y-76605867D01*
X240403724Y-77116396D01*
X240904983Y-77458892D01*
X241500000Y-77579386D01*
X243100000Y-77579386D01*
X243655867Y-77474793D01*
X243852496Y-77348266D01*
X243959828Y-77419983D01*
X244840000Y-77595060D01*
X245720172Y-77419983D01*
X246110000Y-77159509D01*
X246499828Y-77419983D01*
X247380000Y-77595060D01*
X248260172Y-77419983D01*
X248650000Y-77159509D01*
X249039828Y-77419983D01*
X249920000Y-77595060D01*
X250800172Y-77419983D01*
X251190000Y-77159509D01*
X251579828Y-77419983D01*
X252460000Y-77595060D01*
X253340172Y-77419983D01*
X253730000Y-77159509D01*
X254119828Y-77419983D01*
X255000000Y-77595060D01*
X255880172Y-77419983D01*
X256270000Y-77159509D01*
X256659828Y-77419983D01*
X257540000Y-77595060D01*
X258420172Y-77419983D01*
X259166346Y-76921406D01*
X259234004Y-76820149D01*
X259367210Y-76911591D01*
X259409100Y-76928915D01*
X259680000Y-76753707D01*
X259680000Y-76099435D01*
X259769398Y-75650000D01*
X260480000Y-75650000D01*
X260480000Y-76753707D01*
X260750900Y-76928915D01*
X260792790Y-76911591D01*
X261374395Y-76512337D01*
X261758941Y-75920904D01*
X261591223Y-75650000D01*
X260480000Y-75650000D01*
X259769398Y-75650000D01*
X259840000Y-75295060D01*
X259840000Y-75204940D01*
X259680000Y-74400565D01*
X259680000Y-73746293D01*
X260480000Y-73746293D01*
X260480000Y-74850000D01*
X261591223Y-74850000D01*
X261758941Y-74579096D01*
X261374395Y-73987663D01*
X260792790Y-73588409D01*
X260750900Y-73571085D01*
X260480000Y-73746293D01*
X259680000Y-73746293D01*
X259409100Y-73571085D01*
X259367210Y-73588409D01*
X259234004Y-73679851D01*
X259166346Y-73578594D01*
X258420172Y-73080017D01*
X257540000Y-72904940D01*
X256659828Y-73080017D01*
X256270000Y-73340491D01*
X255880172Y-73080017D01*
X255000000Y-72904940D01*
X254119828Y-73080017D01*
X253730000Y-73340491D01*
X253340172Y-73080017D01*
X252460000Y-72904940D01*
X251579828Y-73080017D01*
X251190000Y-73340491D01*
X250800172Y-73080017D01*
X249920000Y-72904940D01*
X249039828Y-73080017D01*
X248650000Y-73340491D01*
X248260172Y-73080017D01*
X247380000Y-72904940D01*
X246499828Y-73080017D01*
X246110000Y-73340491D01*
X245720172Y-73080017D01*
X244840200Y-72904980D01*
X245325076Y-72420949D01*
X245599687Y-71759613D01*
X245600041Y-71353977D01*
X245738286Y-71296855D01*
X246245076Y-70790949D01*
X246519687Y-70129613D01*
X246519971Y-69803990D01*
X247380000Y-69975060D01*
X248260172Y-69799983D01*
X249006346Y-69301406D01*
X249074004Y-69200149D01*
X249207210Y-69291591D01*
X249249100Y-69308915D01*
X249520000Y-69133707D01*
X249520000Y-68479435D01*
X249680000Y-67675060D01*
X249680000Y-67584940D01*
X249520000Y-66780565D01*
X249520000Y-66126293D01*
X249249100Y-65951085D01*
X249207210Y-65968409D01*
X249074004Y-66059851D01*
X249006346Y-65958594D01*
X248260172Y-65460017D01*
X247380000Y-65284940D01*
X246499828Y-65460017D01*
X246110000Y-65720491D01*
X245720172Y-65460017D01*
X244840000Y-65284940D01*
X243959828Y-65460017D01*
X243570000Y-65720491D01*
X243180172Y-65460017D01*
X242300000Y-65284940D01*
X241419828Y-65460017D01*
X240673654Y-65958594D01*
X240652737Y-65989898D01*
X240414547Y-65751292D01*
X239569505Y-65400400D01*
X238654509Y-65399601D01*
X237808857Y-65749018D01*
X237532393Y-66025000D01*
X236000000Y-66025000D01*
X235359005Y-66152502D01*
X234815596Y-66515596D01*
X234582209Y-66748983D01*
X234281714Y-66873145D01*
X233774924Y-67379051D01*
X233500313Y-68040387D01*
X233499688Y-68756471D01*
X232764753Y-68756471D01*
X233007311Y-68393459D01*
X233190000Y-67475019D01*
X233190000Y-67380981D01*
X233015709Y-66504760D01*
X233098892Y-66383017D01*
X233219386Y-65788000D01*
X233219386Y-64272787D01*
X256475741Y-64272787D01*
X256610017Y-64608100D01*
X257476886Y-64749944D01*
X258189983Y-64608100D01*
X258324259Y-64272787D01*
X257400000Y-63348528D01*
X256475741Y-64272787D01*
X233219386Y-64272787D01*
X233219386Y-63988000D01*
X233114793Y-63432133D01*
X232786276Y-62921604D01*
X232285017Y-62579108D01*
X231690000Y-62458614D01*
X229890000Y-62458614D01*
X229334133Y-62563207D01*
X228823604Y-62891724D01*
X228481108Y-63392983D01*
X228360614Y-63988000D01*
X223688249Y-63988000D01*
X223626506Y-63838571D01*
X223064388Y-63275471D01*
X222329570Y-62970348D01*
X221533921Y-62969654D01*
X220798571Y-63273494D01*
X220235471Y-63835612D01*
X220127123Y-64096543D01*
X220089983Y-63909828D01*
X219829509Y-63520000D01*
X220089983Y-63130172D01*
X220265060Y-62250000D01*
X220166697Y-61755491D01*
X242949601Y-61755491D01*
X243299018Y-62601143D01*
X243945453Y-63248708D01*
X244790495Y-63599600D01*
X245705491Y-63600399D01*
X246551143Y-63250982D01*
X246774910Y-63027605D01*
X247095453Y-63348708D01*
X247940495Y-63699600D01*
X248855491Y-63700399D01*
X249701143Y-63350982D01*
X250348708Y-62704547D01*
X250401717Y-62576886D01*
X255150056Y-62576886D01*
X255291900Y-63289983D01*
X255627213Y-63424259D01*
X256551472Y-62500000D01*
X258248528Y-62500000D01*
X259172787Y-63424259D01*
X259508100Y-63289983D01*
X259649944Y-62423114D01*
X259508100Y-61710017D01*
X259172787Y-61575741D01*
X258248528Y-62500000D01*
X256551472Y-62500000D01*
X255627213Y-61575741D01*
X255291900Y-61710017D01*
X255150056Y-62576886D01*
X250401717Y-62576886D01*
X250699600Y-61859505D01*
X250700399Y-60944509D01*
X250610614Y-60727213D01*
X256475741Y-60727213D01*
X257400000Y-61651472D01*
X258324259Y-60727213D01*
X258189983Y-60391900D01*
X257323114Y-60250056D01*
X256610017Y-60391900D01*
X256475741Y-60727213D01*
X250610614Y-60727213D01*
X250350982Y-60098857D01*
X249704547Y-59451292D01*
X248859505Y-59100400D01*
X247944509Y-59099601D01*
X247098857Y-59449018D01*
X246875090Y-59672395D01*
X246554547Y-59351292D01*
X245709505Y-59000400D01*
X244794509Y-58999601D01*
X243948857Y-59349018D01*
X243301292Y-59995453D01*
X242950400Y-60840495D01*
X242949601Y-61755491D01*
X220166697Y-61755491D01*
X220089983Y-61369828D01*
X219591406Y-60623654D01*
X219404446Y-60498732D01*
X219448708Y-60454547D01*
X219799600Y-59609505D01*
X219800399Y-58694509D01*
X219450982Y-57848857D01*
X218804547Y-57201292D01*
X217959505Y-56850400D01*
X217044509Y-56849601D01*
X216198857Y-57199018D01*
X215920263Y-57477126D01*
X215589460Y-57146323D01*
X215358134Y-57377649D01*
X215031137Y-57306843D01*
X214641706Y-57377489D01*
X214410540Y-57146323D01*
X214179280Y-57377583D01*
X214176855Y-57371714D01*
X214105000Y-57299733D01*
X214105000Y-55723508D01*
X214427429Y-55590283D01*
X215187614Y-54831424D01*
X215599530Y-53839419D01*
X215599534Y-53834707D01*
X223199532Y-53834707D01*
X223609717Y-54827429D01*
X224368576Y-55587614D01*
X225360581Y-55999530D01*
X226434707Y-56000468D01*
X227427429Y-55590283D01*
X228187614Y-54831424D01*
X228599530Y-53839419D01*
X228600468Y-52765293D01*
X228190283Y-51772571D01*
X227431424Y-51012386D01*
X226439419Y-50600470D01*
X225365293Y-50599532D01*
X224372571Y-51009717D01*
X223612386Y-51768576D01*
X223200470Y-52760581D01*
X223199532Y-53834707D01*
X215599534Y-53834707D01*
X215600468Y-52765293D01*
X215190283Y-51772571D01*
X214431424Y-51012386D01*
X213439419Y-50600470D01*
X212365293Y-50599532D01*
X211372571Y-51009717D01*
X211051915Y-51329814D01*
X211039983Y-51269828D01*
X210541406Y-50523654D01*
X210393760Y-50425000D01*
X234635804Y-50425000D01*
X234119073Y-50940829D01*
X233780387Y-51756477D01*
X233779616Y-52639648D01*
X234116879Y-53455886D01*
X234740829Y-54080927D01*
X234786762Y-54100000D01*
X234729063Y-54100000D01*
X233734086Y-54297913D01*
X232890585Y-54861522D01*
X232326976Y-55705023D01*
X232129063Y-56700000D01*
X232326976Y-57694977D01*
X232890585Y-58538478D01*
X233734086Y-59102087D01*
X234729063Y-59300000D01*
X234830937Y-59300000D01*
X235825914Y-59102087D01*
X236669415Y-58538478D01*
X237233024Y-57694977D01*
X237430937Y-56700000D01*
X237233024Y-55705023D01*
X236669415Y-54861522D01*
X236008642Y-54420008D01*
X236439648Y-54420384D01*
X237255886Y-54083121D01*
X237269476Y-54069554D01*
X237280829Y-54080927D01*
X238096477Y-54419613D01*
X238979648Y-54420384D01*
X239795886Y-54083121D01*
X239809476Y-54069554D01*
X239820829Y-54080927D01*
X240471059Y-54350926D01*
X240233604Y-54503724D01*
X239891108Y-55004983D01*
X239770614Y-55600000D01*
X239770614Y-57800000D01*
X239875207Y-58355867D01*
X240203724Y-58866396D01*
X240704983Y-59208892D01*
X241300000Y-59329386D01*
X243500000Y-59329386D01*
X244055867Y-59224793D01*
X244566396Y-58896276D01*
X244908892Y-58395017D01*
X245029386Y-57800000D01*
X245029386Y-55981177D01*
X245250000Y-56025060D01*
X246130172Y-55849983D01*
X246759157Y-55429709D01*
X246773654Y-55451406D01*
X247519828Y-55949983D01*
X248400000Y-56125060D01*
X249280172Y-55949983D01*
X250026346Y-55451406D01*
X250524923Y-54705232D01*
X250700000Y-53825060D01*
X250700000Y-53734940D01*
X250524923Y-52854768D01*
X250026346Y-52108594D01*
X249280172Y-51610017D01*
X248832151Y-51520900D01*
X250491085Y-51520900D01*
X250508409Y-51562790D01*
X250907663Y-52144395D01*
X251499096Y-52528941D01*
X251770000Y-52361223D01*
X251770000Y-51250000D01*
X250666293Y-51250000D01*
X250491085Y-51520900D01*
X248832151Y-51520900D01*
X248400000Y-51434940D01*
X247519828Y-51610017D01*
X246890843Y-52030291D01*
X246876346Y-52008594D01*
X246628170Y-51842768D01*
X246849600Y-51309505D01*
X246850372Y-50425000D01*
X250650124Y-50425000D01*
X250666293Y-50450000D01*
X251770000Y-50450000D01*
X251770000Y-50425000D01*
X252570000Y-50425000D01*
X252570000Y-50450000D01*
X252970000Y-50450000D01*
X252970000Y-51250000D01*
X252570000Y-51250000D01*
X252570000Y-52361223D01*
X252840904Y-52528941D01*
X253432337Y-52144395D01*
X253634429Y-51850002D01*
X253978000Y-51850002D01*
X253978000Y-51156315D01*
X254334315Y-50800000D01*
X254051472Y-50517157D01*
X254143629Y-50425000D01*
X255100326Y-50425000D01*
X255099601Y-51255491D01*
X255238857Y-51592514D01*
X255182843Y-51648528D01*
X254900000Y-51365685D01*
X254093664Y-52172021D01*
X254165887Y-52490940D01*
X254868863Y-52643157D01*
X255258294Y-52572511D01*
X255289311Y-52603528D01*
X255133604Y-52703724D01*
X254791108Y-53204983D01*
X254670614Y-53800000D01*
X254670614Y-56200000D01*
X254775207Y-56755867D01*
X255103724Y-57266396D01*
X255604983Y-57608892D01*
X256200000Y-57729386D01*
X258600000Y-57729386D01*
X259155867Y-57624793D01*
X259666396Y-57296276D01*
X260008892Y-56795017D01*
X260129386Y-56200000D01*
X260129386Y-53800000D01*
X260024793Y-53244133D01*
X259696276Y-52733604D01*
X259195017Y-52391108D01*
X259084139Y-52368655D01*
X259348708Y-52104547D01*
X259699600Y-51259505D01*
X259700329Y-50425000D01*
X262663509Y-50425000D01*
X262468614Y-50894360D01*
X262467388Y-52299476D01*
X263003970Y-53598104D01*
X263996670Y-54592538D01*
X265294360Y-55131386D01*
X266699476Y-55132612D01*
X267175000Y-54936130D01*
X267175000Y-67300614D01*
X265660000Y-67300614D01*
X265104133Y-67405207D01*
X264898916Y-67537261D01*
X264814771Y-67073420D01*
X264790940Y-67015887D01*
X264472021Y-66943664D01*
X263665685Y-67750000D01*
X263948528Y-68032843D01*
X263892641Y-68088730D01*
X263559505Y-67950400D01*
X262644509Y-67949601D01*
X262307486Y-68088857D01*
X262299316Y-68080687D01*
X262323075Y-67961240D01*
X262534315Y-67750000D01*
X262380000Y-67595685D01*
X262380000Y-67584940D01*
X262339134Y-67379495D01*
X262817157Y-66901472D01*
X263100000Y-67184315D01*
X263906336Y-66377979D01*
X263834113Y-66059060D01*
X263131137Y-65906843D01*
X262741706Y-65977489D01*
X262510540Y-65746323D01*
X261943437Y-66313426D01*
X261706346Y-65958594D01*
X260960172Y-65460017D01*
X260080000Y-65284940D01*
X259199828Y-65460017D01*
X258810000Y-65720491D01*
X258420172Y-65460017D01*
X257540000Y-65284940D01*
X256659828Y-65460017D01*
X256270000Y-65720491D01*
X255880172Y-65460017D01*
X255000000Y-65284940D01*
X254119828Y-65460017D01*
X253730000Y-65720491D01*
X253340172Y-65460017D01*
X252460000Y-65284940D01*
X251579828Y-65460017D01*
X250833654Y-65958594D01*
X250765996Y-66059851D01*
X250632790Y-65968409D01*
X250590900Y-65951085D01*
X250320000Y-66126293D01*
X250320000Y-66780565D01*
X250160000Y-67584940D01*
X250160000Y-67675060D01*
X250320000Y-68479435D01*
X250320000Y-69133707D01*
X250590900Y-69308915D01*
X250632790Y-69291591D01*
X250765996Y-69200149D01*
X250833654Y-69301406D01*
X251579828Y-69799983D01*
X252460000Y-69975060D01*
X253340172Y-69799983D01*
X253730000Y-69539509D01*
X254119828Y-69799983D01*
X255000000Y-69975060D01*
X255880172Y-69799983D01*
X256270000Y-69539509D01*
X256659828Y-69799983D01*
X257540000Y-69975060D01*
X258420172Y-69799983D01*
X258810000Y-69539509D01*
X259199828Y-69799983D01*
X260080000Y-69975060D01*
X260800364Y-69831771D01*
X260799601Y-70705491D01*
X261149018Y-71551143D01*
X261435918Y-71838544D01*
X261425077Y-71854768D01*
X261250000Y-72734940D01*
X261250000Y-72825060D01*
X261425077Y-73705232D01*
X261923654Y-74451406D01*
X262669828Y-74949983D01*
X263550000Y-75125060D01*
X264430172Y-74949983D01*
X265176346Y-74451406D01*
X265324051Y-74230350D01*
X265564655Y-74391117D01*
X266463961Y-74570000D01*
X266556039Y-74570000D01*
X267175000Y-74446881D01*
X267175000Y-95350000D01*
X128268808Y-95350000D01*
X128693808Y-94925000D01*
X139200000Y-94925000D01*
X139840995Y-94797498D01*
X140384404Y-94434404D01*
X145384404Y-89434404D01*
X145561013Y-89170090D01*
X145740486Y-88907668D01*
X145742381Y-88898653D01*
X145747498Y-88890994D01*
X145809521Y-88579184D01*
X145874902Y-88268087D01*
X145905247Y-85458169D01*
X146095453Y-85648708D01*
X146940495Y-85999600D01*
X147855491Y-86000399D01*
X148701143Y-85650982D01*
X149228379Y-85124666D01*
X149573654Y-85641406D01*
X150319828Y-86139983D01*
X151200000Y-86315060D01*
X152080172Y-86139983D01*
X152773709Y-85676577D01*
X152995453Y-85898708D01*
X153840495Y-86249600D01*
X154755491Y-86250399D01*
X155601143Y-85900982D01*
X156248708Y-85254547D01*
X156318864Y-85085594D01*
X156723654Y-85691406D01*
X157469828Y-86189983D01*
X158350000Y-86365060D01*
X159230172Y-86189983D01*
X159923762Y-85726542D01*
X160195453Y-85998708D01*
X161040495Y-86349600D01*
X161955491Y-86350399D01*
X162801143Y-86000982D01*
X163448708Y-85354547D01*
X163799600Y-84509505D01*
X163800399Y-83594509D01*
X163450982Y-82748857D01*
X162804547Y-82101292D01*
X161959505Y-81750400D01*
X161044509Y-81749601D01*
X160198857Y-82099018D01*
X159959872Y-82337586D01*
X159230172Y-81850017D01*
X158350000Y-81674940D01*
X157469828Y-81850017D01*
X156723654Y-82348594D01*
X156354930Y-82900429D01*
X156250982Y-82648857D01*
X155604547Y-82001292D01*
X154759505Y-81650400D01*
X153844509Y-81649601D01*
X152998857Y-81999018D01*
X152749916Y-82247525D01*
X152080172Y-81800017D01*
X151200000Y-81624940D01*
X150319828Y-81800017D01*
X149573654Y-82298594D01*
X149410467Y-82542821D01*
X149350982Y-82398857D01*
X148704547Y-81751292D01*
X147859505Y-81400400D01*
X146944509Y-81399601D01*
X146098857Y-81749018D01*
X145885383Y-81962119D01*
X145876346Y-81948594D01*
X145130172Y-81450017D01*
X144250000Y-81274940D01*
X143369828Y-81450017D01*
X142623654Y-81948594D01*
X142322084Y-82399927D01*
X142300982Y-82348857D01*
X141654547Y-81701292D01*
X140809505Y-81350400D01*
X139894509Y-81349601D01*
X139048857Y-81699018D01*
X138785348Y-81962067D01*
X138776346Y-81948594D01*
X138030172Y-81450017D01*
X137150000Y-81274940D01*
X136269828Y-81450017D01*
X135523654Y-81948594D01*
X135314256Y-82261980D01*
X134754547Y-81701292D01*
X133909505Y-81350400D01*
X132994509Y-81349601D01*
X132148857Y-81699018D01*
X131809767Y-82037516D01*
X131080172Y-81550017D01*
X130200000Y-81374940D01*
X129319828Y-81550017D01*
X128573654Y-82048594D01*
X128241189Y-82546164D01*
X128200982Y-82448857D01*
X127554547Y-81801292D01*
X126709505Y-81450400D01*
X125794509Y-81449601D01*
X124948857Y-81799018D01*
X124740012Y-82007499D01*
X124130172Y-81600017D01*
X123250000Y-81424940D01*
X122369828Y-81600017D01*
X121623654Y-82098594D01*
X121334169Y-82531840D01*
X120804547Y-82001292D01*
X119959505Y-81650400D01*
X119044509Y-81649601D01*
X118198857Y-81999018D01*
X117955389Y-82242061D01*
X117926346Y-82198594D01*
X117180172Y-81700017D01*
X116300000Y-81524940D01*
X115419828Y-81700017D01*
X114673654Y-82198594D01*
X114175077Y-82944768D01*
X114000000Y-83824940D01*
X114000000Y-83915060D01*
X114175077Y-84795232D01*
X114673654Y-85541406D01*
X114731009Y-85579730D01*
X114755950Y-85621590D01*
X114886381Y-85718858D01*
X114995000Y-85840000D01*
X115125000Y-85937500D01*
X115125000Y-95350000D01*
X113825000Y-95350000D01*
X113825000Y-76705491D01*
X113999601Y-76705491D01*
X114349018Y-77551143D01*
X114995453Y-78198708D01*
X115840495Y-78549600D01*
X116755491Y-78550399D01*
X117601143Y-78200982D01*
X117844611Y-77957939D01*
X117873654Y-78001406D01*
X118619828Y-78499983D01*
X119500000Y-78675060D01*
X120380172Y-78499983D01*
X121126346Y-78001406D01*
X121415831Y-77568160D01*
X121945453Y-78098708D01*
X122790495Y-78449600D01*
X123705491Y-78450399D01*
X124551143Y-78100982D01*
X124759988Y-77892501D01*
X125369828Y-78299983D01*
X126250000Y-78475060D01*
X127130172Y-78299983D01*
X127876346Y-77801406D01*
X128208811Y-77303836D01*
X128249018Y-77401143D01*
X128895453Y-78048708D01*
X129740495Y-78399600D01*
X130655491Y-78400399D01*
X131501143Y-78050982D01*
X131840233Y-77712484D01*
X132569828Y-78199983D01*
X133450000Y-78375060D01*
X134330172Y-78199983D01*
X135076346Y-77701406D01*
X135285744Y-77388020D01*
X135845453Y-77948708D01*
X136690495Y-78299600D01*
X137605491Y-78300399D01*
X138451143Y-77950982D01*
X138714652Y-77687933D01*
X138723654Y-77701406D01*
X139469828Y-78199983D01*
X140350000Y-78375060D01*
X141230172Y-78199983D01*
X141976346Y-77701406D01*
X142277916Y-77250073D01*
X142299018Y-77301143D01*
X142945453Y-77948708D01*
X143790495Y-78299600D01*
X144705491Y-78300399D01*
X145551143Y-77950982D01*
X145764617Y-77737881D01*
X145773654Y-77751406D01*
X146519828Y-78249983D01*
X147400000Y-78425060D01*
X148280172Y-78249983D01*
X149026346Y-77751406D01*
X149189533Y-77507179D01*
X149249018Y-77651143D01*
X149895453Y-78298708D01*
X150740495Y-78649600D01*
X151655491Y-78650399D01*
X152501143Y-78300982D01*
X152750084Y-78052475D01*
X153419828Y-78499983D01*
X154300000Y-78675060D01*
X155180172Y-78499983D01*
X155926346Y-78001406D01*
X156295070Y-77449571D01*
X156399018Y-77701143D01*
X157045453Y-78348708D01*
X157890495Y-78699600D01*
X158805491Y-78700399D01*
X159651143Y-78350982D01*
X159890128Y-78112414D01*
X160619828Y-78599983D01*
X161500000Y-78775060D01*
X162380172Y-78599983D01*
X163126346Y-78101406D01*
X163624923Y-77355232D01*
X163800000Y-76475060D01*
X163800000Y-76384940D01*
X163624923Y-75504768D01*
X163126346Y-74758594D01*
X162380172Y-74260017D01*
X162279678Y-74240027D01*
X162279793Y-74108000D01*
X162550002Y-74108000D01*
X162550002Y-73983943D01*
X162620986Y-73954541D01*
X162904541Y-73670986D01*
X163058000Y-73300504D01*
X163058000Y-73102000D01*
X162806000Y-72850000D01*
X162022547Y-72850000D01*
X161976506Y-72738571D01*
X161414388Y-72175471D01*
X161300000Y-72127973D01*
X161300000Y-71344000D01*
X161800000Y-71344000D01*
X161800000Y-72350000D01*
X162806000Y-72350000D01*
X163058000Y-72098000D01*
X163058000Y-71899496D01*
X162904541Y-71529014D01*
X162620986Y-71245459D01*
X162250503Y-71092000D01*
X162052000Y-71092000D01*
X161800000Y-71344000D01*
X161300000Y-71344000D01*
X161048000Y-71092000D01*
X160849497Y-71092000D01*
X160482388Y-71244061D01*
X160144388Y-70905471D01*
X159409570Y-70600348D01*
X158613921Y-70599654D01*
X157878571Y-70903494D01*
X157315471Y-71465612D01*
X157010348Y-72200430D01*
X157009654Y-72996079D01*
X157313494Y-73731429D01*
X157743366Y-74162052D01*
X157048857Y-74449018D01*
X156401292Y-75095453D01*
X156331136Y-75264406D01*
X155926346Y-74658594D01*
X155180172Y-74160017D01*
X155179660Y-74159915D01*
X155179793Y-74008000D01*
X155450002Y-74008000D01*
X155450002Y-73883943D01*
X155520986Y-73854541D01*
X155804541Y-73570986D01*
X155958000Y-73200504D01*
X155958000Y-73002000D01*
X155706000Y-72750000D01*
X154922547Y-72750000D01*
X154876506Y-72638571D01*
X154314388Y-72075471D01*
X154200000Y-72027973D01*
X154200000Y-71244000D01*
X154700000Y-71244000D01*
X154700000Y-72250000D01*
X155706000Y-72250000D01*
X155958000Y-71998000D01*
X155958000Y-71799496D01*
X155804541Y-71429014D01*
X155520986Y-71145459D01*
X155150503Y-70992000D01*
X154952000Y-70992000D01*
X154700000Y-71244000D01*
X154200000Y-71244000D01*
X153948000Y-70992000D01*
X153749497Y-70992000D01*
X153382388Y-71144061D01*
X153044388Y-70805471D01*
X152309570Y-70500348D01*
X151513921Y-70499654D01*
X150778571Y-70803494D01*
X150215471Y-71365612D01*
X149910348Y-72100430D01*
X149909654Y-72896079D01*
X150213494Y-73631429D01*
X150664102Y-74082824D01*
X149898857Y-74399018D01*
X149371621Y-74925334D01*
X149026346Y-74408594D01*
X148280172Y-73910017D01*
X148106444Y-73875460D01*
X148129652Y-73819570D01*
X148129793Y-73658000D01*
X148400002Y-73658000D01*
X148400002Y-73533943D01*
X148470986Y-73504541D01*
X148754541Y-73220986D01*
X148908000Y-72850504D01*
X148908000Y-72652000D01*
X148656000Y-72400000D01*
X147872547Y-72400000D01*
X147826506Y-72288571D01*
X147264388Y-71725471D01*
X147150000Y-71677973D01*
X147150000Y-70894000D01*
X147650000Y-70894000D01*
X147650000Y-71900000D01*
X148656000Y-71900000D01*
X148908000Y-71648000D01*
X148908000Y-71449496D01*
X148754541Y-71079014D01*
X148470986Y-70795459D01*
X148100503Y-70642000D01*
X147902000Y-70642000D01*
X147650000Y-70894000D01*
X147150000Y-70894000D01*
X146898000Y-70642000D01*
X146699497Y-70642000D01*
X146332388Y-70794061D01*
X145994388Y-70455471D01*
X145259570Y-70150348D01*
X144463921Y-70149654D01*
X143728571Y-70453494D01*
X143165471Y-71015612D01*
X142860348Y-71750430D01*
X142859654Y-72546079D01*
X143163494Y-73281429D01*
X143643304Y-73762078D01*
X142948857Y-74049018D01*
X142301292Y-74695453D01*
X142263017Y-74787629D01*
X141976346Y-74358594D01*
X141230172Y-73860017D01*
X140968666Y-73808000D01*
X141150002Y-73808000D01*
X141150002Y-73683943D01*
X141220986Y-73654541D01*
X141504541Y-73370986D01*
X141658000Y-73000504D01*
X141658000Y-72802000D01*
X141406000Y-72550000D01*
X140622547Y-72550000D01*
X140576506Y-72438571D01*
X140014388Y-71875471D01*
X139900000Y-71827973D01*
X139900000Y-71044000D01*
X140400000Y-71044000D01*
X140400000Y-72050000D01*
X141406000Y-72050000D01*
X141658000Y-71798000D01*
X141658000Y-71599496D01*
X141504541Y-71229014D01*
X141220986Y-70945459D01*
X140850503Y-70792000D01*
X140652000Y-70792000D01*
X140400000Y-71044000D01*
X139900000Y-71044000D01*
X139648000Y-70792000D01*
X139449497Y-70792000D01*
X139082388Y-70944061D01*
X138744388Y-70605471D01*
X138009570Y-70300348D01*
X137213921Y-70299654D01*
X136478571Y-70603494D01*
X135915471Y-71165612D01*
X135610348Y-71900430D01*
X135609654Y-72696079D01*
X135913494Y-73431429D01*
X136331096Y-73849761D01*
X135848857Y-74049018D01*
X135261361Y-74635489D01*
X135076346Y-74358594D01*
X134330172Y-73860017D01*
X133879782Y-73770429D01*
X133879793Y-73758000D01*
X134150002Y-73758000D01*
X134150002Y-73633943D01*
X134220986Y-73604541D01*
X134504541Y-73320986D01*
X134658000Y-72950504D01*
X134658000Y-72752000D01*
X134406000Y-72500000D01*
X133622547Y-72500000D01*
X133576506Y-72388571D01*
X133014388Y-71825471D01*
X132900000Y-71777973D01*
X132900000Y-70994000D01*
X133400000Y-70994000D01*
X133400000Y-72000000D01*
X134406000Y-72000000D01*
X134658000Y-71748000D01*
X134658000Y-71549496D01*
X134504541Y-71179014D01*
X134220986Y-70895459D01*
X133850503Y-70742000D01*
X133652000Y-70742000D01*
X133400000Y-70994000D01*
X132900000Y-70994000D01*
X132648000Y-70742000D01*
X132449497Y-70742000D01*
X132082388Y-70894061D01*
X131744388Y-70555471D01*
X131009570Y-70250348D01*
X130213921Y-70249654D01*
X129478571Y-70553494D01*
X128915471Y-71115612D01*
X128610348Y-71850430D01*
X128609654Y-72646079D01*
X128913494Y-73381429D01*
X129451709Y-73920584D01*
X128898857Y-74149018D01*
X128251292Y-74795453D01*
X128193854Y-74933779D01*
X127876346Y-74458594D01*
X127130172Y-73960017D01*
X126629791Y-73860485D01*
X126629793Y-73858000D01*
X126900002Y-73858000D01*
X126900002Y-73733943D01*
X126970986Y-73704541D01*
X127254541Y-73420986D01*
X127408000Y-73050504D01*
X127408000Y-72852000D01*
X127156000Y-72600000D01*
X126372547Y-72600000D01*
X126326506Y-72488571D01*
X125764388Y-71925471D01*
X125650000Y-71877973D01*
X125650000Y-71094000D01*
X126150000Y-71094000D01*
X126150000Y-72100000D01*
X127156000Y-72100000D01*
X127408000Y-71848000D01*
X127408000Y-71649496D01*
X127254541Y-71279014D01*
X126970986Y-70995459D01*
X126600503Y-70842000D01*
X126402000Y-70842000D01*
X126150000Y-71094000D01*
X125650000Y-71094000D01*
X125398000Y-70842000D01*
X125199497Y-70842000D01*
X124832388Y-70994061D01*
X124494388Y-70655471D01*
X123759570Y-70350348D01*
X122963921Y-70349654D01*
X122228571Y-70653494D01*
X121665471Y-71215612D01*
X121360348Y-71950430D01*
X121359654Y-72746079D01*
X121663494Y-73481429D01*
X122225612Y-74044529D01*
X122274060Y-74064646D01*
X121948857Y-74199018D01*
X121301292Y-74845453D01*
X121282094Y-74891687D01*
X121126346Y-74658594D01*
X120380172Y-74160017D01*
X120079712Y-74100252D01*
X120079793Y-74008000D01*
X120350002Y-74008000D01*
X120350002Y-73883943D01*
X120420986Y-73854541D01*
X120704541Y-73570986D01*
X120858000Y-73200504D01*
X120858000Y-73002000D01*
X120606000Y-72750000D01*
X119822547Y-72750000D01*
X119776506Y-72638571D01*
X119214388Y-72075471D01*
X119100000Y-72027973D01*
X119100000Y-71244000D01*
X119600000Y-71244000D01*
X119600000Y-72250000D01*
X120606000Y-72250000D01*
X120858000Y-71998000D01*
X120858000Y-71799496D01*
X120704541Y-71429014D01*
X120420986Y-71145459D01*
X120050503Y-70992000D01*
X119852000Y-70992000D01*
X119600000Y-71244000D01*
X119100000Y-71244000D01*
X118848000Y-70992000D01*
X118649497Y-70992000D01*
X118282388Y-71144061D01*
X117944388Y-70805471D01*
X117209570Y-70500348D01*
X116413921Y-70499654D01*
X115678571Y-70803494D01*
X115115471Y-71365612D01*
X114810348Y-72100430D01*
X114809654Y-72896079D01*
X115113494Y-73631429D01*
X115551832Y-74070533D01*
X114998857Y-74299018D01*
X114351292Y-74945453D01*
X114000400Y-75790495D01*
X113999601Y-76705491D01*
X113825000Y-76705491D01*
X113825000Y-68855491D01*
X165699601Y-68855491D01*
X166049018Y-69701143D01*
X166373493Y-70026186D01*
X165910017Y-70719828D01*
X165734940Y-71600000D01*
X165910017Y-72480172D01*
X166408594Y-73226346D01*
X166655981Y-73391645D01*
X166151292Y-73895453D01*
X165800400Y-74740495D01*
X165799601Y-75655491D01*
X166149018Y-76501143D01*
X166473493Y-76826186D01*
X166010017Y-77519828D01*
X165834940Y-78400000D01*
X166010017Y-79280172D01*
X166508594Y-80026346D01*
X166755981Y-80191645D01*
X166251292Y-80695453D01*
X165900400Y-81540495D01*
X165899601Y-82455491D01*
X166249018Y-83301143D01*
X166516068Y-83568660D01*
X166508594Y-83573654D01*
X166010017Y-84319828D01*
X165834940Y-85200000D01*
X166010017Y-86080172D01*
X166508594Y-86826346D01*
X166755981Y-86991645D01*
X166251292Y-87495453D01*
X165900400Y-88340495D01*
X165899601Y-89255491D01*
X166249018Y-90101143D01*
X166516068Y-90368660D01*
X166508594Y-90373654D01*
X166010017Y-91119828D01*
X165834940Y-92000000D01*
X166010017Y-92880172D01*
X166508594Y-93626346D01*
X167254768Y-94124923D01*
X168134940Y-94300000D01*
X168225060Y-94300000D01*
X169105232Y-94124923D01*
X169851406Y-93626346D01*
X170349983Y-92880172D01*
X170525060Y-92000000D01*
X170349983Y-91119828D01*
X169862499Y-90390256D01*
X170148708Y-90104547D01*
X170499600Y-89259505D01*
X170500399Y-88344509D01*
X170150982Y-87498857D01*
X169628395Y-86975357D01*
X169851406Y-86826346D01*
X170349983Y-86080172D01*
X170525060Y-85200000D01*
X170349983Y-84319828D01*
X169862499Y-83590256D01*
X170148708Y-83304547D01*
X170499600Y-82459505D01*
X170500399Y-81544509D01*
X170150982Y-80698857D01*
X169628395Y-80175357D01*
X169851406Y-80026346D01*
X170349983Y-79280172D01*
X170525060Y-78400000D01*
X170349983Y-77519828D01*
X169851406Y-76773654D01*
X169808110Y-76744725D01*
X170048708Y-76504547D01*
X170399600Y-75659505D01*
X170400399Y-74744509D01*
X170050982Y-73898857D01*
X169528395Y-73375357D01*
X169751406Y-73226346D01*
X170249983Y-72480172D01*
X170425060Y-71600000D01*
X170249983Y-70719828D01*
X169751406Y-69973654D01*
X169708110Y-69944725D01*
X169948708Y-69704547D01*
X170299600Y-68859505D01*
X170300001Y-68400000D01*
X173274940Y-68400000D01*
X173450017Y-69280172D01*
X173948594Y-70026346D01*
X173991890Y-70055275D01*
X173751292Y-70295453D01*
X173400400Y-71140495D01*
X173399601Y-72055491D01*
X173749018Y-72901143D01*
X174271605Y-73424643D01*
X174048594Y-73573654D01*
X173550017Y-74319828D01*
X173374940Y-75200000D01*
X173550017Y-76080172D01*
X174048594Y-76826346D01*
X174091890Y-76855275D01*
X173851292Y-77095453D01*
X173500400Y-77940495D01*
X173499601Y-78855491D01*
X173849018Y-79701143D01*
X174371605Y-80224643D01*
X174148594Y-80373654D01*
X173650017Y-81119828D01*
X173474940Y-82000000D01*
X173650017Y-82880172D01*
X174137501Y-83609744D01*
X173851292Y-83895453D01*
X173500400Y-84740495D01*
X173499601Y-85655491D01*
X173849018Y-86501143D01*
X174371605Y-87024643D01*
X174148594Y-87173654D01*
X173650017Y-87919828D01*
X173474940Y-88800000D01*
X173650017Y-89680172D01*
X174137501Y-90409744D01*
X173851292Y-90695453D01*
X173500400Y-91540495D01*
X173499601Y-92455491D01*
X173849018Y-93301143D01*
X174495453Y-93948708D01*
X175340495Y-94299600D01*
X176255491Y-94300399D01*
X177101143Y-93950982D01*
X177692271Y-93360885D01*
X177865612Y-93534529D01*
X178600430Y-93839652D01*
X179396079Y-93840346D01*
X180131429Y-93536506D01*
X180694529Y-92974388D01*
X180902941Y-92472477D01*
X181401429Y-92266506D01*
X181964529Y-91704388D01*
X182269652Y-90969570D01*
X182269955Y-90621079D01*
X184759654Y-90621079D01*
X185063494Y-91356429D01*
X185625612Y-91919529D01*
X186127523Y-92127941D01*
X186333494Y-92626429D01*
X186895612Y-93189529D01*
X187630430Y-93494652D01*
X188426079Y-93495346D01*
X189161429Y-93191506D01*
X189724529Y-92629388D01*
X189887044Y-92238008D01*
X190049708Y-92207400D01*
X190049601Y-92330491D01*
X190399018Y-93176143D01*
X191045453Y-93823708D01*
X191890495Y-94174600D01*
X192805491Y-94175399D01*
X193651143Y-93825982D01*
X193856033Y-93621450D01*
X194519828Y-94064983D01*
X195400000Y-94240060D01*
X196280172Y-94064983D01*
X197026346Y-93566406D01*
X197524923Y-92820232D01*
X197700000Y-91940060D01*
X197700000Y-91849940D01*
X197524923Y-90969768D01*
X197275233Y-90596079D01*
X197484654Y-90596079D01*
X197788494Y-91331429D01*
X198350612Y-91894529D01*
X198852523Y-92102941D01*
X199058494Y-92601429D01*
X199620612Y-93164529D01*
X200355430Y-93469652D01*
X201151079Y-93470346D01*
X201886429Y-93166506D01*
X202449529Y-92604388D01*
X202612044Y-92213008D01*
X202699783Y-92196498D01*
X202699601Y-92405491D01*
X203049018Y-93251143D01*
X203695453Y-93898708D01*
X204540495Y-94249600D01*
X205455491Y-94250399D01*
X206301143Y-93900982D01*
X206598654Y-93603990D01*
X206623654Y-93641406D01*
X207369828Y-94139983D01*
X208250000Y-94315060D01*
X209130172Y-94139983D01*
X209876346Y-93641406D01*
X210374923Y-92895232D01*
X210550000Y-92015060D01*
X210550000Y-91924940D01*
X210374923Y-91044768D01*
X209941484Y-90396079D01*
X210784654Y-90396079D01*
X211088494Y-91131429D01*
X211650612Y-91694529D01*
X212152523Y-91902941D01*
X212358494Y-92401429D01*
X212920612Y-92964529D01*
X213655430Y-93269652D01*
X214451079Y-93270346D01*
X215186429Y-92966506D01*
X215749529Y-92404388D01*
X215912044Y-92013008D01*
X216124804Y-91972974D01*
X216124601Y-92205491D01*
X216474018Y-93051143D01*
X217120453Y-93698708D01*
X217965495Y-94049600D01*
X218880491Y-94050399D01*
X219726143Y-93700982D01*
X219973619Y-93453938D01*
X219998654Y-93491406D01*
X220744828Y-93989983D01*
X221625000Y-94165060D01*
X222505172Y-93989983D01*
X223251346Y-93491406D01*
X223749923Y-92745232D01*
X223925000Y-91865060D01*
X223925000Y-91774940D01*
X223749923Y-90894768D01*
X223366597Y-90321079D01*
X223934654Y-90321079D01*
X224238494Y-91056429D01*
X224800612Y-91619529D01*
X225302523Y-91827941D01*
X225508494Y-92326429D01*
X226070612Y-92889529D01*
X226805430Y-93194652D01*
X227601079Y-93195346D01*
X228336429Y-92891506D01*
X228899529Y-92329388D01*
X229062044Y-91938008D01*
X229299677Y-91893294D01*
X229299601Y-91980491D01*
X229649018Y-92826143D01*
X230295453Y-93473708D01*
X231140495Y-93824600D01*
X232055491Y-93825399D01*
X232901143Y-93475982D01*
X233196181Y-93181458D01*
X233919828Y-93664983D01*
X234800000Y-93840060D01*
X235680172Y-93664983D01*
X236426346Y-93166406D01*
X236924923Y-92420232D01*
X237100000Y-91540060D01*
X237100000Y-91449940D01*
X236924923Y-90569768D01*
X236658528Y-90171079D01*
X236934654Y-90171079D01*
X237238494Y-90906429D01*
X237800612Y-91469529D01*
X238302523Y-91677941D01*
X238508494Y-92176429D01*
X239070612Y-92739529D01*
X239805430Y-93044652D01*
X240601079Y-93045346D01*
X241336429Y-92741506D01*
X241899529Y-92179388D01*
X242062044Y-91788008D01*
X242174657Y-91766818D01*
X242174601Y-91830491D01*
X242524018Y-92676143D01*
X243170453Y-93323708D01*
X244015495Y-93674600D01*
X244930491Y-93675399D01*
X245776143Y-93325982D01*
X246046155Y-93056441D01*
X246769828Y-93539983D01*
X247650000Y-93715060D01*
X248530172Y-93539983D01*
X249276346Y-93041406D01*
X249774923Y-92295232D01*
X249950000Y-91415060D01*
X249950000Y-91324940D01*
X249841011Y-90777017D01*
X249863494Y-90831429D01*
X250425612Y-91394529D01*
X250927523Y-91602941D01*
X251133494Y-92101429D01*
X251695612Y-92664529D01*
X252430430Y-92969652D01*
X253226079Y-92970346D01*
X253961429Y-92666506D01*
X254524529Y-92104388D01*
X254687044Y-91713008D01*
X255099706Y-91635360D01*
X255099601Y-91755491D01*
X255449018Y-92601143D01*
X256095453Y-93248708D01*
X256940495Y-93599600D01*
X257855491Y-93600399D01*
X258701143Y-93250982D01*
X259068594Y-92884172D01*
X259173654Y-93041406D01*
X259919828Y-93539983D01*
X260800000Y-93715060D01*
X261680172Y-93539983D01*
X262426346Y-93041406D01*
X262924923Y-92295232D01*
X263100000Y-91415060D01*
X263100000Y-91324940D01*
X262924923Y-90444768D01*
X262426346Y-89698594D01*
X261680172Y-89200017D01*
X260800000Y-89024940D01*
X259919828Y-89200017D01*
X259173654Y-89698594D01*
X259124572Y-89772051D01*
X258704547Y-89351292D01*
X257859505Y-89000400D01*
X256944509Y-88999601D01*
X256129386Y-89336404D01*
X256129386Y-89200000D01*
X256024793Y-88644133D01*
X255696276Y-88133604D01*
X255195017Y-87791108D01*
X254600000Y-87670614D01*
X253600000Y-87670614D01*
X253044133Y-87775207D01*
X252689468Y-88003428D01*
X251959570Y-87700348D01*
X251163921Y-87699654D01*
X250428571Y-88003494D01*
X249865471Y-88565612D01*
X249560348Y-89300430D01*
X249559654Y-90096079D01*
X249588364Y-90165562D01*
X249276346Y-89698594D01*
X248530172Y-89200017D01*
X247650000Y-89024940D01*
X246769828Y-89200017D01*
X246040282Y-89687483D01*
X245779547Y-89426292D01*
X244934505Y-89075400D01*
X244019509Y-89074601D01*
X243504386Y-89287446D01*
X243504386Y-89275000D01*
X243399793Y-88719133D01*
X243071276Y-88208604D01*
X242570017Y-87866108D01*
X241975000Y-87745614D01*
X240975000Y-87745614D01*
X240419133Y-87850207D01*
X240064468Y-88078428D01*
X239334570Y-87775348D01*
X238538921Y-87774654D01*
X237803571Y-88078494D01*
X237240471Y-88640612D01*
X236935348Y-89375430D01*
X236934654Y-90171079D01*
X236658528Y-90171079D01*
X236426346Y-89823594D01*
X235680172Y-89325017D01*
X234800000Y-89149940D01*
X233919828Y-89325017D01*
X233173654Y-89823594D01*
X233164738Y-89836938D01*
X232904547Y-89576292D01*
X232059505Y-89225400D01*
X231144509Y-89224601D01*
X230504386Y-89489095D01*
X230504386Y-89425000D01*
X230399793Y-88869133D01*
X230071276Y-88358604D01*
X229570017Y-88016108D01*
X228975000Y-87895614D01*
X227975000Y-87895614D01*
X227419133Y-88000207D01*
X227064468Y-88228428D01*
X226334570Y-87925348D01*
X225538921Y-87924654D01*
X224803571Y-88228494D01*
X224240471Y-88790612D01*
X223935348Y-89525430D01*
X223934654Y-90321079D01*
X223366597Y-90321079D01*
X223251346Y-90148594D01*
X222505172Y-89650017D01*
X221625000Y-89474940D01*
X220744828Y-89650017D01*
X220045198Y-90117495D01*
X219729547Y-89801292D01*
X218884505Y-89450400D01*
X217969509Y-89449601D01*
X217354386Y-89703765D01*
X217354386Y-89500000D01*
X217249793Y-88944133D01*
X216921276Y-88433604D01*
X216420017Y-88091108D01*
X215825000Y-87970614D01*
X214825000Y-87970614D01*
X214269133Y-88075207D01*
X213914468Y-88303428D01*
X213184570Y-88000348D01*
X212388921Y-87999654D01*
X211653571Y-88303494D01*
X211090471Y-88865612D01*
X210785348Y-89600430D01*
X210784654Y-90396079D01*
X209941484Y-90396079D01*
X209876346Y-90298594D01*
X209130172Y-89800017D01*
X208250000Y-89624940D01*
X207369828Y-89800017D01*
X206623654Y-90298594D01*
X206614703Y-90311990D01*
X206304547Y-90001292D01*
X205459505Y-89650400D01*
X204544509Y-89649601D01*
X204054386Y-89852116D01*
X204054386Y-89700000D01*
X203949793Y-89144133D01*
X203621276Y-88633604D01*
X203120017Y-88291108D01*
X202525000Y-88170614D01*
X201525000Y-88170614D01*
X200969133Y-88275207D01*
X200614468Y-88503428D01*
X199884570Y-88200348D01*
X199088921Y-88199654D01*
X198353571Y-88503494D01*
X197790471Y-89065612D01*
X197485348Y-89800430D01*
X197484654Y-90596079D01*
X197275233Y-90596079D01*
X197026346Y-90223594D01*
X196280172Y-89725017D01*
X195400000Y-89549940D01*
X194519828Y-89725017D01*
X193880238Y-90152377D01*
X193654547Y-89926292D01*
X192809505Y-89575400D01*
X191894509Y-89574601D01*
X191329386Y-89808106D01*
X191329386Y-89725000D01*
X191224793Y-89169133D01*
X190896276Y-88658604D01*
X190395017Y-88316108D01*
X189800000Y-88195614D01*
X188800000Y-88195614D01*
X188244133Y-88300207D01*
X187889468Y-88528428D01*
X187159570Y-88225348D01*
X186363921Y-88224654D01*
X185628571Y-88528494D01*
X185065471Y-89090612D01*
X184760348Y-89825430D01*
X184759654Y-90621079D01*
X182269955Y-90621079D01*
X182270346Y-90173921D01*
X181966506Y-89438571D01*
X181404388Y-88875471D01*
X180669570Y-88570348D01*
X180508000Y-88570207D01*
X180508000Y-88299998D01*
X180383943Y-88299998D01*
X180354541Y-88229014D01*
X180070986Y-87945459D01*
X179700504Y-87792000D01*
X179502000Y-87792000D01*
X179250000Y-88044000D01*
X179250000Y-88827453D01*
X179138571Y-88873494D01*
X178575471Y-89435612D01*
X178527973Y-89550000D01*
X178500000Y-89550000D01*
X178500000Y-89050000D01*
X178750000Y-89050000D01*
X178750000Y-88044000D01*
X178498000Y-87792000D01*
X178299496Y-87792000D01*
X177990052Y-87920176D01*
X177989983Y-87919828D01*
X177491406Y-87173654D01*
X177244019Y-87008355D01*
X177592097Y-86660885D01*
X177665612Y-86734529D01*
X178400430Y-87039652D01*
X179196079Y-87040346D01*
X179931429Y-86736506D01*
X180091213Y-86577000D01*
X185317000Y-86577000D01*
X185317000Y-86775504D01*
X185470459Y-87145986D01*
X185754014Y-87429541D01*
X186124497Y-87583000D01*
X186323000Y-87583000D01*
X186575000Y-87331000D01*
X186575000Y-86325000D01*
X185569000Y-86325000D01*
X185317000Y-86577000D01*
X180091213Y-86577000D01*
X180494529Y-86174388D01*
X180702941Y-85672477D01*
X181201429Y-85466506D01*
X181293599Y-85374496D01*
X185317000Y-85374496D01*
X185317000Y-85573000D01*
X185569000Y-85825000D01*
X186352453Y-85825000D01*
X186398494Y-85936429D01*
X186960612Y-86499529D01*
X187075000Y-86547027D01*
X187075000Y-87331000D01*
X187327000Y-87583000D01*
X187525503Y-87583000D01*
X187892612Y-87430939D01*
X188230612Y-87769529D01*
X188965430Y-88074652D01*
X189761079Y-88075346D01*
X190496429Y-87771506D01*
X191059529Y-87209388D01*
X191364652Y-86474570D01*
X191364756Y-86354777D01*
X191469828Y-86424983D01*
X192350000Y-86600060D01*
X192465930Y-86577000D01*
X197942000Y-86577000D01*
X197942000Y-86775504D01*
X198095459Y-87145986D01*
X198379014Y-87429541D01*
X198749497Y-87583000D01*
X198948000Y-87583000D01*
X199200000Y-87331000D01*
X199200000Y-86325000D01*
X198194000Y-86325000D01*
X197942000Y-86577000D01*
X192465930Y-86577000D01*
X193230172Y-86424983D01*
X193869762Y-85997623D01*
X194095453Y-86223708D01*
X194940495Y-86574600D01*
X195855491Y-86575399D01*
X196701143Y-86225982D01*
X197348708Y-85579547D01*
X197433852Y-85374496D01*
X197942000Y-85374496D01*
X197942000Y-85573000D01*
X198194000Y-85825000D01*
X198977453Y-85825000D01*
X199023494Y-85936429D01*
X199585612Y-86499529D01*
X199700000Y-86547027D01*
X199700000Y-87331000D01*
X199952000Y-87583000D01*
X200150503Y-87583000D01*
X200517612Y-87430939D01*
X200855612Y-87769529D01*
X201590430Y-88074652D01*
X202386079Y-88075346D01*
X203121429Y-87771506D01*
X203684529Y-87209388D01*
X203989652Y-86474570D01*
X203989706Y-86413038D01*
X204119828Y-86499983D01*
X205000000Y-86675060D01*
X205880172Y-86499983D01*
X206626346Y-86001406D01*
X206635297Y-85988010D01*
X206945453Y-86298708D01*
X207790495Y-86649600D01*
X208705491Y-86650399D01*
X209185652Y-86452000D01*
X211342000Y-86452000D01*
X211342000Y-86650504D01*
X211495459Y-87020986D01*
X211779014Y-87304541D01*
X212149497Y-87458000D01*
X212348000Y-87458000D01*
X212600000Y-87206000D01*
X212600000Y-86200000D01*
X211594000Y-86200000D01*
X211342000Y-86452000D01*
X209185652Y-86452000D01*
X209551143Y-86300982D01*
X210198708Y-85654547D01*
X210366899Y-85249496D01*
X211342000Y-85249496D01*
X211342000Y-85448000D01*
X211594000Y-85700000D01*
X212377453Y-85700000D01*
X212423494Y-85811429D01*
X212985612Y-86374529D01*
X213100000Y-86422027D01*
X213100000Y-87206000D01*
X213352000Y-87458000D01*
X213550503Y-87458000D01*
X213917612Y-87305939D01*
X214255612Y-87644529D01*
X214990430Y-87949652D01*
X215786079Y-87950346D01*
X216521429Y-87646506D01*
X217084529Y-87084388D01*
X217389652Y-86349570D01*
X217389786Y-86196387D01*
X217544828Y-86299983D01*
X218425000Y-86475060D01*
X219305172Y-86299983D01*
X220004802Y-85832505D01*
X220320453Y-86148708D01*
X221165495Y-86499600D01*
X222080491Y-86500399D01*
X222681661Y-86252000D01*
X224442000Y-86252000D01*
X224442000Y-86450504D01*
X224595459Y-86820986D01*
X224879014Y-87104541D01*
X225249497Y-87258000D01*
X225448000Y-87258000D01*
X225700000Y-87006000D01*
X225700000Y-86000000D01*
X224694000Y-86000000D01*
X224442000Y-86252000D01*
X222681661Y-86252000D01*
X222926143Y-86150982D01*
X223573708Y-85504547D01*
X223762661Y-85049496D01*
X224442000Y-85049496D01*
X224442000Y-85248000D01*
X224694000Y-85500000D01*
X225477453Y-85500000D01*
X225523494Y-85611429D01*
X226085612Y-86174529D01*
X226200000Y-86222027D01*
X226200000Y-87006000D01*
X226452000Y-87258000D01*
X226650503Y-87258000D01*
X227017612Y-87105939D01*
X227355612Y-87444529D01*
X228090430Y-87749652D01*
X228886079Y-87750346D01*
X229621429Y-87446506D01*
X230184529Y-86884388D01*
X230489652Y-86149570D01*
X230489851Y-85921318D01*
X230719828Y-86074983D01*
X231600000Y-86250060D01*
X231841614Y-86202000D01*
X237342000Y-86202000D01*
X237342000Y-86400504D01*
X237495459Y-86770986D01*
X237779014Y-87054541D01*
X238149497Y-87208000D01*
X238348000Y-87208000D01*
X238600000Y-86956000D01*
X238600000Y-85950000D01*
X237594000Y-85950000D01*
X237342000Y-86202000D01*
X231841614Y-86202000D01*
X232480172Y-86074983D01*
X233226346Y-85576406D01*
X233235262Y-85563062D01*
X233495453Y-85823708D01*
X234340495Y-86174600D01*
X235255491Y-86175399D01*
X236101143Y-85825982D01*
X236748708Y-85179547D01*
X236823471Y-84999496D01*
X237342000Y-84999496D01*
X237342000Y-85198000D01*
X237594000Y-85450000D01*
X238377453Y-85450000D01*
X238423494Y-85561429D01*
X238985612Y-86124529D01*
X239100000Y-86172027D01*
X239100000Y-86956000D01*
X239352000Y-87208000D01*
X239550503Y-87208000D01*
X239917612Y-87055939D01*
X240255612Y-87394529D01*
X240990430Y-87699652D01*
X241786079Y-87700346D01*
X242521429Y-87396506D01*
X243084529Y-86834388D01*
X243389652Y-86099570D01*
X243389924Y-85788070D01*
X243594828Y-85924983D01*
X244475000Y-86100060D01*
X245355172Y-85924983D01*
X246084718Y-85437517D01*
X246345453Y-85698708D01*
X247190495Y-86049600D01*
X248105491Y-86050399D01*
X248464643Y-85902000D01*
X250092000Y-85902000D01*
X250092000Y-86100504D01*
X250245459Y-86470986D01*
X250529014Y-86754541D01*
X250899497Y-86908000D01*
X251098000Y-86908000D01*
X251350000Y-86656000D01*
X251350000Y-85650000D01*
X250344000Y-85650000D01*
X250092000Y-85902000D01*
X248464643Y-85902000D01*
X248951143Y-85700982D01*
X249598708Y-85054547D01*
X249746138Y-84699496D01*
X250092000Y-84699496D01*
X250092000Y-84898000D01*
X250344000Y-85150000D01*
X251127453Y-85150000D01*
X251173494Y-85261429D01*
X251735612Y-85824529D01*
X251850000Y-85872027D01*
X251850000Y-86656000D01*
X252102000Y-86908000D01*
X252300503Y-86908000D01*
X252667612Y-86755939D01*
X253005612Y-87094529D01*
X253740430Y-87399652D01*
X254536079Y-87400346D01*
X255271429Y-87096506D01*
X255834529Y-86534388D01*
X256139652Y-85799570D01*
X256139829Y-85596076D01*
X256519828Y-85849983D01*
X257400000Y-86025060D01*
X258280172Y-85849983D01*
X259026346Y-85351406D01*
X259075428Y-85277949D01*
X259495453Y-85698708D01*
X260340495Y-86049600D01*
X261255491Y-86050399D01*
X262101143Y-85700982D01*
X262748708Y-85054547D01*
X263099600Y-84209505D01*
X263100399Y-83294509D01*
X262805729Y-82581355D01*
X263090495Y-82699600D01*
X264005491Y-82700399D01*
X264851143Y-82350982D01*
X265498708Y-81704547D01*
X265849600Y-80859505D01*
X265850399Y-79944509D01*
X265500982Y-79098857D01*
X264854547Y-78451292D01*
X264009505Y-78100400D01*
X263094509Y-78099601D01*
X262248857Y-78449018D01*
X261690874Y-79006027D01*
X261345232Y-78775077D01*
X260465060Y-78600000D01*
X260374940Y-78600000D01*
X259494768Y-78775077D01*
X258748594Y-79273654D01*
X258250017Y-80019828D01*
X258074940Y-80900000D01*
X258192824Y-81492642D01*
X257400000Y-81334940D01*
X256519828Y-81510017D01*
X255773654Y-82008594D01*
X255275077Y-82754768D01*
X255100346Y-83633202D01*
X254772477Y-83497059D01*
X254566506Y-82998571D01*
X254260436Y-82691967D01*
X254748708Y-82204547D01*
X255099600Y-81359505D01*
X255100399Y-80444509D01*
X254750982Y-79598857D01*
X254104547Y-78951292D01*
X253259505Y-78600400D01*
X252344509Y-78599601D01*
X251498857Y-78949018D01*
X250851292Y-79595453D01*
X250500400Y-80440495D01*
X250499601Y-81355491D01*
X250849018Y-82201143D01*
X251409193Y-82762297D01*
X251175471Y-82995612D01*
X250870348Y-83730430D01*
X250870207Y-83892000D01*
X250599998Y-83892000D01*
X250599998Y-84016057D01*
X250529014Y-84045459D01*
X250245459Y-84329014D01*
X250092000Y-84699496D01*
X249746138Y-84699496D01*
X249949600Y-84209505D01*
X249950399Y-83294509D01*
X249600982Y-82448857D01*
X249486645Y-82334320D01*
X249739983Y-81955172D01*
X249915060Y-81075000D01*
X249739983Y-80194828D01*
X249241406Y-79448654D01*
X248495232Y-78950077D01*
X247615060Y-78775000D01*
X247524940Y-78775000D01*
X246644768Y-78950077D01*
X245898594Y-79448654D01*
X245400017Y-80194828D01*
X245224940Y-81075000D01*
X245325203Y-81579056D01*
X244475000Y-81409940D01*
X243594828Y-81585017D01*
X242848654Y-82083594D01*
X242350077Y-82829768D01*
X242175000Y-83709940D01*
X242175000Y-83800060D01*
X242188081Y-83865824D01*
X242022477Y-83797059D01*
X241816506Y-83298571D01*
X241398024Y-82879358D01*
X241898708Y-82379547D01*
X242249600Y-81534505D01*
X242250399Y-80619509D01*
X241900982Y-79773857D01*
X241254547Y-79126292D01*
X240409505Y-78775400D01*
X239494509Y-78774601D01*
X238648857Y-79124018D01*
X238001292Y-79770453D01*
X237650400Y-80615495D01*
X237649601Y-81530491D01*
X237999018Y-82376143D01*
X238645453Y-83023708D01*
X238682458Y-83039074D01*
X238425471Y-83295612D01*
X238120348Y-84030430D01*
X238120207Y-84192000D01*
X237849998Y-84192000D01*
X237849998Y-84316057D01*
X237779014Y-84345459D01*
X237495459Y-84629014D01*
X237342000Y-84999496D01*
X236823471Y-84999496D01*
X237099600Y-84334505D01*
X237100399Y-83419509D01*
X236750982Y-82573857D01*
X236701518Y-82524306D01*
X237014983Y-82055172D01*
X237190060Y-81175000D01*
X237014983Y-80294828D01*
X236516406Y-79548654D01*
X235770232Y-79050077D01*
X234890060Y-78875000D01*
X234799940Y-78875000D01*
X233919768Y-79050077D01*
X233173594Y-79548654D01*
X232675017Y-80294828D01*
X232499940Y-81175000D01*
X232631439Y-81836090D01*
X232480172Y-81735017D01*
X231600000Y-81559940D01*
X230719828Y-81735017D01*
X229973654Y-82233594D01*
X229475077Y-82979768D01*
X229300000Y-83859940D01*
X229300000Y-83920773D01*
X229122477Y-83847059D01*
X228916506Y-83348571D01*
X228610371Y-83041901D01*
X229173708Y-82479547D01*
X229524600Y-81634505D01*
X229525399Y-80719509D01*
X229175982Y-79873857D01*
X228529547Y-79226292D01*
X227684505Y-78875400D01*
X226769509Y-78874601D01*
X225923857Y-79224018D01*
X225276292Y-79870453D01*
X224925400Y-80715495D01*
X224924601Y-81630491D01*
X225274018Y-82476143D01*
X225834259Y-83037363D01*
X225525471Y-83345612D01*
X225220348Y-84080430D01*
X225220207Y-84242000D01*
X224949998Y-84242000D01*
X224949998Y-84366057D01*
X224879014Y-84395459D01*
X224595459Y-84679014D01*
X224442000Y-85049496D01*
X223762661Y-85049496D01*
X223924600Y-84659505D01*
X223925399Y-83744509D01*
X223575982Y-82898857D01*
X223286767Y-82609137D01*
X223539983Y-82230172D01*
X223715060Y-81350000D01*
X223539983Y-80469828D01*
X223041406Y-79723654D01*
X222295232Y-79225077D01*
X221415060Y-79050000D01*
X221324940Y-79050000D01*
X220444768Y-79225077D01*
X219698594Y-79723654D01*
X219200017Y-80469828D01*
X219024940Y-81350000D01*
X219139734Y-81927109D01*
X218425000Y-81784940D01*
X217544828Y-81960017D01*
X216798654Y-82458594D01*
X216300077Y-83204768D01*
X216125000Y-84084940D01*
X216125000Y-84089631D01*
X216022477Y-84047059D01*
X215816506Y-83548571D01*
X215310698Y-83041880D01*
X215698708Y-82654547D01*
X216049600Y-81809505D01*
X216050399Y-80894509D01*
X215700982Y-80048857D01*
X215054547Y-79401292D01*
X214209505Y-79050400D01*
X213294509Y-79049601D01*
X212448857Y-79399018D01*
X211801292Y-80045453D01*
X211450400Y-80890495D01*
X211449601Y-81805491D01*
X211799018Y-82651143D01*
X212445453Y-83298708D01*
X212606018Y-83365380D01*
X212425471Y-83545612D01*
X212120348Y-84280430D01*
X212120207Y-84442000D01*
X211849998Y-84442000D01*
X211849998Y-84566057D01*
X211779014Y-84595459D01*
X211495459Y-84879014D01*
X211342000Y-85249496D01*
X210366899Y-85249496D01*
X210549600Y-84809505D01*
X210550399Y-83894509D01*
X210200982Y-83048857D01*
X210146345Y-82994124D01*
X210589983Y-82330172D01*
X210765060Y-81450000D01*
X210589983Y-80569828D01*
X210091406Y-79823654D01*
X209345232Y-79325077D01*
X208465060Y-79150000D01*
X208374940Y-79150000D01*
X207494768Y-79325077D01*
X206748594Y-79823654D01*
X206250017Y-80569828D01*
X206074940Y-81450000D01*
X206250017Y-82330172D01*
X206342924Y-82469218D01*
X205880172Y-82160017D01*
X205000000Y-81984940D01*
X204119828Y-82160017D01*
X203373654Y-82658594D01*
X202875077Y-83404768D01*
X202714826Y-84210406D01*
X202622477Y-84172059D01*
X202416506Y-83673571D01*
X202122805Y-83379357D01*
X202748708Y-82754547D01*
X203099600Y-81909505D01*
X203100399Y-80994509D01*
X202750982Y-80148857D01*
X202104547Y-79501292D01*
X201259505Y-79150400D01*
X200344509Y-79149601D01*
X199498857Y-79499018D01*
X198851292Y-80145453D01*
X198500400Y-80990495D01*
X198499601Y-81905491D01*
X198849018Y-82751143D01*
X199396824Y-83299907D01*
X199025471Y-83670612D01*
X198720348Y-84405430D01*
X198720207Y-84567000D01*
X198449998Y-84567000D01*
X198449998Y-84691057D01*
X198379014Y-84720459D01*
X198095459Y-85004014D01*
X197942000Y-85374496D01*
X197433852Y-85374496D01*
X197699600Y-84734505D01*
X197700399Y-83819509D01*
X197350982Y-82973857D01*
X197296345Y-82919124D01*
X197739983Y-82255172D01*
X197915060Y-81375000D01*
X197739983Y-80494828D01*
X197241406Y-79748654D01*
X196495232Y-79250077D01*
X195615060Y-79075000D01*
X195524940Y-79075000D01*
X194644768Y-79250077D01*
X193898594Y-79748654D01*
X193400017Y-80494828D01*
X193224940Y-81375000D01*
X193387017Y-82189817D01*
X193230172Y-82085017D01*
X192350000Y-81909940D01*
X191469828Y-82085017D01*
X190723654Y-82583594D01*
X190225077Y-83329768D01*
X190052953Y-84195095D01*
X189997477Y-84172059D01*
X189791506Y-83673571D01*
X189348002Y-83229292D01*
X189898708Y-82679547D01*
X190249600Y-81834505D01*
X190250399Y-80919509D01*
X189900982Y-80073857D01*
X189254547Y-79426292D01*
X188409505Y-79075400D01*
X187494509Y-79074601D01*
X186648857Y-79424018D01*
X186001292Y-80070453D01*
X185650400Y-80915495D01*
X185649601Y-81830491D01*
X185999018Y-82676143D01*
X186645453Y-83323708D01*
X186717862Y-83353775D01*
X186400471Y-83670612D01*
X186095348Y-84405430D01*
X186095207Y-84567000D01*
X185824998Y-84567000D01*
X185824998Y-84691057D01*
X185754014Y-84720459D01*
X185470459Y-85004014D01*
X185317000Y-85374496D01*
X181293599Y-85374496D01*
X181764529Y-84904388D01*
X182069652Y-84169570D01*
X182070346Y-83373921D01*
X181766506Y-82638571D01*
X181204388Y-82075471D01*
X180469570Y-81770348D01*
X180308000Y-81770207D01*
X180308000Y-81499998D01*
X180183943Y-81499998D01*
X180154541Y-81429014D01*
X179870986Y-81145459D01*
X179500504Y-80992000D01*
X179302000Y-80992000D01*
X179050000Y-81244000D01*
X179050000Y-82027453D01*
X178938571Y-82073494D01*
X178375471Y-82635612D01*
X178327973Y-82750000D01*
X178300000Y-82750000D01*
X178300000Y-82250000D01*
X178550000Y-82250000D01*
X178550000Y-81244000D01*
X178298000Y-80992000D01*
X178099496Y-80992000D01*
X177946826Y-81055238D01*
X177491406Y-80373654D01*
X177244019Y-80208355D01*
X177542097Y-79910798D01*
X177665612Y-80034529D01*
X178400430Y-80339652D01*
X179196079Y-80340346D01*
X179931429Y-80036506D01*
X180494529Y-79474388D01*
X180702941Y-78972477D01*
X181201429Y-78766506D01*
X181764529Y-78204388D01*
X182069652Y-77469570D01*
X182070346Y-76673921D01*
X181781559Y-75975000D01*
X184095614Y-75975000D01*
X184095614Y-77575000D01*
X184200207Y-78130867D01*
X184528724Y-78641396D01*
X185029983Y-78983892D01*
X185625000Y-79104386D01*
X187225000Y-79104386D01*
X187780867Y-78999793D01*
X187977496Y-78873266D01*
X188084828Y-78944983D01*
X188965000Y-79120060D01*
X189845172Y-78944983D01*
X190235000Y-78684509D01*
X190624828Y-78944983D01*
X191505000Y-79120060D01*
X192385172Y-78944983D01*
X192775000Y-78684509D01*
X193164828Y-78944983D01*
X194045000Y-79120060D01*
X194925172Y-78944983D01*
X195315000Y-78684509D01*
X195704828Y-78944983D01*
X196585000Y-79120060D01*
X197465172Y-78944983D01*
X197855000Y-78684509D01*
X198244828Y-78944983D01*
X199125000Y-79120060D01*
X200005172Y-78944983D01*
X200395000Y-78684509D01*
X200784828Y-78944983D01*
X201665000Y-79120060D01*
X202545172Y-78944983D01*
X203291346Y-78446406D01*
X203359004Y-78345149D01*
X203492210Y-78436591D01*
X203534100Y-78453915D01*
X203805000Y-78278707D01*
X203805000Y-77624435D01*
X203894398Y-77175000D01*
X204605000Y-77175000D01*
X204605000Y-78278707D01*
X204875900Y-78453915D01*
X204917790Y-78436591D01*
X205499395Y-78037337D01*
X205883941Y-77445904D01*
X205716223Y-77175000D01*
X204605000Y-77175000D01*
X203894398Y-77175000D01*
X203937866Y-76956471D01*
X206099688Y-76956471D01*
X206373145Y-77618286D01*
X206879051Y-78125076D01*
X207540387Y-78399687D01*
X208256471Y-78400312D01*
X208918286Y-78126855D01*
X209425076Y-77620949D01*
X209550917Y-77317891D01*
X209893808Y-76975000D01*
X210040108Y-76975000D01*
X210340387Y-77099687D01*
X211056471Y-77100312D01*
X211718286Y-76826855D01*
X212225076Y-76320949D01*
X212499687Y-75659613D01*
X212500312Y-74943529D01*
X212226855Y-74281714D01*
X211720949Y-73774924D01*
X211059613Y-73500313D01*
X210343529Y-73499688D01*
X210040251Y-73625000D01*
X209200000Y-73625000D01*
X208559006Y-73752501D01*
X208015596Y-74115596D01*
X207182209Y-74948983D01*
X206881714Y-75073145D01*
X206374924Y-75579051D01*
X206100313Y-76240387D01*
X206099688Y-76956471D01*
X203937866Y-76956471D01*
X203965000Y-76820060D01*
X203965000Y-76729940D01*
X203805000Y-75925565D01*
X203805000Y-75271293D01*
X204605000Y-75271293D01*
X204605000Y-76375000D01*
X205716223Y-76375000D01*
X205883941Y-76104096D01*
X205499395Y-75512663D01*
X204917790Y-75113409D01*
X204875900Y-75096085D01*
X204605000Y-75271293D01*
X203805000Y-75271293D01*
X203534100Y-75096085D01*
X203492210Y-75113409D01*
X203359004Y-75204851D01*
X203291346Y-75103594D01*
X202545172Y-74605017D01*
X201665000Y-74429940D01*
X200784828Y-74605017D01*
X200395000Y-74865491D01*
X200005172Y-74605017D01*
X199125000Y-74429940D01*
X198244828Y-74605017D01*
X197855000Y-74865491D01*
X197465172Y-74605017D01*
X196585000Y-74429940D01*
X195704828Y-74605017D01*
X195315000Y-74865491D01*
X194925172Y-74605017D01*
X194045000Y-74429940D01*
X193164828Y-74605017D01*
X192775000Y-74865491D01*
X192385172Y-74605017D01*
X191505000Y-74429940D01*
X190624828Y-74605017D01*
X190235000Y-74865491D01*
X189845172Y-74605017D01*
X188965000Y-74429940D01*
X188084828Y-74605017D01*
X187979734Y-74675238D01*
X187820017Y-74566108D01*
X187225000Y-74445614D01*
X185625000Y-74445614D01*
X185069133Y-74550207D01*
X184558604Y-74878724D01*
X184216108Y-75379983D01*
X184095614Y-75975000D01*
X181781559Y-75975000D01*
X181766506Y-75938571D01*
X181204388Y-75375471D01*
X180469570Y-75070348D01*
X180308000Y-75070207D01*
X180308000Y-74799998D01*
X180183943Y-74799998D01*
X180154541Y-74729014D01*
X179870986Y-74445459D01*
X179500504Y-74292000D01*
X179302000Y-74292000D01*
X179050000Y-74544000D01*
X179050000Y-75327453D01*
X178938571Y-75373494D01*
X178375471Y-75935612D01*
X178327973Y-76050000D01*
X178300000Y-76050000D01*
X178300000Y-75550000D01*
X178550000Y-75550000D01*
X178550000Y-74544000D01*
X178298000Y-74292000D01*
X178099496Y-74292000D01*
X177900817Y-74374296D01*
X177889983Y-74319828D01*
X177391406Y-73573654D01*
X177144019Y-73408355D01*
X177592359Y-72960798D01*
X177865612Y-73234529D01*
X178600430Y-73539652D01*
X179396079Y-73540346D01*
X180131429Y-73236506D01*
X180346288Y-73022021D01*
X182673664Y-73022021D01*
X182745887Y-73340940D01*
X183448863Y-73493157D01*
X184156580Y-73364771D01*
X184214113Y-73340940D01*
X184286336Y-73022021D01*
X183480000Y-72215685D01*
X182673664Y-73022021D01*
X180346288Y-73022021D01*
X180694529Y-72674388D01*
X180902941Y-72172477D01*
X181401429Y-71966506D01*
X181654144Y-71714232D01*
X181765229Y-72326580D01*
X181789060Y-72384113D01*
X182107979Y-72456336D01*
X182914315Y-71650000D01*
X182631472Y-71367157D01*
X182687359Y-71311270D01*
X183020495Y-71449600D01*
X183935491Y-71450399D01*
X184272514Y-71311143D01*
X184328528Y-71367157D01*
X184045685Y-71650000D01*
X184852021Y-72456336D01*
X185170940Y-72384113D01*
X185323157Y-71681137D01*
X185252511Y-71291706D01*
X185349649Y-71194568D01*
X185544828Y-71324983D01*
X186425000Y-71500060D01*
X187305172Y-71324983D01*
X187695000Y-71064509D01*
X188084828Y-71324983D01*
X188965000Y-71500060D01*
X189845172Y-71324983D01*
X190235000Y-71064509D01*
X190624828Y-71324983D01*
X191505000Y-71500060D01*
X192385172Y-71324983D01*
X193131346Y-70826406D01*
X193199004Y-70725149D01*
X193332210Y-70816591D01*
X193374100Y-70833915D01*
X193645000Y-70658707D01*
X193645000Y-70004435D01*
X193805000Y-69200060D01*
X193805000Y-69109940D01*
X193667671Y-68419539D01*
X193823867Y-68355000D01*
X194435167Y-68355000D01*
X194285000Y-69109940D01*
X194285000Y-69200060D01*
X194445000Y-70004435D01*
X194445000Y-70658707D01*
X194715900Y-70833915D01*
X194757790Y-70816591D01*
X194890996Y-70725149D01*
X194958654Y-70826406D01*
X195704828Y-71324983D01*
X196585000Y-71500060D01*
X197465172Y-71324983D01*
X197855000Y-71064509D01*
X198244828Y-71324983D01*
X199125000Y-71500060D01*
X199834103Y-71359011D01*
X199800313Y-71440387D01*
X199799688Y-72156471D01*
X200073145Y-72818286D01*
X200579051Y-73325076D01*
X201240387Y-73599687D01*
X201956471Y-73600312D01*
X202618286Y-73326855D01*
X203125076Y-72820949D01*
X203399687Y-72159613D01*
X203400312Y-71443529D01*
X203353703Y-71330727D01*
X204205000Y-71500060D01*
X205085172Y-71324983D01*
X205831346Y-70826406D01*
X206329923Y-70080232D01*
X206505000Y-69200060D01*
X206505000Y-69109940D01*
X206329923Y-68229768D01*
X205831346Y-67483594D01*
X205085172Y-66985017D01*
X204205000Y-66809940D01*
X203324828Y-66985017D01*
X202935000Y-67245491D01*
X202545172Y-66985017D01*
X201665000Y-66809940D01*
X201176005Y-66907207D01*
X201265557Y-66850254D01*
X201331471Y-66850312D01*
X201993286Y-66576855D01*
X202500076Y-66070949D01*
X202774687Y-65409613D01*
X202775312Y-64693529D01*
X202501855Y-64031714D01*
X201995949Y-63524924D01*
X201334613Y-63250313D01*
X200618529Y-63249688D01*
X199956714Y-63523145D01*
X199449924Y-64029051D01*
X199446645Y-64036949D01*
X197946493Y-64991000D01*
X193857892Y-64991000D01*
X193557613Y-64866313D01*
X192841529Y-64865688D01*
X192179714Y-65139145D01*
X191672924Y-65645051D01*
X191398313Y-66306387D01*
X191397855Y-66831252D01*
X190624828Y-66985017D01*
X190235000Y-67245491D01*
X189845172Y-66985017D01*
X188965000Y-66809940D01*
X188084828Y-66985017D01*
X187695000Y-67245491D01*
X187305172Y-66985017D01*
X186425000Y-66809940D01*
X185544828Y-66985017D01*
X184959242Y-67376293D01*
X184784547Y-67201292D01*
X183939505Y-66850400D01*
X183024509Y-66849601D01*
X182178857Y-67199018D01*
X181531292Y-67845453D01*
X181254079Y-68513057D01*
X180669570Y-68270348D01*
X180508000Y-68270207D01*
X180508000Y-67999998D01*
X180383943Y-67999998D01*
X180354541Y-67929014D01*
X180070986Y-67645459D01*
X179700504Y-67492000D01*
X179502000Y-67492000D01*
X179250000Y-67744000D01*
X179250000Y-68527453D01*
X179138571Y-68573494D01*
X178575471Y-69135612D01*
X178527973Y-69250000D01*
X178500000Y-69250000D01*
X178500000Y-68750000D01*
X178750000Y-68750000D01*
X178750000Y-67744000D01*
X178498000Y-67492000D01*
X178299496Y-67492000D01*
X177929014Y-67645459D01*
X177833893Y-67740580D01*
X177789983Y-67519828D01*
X177291406Y-66773654D01*
X177043914Y-66608285D01*
X177492184Y-66160798D01*
X177665612Y-66334529D01*
X178400430Y-66639652D01*
X179196079Y-66640346D01*
X179931429Y-66336506D01*
X180494529Y-65774388D01*
X180702941Y-65272477D01*
X181201429Y-65066506D01*
X181764529Y-64504388D01*
X182069652Y-63769570D01*
X182070346Y-62973921D01*
X181766506Y-62238571D01*
X181497269Y-61968863D01*
X202906843Y-61968863D01*
X203035229Y-62676580D01*
X203059060Y-62734113D01*
X203377979Y-62806336D01*
X204184315Y-62000000D01*
X203377979Y-61193664D01*
X203059060Y-61265887D01*
X202906843Y-61968863D01*
X181497269Y-61968863D01*
X181204388Y-61675471D01*
X180469570Y-61370348D01*
X180308000Y-61370207D01*
X180308000Y-61099998D01*
X180183943Y-61099998D01*
X180154541Y-61029014D01*
X179870986Y-60745459D01*
X179500504Y-60592000D01*
X179302000Y-60592000D01*
X179050000Y-60844000D01*
X179050000Y-61627453D01*
X178938571Y-61673494D01*
X178375471Y-62235612D01*
X178327973Y-62350000D01*
X178300000Y-62350000D01*
X178300000Y-61850000D01*
X178550000Y-61850000D01*
X178550000Y-60844000D01*
X178298000Y-60592000D01*
X178099496Y-60592000D01*
X177855232Y-60693178D01*
X177650982Y-60198857D01*
X177004547Y-59551292D01*
X176159505Y-59200400D01*
X175244509Y-59199601D01*
X174398857Y-59549018D01*
X173751292Y-60195453D01*
X173400400Y-61040495D01*
X173399601Y-61955491D01*
X173749018Y-62801143D01*
X174047308Y-63099954D01*
X173751292Y-63395453D01*
X173400400Y-64240495D01*
X173399601Y-65155491D01*
X173749018Y-66001143D01*
X174291475Y-66544548D01*
X173948594Y-66773654D01*
X173450017Y-67519828D01*
X173274940Y-68400000D01*
X170300001Y-68400000D01*
X170300399Y-67944509D01*
X169950982Y-67098857D01*
X169408525Y-66555452D01*
X169751406Y-66326346D01*
X170249983Y-65580172D01*
X170425060Y-64700000D01*
X170249983Y-63819828D01*
X169769010Y-63100000D01*
X170249983Y-62380172D01*
X170425060Y-61500000D01*
X170249983Y-60619828D01*
X169751406Y-59873654D01*
X169005232Y-59375077D01*
X168125060Y-59200000D01*
X168034940Y-59200000D01*
X167154768Y-59375077D01*
X166408594Y-59873654D01*
X165910017Y-60619828D01*
X165734940Y-61500000D01*
X165910017Y-62380172D01*
X166390990Y-63100000D01*
X165910017Y-63819828D01*
X165734940Y-64700000D01*
X165910017Y-65580172D01*
X166408594Y-66326346D01*
X166656086Y-66491715D01*
X166051292Y-67095453D01*
X165700400Y-67940495D01*
X165699601Y-68855491D01*
X113825000Y-68855491D01*
X113825000Y-62072021D01*
X119793664Y-62072021D01*
X119865887Y-62390940D01*
X120568863Y-62543157D01*
X121276580Y-62414771D01*
X121334113Y-62390940D01*
X121406336Y-62072021D01*
X120600000Y-61265685D01*
X119793664Y-62072021D01*
X113825000Y-62072021D01*
X113825000Y-57400000D01*
X118270614Y-57400000D01*
X118270614Y-59000000D01*
X118375207Y-59555867D01*
X118678957Y-60027906D01*
X118596323Y-60110540D01*
X118827648Y-60341865D01*
X118756843Y-60668863D01*
X118885229Y-61376580D01*
X118909060Y-61434113D01*
X119227979Y-61506336D01*
X120034315Y-60700000D01*
X119863701Y-60529386D01*
X121336299Y-60529386D01*
X121165685Y-60700000D01*
X121972021Y-61506336D01*
X122290940Y-61434113D01*
X122443157Y-60731137D01*
X122372511Y-60341706D01*
X122603677Y-60110540D01*
X122516331Y-60023194D01*
X122808892Y-59595017D01*
X122929386Y-59000000D01*
X122929386Y-57858863D01*
X123036843Y-57858863D01*
X123165229Y-58566580D01*
X123189060Y-58624113D01*
X123507979Y-58696336D01*
X124314315Y-57890000D01*
X123507979Y-57083664D01*
X123189060Y-57155887D01*
X123036843Y-57858863D01*
X122929386Y-57858863D01*
X122929386Y-57400000D01*
X122824793Y-56844133D01*
X122614919Y-56517979D01*
X124073664Y-56517979D01*
X124880000Y-57324315D01*
X125162843Y-57041472D01*
X125218730Y-57097359D01*
X125080400Y-57430495D01*
X125079601Y-58345491D01*
X125218857Y-58682514D01*
X125162843Y-58738528D01*
X124880000Y-58455685D01*
X124073664Y-59262021D01*
X124145887Y-59580940D01*
X124848863Y-59733157D01*
X125238294Y-59662511D01*
X125469460Y-59893677D01*
X125800182Y-59562955D01*
X126075453Y-59838708D01*
X126920495Y-60189600D01*
X127835491Y-60190399D01*
X128681143Y-59840982D01*
X129102610Y-59420251D01*
X129223654Y-59601406D01*
X129969828Y-60099983D01*
X130123607Y-60130572D01*
X131110193Y-61984596D01*
X131266907Y-62176276D01*
X131404467Y-62382149D01*
X131472260Y-62427447D01*
X131523866Y-62490567D01*
X131742008Y-62607687D01*
X131947876Y-62745243D01*
X132027841Y-62761149D01*
X132099676Y-62799717D01*
X132346034Y-62824442D01*
X132588871Y-62872745D01*
X139165670Y-62872745D01*
X139873550Y-63307397D01*
X139998359Y-63353567D01*
X140083886Y-63410714D01*
X139740000Y-63640491D01*
X139350172Y-63380017D01*
X138470000Y-63204940D01*
X137589828Y-63380017D01*
X137200000Y-63640491D01*
X136810172Y-63380017D01*
X135930000Y-63204940D01*
X135049828Y-63380017D01*
X134660000Y-63640491D01*
X134270172Y-63380017D01*
X133390000Y-63204940D01*
X132509828Y-63380017D01*
X132404734Y-63450238D01*
X132245017Y-63341108D01*
X131650000Y-63220614D01*
X130050000Y-63220614D01*
X129494133Y-63325207D01*
X128983604Y-63653724D01*
X128641108Y-64154983D01*
X128520614Y-64750000D01*
X128520614Y-66350000D01*
X128625207Y-66905867D01*
X128953724Y-67416396D01*
X129454983Y-67758892D01*
X130050000Y-67879386D01*
X131650000Y-67879386D01*
X132205867Y-67774793D01*
X132402496Y-67648266D01*
X132509828Y-67719983D01*
X133390000Y-67895060D01*
X134270172Y-67719983D01*
X134660000Y-67459509D01*
X135049828Y-67719983D01*
X135930000Y-67895060D01*
X136810172Y-67719983D01*
X137200000Y-67459509D01*
X137589828Y-67719983D01*
X138470000Y-67895060D01*
X139350172Y-67719983D01*
X139740000Y-67459509D01*
X140129828Y-67719983D01*
X141010000Y-67895060D01*
X141890172Y-67719983D01*
X142280000Y-67459509D01*
X142669828Y-67719983D01*
X143550000Y-67895060D01*
X144430172Y-67719983D01*
X144820000Y-67459509D01*
X145209828Y-67719983D01*
X146090000Y-67895060D01*
X146970172Y-67719983D01*
X147716346Y-67221406D01*
X147784004Y-67120149D01*
X147917210Y-67211591D01*
X147959100Y-67228915D01*
X148230000Y-67053707D01*
X148230000Y-66399435D01*
X148319398Y-65950000D01*
X149030000Y-65950000D01*
X149030000Y-67053707D01*
X149300900Y-67228915D01*
X149342790Y-67211591D01*
X149924395Y-66812337D01*
X150308941Y-66220904D01*
X150141223Y-65950000D01*
X149030000Y-65950000D01*
X148319398Y-65950000D01*
X148390000Y-65595060D01*
X148390000Y-65504940D01*
X148230000Y-64700565D01*
X148230000Y-64046293D01*
X149030000Y-64046293D01*
X149030000Y-65150000D01*
X150141223Y-65150000D01*
X150308941Y-64879096D01*
X149924395Y-64287663D01*
X149342790Y-63888409D01*
X149300900Y-63871085D01*
X149030000Y-64046293D01*
X148230000Y-64046293D01*
X147959100Y-63871085D01*
X147917210Y-63888409D01*
X147784004Y-63979851D01*
X147716346Y-63878594D01*
X146970172Y-63380017D01*
X146090000Y-63204940D01*
X145209828Y-63380017D01*
X144820000Y-63640491D01*
X144430172Y-63380017D01*
X144317660Y-63357637D01*
X144735076Y-62940949D01*
X144931103Y-62468863D01*
X153956843Y-62468863D01*
X154085229Y-63176580D01*
X154109060Y-63234113D01*
X154427979Y-63306336D01*
X155234315Y-62500000D01*
X154427979Y-61693664D01*
X154109060Y-61765887D01*
X153956843Y-62468863D01*
X144931103Y-62468863D01*
X145009687Y-62279613D01*
X145010312Y-61563529D01*
X144830347Y-61127979D01*
X154993664Y-61127979D01*
X155800000Y-61934315D01*
X156082843Y-61651472D01*
X156648528Y-62217157D01*
X156365685Y-62500000D01*
X156648528Y-62782843D01*
X156082843Y-63348528D01*
X155800000Y-63065685D01*
X154993664Y-63872021D01*
X155065887Y-64190940D01*
X155768863Y-64343157D01*
X156158294Y-64272511D01*
X156389460Y-64503677D01*
X157069199Y-63823938D01*
X157075207Y-63855867D01*
X157403724Y-64366396D01*
X157904983Y-64708892D01*
X158500000Y-64829386D01*
X160100000Y-64829386D01*
X160655867Y-64724793D01*
X161166396Y-64396276D01*
X161508892Y-63895017D01*
X161629386Y-63300000D01*
X161629386Y-61700000D01*
X161524793Y-61144133D01*
X161196276Y-60633604D01*
X160695017Y-60291108D01*
X160100000Y-60170614D01*
X158500000Y-60170614D01*
X157944133Y-60275207D01*
X157433604Y-60603724D01*
X157091108Y-61104983D01*
X157075449Y-61182312D01*
X156389460Y-60496323D01*
X156158134Y-60727649D01*
X155831137Y-60656843D01*
X155123420Y-60785229D01*
X155065887Y-60809060D01*
X154993664Y-61127979D01*
X144830347Y-61127979D01*
X144736855Y-60901714D01*
X144230949Y-60394924D01*
X143815230Y-60222302D01*
X144430172Y-60099983D01*
X144820000Y-59839509D01*
X145209828Y-60099983D01*
X146090000Y-60275060D01*
X146970172Y-60099983D01*
X147360000Y-59839509D01*
X147749828Y-60099983D01*
X148630000Y-60275060D01*
X149510172Y-60099983D01*
X150256346Y-59601406D01*
X150754923Y-58855232D01*
X150930000Y-57975060D01*
X150930000Y-57884940D01*
X150785099Y-57156471D01*
X159699688Y-57156471D01*
X159973145Y-57818286D01*
X160479051Y-58325076D01*
X160913161Y-58505334D01*
X160930304Y-58516789D01*
X160950349Y-58520776D01*
X161140387Y-58599687D01*
X161347971Y-58599868D01*
X161600000Y-58650000D01*
X166620728Y-58650000D01*
X166740387Y-58699687D01*
X167456471Y-58700312D01*
X168118286Y-58426855D01*
X168625076Y-57920949D01*
X168899687Y-57259613D01*
X168900312Y-56543529D01*
X168626855Y-55881714D01*
X168120949Y-55374924D01*
X167459613Y-55100313D01*
X166743529Y-55099688D01*
X166621765Y-55150000D01*
X162220099Y-55150000D01*
X161859613Y-55000313D01*
X161143529Y-54999688D01*
X160481714Y-55273145D01*
X159974924Y-55779051D01*
X159700313Y-56440387D01*
X159699688Y-57156471D01*
X150785099Y-57156471D01*
X150754923Y-57004768D01*
X150358850Y-56412002D01*
X150616396Y-56246276D01*
X150958892Y-55745017D01*
X151079386Y-55150000D01*
X151079386Y-53450000D01*
X150974793Y-52894133D01*
X150646276Y-52383604D01*
X150145017Y-52041108D01*
X149550000Y-51920614D01*
X147850000Y-51920614D01*
X147294133Y-52025207D01*
X147130567Y-52130459D01*
X147059306Y-52082844D01*
X146160000Y-51903961D01*
X145260694Y-52082844D01*
X144498299Y-52592260D01*
X143988883Y-53354655D01*
X143810000Y-54253961D01*
X143810000Y-54346039D01*
X143988883Y-55245345D01*
X144317847Y-55737674D01*
X143550000Y-55584940D01*
X142669828Y-55760017D01*
X142280000Y-56020491D01*
X141890172Y-55760017D01*
X141010000Y-55584940D01*
X140129828Y-55760017D01*
X139383654Y-56258594D01*
X139315996Y-56359851D01*
X139182790Y-56268409D01*
X139140900Y-56251085D01*
X138870000Y-56426293D01*
X138870000Y-57080565D01*
X138710000Y-57884940D01*
X138710000Y-57975060D01*
X138860167Y-58730000D01*
X138079833Y-58730000D01*
X138230000Y-57975060D01*
X138230000Y-57884940D01*
X138070000Y-57080565D01*
X138070000Y-56426293D01*
X137799100Y-56251085D01*
X137757210Y-56268409D01*
X137624004Y-56359851D01*
X137556346Y-56258594D01*
X136810172Y-55760017D01*
X135930000Y-55584940D01*
X135049828Y-55760017D01*
X134660000Y-56020491D01*
X134270172Y-55760017D01*
X133390000Y-55584940D01*
X132509828Y-55760017D01*
X132120000Y-56020491D01*
X131730172Y-55760017D01*
X130850000Y-55584940D01*
X129969828Y-55760017D01*
X129223654Y-56258594D01*
X129134496Y-56392028D01*
X128684547Y-55941292D01*
X127839505Y-55590400D01*
X126924509Y-55589601D01*
X126078857Y-55939018D01*
X125800263Y-56217126D01*
X125469460Y-55886323D01*
X125238134Y-56117649D01*
X124911137Y-56046843D01*
X124203420Y-56175229D01*
X124145887Y-56199060D01*
X124073664Y-56517979D01*
X122614919Y-56517979D01*
X122496276Y-56333604D01*
X121995017Y-55991108D01*
X121400000Y-55870614D01*
X119800000Y-55870614D01*
X119244133Y-55975207D01*
X118733604Y-56303724D01*
X118391108Y-56804983D01*
X118270614Y-57400000D01*
X113825000Y-57400000D01*
X113825000Y-54936491D01*
X114294360Y-55131386D01*
X115699476Y-55132612D01*
X116998104Y-54596030D01*
X117992538Y-53603330D01*
X118531386Y-52305640D01*
X118532612Y-50900524D01*
X118336130Y-50425000D01*
X153241558Y-50425000D01*
X152675925Y-50802944D01*
G36*
X215338730Y-58357359D02*
X215200400Y-58690495D01*
X215199601Y-59605491D01*
X215338857Y-59942514D01*
X215282843Y-59998528D01*
X215000000Y-59715685D01*
X214193664Y-60522021D01*
X214265887Y-60840940D01*
X214968863Y-60993157D01*
X215358294Y-60922511D01*
X215548488Y-61112705D01*
X214875596Y-61785596D01*
X214512502Y-62329005D01*
X214385000Y-62970000D01*
X214385000Y-64148192D01*
X214194404Y-63957596D01*
X214122914Y-63909828D01*
X213650995Y-63594502D01*
X213010000Y-63467000D01*
X212174095Y-63467000D01*
X212077935Y-63323086D01*
X212108000Y-63250503D01*
X212108000Y-62902000D01*
X211856000Y-62650000D01*
X211149435Y-62650000D01*
X210345060Y-62490000D01*
X210254940Y-62490000D01*
X209500000Y-62640167D01*
X209500000Y-62578955D01*
X209549600Y-62459505D01*
X209550132Y-61850000D01*
X209900000Y-61850000D01*
X209900000Y-61450000D01*
X210700000Y-61450000D01*
X210700000Y-61850000D01*
X211856000Y-61850000D01*
X212108000Y-61598000D01*
X212108000Y-61249497D01*
X211954541Y-60879014D01*
X211670986Y-60595459D01*
X211471985Y-60513030D01*
X211501143Y-60500982D01*
X211953228Y-60049686D01*
X212290387Y-60189687D01*
X213006471Y-60190312D01*
X213592293Y-59948255D01*
X213627979Y-59956336D01*
X213666878Y-59917437D01*
X213668286Y-59916855D01*
X214175076Y-59410949D01*
X214176290Y-59408025D01*
X214434315Y-59150000D01*
X214327701Y-59043386D01*
X214449687Y-58749613D01*
X214449845Y-58568784D01*
X214717157Y-58301472D01*
X215000000Y-58584315D01*
X215282843Y-58301472D01*
X215338730Y-58357359D01*
X215338730Y-58357359D01*
G37*
X215338730Y-58357359D02*
X215200400Y-58690495D01*
X215199601Y-59605491D01*
X215338857Y-59942514D01*
X215282843Y-59998528D01*
X215000000Y-59715685D01*
X214193664Y-60522021D01*
X214265887Y-60840940D01*
X214968863Y-60993157D01*
X215358294Y-60922511D01*
X215548488Y-61112705D01*
X214875596Y-61785596D01*
X214512502Y-62329005D01*
X214385000Y-62970000D01*
X214385000Y-64148192D01*
X214194404Y-63957596D01*
X214122914Y-63909828D01*
X213650995Y-63594502D01*
X213010000Y-63467000D01*
X212174095Y-63467000D01*
X212077935Y-63323086D01*
X212108000Y-63250503D01*
X212108000Y-62902000D01*
X211856000Y-62650000D01*
X211149435Y-62650000D01*
X210345060Y-62490000D01*
X210254940Y-62490000D01*
X209500000Y-62640167D01*
X209500000Y-62578955D01*
X209549600Y-62459505D01*
X209550132Y-61850000D01*
X209900000Y-61850000D01*
X209900000Y-61450000D01*
X210700000Y-61450000D01*
X210700000Y-61850000D01*
X211856000Y-61850000D01*
X212108000Y-61598000D01*
X212108000Y-61249497D01*
X211954541Y-60879014D01*
X211670986Y-60595459D01*
X211471985Y-60513030D01*
X211501143Y-60500982D01*
X211953228Y-60049686D01*
X212290387Y-60189687D01*
X213006471Y-60190312D01*
X213592293Y-59948255D01*
X213627979Y-59956336D01*
X213666878Y-59917437D01*
X213668286Y-59916855D01*
X214175076Y-59410949D01*
X214176290Y-59408025D01*
X214434315Y-59150000D01*
X214327701Y-59043386D01*
X214449687Y-58749613D01*
X214449845Y-58568784D01*
X214717157Y-58301472D01*
X215000000Y-58584315D01*
X215282843Y-58301472D01*
X215338730Y-58357359D01*
M02*
