M48
;DRILL file {KiCad 4.0.7} date 01/02/20 10:49:20
;FORMAT={-:-/ absolute / metric / decimal}
FMAT,2
METRIC,TZ
T1C0.800
T2C1.000
%
G90
G05
M71
T1
X129.102Y-101.762G85X126.402Y-101.762
G05
X129.102Y-107.762G85X126.402Y-107.762
G05
X133.352Y-101.762G85X130.652Y-101.762
G05
X133.602Y-107.762G85X130.902Y-107.762
G05
X151.2Y-101.762G85X148.5Y-101.762
G05
X151.2Y-107.762G85X148.5Y-107.762
G05
X155.45Y-101.762G85X152.75Y-101.762
G05
X155.7Y-107.762G85X153.Y-107.762
G05
X173.044Y-101.762G85X170.344Y-101.762
G05
X173.044Y-107.762G85X170.344Y-107.762
G05
X177.294Y-101.762G85X174.594Y-101.762
G05
X177.544Y-107.762G85X174.844Y-107.762
G05
X195.142Y-101.762G85X192.442Y-101.762
G05
X195.142Y-107.762G85X192.442Y-107.762
G05
X199.392Y-101.762G85X196.692Y-101.762
G05
X199.642Y-107.762G85X196.942Y-107.762
G05
X216.986Y-101.762G85X214.286Y-101.762
G05
X216.986Y-107.762G85X214.286Y-107.762
G05
X221.236Y-101.762G85X218.536Y-101.762
G05
X221.486Y-107.762G85X218.786Y-107.762
G05
X239.2Y-101.65G85X236.5Y-101.65
G05
X239.2Y-107.65G85X236.5Y-107.65
G05
X243.45Y-101.65G85X240.75Y-101.65
G05
X243.7Y-107.65G85X241.Y-107.65
G05
T2
X129.002Y-103.812G85X126.002Y-103.812
G05
X129.102Y-105.812G85X126.102Y-105.812
G05
X133.902Y-103.812G85X130.902Y-103.812
G05
X133.902Y-105.812G85X130.902Y-105.812
G05
X151.1Y-103.812G85X148.1Y-103.812
G05
X151.2Y-105.812G85X148.2Y-105.812
G05
X156.Y-103.812G85X153.Y-103.812
G05
X156.Y-105.812G85X153.Y-105.812
G05
X172.944Y-103.812G85X169.944Y-103.812
G05
X173.044Y-105.812G85X170.044Y-105.812
G05
X177.844Y-103.812G85X174.844Y-103.812
G05
X177.844Y-105.812G85X174.844Y-105.812
G05
X195.042Y-103.812G85X192.042Y-103.812
G05
X195.142Y-105.812G85X192.142Y-105.812
G05
X199.942Y-103.812G85X196.942Y-103.812
G05
X199.942Y-105.812G85X196.942Y-105.812
G05
X216.886Y-103.812G85X213.886Y-103.812
G05
X216.986Y-105.812G85X213.986Y-105.812
G05
X221.786Y-103.812G85X218.786Y-103.812
G05
X221.786Y-105.812G85X218.786Y-105.812
G05
X239.1Y-103.7G85X236.1Y-103.7
G05
X239.2Y-105.7G85X236.2Y-105.7
G05
X244.Y-103.7G85X241.Y-103.7
G05
X244.Y-105.7G85X241.Y-105.7
G05
T0
M30
