G04 #@! TF.FileFunction,Soldermask,Top*
%FSLAX46Y46*%
G04 Gerber Fmt 4.6, Leading zero omitted, Abs format (unit mm)*
G04 Created by KiCad (PCBNEW 4.0.7) date 06/14/20 22:52:28*
%MOMM*%
%LPD*%
G01*
G04 APERTURE LIST*
%ADD10C,0.100000*%
%ADD11C,2.800000*%
%ADD12C,2.000000*%
%ADD13O,2.000000X2.000000*%
%ADD14C,1.840000*%
%ADD15R,2.000000X2.000000*%
%ADD16R,2.600000X2.600000*%
%ADD17O,2.600000X2.600000*%
%ADD18R,2.100000X2.100000*%
%ADD19O,2.100000X2.100000*%
%ADD20C,1.400000*%
%ADD21R,1.400000X1.400000*%
%ADD22R,2.200000X2.200000*%
%ADD23O,2.200000X2.200000*%
%ADD24C,4.464000*%
%ADD25O,4.400000X1.400000*%
%ADD26O,3.900000X1.200000*%
%ADD27C,1.808000*%
%ADD28R,2.800000X2.800000*%
G04 APERTURE END LIST*
D10*
D11*
X212900000Y-53300000D03*
X225900000Y-53300000D03*
D12*
X202425000Y-52200000D03*
D13*
X210045000Y-52200000D03*
D12*
X207250000Y-62000000D03*
X204750000Y-62000000D03*
D14*
X236000000Y-52200000D03*
X238540000Y-52200000D03*
X241080000Y-52200000D03*
D12*
X217500000Y-59150000D03*
X215000000Y-59150000D03*
D15*
X159300000Y-62500000D03*
D12*
X155800000Y-62500000D03*
D15*
X120600000Y-58200000D03*
D12*
X120600000Y-60700000D03*
X257400000Y-50800000D03*
X254900000Y-50800000D03*
D16*
X242400000Y-56700000D03*
D17*
X234780000Y-56700000D03*
D18*
X148700000Y-54300000D03*
D19*
X146160000Y-54300000D03*
D20*
X220660000Y-66240000D03*
X221930000Y-64970000D03*
D21*
X221930000Y-67510000D03*
D12*
X210200000Y-58550000D03*
D13*
X202580000Y-58550000D03*
D12*
X202400000Y-55300000D03*
D13*
X210020000Y-55300000D03*
D12*
X248400000Y-61400000D03*
D13*
X248400000Y-53780000D03*
D12*
X245250000Y-61300000D03*
D13*
X245250000Y-53680000D03*
D12*
X244550000Y-50850000D03*
D13*
X252170000Y-50850000D03*
D22*
X159500000Y-52500000D03*
D23*
X156960000Y-52500000D03*
X154420000Y-52500000D03*
D22*
X230790000Y-64888000D03*
D23*
X230790000Y-67428000D03*
X230790000Y-69968000D03*
D24*
X266000000Y-51600000D03*
X115000000Y-113600000D03*
X266000000Y-113600000D03*
X115000000Y-51600000D03*
D15*
X210300000Y-62250000D03*
D13*
X217920000Y-69870000D03*
X210300000Y-64790000D03*
X217920000Y-67330000D03*
X210300000Y-67330000D03*
X217920000Y-64790000D03*
X210300000Y-69870000D03*
X217920000Y-62250000D03*
D18*
X266510000Y-69680000D03*
D19*
X266510000Y-72220000D03*
D12*
X239110000Y-67700000D03*
X239110000Y-70200000D03*
X183480000Y-69150000D03*
X183480000Y-71650000D03*
X127380000Y-57890000D03*
X124880000Y-57890000D03*
D20*
X146130000Y-73420000D03*
X144860000Y-72150000D03*
D21*
X147400000Y-72150000D03*
D20*
X118080000Y-73770000D03*
X116810000Y-72500000D03*
D21*
X119350000Y-72500000D03*
D20*
X180070000Y-77070000D03*
X178800000Y-78340000D03*
D21*
X178800000Y-75800000D03*
D20*
X214120000Y-84680000D03*
X215390000Y-85950000D03*
D21*
X212850000Y-85950000D03*
D20*
X214055000Y-91270000D03*
X212785000Y-90000000D03*
D21*
X215325000Y-90000000D03*
D20*
X180070000Y-83770000D03*
X178800000Y-85040000D03*
D21*
X178800000Y-82500000D03*
D20*
X153180000Y-73770000D03*
X151910000Y-72500000D03*
D21*
X154450000Y-72500000D03*
D20*
X180270000Y-90570000D03*
X179000000Y-91840000D03*
D21*
X179000000Y-89300000D03*
D20*
X227220000Y-84480000D03*
X228490000Y-85750000D03*
D21*
X225950000Y-85750000D03*
D20*
X138880000Y-73570000D03*
X137610000Y-72300000D03*
D21*
X140150000Y-72300000D03*
D20*
X160280000Y-73870000D03*
X159010000Y-72600000D03*
D21*
X161550000Y-72600000D03*
D20*
X188095000Y-84805000D03*
X189365000Y-86075000D03*
D21*
X186825000Y-86075000D03*
D20*
X227205000Y-91195000D03*
X225935000Y-89925000D03*
D21*
X228475000Y-89925000D03*
D20*
X131880000Y-73520000D03*
X130610000Y-72250000D03*
D21*
X133150000Y-72250000D03*
D20*
X180070000Y-63370000D03*
X178800000Y-64640000D03*
D21*
X178800000Y-62100000D03*
D20*
X188030000Y-91495000D03*
X186760000Y-90225000D03*
D21*
X189300000Y-90225000D03*
D20*
X240120000Y-84430000D03*
X241390000Y-85700000D03*
D21*
X238850000Y-85700000D03*
D20*
X200720000Y-84805000D03*
X201990000Y-86075000D03*
D21*
X199450000Y-86075000D03*
D20*
X124630000Y-73620000D03*
X123360000Y-72350000D03*
D21*
X125900000Y-72350000D03*
D20*
X240205000Y-91045000D03*
X238935000Y-89775000D03*
D21*
X241475000Y-89775000D03*
D20*
X180270000Y-70270000D03*
X179000000Y-71540000D03*
D21*
X179000000Y-69000000D03*
D20*
X200755000Y-91470000D03*
X199485000Y-90200000D03*
D21*
X202025000Y-90200000D03*
D20*
X252870000Y-84130000D03*
X254140000Y-85400000D03*
D21*
X251600000Y-85400000D03*
D20*
X252830000Y-90970000D03*
X251560000Y-89700000D03*
D21*
X254100000Y-89700000D03*
D12*
X147400000Y-83700000D03*
D13*
X147400000Y-76080000D03*
D12*
X119500000Y-83950000D03*
D13*
X119500000Y-76330000D03*
D12*
X168100000Y-75200000D03*
D13*
X175720000Y-75200000D03*
D12*
X213750000Y-81350000D03*
D13*
X221370000Y-81350000D03*
D12*
X218425000Y-91750000D03*
D13*
X218425000Y-84130000D03*
D12*
X144250000Y-76000000D03*
D13*
X144250000Y-83620000D03*
D12*
X116300000Y-76250000D03*
D13*
X116300000Y-83870000D03*
D12*
X175800000Y-78400000D03*
D13*
X168180000Y-78400000D03*
D12*
X221625000Y-84200000D03*
D13*
X221625000Y-91820000D03*
D12*
X168200000Y-82000000D03*
D13*
X175820000Y-82000000D03*
D12*
X154300000Y-83950000D03*
D13*
X154300000Y-76330000D03*
D12*
X168200000Y-88800000D03*
D13*
X175820000Y-88800000D03*
D12*
X227225000Y-81175000D03*
D13*
X234845000Y-81175000D03*
D12*
X175800000Y-85200000D03*
D13*
X168180000Y-85200000D03*
D12*
X151200000Y-76350000D03*
D13*
X151200000Y-83970000D03*
D12*
X175800000Y-92000000D03*
D13*
X168180000Y-92000000D03*
D12*
X140350000Y-83650000D03*
D13*
X140350000Y-76030000D03*
D12*
X161500000Y-84050000D03*
D13*
X161500000Y-76430000D03*
D12*
X187950000Y-81375000D03*
D13*
X195570000Y-81375000D03*
D12*
X231600000Y-91525000D03*
D13*
X231600000Y-83905000D03*
D12*
X234800000Y-83875000D03*
D13*
X234800000Y-91495000D03*
D12*
X137150000Y-76000000D03*
D13*
X137150000Y-83620000D03*
D12*
X158350000Y-76400000D03*
D13*
X158350000Y-84020000D03*
D12*
X192350000Y-91875000D03*
D13*
X192350000Y-84255000D03*
D12*
X133450000Y-83650000D03*
D13*
X133450000Y-76030000D03*
D12*
X175700000Y-61500000D03*
D13*
X168080000Y-61500000D03*
D12*
X195400000Y-84275000D03*
D13*
X195400000Y-91895000D03*
D12*
X239950000Y-81075000D03*
D13*
X247570000Y-81075000D03*
D12*
X130200000Y-76100000D03*
D13*
X130200000Y-83720000D03*
D12*
X175700000Y-64700000D03*
D13*
X168080000Y-64700000D03*
D12*
X200800000Y-81450000D03*
D13*
X208420000Y-81450000D03*
D12*
X244475000Y-91375000D03*
D13*
X244475000Y-83755000D03*
D12*
X126250000Y-83750000D03*
D13*
X126250000Y-76130000D03*
D12*
X168000000Y-68400000D03*
D13*
X175620000Y-68400000D03*
D12*
X247650000Y-83750000D03*
D13*
X247650000Y-91370000D03*
D12*
X205000000Y-91950000D03*
D13*
X205000000Y-84330000D03*
D12*
X252800000Y-80900000D03*
D13*
X260420000Y-80900000D03*
D12*
X123250000Y-76150000D03*
D13*
X123250000Y-83770000D03*
D12*
X208250000Y-84350000D03*
D13*
X208250000Y-91970000D03*
D12*
X175700000Y-71600000D03*
D13*
X168080000Y-71600000D03*
D12*
X257400000Y-91300000D03*
D13*
X257400000Y-83680000D03*
D12*
X260800000Y-83750000D03*
D13*
X260800000Y-91370000D03*
D15*
X130850000Y-65550000D03*
D13*
X148630000Y-57930000D03*
X133390000Y-65550000D03*
X146090000Y-57930000D03*
X135930000Y-65550000D03*
X143550000Y-57930000D03*
X138470000Y-65550000D03*
X141010000Y-57930000D03*
X141010000Y-65550000D03*
X138470000Y-57930000D03*
X143550000Y-65550000D03*
X135930000Y-57930000D03*
X146090000Y-65550000D03*
X133390000Y-57930000D03*
X148630000Y-65550000D03*
X130850000Y-57930000D03*
D15*
X186425000Y-76775000D03*
D13*
X204205000Y-69155000D03*
X188965000Y-76775000D03*
X201665000Y-69155000D03*
X191505000Y-76775000D03*
X199125000Y-69155000D03*
X194045000Y-76775000D03*
X196585000Y-69155000D03*
X196585000Y-76775000D03*
X194045000Y-69155000D03*
X199125000Y-76775000D03*
X191505000Y-69155000D03*
X201665000Y-76775000D03*
X188965000Y-69155000D03*
X204205000Y-76775000D03*
X186425000Y-69155000D03*
D15*
X242300000Y-75250000D03*
D13*
X260080000Y-67630000D03*
X244840000Y-75250000D03*
X257540000Y-67630000D03*
X247380000Y-75250000D03*
X255000000Y-67630000D03*
X249920000Y-75250000D03*
X252460000Y-67630000D03*
X252460000Y-75250000D03*
X249920000Y-67630000D03*
X255000000Y-75250000D03*
X247380000Y-67630000D03*
X257540000Y-75250000D03*
X244840000Y-67630000D03*
X260080000Y-75250000D03*
X242300000Y-67630000D03*
D25*
X237600000Y-103700000D03*
X242500000Y-103700000D03*
D26*
X237850000Y-107650000D03*
X242350000Y-107650000D03*
X237850000Y-101650000D03*
X242100000Y-101650000D03*
D25*
X237700000Y-105700000D03*
X242500000Y-105700000D03*
D27*
X244448000Y-109246000D03*
X241721000Y-110643000D03*
X246450000Y-103130000D03*
X246220000Y-106554000D03*
X235631000Y-108994000D03*
X234011000Y-106463000D03*
X240100000Y-97923000D03*
X234868000Y-100427000D03*
X233707000Y-103093000D03*
X245180000Y-100463000D03*
X236996000Y-98648000D03*
X238278000Y-110613000D03*
X243078000Y-98675000D03*
D25*
X215386000Y-103812000D03*
X220286000Y-103812000D03*
D26*
X215636000Y-107762000D03*
X220136000Y-107762000D03*
X215636000Y-101762000D03*
X219886000Y-101762000D03*
D25*
X215486000Y-105812000D03*
X220286000Y-105812000D03*
D27*
X222234000Y-109358000D03*
X219507000Y-110755000D03*
X224236000Y-103242000D03*
X224006000Y-106666000D03*
X213417000Y-109106000D03*
X211797000Y-106575000D03*
X217886000Y-98035000D03*
X212654000Y-100539000D03*
X211493000Y-103205000D03*
X222966000Y-100575000D03*
X214782000Y-98760000D03*
X216064000Y-110725000D03*
X220864000Y-98787000D03*
D25*
X149600000Y-103812000D03*
X154500000Y-103812000D03*
D26*
X149850000Y-107762000D03*
X154350000Y-107762000D03*
X149850000Y-101762000D03*
X154100000Y-101762000D03*
D25*
X149700000Y-105812000D03*
X154500000Y-105812000D03*
D27*
X156448000Y-109358000D03*
X153721000Y-110755000D03*
X158450000Y-103242000D03*
X158220000Y-106666000D03*
X147631000Y-109106000D03*
X146011000Y-106575000D03*
X152100000Y-98035000D03*
X146868000Y-100539000D03*
X145707000Y-103205000D03*
X157180000Y-100575000D03*
X148996000Y-98760000D03*
X150278000Y-110725000D03*
X155078000Y-98787000D03*
D25*
X127502000Y-103812000D03*
X132402000Y-103812000D03*
D26*
X127752000Y-107762000D03*
X132252000Y-107762000D03*
X127752000Y-101762000D03*
X132002000Y-101762000D03*
D25*
X127602000Y-105812000D03*
X132402000Y-105812000D03*
D27*
X134350000Y-109358000D03*
X131623000Y-110755000D03*
X136352000Y-103242000D03*
X136122000Y-106666000D03*
X125533000Y-109106000D03*
X123913000Y-106575000D03*
X130002000Y-98035000D03*
X124770000Y-100539000D03*
X123609000Y-103205000D03*
X135082000Y-100575000D03*
X126898000Y-98760000D03*
X128180000Y-110725000D03*
X132980000Y-98787000D03*
D25*
X171444000Y-103812000D03*
X176344000Y-103812000D03*
D26*
X171694000Y-107762000D03*
X176194000Y-107762000D03*
X171694000Y-101762000D03*
X175944000Y-101762000D03*
D25*
X171544000Y-105812000D03*
X176344000Y-105812000D03*
D27*
X178292000Y-109358000D03*
X175565000Y-110755000D03*
X180294000Y-103242000D03*
X180064000Y-106666000D03*
X169475000Y-109106000D03*
X167855000Y-106575000D03*
X173944000Y-98035000D03*
X168712000Y-100539000D03*
X167551000Y-103205000D03*
X179024000Y-100575000D03*
X170840000Y-98760000D03*
X172122000Y-110725000D03*
X176922000Y-98787000D03*
D25*
X193542000Y-103812000D03*
X198442000Y-103812000D03*
D26*
X193792000Y-107762000D03*
X198292000Y-107762000D03*
X193792000Y-101762000D03*
X198042000Y-101762000D03*
D25*
X193642000Y-105812000D03*
X198442000Y-105812000D03*
D27*
X200390000Y-109358000D03*
X197663000Y-110755000D03*
X202392000Y-103242000D03*
X202162000Y-106666000D03*
X191573000Y-109106000D03*
X189953000Y-106575000D03*
X196042000Y-98035000D03*
X190810000Y-100539000D03*
X189649000Y-103205000D03*
X201122000Y-100575000D03*
X192938000Y-98760000D03*
X194220000Y-110725000D03*
X199020000Y-98787000D03*
D28*
X257400000Y-55000000D03*
D11*
X257400000Y-62500000D03*
D12*
X263100000Y-70250000D03*
X263100000Y-67750000D03*
X263550000Y-80400000D03*
D13*
X263550000Y-72780000D03*
D18*
X185800000Y-57900000D03*
D19*
X185800000Y-55360000D03*
X188340000Y-57900000D03*
X188340000Y-55360000D03*
X190880000Y-57900000D03*
X190880000Y-55360000D03*
X193420000Y-57900000D03*
X193420000Y-55360000D03*
X195960000Y-57900000D03*
X195960000Y-55360000D03*
M02*
