G04 #@! TF.FileFunction,Copper,L2,Bot,Signal*
%FSLAX46Y46*%
G04 Gerber Fmt 4.6, Leading zero omitted, Abs format (unit mm)*
G04 Created by KiCad (PCBNEW 4.0.7) date 12/29/19 05:16:09*
%MOMM*%
%LPD*%
G01*
G04 APERTURE LIST*
%ADD10C,0.100000*%
%ADD11C,1.600000*%
%ADD12C,1.440000*%
%ADD13R,1.600000X1.600000*%
%ADD14O,1.600000X1.600000*%
%ADD15C,1.408000*%
%ADD16C,1.000000*%
%ADD17R,1.000000X1.000000*%
%ADD18R,2.200000X2.200000*%
%ADD19O,2.200000X2.200000*%
%ADD20R,1.700000X1.700000*%
%ADD21O,1.700000X1.700000*%
%ADD22C,2.400000*%
%ADD23R,1.800000X1.800000*%
%ADD24O,1.800000X1.800000*%
%ADD25R,2.600000X2.000000*%
%ADD26O,2.600000X2.000000*%
%ADD27C,4.064000*%
%ADD28C,0.600000*%
%ADD29C,0.500000*%
%ADD30C,0.350000*%
G04 APERTURE END LIST*
D10*
D11*
X45370000Y-47362000D03*
X45370000Y-49862000D03*
D12*
X35900000Y-71300000D03*
X35900000Y-73840000D03*
X35900000Y-76380000D03*
D13*
X184700000Y-37600000D03*
D14*
X192320000Y-55380000D03*
X184700000Y-40140000D03*
X192320000Y-52840000D03*
X184700000Y-42680000D03*
X192320000Y-50300000D03*
X184700000Y-45220000D03*
X192320000Y-47760000D03*
X184700000Y-47760000D03*
X192320000Y-45220000D03*
X184700000Y-50300000D03*
X192320000Y-42680000D03*
X184700000Y-52840000D03*
X192320000Y-40140000D03*
X184700000Y-55380000D03*
X192320000Y-37600000D03*
D13*
X148700000Y-37600000D03*
D14*
X156320000Y-55380000D03*
X148700000Y-40140000D03*
X156320000Y-52840000D03*
X148700000Y-42680000D03*
X156320000Y-50300000D03*
X148700000Y-45220000D03*
X156320000Y-47760000D03*
X148700000Y-47760000D03*
X156320000Y-45220000D03*
X148700000Y-50300000D03*
X156320000Y-42680000D03*
X148700000Y-52840000D03*
X156320000Y-40140000D03*
X148700000Y-55380000D03*
X156320000Y-37600000D03*
D11*
X258700000Y-67400000D03*
D14*
X258700000Y-59780000D03*
D13*
X256700000Y-37600000D03*
D14*
X264320000Y-55380000D03*
X256700000Y-40140000D03*
X264320000Y-52840000D03*
X256700000Y-42680000D03*
X264320000Y-50300000D03*
X256700000Y-45220000D03*
X264320000Y-47760000D03*
X256700000Y-47760000D03*
X264320000Y-45220000D03*
X256700000Y-50300000D03*
X264320000Y-42680000D03*
X256700000Y-52840000D03*
X264320000Y-40140000D03*
X256700000Y-55380000D03*
X264320000Y-37600000D03*
D13*
X245400000Y-37700000D03*
D14*
X253020000Y-55480000D03*
X245400000Y-40240000D03*
X253020000Y-52940000D03*
X245400000Y-42780000D03*
X253020000Y-50400000D03*
X245400000Y-45320000D03*
X253020000Y-47860000D03*
X245400000Y-47860000D03*
X253020000Y-45320000D03*
X245400000Y-50400000D03*
X253020000Y-42780000D03*
X245400000Y-52940000D03*
X253020000Y-40240000D03*
X245400000Y-55480000D03*
X253020000Y-37700000D03*
D15*
X258348000Y-109846000D03*
X255621000Y-111243000D03*
X260350000Y-103730000D03*
X260120000Y-107154000D03*
X249531000Y-109594000D03*
X247911000Y-107063000D03*
X254000000Y-98523000D03*
X248768000Y-101027000D03*
X247607000Y-103693000D03*
X259080000Y-101063000D03*
X250896000Y-99248000D03*
X252178000Y-111213000D03*
X256978000Y-99275000D03*
D11*
X255800000Y-67400000D03*
D14*
X255800000Y-59780000D03*
D11*
X267100000Y-54300000D03*
D14*
X267100000Y-46680000D03*
D11*
X267100000Y-44500000D03*
D14*
X267100000Y-36880000D03*
D11*
X270200000Y-54300000D03*
D14*
X270200000Y-46680000D03*
D11*
X255750000Y-94750000D03*
D14*
X255750000Y-87130000D03*
D11*
X258700000Y-78000000D03*
D14*
X258700000Y-70380000D03*
D11*
X261700000Y-78000000D03*
D14*
X261700000Y-70380000D03*
D11*
X270100000Y-44500000D03*
D14*
X270100000Y-36880000D03*
D11*
X264700000Y-78000000D03*
D14*
X264700000Y-70380000D03*
D11*
X267700000Y-78000000D03*
D14*
X267700000Y-70380000D03*
D11*
X242400000Y-78000000D03*
D14*
X242400000Y-70380000D03*
D11*
X245200000Y-78000000D03*
D14*
X245200000Y-70380000D03*
D11*
X238900000Y-44700000D03*
D14*
X238900000Y-37080000D03*
D11*
X248000000Y-78000000D03*
D14*
X248000000Y-70380000D03*
D11*
X250800000Y-78000000D03*
D14*
X250800000Y-70380000D03*
D11*
X250250000Y-94750000D03*
D14*
X250250000Y-87130000D03*
D11*
X258500000Y-94750000D03*
D14*
X258500000Y-87130000D03*
D11*
X238700000Y-54800000D03*
D14*
X238700000Y-47180000D03*
D11*
X253000000Y-94750000D03*
D14*
X253000000Y-87130000D03*
D11*
X241700000Y-44700000D03*
D14*
X241700000Y-37080000D03*
D11*
X241900000Y-54800000D03*
D14*
X241900000Y-47180000D03*
D11*
X250000000Y-67400000D03*
D14*
X250000000Y-59780000D03*
D11*
X253000000Y-67400000D03*
D14*
X253000000Y-59780000D03*
D16*
X257470000Y-82870000D03*
X256200000Y-84140000D03*
D17*
X256200000Y-81600000D03*
D16*
X263570000Y-65970000D03*
X262300000Y-67240000D03*
D17*
X262300000Y-64700000D03*
D16*
X263770000Y-60270000D03*
X262500000Y-61540000D03*
D17*
X262500000Y-59000000D03*
D16*
X268170000Y-65870000D03*
X266900000Y-67140000D03*
D17*
X266900000Y-64600000D03*
D16*
X268570000Y-60270000D03*
X267300000Y-61540000D03*
D17*
X267300000Y-59000000D03*
D16*
X242270000Y-60170000D03*
X241000000Y-61440000D03*
D17*
X241000000Y-58900000D03*
D16*
X242170000Y-65670000D03*
X240900000Y-66940000D03*
D17*
X240900000Y-64400000D03*
D16*
X246870000Y-59970000D03*
X245600000Y-61240000D03*
D17*
X245600000Y-58700000D03*
D16*
X246870000Y-65570000D03*
X245600000Y-66840000D03*
D17*
X245600000Y-64300000D03*
D16*
X248470000Y-82670000D03*
X247200000Y-83940000D03*
D17*
X247200000Y-81400000D03*
D16*
X261870000Y-82870000D03*
X260600000Y-84140000D03*
D17*
X260600000Y-81600000D03*
D16*
X253070000Y-82670000D03*
X251800000Y-83940000D03*
D17*
X251800000Y-81400000D03*
D11*
X264010000Y-33820000D03*
X266510000Y-33820000D03*
X252890000Y-33710000D03*
X255390000Y-33710000D03*
X216910000Y-33710000D03*
X219410000Y-33710000D03*
X228030000Y-33820000D03*
X230530000Y-33820000D03*
D16*
X217070000Y-82670000D03*
X215800000Y-83940000D03*
D17*
X215800000Y-81400000D03*
D16*
X225870000Y-82870000D03*
X224600000Y-84140000D03*
D17*
X224600000Y-81600000D03*
D16*
X212470000Y-82670000D03*
X211200000Y-83940000D03*
D17*
X211200000Y-81400000D03*
D16*
X210870000Y-65570000D03*
X209600000Y-66840000D03*
D17*
X209600000Y-64300000D03*
D16*
X210870000Y-59970000D03*
X209600000Y-61240000D03*
D17*
X209600000Y-58700000D03*
D16*
X206170000Y-65670000D03*
X204900000Y-66940000D03*
D17*
X204900000Y-64400000D03*
D16*
X206270000Y-60170000D03*
X205000000Y-61440000D03*
D17*
X205000000Y-58900000D03*
D16*
X232570000Y-60270000D03*
X231300000Y-61540000D03*
D17*
X231300000Y-59000000D03*
D16*
X232170000Y-65870000D03*
X230900000Y-67140000D03*
D17*
X230900000Y-64600000D03*
D16*
X227770000Y-60270000D03*
X226500000Y-61540000D03*
D17*
X226500000Y-59000000D03*
D16*
X227570000Y-65970000D03*
X226300000Y-67240000D03*
D17*
X226300000Y-64700000D03*
D16*
X221470000Y-82870000D03*
X220200000Y-84140000D03*
D17*
X220200000Y-81600000D03*
D11*
X217000000Y-67400000D03*
D14*
X217000000Y-59780000D03*
D11*
X214000000Y-67400000D03*
D14*
X214000000Y-59780000D03*
D11*
X205900000Y-54800000D03*
D14*
X205900000Y-47180000D03*
D11*
X205700000Y-44700000D03*
D14*
X205700000Y-37080000D03*
D11*
X217000000Y-94750000D03*
D14*
X217000000Y-87130000D03*
D11*
X202700000Y-54800000D03*
D14*
X202700000Y-47180000D03*
D11*
X222500000Y-94750000D03*
D14*
X222500000Y-87130000D03*
D11*
X214250000Y-94750000D03*
D14*
X214250000Y-87130000D03*
D11*
X214800000Y-78000000D03*
D14*
X214800000Y-70380000D03*
D11*
X212000000Y-78000000D03*
D14*
X212000000Y-70380000D03*
D11*
X202900000Y-44700000D03*
D14*
X202900000Y-37080000D03*
D11*
X209200000Y-78000000D03*
D14*
X209200000Y-70380000D03*
D11*
X206400000Y-78000000D03*
D14*
X206400000Y-70380000D03*
D11*
X231700000Y-78000000D03*
D14*
X231700000Y-70380000D03*
D11*
X228700000Y-78000000D03*
D14*
X228700000Y-70380000D03*
D11*
X234100000Y-44500000D03*
D14*
X234100000Y-36880000D03*
D11*
X225700000Y-78000000D03*
D14*
X225700000Y-70380000D03*
D11*
X222700000Y-78000000D03*
D14*
X222700000Y-70380000D03*
D11*
X219750000Y-94750000D03*
D14*
X219750000Y-87130000D03*
D11*
X234200000Y-54300000D03*
D14*
X234200000Y-46680000D03*
D11*
X231100000Y-44500000D03*
D14*
X231100000Y-36880000D03*
D11*
X231100000Y-54300000D03*
D14*
X231100000Y-46680000D03*
D11*
X219800000Y-67400000D03*
D14*
X219800000Y-59780000D03*
D15*
X222348000Y-109846000D03*
X219621000Y-111243000D03*
X224350000Y-103730000D03*
X224120000Y-107154000D03*
X213531000Y-109594000D03*
X211911000Y-107063000D03*
X218000000Y-98523000D03*
X212768000Y-101027000D03*
X211607000Y-103693000D03*
X223080000Y-101063000D03*
X214896000Y-99248000D03*
X216178000Y-111213000D03*
X220978000Y-99275000D03*
D13*
X209400000Y-37700000D03*
D14*
X217020000Y-55480000D03*
X209400000Y-40240000D03*
X217020000Y-52940000D03*
X209400000Y-42780000D03*
X217020000Y-50400000D03*
X209400000Y-45320000D03*
X217020000Y-47860000D03*
X209400000Y-47860000D03*
X217020000Y-45320000D03*
X209400000Y-50400000D03*
X217020000Y-42780000D03*
X209400000Y-52940000D03*
X217020000Y-40240000D03*
X209400000Y-55480000D03*
X217020000Y-37700000D03*
D13*
X220700000Y-37600000D03*
D14*
X228320000Y-55380000D03*
X220700000Y-40140000D03*
X228320000Y-52840000D03*
X220700000Y-42680000D03*
X228320000Y-50300000D03*
X220700000Y-45220000D03*
X228320000Y-47760000D03*
X220700000Y-47760000D03*
X228320000Y-45220000D03*
X220700000Y-50300000D03*
X228320000Y-42680000D03*
X220700000Y-52840000D03*
X228320000Y-40140000D03*
X220700000Y-55380000D03*
X228320000Y-37600000D03*
D11*
X222700000Y-67400000D03*
D14*
X222700000Y-59780000D03*
D11*
X186700000Y-67400000D03*
D14*
X186700000Y-59780000D03*
D13*
X173400000Y-37700000D03*
D14*
X181020000Y-55480000D03*
X173400000Y-40240000D03*
X181020000Y-52940000D03*
X173400000Y-42780000D03*
X181020000Y-50400000D03*
X173400000Y-45320000D03*
X181020000Y-47860000D03*
X173400000Y-47860000D03*
X181020000Y-45320000D03*
X173400000Y-50400000D03*
X181020000Y-42780000D03*
X173400000Y-52940000D03*
X181020000Y-40240000D03*
X173400000Y-55480000D03*
X181020000Y-37700000D03*
D15*
X186348000Y-109846000D03*
X183621000Y-111243000D03*
X188350000Y-103730000D03*
X188120000Y-107154000D03*
X177531000Y-109594000D03*
X175911000Y-107063000D03*
X182000000Y-98523000D03*
X176768000Y-101027000D03*
X175607000Y-103693000D03*
X187080000Y-101063000D03*
X178896000Y-99248000D03*
X180178000Y-111213000D03*
X184978000Y-99275000D03*
D11*
X183800000Y-67400000D03*
D14*
X183800000Y-59780000D03*
D11*
X195100000Y-54300000D03*
D14*
X195100000Y-46680000D03*
D11*
X195100000Y-44500000D03*
D14*
X195100000Y-36880000D03*
D11*
X198200000Y-54300000D03*
D14*
X198200000Y-46680000D03*
D11*
X183750000Y-94750000D03*
D14*
X183750000Y-87130000D03*
D11*
X186700000Y-78000000D03*
D14*
X186700000Y-70380000D03*
D11*
X189700000Y-78000000D03*
D14*
X189700000Y-70380000D03*
D11*
X198100000Y-44500000D03*
D14*
X198100000Y-36880000D03*
D11*
X192700000Y-78000000D03*
D14*
X192700000Y-70380000D03*
D11*
X195700000Y-78000000D03*
D14*
X195700000Y-70380000D03*
D11*
X170400000Y-78000000D03*
D14*
X170400000Y-70380000D03*
D11*
X173200000Y-78000000D03*
D14*
X173200000Y-70380000D03*
D11*
X166900000Y-44700000D03*
D14*
X166900000Y-37080000D03*
D11*
X176000000Y-78000000D03*
D14*
X176000000Y-70380000D03*
D11*
X178800000Y-78000000D03*
D14*
X178800000Y-70380000D03*
D11*
X178250000Y-94750000D03*
D14*
X178250000Y-87130000D03*
D11*
X186500000Y-94750000D03*
D14*
X186500000Y-87130000D03*
D11*
X166700000Y-54800000D03*
D14*
X166700000Y-47180000D03*
D11*
X181000000Y-94750000D03*
D14*
X181000000Y-87130000D03*
D11*
X169700000Y-44700000D03*
D14*
X169700000Y-37080000D03*
D11*
X169900000Y-54800000D03*
D14*
X169900000Y-47180000D03*
D11*
X178000000Y-67400000D03*
D14*
X178000000Y-59780000D03*
D11*
X181000000Y-67400000D03*
D14*
X181000000Y-59780000D03*
D16*
X185470000Y-82870000D03*
X184200000Y-84140000D03*
D17*
X184200000Y-81600000D03*
D16*
X191570000Y-65970000D03*
X190300000Y-67240000D03*
D17*
X190300000Y-64700000D03*
D16*
X191770000Y-60270000D03*
X190500000Y-61540000D03*
D17*
X190500000Y-59000000D03*
D16*
X196170000Y-65870000D03*
X194900000Y-67140000D03*
D17*
X194900000Y-64600000D03*
D16*
X196570000Y-60270000D03*
X195300000Y-61540000D03*
D17*
X195300000Y-59000000D03*
D16*
X170270000Y-60170000D03*
X169000000Y-61440000D03*
D17*
X169000000Y-58900000D03*
D16*
X170170000Y-65670000D03*
X168900000Y-66940000D03*
D17*
X168900000Y-64400000D03*
D16*
X174870000Y-59970000D03*
X173600000Y-61240000D03*
D17*
X173600000Y-58700000D03*
D16*
X174870000Y-65570000D03*
X173600000Y-66840000D03*
D17*
X173600000Y-64300000D03*
D16*
X176470000Y-82670000D03*
X175200000Y-83940000D03*
D17*
X175200000Y-81400000D03*
D16*
X189870000Y-82870000D03*
X188600000Y-84140000D03*
D17*
X188600000Y-81600000D03*
D16*
X181070000Y-82670000D03*
X179800000Y-83940000D03*
D17*
X179800000Y-81400000D03*
D11*
X191980000Y-33820000D03*
X194480000Y-33820000D03*
X180920000Y-33710000D03*
X183420000Y-33710000D03*
X144880000Y-33710000D03*
X147380000Y-33710000D03*
X156000000Y-33820000D03*
X158500000Y-33820000D03*
D16*
X145070000Y-82670000D03*
X143800000Y-83940000D03*
D17*
X143800000Y-81400000D03*
D16*
X153870000Y-82870000D03*
X152600000Y-84140000D03*
D17*
X152600000Y-81600000D03*
D16*
X140470000Y-82670000D03*
X139200000Y-83940000D03*
D17*
X139200000Y-81400000D03*
D16*
X138870000Y-65570000D03*
X137600000Y-66840000D03*
D17*
X137600000Y-64300000D03*
D16*
X138870000Y-59970000D03*
X137600000Y-61240000D03*
D17*
X137600000Y-58700000D03*
D16*
X134170000Y-65670000D03*
X132900000Y-66940000D03*
D17*
X132900000Y-64400000D03*
D16*
X134270000Y-60170000D03*
X133000000Y-61440000D03*
D17*
X133000000Y-58900000D03*
D16*
X160570000Y-60270000D03*
X159300000Y-61540000D03*
D17*
X159300000Y-59000000D03*
D16*
X160170000Y-65870000D03*
X158900000Y-67140000D03*
D17*
X158900000Y-64600000D03*
D16*
X155770000Y-60270000D03*
X154500000Y-61540000D03*
D17*
X154500000Y-59000000D03*
D16*
X155570000Y-65970000D03*
X154300000Y-67240000D03*
D17*
X154300000Y-64700000D03*
D16*
X149470000Y-82870000D03*
X148200000Y-84140000D03*
D17*
X148200000Y-81600000D03*
D11*
X145000000Y-67400000D03*
D14*
X145000000Y-59780000D03*
D11*
X142000000Y-67400000D03*
D14*
X142000000Y-59780000D03*
D11*
X133900000Y-54800000D03*
D14*
X133900000Y-47180000D03*
D11*
X133700000Y-44700000D03*
D14*
X133700000Y-37080000D03*
D11*
X145000000Y-94750000D03*
D14*
X145000000Y-87130000D03*
D11*
X130700000Y-54800000D03*
D14*
X130700000Y-47180000D03*
D11*
X150500000Y-94750000D03*
D14*
X150500000Y-87130000D03*
D11*
X142250000Y-94750000D03*
D14*
X142250000Y-87130000D03*
D11*
X142800000Y-78000000D03*
D14*
X142800000Y-70380000D03*
D11*
X140000000Y-78000000D03*
D14*
X140000000Y-70380000D03*
D11*
X130900000Y-44700000D03*
D14*
X130900000Y-37080000D03*
D11*
X137200000Y-78000000D03*
D14*
X137200000Y-70380000D03*
D11*
X134400000Y-78000000D03*
D14*
X134400000Y-70380000D03*
D11*
X159700000Y-78000000D03*
D14*
X159700000Y-70380000D03*
D11*
X156700000Y-78000000D03*
D14*
X156700000Y-70380000D03*
D11*
X162100000Y-44500000D03*
D14*
X162100000Y-36880000D03*
D11*
X153700000Y-78000000D03*
D14*
X153700000Y-70380000D03*
D11*
X150700000Y-78000000D03*
D14*
X150700000Y-70380000D03*
D11*
X147750000Y-94750000D03*
D14*
X147750000Y-87130000D03*
D11*
X162200000Y-54300000D03*
D14*
X162200000Y-46680000D03*
D11*
X159100000Y-44500000D03*
D14*
X159100000Y-36880000D03*
D11*
X159100000Y-54300000D03*
D14*
X159100000Y-46680000D03*
D11*
X147800000Y-67400000D03*
D14*
X147800000Y-59780000D03*
D15*
X150348000Y-109846000D03*
X147621000Y-111243000D03*
X152350000Y-103730000D03*
X152120000Y-107154000D03*
X141531000Y-109594000D03*
X139911000Y-107063000D03*
X146000000Y-98523000D03*
X140768000Y-101027000D03*
X139607000Y-103693000D03*
X151080000Y-101063000D03*
X142896000Y-99248000D03*
X144178000Y-111213000D03*
X148978000Y-99275000D03*
D13*
X137400000Y-37700000D03*
D14*
X145020000Y-55480000D03*
X137400000Y-40240000D03*
X145020000Y-52940000D03*
X137400000Y-42780000D03*
X145020000Y-50400000D03*
X137400000Y-45320000D03*
X145020000Y-47860000D03*
X137400000Y-47860000D03*
X145020000Y-45320000D03*
X137400000Y-50400000D03*
X145020000Y-42780000D03*
X137400000Y-52940000D03*
X145020000Y-40240000D03*
X137400000Y-55480000D03*
X145020000Y-37700000D03*
D13*
X112700000Y-37600000D03*
D14*
X120320000Y-55380000D03*
X112700000Y-40140000D03*
X120320000Y-52840000D03*
X112700000Y-42680000D03*
X120320000Y-50300000D03*
X112700000Y-45220000D03*
X120320000Y-47760000D03*
X112700000Y-47760000D03*
X120320000Y-45220000D03*
X112700000Y-50300000D03*
X120320000Y-42680000D03*
X112700000Y-52840000D03*
X120320000Y-40140000D03*
X112700000Y-55380000D03*
X120320000Y-37600000D03*
D13*
X101400000Y-37700000D03*
D14*
X109020000Y-55480000D03*
X101400000Y-40240000D03*
X109020000Y-52940000D03*
X101400000Y-42780000D03*
X109020000Y-50400000D03*
X101400000Y-45320000D03*
X109020000Y-47860000D03*
X101400000Y-47860000D03*
X109020000Y-45320000D03*
X101400000Y-50400000D03*
X109020000Y-42780000D03*
X101400000Y-52940000D03*
X109020000Y-40240000D03*
X101400000Y-55480000D03*
X109020000Y-37700000D03*
D15*
X114348000Y-109846000D03*
X111621000Y-111243000D03*
X116350000Y-103730000D03*
X116120000Y-107154000D03*
X105531000Y-109594000D03*
X103911000Y-107063000D03*
X110000000Y-98523000D03*
X104768000Y-101027000D03*
X103607000Y-103693000D03*
X115080000Y-101063000D03*
X106896000Y-99248000D03*
X108178000Y-111213000D03*
X112978000Y-99275000D03*
D11*
X111800000Y-67400000D03*
D14*
X111800000Y-59780000D03*
D11*
X123100000Y-54300000D03*
D14*
X123100000Y-46680000D03*
D11*
X123100000Y-44500000D03*
D14*
X123100000Y-36880000D03*
D11*
X126200000Y-54300000D03*
D14*
X126200000Y-46680000D03*
D11*
X111750000Y-94750000D03*
D14*
X111750000Y-87130000D03*
D11*
X114700000Y-78000000D03*
D14*
X114700000Y-70380000D03*
D11*
X117700000Y-78000000D03*
D14*
X117700000Y-70380000D03*
D11*
X126100000Y-44500000D03*
D14*
X126100000Y-36880000D03*
D11*
X120700000Y-78000000D03*
D14*
X120700000Y-70380000D03*
D11*
X123700000Y-78000000D03*
D14*
X123700000Y-70380000D03*
D11*
X98400000Y-78000000D03*
D14*
X98400000Y-70380000D03*
D11*
X101200000Y-78000000D03*
D14*
X101200000Y-70380000D03*
D11*
X94900000Y-44700000D03*
D14*
X94900000Y-37080000D03*
D11*
X104000000Y-78000000D03*
D14*
X104000000Y-70380000D03*
D11*
X106800000Y-78000000D03*
D14*
X106800000Y-70380000D03*
D11*
X106250000Y-94750000D03*
D14*
X106250000Y-87130000D03*
D11*
X114500000Y-94750000D03*
D14*
X114500000Y-87130000D03*
D11*
X94700000Y-54800000D03*
D14*
X94700000Y-47180000D03*
D11*
X109000000Y-94750000D03*
D14*
X109000000Y-87130000D03*
D11*
X97700000Y-44700000D03*
D14*
X97700000Y-37080000D03*
D11*
X97900000Y-54800000D03*
D14*
X97900000Y-47180000D03*
D11*
X106000000Y-67400000D03*
D14*
X106000000Y-59780000D03*
D11*
X114800000Y-67400000D03*
D14*
X114800000Y-59780000D03*
D11*
X109000000Y-67400000D03*
D14*
X109000000Y-59780000D03*
D16*
X113470000Y-82870000D03*
X112200000Y-84140000D03*
D17*
X112200000Y-81600000D03*
D16*
X119570000Y-65970000D03*
X118300000Y-67240000D03*
D17*
X118300000Y-64700000D03*
D16*
X119770000Y-60270000D03*
X118500000Y-61540000D03*
D17*
X118500000Y-59000000D03*
D16*
X124170000Y-65870000D03*
X122900000Y-67140000D03*
D17*
X122900000Y-64600000D03*
D16*
X124570000Y-60270000D03*
X123300000Y-61540000D03*
D17*
X123300000Y-59000000D03*
D16*
X98270000Y-60170000D03*
X97000000Y-61440000D03*
D17*
X97000000Y-58900000D03*
D16*
X98170000Y-65670000D03*
X96900000Y-66940000D03*
D17*
X96900000Y-64400000D03*
D16*
X102870000Y-59970000D03*
X101600000Y-61240000D03*
D17*
X101600000Y-58700000D03*
D16*
X102870000Y-65570000D03*
X101600000Y-66840000D03*
D17*
X101600000Y-64300000D03*
D16*
X104470000Y-82670000D03*
X103200000Y-83940000D03*
D17*
X103200000Y-81400000D03*
D16*
X117870000Y-82870000D03*
X116600000Y-84140000D03*
D17*
X116600000Y-81600000D03*
D16*
X109070000Y-82670000D03*
X107800000Y-83940000D03*
D17*
X107800000Y-81400000D03*
D11*
X120010000Y-33820000D03*
X122510000Y-33820000D03*
X108890000Y-33710000D03*
X111390000Y-33710000D03*
X72880000Y-33700000D03*
X75380000Y-33700000D03*
X84010000Y-33810000D03*
X86510000Y-33810000D03*
D16*
X73070000Y-82670000D03*
X71800000Y-83940000D03*
D17*
X71800000Y-81400000D03*
D16*
X81870000Y-82870000D03*
X80600000Y-84140000D03*
D17*
X80600000Y-81600000D03*
D16*
X68470000Y-82670000D03*
X67200000Y-83940000D03*
D17*
X67200000Y-81400000D03*
D16*
X66870000Y-65570000D03*
X65600000Y-66840000D03*
D17*
X65600000Y-64300000D03*
D16*
X66870000Y-59970000D03*
X65600000Y-61240000D03*
D17*
X65600000Y-58700000D03*
D16*
X62170000Y-65670000D03*
X60900000Y-66940000D03*
D17*
X60900000Y-64400000D03*
D16*
X62270000Y-60170000D03*
X61000000Y-61440000D03*
D17*
X61000000Y-58900000D03*
D16*
X88570000Y-60270000D03*
X87300000Y-61540000D03*
D17*
X87300000Y-59000000D03*
D16*
X88170000Y-65870000D03*
X86900000Y-67140000D03*
D17*
X86900000Y-64600000D03*
D16*
X83770000Y-60270000D03*
X82500000Y-61540000D03*
D17*
X82500000Y-59000000D03*
D16*
X83570000Y-65970000D03*
X82300000Y-67240000D03*
D17*
X82300000Y-64700000D03*
D16*
X77470000Y-82870000D03*
X76200000Y-84140000D03*
D17*
X76200000Y-81600000D03*
D11*
X73000000Y-67400000D03*
D14*
X73000000Y-59780000D03*
D11*
X78800000Y-67400000D03*
D14*
X78800000Y-59780000D03*
D11*
X70000000Y-67400000D03*
D14*
X70000000Y-59780000D03*
D11*
X61900000Y-54800000D03*
D14*
X61900000Y-47180000D03*
D11*
X61700000Y-44700000D03*
D14*
X61700000Y-37080000D03*
D11*
X73000000Y-94750000D03*
D14*
X73000000Y-87130000D03*
D11*
X58700000Y-54800000D03*
D14*
X58700000Y-47180000D03*
D11*
X78500000Y-94750000D03*
D14*
X78500000Y-87130000D03*
D11*
X70250000Y-94750000D03*
D14*
X70250000Y-87130000D03*
D11*
X70800000Y-78000000D03*
D14*
X70800000Y-70380000D03*
D11*
X68000000Y-78000000D03*
D14*
X68000000Y-70380000D03*
D11*
X58900000Y-44700000D03*
D14*
X58900000Y-37080000D03*
D11*
X65200000Y-78000000D03*
D14*
X65200000Y-70380000D03*
D11*
X62400000Y-78000000D03*
D14*
X62400000Y-70380000D03*
D11*
X87700000Y-78000000D03*
D14*
X87700000Y-70380000D03*
D11*
X84700000Y-78000000D03*
D14*
X84700000Y-70380000D03*
D11*
X90100000Y-44500000D03*
D14*
X90100000Y-36880000D03*
D11*
X81700000Y-78000000D03*
D14*
X81700000Y-70380000D03*
D11*
X78700000Y-78000000D03*
D14*
X78700000Y-70380000D03*
D11*
X75750000Y-94750000D03*
D14*
X75750000Y-87130000D03*
D11*
X90200000Y-54300000D03*
D14*
X90200000Y-46680000D03*
D11*
X87100000Y-44500000D03*
D14*
X87100000Y-36880000D03*
D11*
X87100000Y-54300000D03*
D14*
X87100000Y-46680000D03*
D11*
X75800000Y-67400000D03*
D14*
X75800000Y-59780000D03*
D15*
X78348000Y-109846000D03*
X75621000Y-111243000D03*
X80350000Y-103730000D03*
X80120000Y-107154000D03*
X69531000Y-109594000D03*
X67911000Y-107063000D03*
X74000000Y-98523000D03*
X68768000Y-101027000D03*
X67607000Y-103693000D03*
X79080000Y-101063000D03*
X70896000Y-99248000D03*
X72178000Y-111213000D03*
X76978000Y-99275000D03*
D13*
X65400000Y-37700000D03*
D14*
X73020000Y-55480000D03*
X65400000Y-40240000D03*
X73020000Y-52940000D03*
X65400000Y-42780000D03*
X73020000Y-50400000D03*
X65400000Y-45320000D03*
X73020000Y-47860000D03*
X65400000Y-47860000D03*
X73020000Y-45320000D03*
X65400000Y-50400000D03*
X73020000Y-42780000D03*
X65400000Y-52940000D03*
X73020000Y-40240000D03*
X65400000Y-55480000D03*
X73020000Y-37700000D03*
D13*
X76700000Y-37600000D03*
D14*
X84320000Y-55380000D03*
X76700000Y-40140000D03*
X84320000Y-52840000D03*
X76700000Y-42680000D03*
X84320000Y-50300000D03*
X76700000Y-45220000D03*
X84320000Y-47760000D03*
X76700000Y-47760000D03*
X84320000Y-45220000D03*
X76700000Y-50300000D03*
X84320000Y-42680000D03*
X76700000Y-52840000D03*
X84320000Y-40140000D03*
X76700000Y-55380000D03*
X84320000Y-37600000D03*
D11*
X150700000Y-67400000D03*
D14*
X150700000Y-59780000D03*
D11*
X42400000Y-64025000D03*
X44900000Y-64025000D03*
D13*
X50400000Y-56400000D03*
D11*
X53900000Y-56400000D03*
D13*
X55500000Y-65000000D03*
D11*
X55500000Y-67500000D03*
X44354000Y-90288000D03*
X41854000Y-90288000D03*
D13*
X58150000Y-89500000D03*
D11*
X58150000Y-86000000D03*
D18*
X56600000Y-81750000D03*
D19*
X56600000Y-74130000D03*
D20*
X54300000Y-70600000D03*
D21*
X56840000Y-70600000D03*
D22*
X50600000Y-74000000D03*
X50600000Y-87000000D03*
D16*
X37755000Y-65930000D03*
X39025000Y-64660000D03*
D17*
X39025000Y-67200000D03*
D11*
X34800000Y-67600000D03*
D14*
X34800000Y-59980000D03*
D11*
X35210000Y-49902000D03*
D14*
X42830000Y-49902000D03*
D11*
X42830000Y-46600000D03*
D14*
X35210000Y-46600000D03*
D11*
X44862000Y-79874000D03*
D14*
X44862000Y-87494000D03*
D11*
X38258000Y-87494000D03*
D14*
X38258000Y-79874000D03*
D11*
X41560000Y-79874000D03*
D14*
X41560000Y-87494000D03*
D23*
X50350000Y-69200000D03*
D24*
X50350000Y-66660000D03*
X50350000Y-64120000D03*
D25*
X51100000Y-49400000D03*
D26*
X51100000Y-46860000D03*
X51100000Y-44320000D03*
X51100000Y-41780000D03*
X51100000Y-39240000D03*
X51100000Y-36700000D03*
X51100000Y-34160000D03*
D23*
X42000000Y-71200000D03*
D24*
X42000000Y-73740000D03*
X42000000Y-76280000D03*
D27*
X275000000Y-30600000D03*
X35000000Y-112600000D03*
X35000000Y-30600000D03*
X275000000Y-112600000D03*
D13*
X45610000Y-53610000D03*
D14*
X37990000Y-61230000D03*
X43070000Y-53610000D03*
X40530000Y-61230000D03*
X40530000Y-53610000D03*
X43070000Y-61230000D03*
X37990000Y-53610000D03*
X45610000Y-61230000D03*
D20*
X50800000Y-91600000D03*
D21*
X53340000Y-91600000D03*
D28*
X70300000Y-51700000D03*
X259300000Y-51570000D03*
X223640000Y-51610000D03*
X187350000Y-51560000D03*
X151600000Y-51530000D03*
X115400000Y-51640000D03*
X79440000Y-51620000D03*
X249970000Y-51760000D03*
X213890000Y-51680000D03*
X178040000Y-51720000D03*
X142190000Y-51680000D03*
X105930000Y-51760000D03*
X70200000Y-49000000D03*
X259570000Y-49050000D03*
X223410000Y-49090000D03*
X187510000Y-49100000D03*
X151520000Y-48980000D03*
X115570000Y-49050000D03*
X79550000Y-48960000D03*
X250070000Y-49070000D03*
X213930000Y-49050000D03*
X178180000Y-49160000D03*
X142450000Y-49130000D03*
X106150000Y-49190000D03*
X70400000Y-41800000D03*
X106100000Y-42690000D03*
X142170000Y-43290000D03*
X178290000Y-42540000D03*
X214000000Y-42370000D03*
X250180000Y-42480000D03*
X272200000Y-56000000D03*
D29*
X55500000Y-65000000D02*
X55500000Y-62700000D01*
X48800000Y-39000000D02*
X51100000Y-36700000D01*
X48800000Y-50600000D02*
X48800000Y-39000000D01*
X52200000Y-54000000D02*
X48800000Y-50600000D01*
X52200000Y-59400000D02*
X52200000Y-54000000D01*
X55500000Y-62700000D02*
X52200000Y-59400000D01*
X55500000Y-65000000D02*
X56000000Y-65000000D01*
X56000000Y-65000000D02*
X57500000Y-66500000D01*
X57500000Y-69940000D02*
X56840000Y-70600000D01*
X57500000Y-66500000D02*
X57500000Y-69940000D01*
D30*
X252890000Y-33710000D02*
X252890000Y-33290000D01*
X252890000Y-33290000D02*
X251810000Y-32210000D01*
X84010000Y-33810000D02*
X84010000Y-33510000D01*
X84010000Y-33510000D02*
X82710000Y-32210000D01*
X108890000Y-33710000D02*
X108890000Y-33590000D01*
X108890000Y-33590000D02*
X107510000Y-32210000D01*
X120010000Y-33820000D02*
X120010000Y-33010000D01*
X120010000Y-33010000D02*
X119210000Y-32210000D01*
X144880000Y-33710000D02*
X144880000Y-33380000D01*
X144880000Y-33380000D02*
X143710000Y-32210000D01*
X156000000Y-33820000D02*
X155530000Y-33820000D01*
X155530000Y-33820000D02*
X153920000Y-32210000D01*
X180920000Y-33710000D02*
X180250000Y-33710000D01*
X180250000Y-33710000D02*
X178750000Y-32210000D01*
X191980000Y-33820000D02*
X191980000Y-33370000D01*
X191980000Y-33370000D02*
X190820000Y-32210000D01*
X216910000Y-33710000D02*
X216910000Y-33260000D01*
X216910000Y-33260000D02*
X215860000Y-32210000D01*
X228030000Y-33820000D02*
X228030000Y-33600000D01*
X228030000Y-33600000D02*
X226640000Y-32210000D01*
X252890000Y-33710000D02*
X252890000Y-33490000D01*
X72880000Y-33700000D02*
X72880000Y-32860000D01*
X262400000Y-32210000D02*
X264010000Y-33820000D01*
X73530000Y-32210000D02*
X82710000Y-32210000D01*
X82710000Y-32210000D02*
X107510000Y-32210000D01*
X107510000Y-32210000D02*
X119210000Y-32210000D01*
X119210000Y-32210000D02*
X143710000Y-32210000D01*
X143710000Y-32210000D02*
X153920000Y-32210000D01*
X153920000Y-32210000D02*
X178750000Y-32210000D01*
X178750000Y-32210000D02*
X190820000Y-32210000D01*
X190820000Y-32210000D02*
X215860000Y-32210000D01*
X215860000Y-32210000D02*
X226640000Y-32210000D01*
X226640000Y-32210000D02*
X251810000Y-32210000D01*
X251810000Y-32210000D02*
X262400000Y-32210000D01*
X72880000Y-32860000D02*
X73530000Y-32210000D01*
X71600000Y-50400000D02*
X73020000Y-50400000D01*
X70300000Y-51700000D02*
X71600000Y-50400000D01*
X260030000Y-50840000D02*
X263780000Y-50840000D01*
X259300000Y-51570000D02*
X260030000Y-50840000D01*
X263780000Y-50840000D02*
X264320000Y-50300000D01*
X224630000Y-50620000D02*
X228000000Y-50620000D01*
X223640000Y-51610000D02*
X224630000Y-50620000D01*
X228000000Y-50620000D02*
X228320000Y-50300000D01*
X191670000Y-50950000D02*
X192320000Y-50300000D01*
X187960000Y-50950000D02*
X191670000Y-50950000D01*
X187350000Y-51560000D02*
X187960000Y-50950000D01*
X152440000Y-50690000D02*
X155930000Y-50690000D01*
X151600000Y-51530000D02*
X152440000Y-50690000D01*
X155930000Y-50690000D02*
X156320000Y-50300000D01*
X116260000Y-50780000D02*
X119840000Y-50780000D01*
X115400000Y-51640000D02*
X116260000Y-50780000D01*
X119840000Y-50780000D02*
X120320000Y-50300000D01*
X79440000Y-51620000D02*
X80760000Y-50300000D01*
X80760000Y-50300000D02*
X84320000Y-50300000D01*
X251330000Y-50400000D02*
X253020000Y-50400000D01*
X249970000Y-51760000D02*
X251330000Y-50400000D01*
X215170000Y-50400000D02*
X217020000Y-50400000D01*
X213890000Y-51680000D02*
X215170000Y-50400000D01*
X179360000Y-50400000D02*
X181020000Y-50400000D01*
X178040000Y-51720000D02*
X179360000Y-50400000D01*
X143470000Y-50400000D02*
X145020000Y-50400000D01*
X142190000Y-51680000D02*
X143470000Y-50400000D01*
X107290000Y-50400000D02*
X109020000Y-50400000D01*
X105930000Y-51760000D02*
X107290000Y-50400000D01*
X71340000Y-47860000D02*
X73020000Y-47860000D01*
X70200000Y-49000000D02*
X71340000Y-47860000D01*
X260520000Y-48100000D02*
X263980000Y-48100000D01*
X259570000Y-49050000D02*
X260520000Y-48100000D01*
X263980000Y-48100000D02*
X264320000Y-47760000D01*
X224400000Y-48100000D02*
X227980000Y-48100000D01*
X223410000Y-49090000D02*
X224400000Y-48100000D01*
X227980000Y-48100000D02*
X228320000Y-47760000D01*
X188460000Y-48150000D02*
X191930000Y-48150000D01*
X187510000Y-49100000D02*
X188460000Y-48150000D01*
X191930000Y-48150000D02*
X192320000Y-47760000D01*
X152550000Y-47950000D02*
X156130000Y-47950000D01*
X151520000Y-48980000D02*
X152550000Y-47950000D01*
X156130000Y-47950000D02*
X156320000Y-47760000D01*
X116860000Y-47760000D02*
X120320000Y-47760000D01*
X115570000Y-49050000D02*
X116860000Y-47760000D01*
X79550000Y-48960000D02*
X80750000Y-47760000D01*
X80750000Y-47760000D02*
X84320000Y-47760000D01*
X251280000Y-47860000D02*
X253020000Y-47860000D01*
X250070000Y-49070000D02*
X251280000Y-47860000D01*
X215120000Y-47860000D02*
X217020000Y-47860000D01*
X213930000Y-49050000D02*
X215120000Y-47860000D01*
X179480000Y-47860000D02*
X181020000Y-47860000D01*
X178180000Y-49160000D02*
X179480000Y-47860000D01*
X143720000Y-47860000D02*
X145020000Y-47860000D01*
X142450000Y-49130000D02*
X143720000Y-47860000D01*
X107480000Y-47860000D02*
X109020000Y-47860000D01*
X106150000Y-49190000D02*
X107480000Y-47860000D01*
X73070000Y-82670000D02*
X73070000Y-80930000D01*
X74600000Y-69000000D02*
X73000000Y-67400000D01*
X74600000Y-79400000D02*
X74600000Y-69000000D01*
X73070000Y-80930000D02*
X74600000Y-79400000D01*
X71800000Y-83940000D02*
X71940000Y-83940000D01*
X71940000Y-83940000D02*
X73000000Y-85000000D01*
X73000000Y-85000000D02*
X73000000Y-87130000D01*
X81100000Y-80500000D02*
X81400000Y-80500000D01*
X81870000Y-82870000D02*
X81870000Y-81270000D01*
X75800000Y-70400000D02*
X78800000Y-67400000D01*
X75800000Y-78200000D02*
X75800000Y-70400000D01*
X78000000Y-80500000D02*
X75800000Y-78200000D01*
X78000000Y-80500000D02*
X81100000Y-80500000D01*
X81870000Y-80970000D02*
X81870000Y-81270000D01*
X81400000Y-80500000D02*
X81870000Y-80970000D01*
X80600000Y-84140000D02*
X79260000Y-84140000D01*
X78500000Y-84900000D02*
X78500000Y-87130000D01*
X79260000Y-84140000D02*
X78500000Y-84900000D01*
X68470000Y-82670000D02*
X68470000Y-81530000D01*
X71400000Y-68800000D02*
X70000000Y-67400000D01*
X73200000Y-68800000D02*
X71400000Y-68800000D01*
X74000000Y-69600000D02*
X73200000Y-68800000D01*
X74000000Y-79000000D02*
X74000000Y-69600000D01*
X72800000Y-80200000D02*
X74000000Y-79000000D01*
X69800000Y-80200000D02*
X72800000Y-80200000D01*
X68470000Y-81530000D02*
X69800000Y-80200000D01*
X67200000Y-83940000D02*
X68340000Y-83940000D01*
X70250000Y-85850000D02*
X70250000Y-87130000D01*
X68340000Y-83940000D02*
X70250000Y-85850000D01*
X66870000Y-65570000D02*
X66870000Y-65530000D01*
X66870000Y-65530000D02*
X68300000Y-64100000D01*
X68300000Y-64100000D02*
X68300000Y-58400000D01*
X68300000Y-58400000D02*
X67100000Y-57200000D01*
X67100000Y-57200000D02*
X64300000Y-57200000D01*
X64300000Y-57200000D02*
X61900000Y-54800000D01*
X70800000Y-70380000D02*
X70800000Y-70300000D01*
X70800000Y-70300000D02*
X69300000Y-68800000D01*
X69300000Y-68800000D02*
X67560000Y-68800000D01*
X67560000Y-68800000D02*
X65600000Y-66840000D01*
X61700000Y-44700000D02*
X61700000Y-45000000D01*
X61700000Y-45000000D02*
X63400000Y-46700000D01*
X63400000Y-46700000D02*
X63400000Y-48400000D01*
X63400000Y-48400000D02*
X60200000Y-51600000D01*
X60200000Y-51600000D02*
X60200000Y-55600000D01*
X60200000Y-55600000D02*
X61300000Y-56700000D01*
X61300000Y-56700000D02*
X62500000Y-56700000D01*
X62500000Y-56700000D02*
X64200000Y-58400000D01*
X64200000Y-58400000D02*
X64200000Y-59500000D01*
X64200000Y-59500000D02*
X64600000Y-59900000D01*
X64600000Y-59900000D02*
X66800000Y-59900000D01*
X66800000Y-59900000D02*
X66870000Y-59970000D01*
X68000000Y-70380000D02*
X67780000Y-70380000D01*
X67780000Y-70380000D02*
X65800000Y-68400000D01*
X65800000Y-68400000D02*
X64700000Y-68400000D01*
X64700000Y-68400000D02*
X63600000Y-67300000D01*
X63600000Y-67300000D02*
X63600000Y-63240000D01*
X63600000Y-63240000D02*
X65600000Y-61240000D01*
X62170000Y-65670000D02*
X62170000Y-63130000D01*
X60900000Y-57600000D02*
X58100000Y-54800000D01*
X61900000Y-57600000D02*
X60900000Y-57600000D01*
X63400000Y-59100000D02*
X61900000Y-57600000D01*
X63400000Y-61900000D02*
X63400000Y-59100000D01*
X62170000Y-63130000D02*
X63400000Y-61900000D01*
X60900000Y-66940000D02*
X61760000Y-66940000D01*
X61760000Y-66940000D02*
X65200000Y-70380000D01*
X62270000Y-60170000D02*
X59970000Y-60170000D01*
X60200000Y-46000000D02*
X58900000Y-44700000D01*
X60200000Y-50000000D02*
X60200000Y-46000000D01*
X57200000Y-53000000D02*
X60200000Y-50000000D01*
X57200000Y-57400000D02*
X57200000Y-53000000D01*
X59970000Y-60170000D02*
X57200000Y-57400000D01*
X61000000Y-61440000D02*
X60960000Y-61440000D01*
X60960000Y-61440000D02*
X59400000Y-63000000D01*
X59400000Y-63000000D02*
X59400000Y-67380000D01*
X59400000Y-67380000D02*
X62400000Y-70380000D01*
X88570000Y-60270000D02*
X88830000Y-60270000D01*
X88830000Y-60270000D02*
X91500000Y-57800000D01*
X91500000Y-57800000D02*
X91500000Y-53100000D01*
X91500000Y-53100000D02*
X88400000Y-49800000D01*
X88400000Y-49800000D02*
X88400000Y-46700000D01*
X88400000Y-46700000D02*
X90100000Y-44500000D01*
X87300000Y-61540000D02*
X87340000Y-61540000D01*
X87340000Y-61540000D02*
X90200000Y-64400000D01*
X90200000Y-64400000D02*
X90200000Y-67880000D01*
X90200000Y-67880000D02*
X87700000Y-70380000D01*
X85850000Y-63050000D02*
X85850000Y-58450000D01*
X89800000Y-57100000D02*
X90200000Y-54300000D01*
X89200000Y-57700000D02*
X89800000Y-57100000D01*
X86600000Y-57700000D02*
X89200000Y-57700000D01*
X85850000Y-58450000D02*
X86600000Y-57700000D01*
X88170000Y-65870000D02*
X88170000Y-63770000D01*
X86100000Y-63300000D02*
X85850000Y-63050000D01*
X85850000Y-63050000D02*
X85800000Y-63000000D01*
X87700000Y-63300000D02*
X86100000Y-63300000D01*
X88170000Y-63770000D02*
X87700000Y-63300000D01*
X86900000Y-67140000D02*
X86900000Y-68180000D01*
X86900000Y-68180000D02*
X84700000Y-70380000D01*
X83770000Y-60270000D02*
X83770000Y-59830000D01*
X83770000Y-59830000D02*
X84800000Y-58800000D01*
X84800000Y-58800000D02*
X84800000Y-58000000D01*
X84800000Y-58000000D02*
X86400000Y-56400000D01*
X86400000Y-56400000D02*
X87200000Y-56400000D01*
X87200000Y-56400000D02*
X88600000Y-55000000D01*
X88600000Y-55000000D02*
X88600000Y-53400000D01*
X88600000Y-53400000D02*
X85600000Y-50400000D01*
X85600000Y-50400000D02*
X85600000Y-45500000D01*
X85600000Y-45500000D02*
X86600000Y-44500000D01*
X86600000Y-44500000D02*
X87100000Y-44500000D01*
X82500000Y-61540000D02*
X82500000Y-62200000D01*
X84800000Y-67280000D02*
X81700000Y-70380000D01*
X84800000Y-64500000D02*
X84800000Y-67280000D01*
X82500000Y-62200000D02*
X84800000Y-64500000D01*
X83500000Y-57800000D02*
X83600000Y-57800000D01*
X85500000Y-55900000D02*
X87100000Y-54300000D01*
X83600000Y-57800000D02*
X85500000Y-55900000D01*
X83570000Y-65970000D02*
X81170000Y-65970000D01*
X81900000Y-57800000D02*
X83500000Y-57800000D01*
X81100000Y-58600000D02*
X81900000Y-57800000D01*
X81100000Y-65900000D02*
X81100000Y-58600000D01*
X81170000Y-65970000D02*
X81100000Y-65900000D01*
X82300000Y-67240000D02*
X81840000Y-67240000D01*
X81840000Y-67240000D02*
X78700000Y-70380000D01*
X77470000Y-82870000D02*
X77470000Y-80870000D01*
X75200000Y-68000000D02*
X75800000Y-67400000D01*
X75200000Y-78800000D02*
X75200000Y-68000000D01*
X75600000Y-79200000D02*
X75200000Y-78800000D01*
X75800000Y-79200000D02*
X75600000Y-79200000D01*
X77470000Y-80870000D02*
X75800000Y-79200000D01*
X76200000Y-84140000D02*
X76200000Y-84800000D01*
X75750000Y-85250000D02*
X75750000Y-87130000D01*
X76200000Y-84800000D02*
X75750000Y-85250000D01*
X73020000Y-40240000D02*
X70990002Y-40240000D01*
X73000000Y-58280000D02*
X73000000Y-59780000D01*
X69500000Y-54780000D02*
X73000000Y-58280000D01*
X69500000Y-41730002D02*
X69500000Y-54780000D01*
X70990002Y-40240000D02*
X69500000Y-41730002D01*
X73020000Y-40240000D02*
X73440000Y-40240000D01*
X73000000Y-59780000D02*
X73000000Y-59500000D01*
X78800000Y-59780000D02*
X78620000Y-59780000D01*
X78620000Y-59780000D02*
X77100000Y-62000000D01*
X77100000Y-62000000D02*
X72600000Y-62000000D01*
X72600000Y-62000000D02*
X71500000Y-60000000D01*
X71500000Y-60000000D02*
X71500000Y-59100000D01*
X71500000Y-59100000D02*
X70600000Y-58200000D01*
X70600000Y-58200000D02*
X70600000Y-57100000D01*
X70600000Y-57100000D02*
X68760000Y-54800000D01*
X68760000Y-54800000D02*
X68760000Y-40600000D01*
X68760000Y-40600000D02*
X65400000Y-37700000D01*
X65400000Y-40240000D02*
X65540000Y-40240000D01*
X65540000Y-40240000D02*
X68080000Y-42070000D01*
X68080000Y-42070000D02*
X68080000Y-55670000D01*
X68080000Y-55670000D02*
X70000000Y-58300000D01*
X70000000Y-58300000D02*
X70000000Y-59780000D01*
X65400000Y-45320000D02*
X65400000Y-45000000D01*
X65400000Y-45000000D02*
X63200000Y-42800000D01*
X63200000Y-42800000D02*
X63200000Y-38580000D01*
X63200000Y-38580000D02*
X61700000Y-37080000D01*
X73000000Y-94750000D02*
X72450000Y-94750000D01*
X72450000Y-94750000D02*
X70896000Y-96304000D01*
X70896000Y-96304000D02*
X70896000Y-99248000D01*
X78500000Y-94750000D02*
X78500000Y-95700000D01*
X79080000Y-96280000D02*
X79080000Y-101063000D01*
X78500000Y-95700000D02*
X79080000Y-96280000D01*
X70250000Y-94750000D02*
X70250000Y-95550000D01*
X70250000Y-95550000D02*
X68768000Y-97032000D01*
X68768000Y-97032000D02*
X68768000Y-101027000D01*
X67000000Y-79600000D02*
X64200000Y-82400000D01*
X64200000Y-82400000D02*
X64200000Y-82800000D01*
X70800000Y-78000000D02*
X70800000Y-78200000D01*
X70800000Y-78200000D02*
X69400000Y-79600000D01*
X69400000Y-79600000D02*
X67000000Y-79600000D01*
X64200000Y-82800000D02*
X64200000Y-88000000D01*
X64200000Y-88000000D02*
X66800000Y-90600000D01*
X66800000Y-90600000D02*
X66800000Y-102886000D01*
X66800000Y-102886000D02*
X67607000Y-103693000D01*
X68000000Y-78000000D02*
X67400000Y-78000000D01*
X67400000Y-78000000D02*
X66000000Y-79400000D01*
X66000000Y-79400000D02*
X65200000Y-79400000D01*
X65200000Y-79400000D02*
X62800000Y-81800000D01*
X62800000Y-81800000D02*
X62800000Y-88600000D01*
X62800000Y-88600000D02*
X65800000Y-91600000D01*
X65800000Y-91600000D02*
X65800000Y-104952000D01*
X65800000Y-104952000D02*
X67911000Y-107063000D01*
X65400000Y-50400000D02*
X65800000Y-50400000D01*
X65800000Y-50400000D02*
X66700000Y-49500000D01*
X66700000Y-49500000D02*
X66700000Y-47200000D01*
X66700000Y-47200000D02*
X66000000Y-46500000D01*
X66000000Y-46500000D02*
X64700000Y-46500000D01*
X64700000Y-46500000D02*
X63300000Y-45100000D01*
X63300000Y-45100000D02*
X63300000Y-43900000D01*
X63300000Y-43900000D02*
X59700000Y-40300000D01*
X59700000Y-40300000D02*
X59700000Y-37880000D01*
X59700000Y-37880000D02*
X58900000Y-37080000D01*
X64600000Y-106400000D02*
X64600000Y-106600000D01*
X64600000Y-92200000D02*
X64600000Y-106400000D01*
X61600000Y-89200000D02*
X64600000Y-92200000D01*
X61600000Y-81400000D02*
X61600000Y-89200000D01*
X65000000Y-78000000D02*
X61600000Y-81400000D01*
X67594000Y-109594000D02*
X69531000Y-109594000D01*
X64600000Y-106600000D02*
X67594000Y-109594000D01*
X65200000Y-78000000D02*
X65000000Y-78000000D01*
X62400000Y-78000000D02*
X62400000Y-79000000D01*
X68413000Y-111213000D02*
X72178000Y-111213000D01*
X63400000Y-106200000D02*
X68413000Y-111213000D01*
X63400000Y-92600000D02*
X63400000Y-106200000D01*
X60600000Y-89800000D02*
X63400000Y-92600000D01*
X60600000Y-80800000D02*
X60600000Y-89800000D01*
X62400000Y-79000000D02*
X60600000Y-80800000D01*
X87700000Y-78000000D02*
X87700000Y-79000000D01*
X81457000Y-111243000D02*
X75621000Y-111243000D01*
X85300000Y-107400000D02*
X81457000Y-111243000D01*
X85300000Y-89000000D02*
X85300000Y-107400000D01*
X87000000Y-87300000D02*
X85300000Y-89000000D01*
X87000000Y-79700000D02*
X87000000Y-87300000D01*
X87700000Y-79000000D02*
X87000000Y-79700000D01*
X84700000Y-78000000D02*
X84700000Y-79800000D01*
X80054000Y-109846000D02*
X78348000Y-109846000D01*
X83900000Y-106000000D02*
X80054000Y-109846000D01*
X83900000Y-88400000D02*
X83900000Y-106000000D01*
X85700000Y-86900000D02*
X83900000Y-88400000D01*
X85700000Y-80500000D02*
X85700000Y-86900000D01*
X84700000Y-79800000D02*
X85700000Y-80500000D01*
X65400000Y-52940000D02*
X66560000Y-52940000D01*
X88620000Y-35600000D02*
X90100000Y-36880000D01*
X65200000Y-35600000D02*
X88620000Y-35600000D01*
X63800000Y-36800000D02*
X65200000Y-35600000D01*
X63800000Y-41000000D02*
X63800000Y-36800000D01*
X64300000Y-41500000D02*
X63800000Y-41000000D01*
X66200000Y-41500000D02*
X64300000Y-41500000D01*
X67400000Y-42700000D02*
X66200000Y-41500000D01*
X67400000Y-52100000D02*
X67400000Y-42700000D01*
X66560000Y-52940000D02*
X67400000Y-52100000D01*
X90100000Y-36880000D02*
X90100000Y-37100000D01*
X81700000Y-78000000D02*
X81700000Y-78200000D01*
X81700000Y-78200000D02*
X84500000Y-80900000D01*
X84500000Y-80900000D02*
X84500000Y-85600000D01*
X84500000Y-85600000D02*
X82500000Y-87500000D01*
X82500000Y-87500000D02*
X82500000Y-104774000D01*
X82500000Y-104774000D02*
X80120000Y-107154000D01*
X78700000Y-78000000D02*
X78700000Y-78500000D01*
X78700000Y-78500000D02*
X79900000Y-79700000D01*
X79900000Y-79700000D02*
X81900000Y-79700000D01*
X81900000Y-79700000D02*
X83300000Y-81100000D01*
X83300000Y-81100000D02*
X83300000Y-85200000D01*
X83300000Y-85200000D02*
X80900000Y-87600000D01*
X80900000Y-87600000D02*
X80900000Y-103180000D01*
X80900000Y-103180000D02*
X80350000Y-103730000D01*
X75750000Y-94750000D02*
X75750000Y-95750000D01*
X76978000Y-96978000D02*
X76978000Y-99275000D01*
X75750000Y-95750000D02*
X76978000Y-96978000D01*
X87100000Y-36880000D02*
X87100000Y-36900000D01*
X87100000Y-36900000D02*
X85200000Y-38800000D01*
X85200000Y-38800000D02*
X80400000Y-38800000D01*
X80400000Y-38800000D02*
X79200000Y-37600000D01*
X79200000Y-37600000D02*
X76700000Y-37600000D01*
X76700000Y-40140000D02*
X78170000Y-40140000D01*
X88650000Y-45130000D02*
X87100000Y-46680000D01*
X88650000Y-43030000D02*
X88650000Y-45130000D01*
X87090000Y-41470000D02*
X88650000Y-43030000D01*
X79500000Y-41470000D02*
X87090000Y-41470000D01*
X78170000Y-40140000D02*
X79500000Y-41470000D01*
X75800000Y-59780000D02*
X76020000Y-59780000D01*
X76020000Y-59780000D02*
X77900000Y-57900000D01*
X77900000Y-57900000D02*
X77900000Y-44580000D01*
X77900000Y-44580000D02*
X76700000Y-42680000D01*
X84320000Y-42680000D02*
X84220000Y-42680000D01*
X84220000Y-42680000D02*
X82500000Y-44300000D01*
X74300000Y-56760000D02*
X73020000Y-55480000D01*
X74300000Y-60200000D02*
X74300000Y-56760000D01*
X75100000Y-61000000D02*
X74300000Y-60200000D01*
X76600000Y-61000000D02*
X75100000Y-61000000D01*
X77300000Y-60300000D02*
X76600000Y-61000000D01*
X77300000Y-59600000D02*
X77300000Y-60300000D01*
X78600000Y-58300000D02*
X77300000Y-59600000D01*
X78600000Y-45000000D02*
X78600000Y-58300000D01*
X79300000Y-44300000D02*
X78600000Y-45000000D01*
X82500000Y-44300000D02*
X79300000Y-44300000D01*
X84320000Y-42680000D02*
X84320000Y-42720000D01*
X109070000Y-80930000D02*
X110600000Y-79400000D01*
X110600000Y-79400000D02*
X110600000Y-69000000D01*
X110600000Y-69000000D02*
X109000000Y-67400000D01*
X109070000Y-82670000D02*
X109070000Y-80930000D01*
X109000000Y-85000000D02*
X109000000Y-87130000D01*
X107940000Y-83940000D02*
X109000000Y-85000000D01*
X107800000Y-83940000D02*
X107940000Y-83940000D01*
X117400000Y-80500000D02*
X117870000Y-80970000D01*
X117870000Y-80970000D02*
X117870000Y-81270000D01*
X114000000Y-80500000D02*
X117100000Y-80500000D01*
X114000000Y-80500000D02*
X111800000Y-78200000D01*
X111800000Y-78200000D02*
X111800000Y-70400000D01*
X111800000Y-70400000D02*
X114800000Y-67400000D01*
X117870000Y-82870000D02*
X117870000Y-81270000D01*
X117100000Y-80500000D02*
X117400000Y-80500000D01*
X115260000Y-84140000D02*
X114500000Y-84900000D01*
X114500000Y-84900000D02*
X114500000Y-87130000D01*
X116600000Y-84140000D02*
X115260000Y-84140000D01*
X104470000Y-81530000D02*
X105800000Y-80200000D01*
X105800000Y-80200000D02*
X108800000Y-80200000D01*
X108800000Y-80200000D02*
X110000000Y-79000000D01*
X110000000Y-79000000D02*
X110000000Y-69600000D01*
X110000000Y-69600000D02*
X109200000Y-68800000D01*
X109200000Y-68800000D02*
X107400000Y-68800000D01*
X107400000Y-68800000D02*
X106000000Y-67400000D01*
X104470000Y-82670000D02*
X104470000Y-81530000D01*
X104340000Y-83940000D02*
X106250000Y-85850000D01*
X106250000Y-85850000D02*
X106250000Y-87130000D01*
X103200000Y-83940000D02*
X104340000Y-83940000D01*
X100300000Y-57200000D02*
X97900000Y-54800000D01*
X103100000Y-57200000D02*
X100300000Y-57200000D01*
X104300000Y-58400000D02*
X103100000Y-57200000D01*
X104300000Y-64100000D02*
X104300000Y-58400000D01*
X102870000Y-65530000D02*
X104300000Y-64100000D01*
X102870000Y-65570000D02*
X102870000Y-65530000D01*
X103560000Y-68800000D02*
X101600000Y-66840000D01*
X105300000Y-68800000D02*
X103560000Y-68800000D01*
X106800000Y-70300000D02*
X105300000Y-68800000D01*
X106800000Y-70380000D02*
X106800000Y-70300000D01*
X102800000Y-59900000D02*
X102870000Y-59970000D01*
X100600000Y-59900000D02*
X102800000Y-59900000D01*
X100200000Y-59500000D02*
X100600000Y-59900000D01*
X100200000Y-58400000D02*
X100200000Y-59500000D01*
X98500000Y-56700000D02*
X100200000Y-58400000D01*
X97300000Y-56700000D02*
X98500000Y-56700000D01*
X96200000Y-55600000D02*
X97300000Y-56700000D01*
X96200000Y-51600000D02*
X96200000Y-55600000D01*
X99400000Y-48400000D02*
X96200000Y-51600000D01*
X99400000Y-46700000D02*
X99400000Y-48400000D01*
X97700000Y-45000000D02*
X99400000Y-46700000D01*
X97700000Y-44700000D02*
X97700000Y-45000000D01*
X99600000Y-63240000D02*
X101600000Y-61240000D01*
X99600000Y-67300000D02*
X99600000Y-63240000D01*
X100700000Y-68400000D02*
X99600000Y-67300000D01*
X101800000Y-68400000D02*
X100700000Y-68400000D01*
X103780000Y-70380000D02*
X101800000Y-68400000D01*
X104000000Y-70380000D02*
X103780000Y-70380000D01*
X98170000Y-63130000D02*
X99400000Y-61900000D01*
X99400000Y-61900000D02*
X99400000Y-59100000D01*
X99400000Y-59100000D02*
X97900000Y-57600000D01*
X97900000Y-57600000D02*
X96900000Y-57600000D01*
X96900000Y-57600000D02*
X94100000Y-54800000D01*
X98170000Y-65670000D02*
X98170000Y-63130000D01*
X97760000Y-66940000D02*
X101200000Y-70380000D01*
X96900000Y-66940000D02*
X97760000Y-66940000D01*
X95970000Y-60170000D02*
X93200000Y-57400000D01*
X93200000Y-57400000D02*
X93200000Y-53000000D01*
X93200000Y-53000000D02*
X96200000Y-50000000D01*
X96200000Y-50000000D02*
X96200000Y-46000000D01*
X96200000Y-46000000D02*
X94900000Y-44700000D01*
X98270000Y-60170000D02*
X95970000Y-60170000D01*
X95400000Y-67380000D02*
X98400000Y-70380000D01*
X95400000Y-63000000D02*
X95400000Y-67380000D01*
X96960000Y-61440000D02*
X95400000Y-63000000D01*
X97000000Y-61440000D02*
X96960000Y-61440000D01*
X124400000Y-46700000D02*
X126100000Y-44500000D01*
X124400000Y-49800000D02*
X124400000Y-46700000D01*
X127500000Y-53100000D02*
X124400000Y-49800000D01*
X127500000Y-57800000D02*
X127500000Y-53100000D01*
X124830000Y-60270000D02*
X127500000Y-57800000D01*
X124570000Y-60270000D02*
X124830000Y-60270000D01*
X126200000Y-67880000D02*
X123700000Y-70380000D01*
X126200000Y-64400000D02*
X126200000Y-67880000D01*
X123340000Y-61540000D02*
X126200000Y-64400000D01*
X123300000Y-61540000D02*
X123340000Y-61540000D01*
X124170000Y-63770000D02*
X123700000Y-63300000D01*
X123700000Y-63300000D02*
X122100000Y-63300000D01*
X121850000Y-63050000D02*
X121800000Y-63000000D01*
X122100000Y-63300000D02*
X121850000Y-63050000D01*
X124170000Y-65870000D02*
X124170000Y-63770000D01*
X121850000Y-58450000D02*
X122600000Y-57700000D01*
X122600000Y-57700000D02*
X125200000Y-57700000D01*
X125200000Y-57700000D02*
X125800000Y-57100000D01*
X125800000Y-57100000D02*
X126200000Y-54300000D01*
X121850000Y-63050000D02*
X121850000Y-58450000D01*
X122900000Y-68180000D02*
X120700000Y-70380000D01*
X122900000Y-67140000D02*
X122900000Y-68180000D01*
X122600000Y-44500000D02*
X123100000Y-44500000D01*
X121600000Y-45500000D02*
X122600000Y-44500000D01*
X121600000Y-50400000D02*
X121600000Y-45500000D01*
X124600000Y-53400000D02*
X121600000Y-50400000D01*
X124600000Y-55000000D02*
X124600000Y-53400000D01*
X123200000Y-56400000D02*
X124600000Y-55000000D01*
X122400000Y-56400000D02*
X123200000Y-56400000D01*
X120800000Y-58000000D02*
X122400000Y-56400000D01*
X120800000Y-58800000D02*
X120800000Y-58000000D01*
X119770000Y-59830000D02*
X120800000Y-58800000D01*
X119770000Y-60270000D02*
X119770000Y-59830000D01*
X118500000Y-62200000D02*
X120800000Y-64500000D01*
X120800000Y-64500000D02*
X120800000Y-67280000D01*
X120800000Y-67280000D02*
X117700000Y-70380000D01*
X118500000Y-61540000D02*
X118500000Y-62200000D01*
X117170000Y-65970000D02*
X117100000Y-65900000D01*
X117100000Y-65900000D02*
X117100000Y-58600000D01*
X117100000Y-58600000D02*
X117900000Y-57800000D01*
X117900000Y-57800000D02*
X119500000Y-57800000D01*
X119570000Y-65970000D02*
X117170000Y-65970000D01*
X119600000Y-57800000D02*
X121500000Y-55900000D01*
X121500000Y-55900000D02*
X123100000Y-54300000D01*
X119500000Y-57800000D02*
X119600000Y-57800000D01*
X117840000Y-67240000D02*
X114700000Y-70380000D01*
X118300000Y-67240000D02*
X117840000Y-67240000D01*
X113470000Y-80870000D02*
X111800000Y-79200000D01*
X111800000Y-79200000D02*
X111600000Y-79200000D01*
X111600000Y-79200000D02*
X111200000Y-78800000D01*
X111200000Y-78800000D02*
X111200000Y-68000000D01*
X111200000Y-68000000D02*
X111800000Y-67400000D01*
X113470000Y-82870000D02*
X113470000Y-80870000D01*
X112200000Y-84800000D02*
X111750000Y-85250000D01*
X111750000Y-85250000D02*
X111750000Y-87130000D01*
X112200000Y-84140000D02*
X112200000Y-84800000D01*
X109020000Y-40240000D02*
X107490000Y-40240000D01*
X109000000Y-58410000D02*
X109000000Y-59780000D01*
X105200000Y-54610000D02*
X109000000Y-58410000D01*
X105200000Y-42530000D02*
X105200000Y-54610000D01*
X107490000Y-40240000D02*
X105200000Y-42530000D01*
X109020000Y-40240000D02*
X109250000Y-40240000D01*
X109000000Y-59780000D02*
X109000000Y-59500000D01*
X104640000Y-40800000D02*
X101400000Y-37700000D01*
X104640000Y-55000000D02*
X104640000Y-40800000D01*
X106600000Y-57100000D02*
X104640000Y-55000000D01*
X106600000Y-58200000D02*
X106600000Y-57100000D01*
X107500000Y-59100000D02*
X106600000Y-58200000D01*
X107500000Y-60000000D02*
X107500000Y-59100000D01*
X108600000Y-62000000D02*
X107500000Y-60000000D01*
X113100000Y-62000000D02*
X108600000Y-62000000D01*
X114620000Y-59780000D02*
X113100000Y-62000000D01*
X114800000Y-59780000D02*
X114620000Y-59780000D01*
X106000000Y-58300000D02*
X106000000Y-59780000D01*
X104020000Y-55820000D02*
X106000000Y-58300000D01*
X104020000Y-42220000D02*
X104020000Y-55820000D01*
X101540000Y-40240000D02*
X104020000Y-42220000D01*
X101400000Y-40240000D02*
X101540000Y-40240000D01*
X99200000Y-38580000D02*
X97700000Y-37080000D01*
X99200000Y-42800000D02*
X99200000Y-38580000D01*
X101400000Y-45000000D02*
X99200000Y-42800000D01*
X101400000Y-45320000D02*
X101400000Y-45000000D01*
X106896000Y-96304000D02*
X106896000Y-99248000D01*
X108450000Y-94750000D02*
X106896000Y-96304000D01*
X109000000Y-94750000D02*
X108450000Y-94750000D01*
X114500000Y-95700000D02*
X115080000Y-96280000D01*
X115080000Y-96280000D02*
X115080000Y-101063000D01*
X114500000Y-94750000D02*
X114500000Y-95700000D01*
X104768000Y-97032000D02*
X104768000Y-101027000D01*
X106250000Y-95550000D02*
X104768000Y-97032000D01*
X106250000Y-94750000D02*
X106250000Y-95550000D01*
X102800000Y-102886000D02*
X103607000Y-103693000D01*
X102800000Y-90600000D02*
X102800000Y-102886000D01*
X100200000Y-88000000D02*
X102800000Y-90600000D01*
X100200000Y-82800000D02*
X100200000Y-88000000D01*
X105400000Y-79600000D02*
X103000000Y-79600000D01*
X106800000Y-78200000D02*
X105400000Y-79600000D01*
X106800000Y-78000000D02*
X106800000Y-78200000D01*
X100200000Y-82400000D02*
X100200000Y-82800000D01*
X103000000Y-79600000D02*
X100200000Y-82400000D01*
X101800000Y-104952000D02*
X103911000Y-107063000D01*
X101800000Y-91600000D02*
X101800000Y-104952000D01*
X98800000Y-88600000D02*
X101800000Y-91600000D01*
X98800000Y-81800000D02*
X98800000Y-88600000D01*
X101200000Y-79400000D02*
X98800000Y-81800000D01*
X102000000Y-79400000D02*
X101200000Y-79400000D01*
X103400000Y-78000000D02*
X102000000Y-79400000D01*
X104000000Y-78000000D02*
X103400000Y-78000000D01*
X95700000Y-37880000D02*
X94900000Y-37080000D01*
X95700000Y-40300000D02*
X95700000Y-37880000D01*
X99300000Y-43900000D02*
X95700000Y-40300000D01*
X99300000Y-45100000D02*
X99300000Y-43900000D01*
X100700000Y-46500000D02*
X99300000Y-45100000D01*
X102000000Y-46500000D02*
X100700000Y-46500000D01*
X102700000Y-47200000D02*
X102000000Y-46500000D01*
X102700000Y-49500000D02*
X102700000Y-47200000D01*
X101800000Y-50400000D02*
X102700000Y-49500000D01*
X101400000Y-50400000D02*
X101800000Y-50400000D01*
X101200000Y-78000000D02*
X101000000Y-78000000D01*
X100600000Y-106600000D02*
X103594000Y-109594000D01*
X103594000Y-109594000D02*
X105531000Y-109594000D01*
X101000000Y-78000000D02*
X97600000Y-81400000D01*
X97600000Y-81400000D02*
X97600000Y-89200000D01*
X97600000Y-89200000D02*
X100600000Y-92200000D01*
X100600000Y-92200000D02*
X100600000Y-106400000D01*
X100600000Y-106400000D02*
X100600000Y-106600000D01*
X98400000Y-79000000D02*
X96600000Y-80800000D01*
X96600000Y-80800000D02*
X96600000Y-89800000D01*
X96600000Y-89800000D02*
X99400000Y-92600000D01*
X99400000Y-92600000D02*
X99400000Y-106200000D01*
X99400000Y-106200000D02*
X104413000Y-111213000D01*
X104413000Y-111213000D02*
X108178000Y-111213000D01*
X98400000Y-78000000D02*
X98400000Y-79000000D01*
X123700000Y-79000000D02*
X123000000Y-79700000D01*
X123000000Y-79700000D02*
X123000000Y-87300000D01*
X123000000Y-87300000D02*
X121300000Y-89000000D01*
X121300000Y-89000000D02*
X121300000Y-107400000D01*
X121300000Y-107400000D02*
X117457000Y-111243000D01*
X117457000Y-111243000D02*
X111621000Y-111243000D01*
X123700000Y-78000000D02*
X123700000Y-79000000D01*
X120700000Y-79800000D02*
X121700000Y-80500000D01*
X121700000Y-80500000D02*
X121700000Y-86900000D01*
X121700000Y-86900000D02*
X119900000Y-88400000D01*
X119900000Y-88400000D02*
X119900000Y-106000000D01*
X119900000Y-106000000D02*
X116054000Y-109846000D01*
X116054000Y-109846000D02*
X114348000Y-109846000D01*
X120700000Y-78000000D02*
X120700000Y-79800000D01*
X126100000Y-36880000D02*
X126100000Y-37100000D01*
X102560000Y-52940000D02*
X103400000Y-52100000D01*
X103400000Y-52100000D02*
X103400000Y-42700000D01*
X103400000Y-42700000D02*
X102200000Y-41500000D01*
X102200000Y-41500000D02*
X100300000Y-41500000D01*
X100300000Y-41500000D02*
X99800000Y-41000000D01*
X99800000Y-41000000D02*
X99800000Y-36800000D01*
X99800000Y-36800000D02*
X101200000Y-35600000D01*
X101200000Y-35600000D02*
X124620000Y-35600000D01*
X124620000Y-35600000D02*
X126100000Y-36880000D01*
X101400000Y-52940000D02*
X102560000Y-52940000D01*
X118500000Y-104774000D02*
X116120000Y-107154000D01*
X118500000Y-87500000D02*
X118500000Y-104774000D01*
X120500000Y-85600000D02*
X118500000Y-87500000D01*
X120500000Y-80900000D02*
X120500000Y-85600000D01*
X117700000Y-78200000D02*
X120500000Y-80900000D01*
X117700000Y-78000000D02*
X117700000Y-78200000D01*
X116900000Y-103180000D02*
X116350000Y-103730000D01*
X116900000Y-87600000D02*
X116900000Y-103180000D01*
X119300000Y-85200000D02*
X116900000Y-87600000D01*
X119300000Y-81100000D02*
X119300000Y-85200000D01*
X117900000Y-79700000D02*
X119300000Y-81100000D01*
X115900000Y-79700000D02*
X117900000Y-79700000D01*
X114700000Y-78500000D02*
X115900000Y-79700000D01*
X114700000Y-78000000D02*
X114700000Y-78500000D01*
X111750000Y-95750000D02*
X112978000Y-96978000D01*
X112978000Y-96978000D02*
X112978000Y-99275000D01*
X111750000Y-94750000D02*
X111750000Y-95750000D01*
X115200000Y-37600000D02*
X112700000Y-37600000D01*
X116400000Y-38800000D02*
X115200000Y-37600000D01*
X121200000Y-38800000D02*
X116400000Y-38800000D01*
X123100000Y-36900000D02*
X121200000Y-38800000D01*
X123100000Y-36880000D02*
X123100000Y-36900000D01*
X112700000Y-40140000D02*
X113790000Y-40140000D01*
X124510000Y-45270000D02*
X123100000Y-46680000D01*
X124510000Y-42070000D02*
X124510000Y-45270000D01*
X123770000Y-41330000D02*
X124510000Y-42070000D01*
X114980000Y-41330000D02*
X123770000Y-41330000D01*
X113790000Y-40140000D02*
X114980000Y-41330000D01*
X113900000Y-44580000D02*
X112700000Y-42680000D01*
X113900000Y-57900000D02*
X113900000Y-44580000D01*
X112020000Y-59780000D02*
X113900000Y-57900000D01*
X111800000Y-59780000D02*
X112020000Y-59780000D01*
X75800000Y-114100000D02*
X66900000Y-114100000D01*
X54140000Y-92400000D02*
X53340000Y-91600000D01*
X58400000Y-92400000D02*
X54140000Y-92400000D01*
X59600000Y-93600000D02*
X58400000Y-92400000D01*
X59600000Y-106800000D02*
X59600000Y-93600000D01*
X66900000Y-114100000D02*
X59600000Y-106800000D01*
X110000000Y-98523000D02*
X110000000Y-113400000D01*
X110000000Y-113400000D02*
X109300000Y-114100000D01*
X146000000Y-98523000D02*
X146000000Y-113300000D01*
X146000000Y-113300000D02*
X145200000Y-114100000D01*
X182000000Y-98523000D02*
X182000000Y-113600000D01*
X182000000Y-113600000D02*
X181500000Y-114100000D01*
X218000000Y-98523000D02*
X218000000Y-114100000D01*
X74000000Y-98523000D02*
X74000000Y-112600000D01*
X254000000Y-112400000D02*
X254000000Y-97900000D01*
X252300000Y-114100000D02*
X254000000Y-112400000D01*
X75500000Y-114100000D02*
X75800000Y-114100000D01*
X75800000Y-114100000D02*
X75700000Y-114100000D01*
X75700000Y-114100000D02*
X109300000Y-114100000D01*
X109300000Y-114100000D02*
X145200000Y-114100000D01*
X145200000Y-114100000D02*
X181500000Y-114100000D01*
X181500000Y-114100000D02*
X218000000Y-114100000D01*
X218000000Y-114100000D02*
X252300000Y-114100000D01*
X74000000Y-112600000D02*
X75500000Y-114100000D01*
X254000000Y-97900000D02*
X254000000Y-98523000D01*
X70400000Y-41800000D02*
X71380000Y-42780000D01*
X71380000Y-42780000D02*
X73020000Y-42780000D01*
X120320000Y-42680000D02*
X120320000Y-42720000D01*
X118500000Y-44300000D02*
X115300000Y-44300000D01*
X115300000Y-44300000D02*
X114600000Y-45000000D01*
X114600000Y-45000000D02*
X114600000Y-58300000D01*
X114600000Y-58300000D02*
X113300000Y-59600000D01*
X113300000Y-59600000D02*
X113300000Y-60300000D01*
X113300000Y-60300000D02*
X112600000Y-61000000D01*
X112600000Y-61000000D02*
X111100000Y-61000000D01*
X111100000Y-61000000D02*
X110300000Y-60200000D01*
X110300000Y-60200000D02*
X110300000Y-56760000D01*
X110300000Y-56760000D02*
X109020000Y-55480000D01*
X120220000Y-42680000D02*
X118500000Y-44300000D01*
X120320000Y-42680000D02*
X120220000Y-42680000D01*
X145070000Y-82670000D02*
X145070000Y-80930000D01*
X146600000Y-69000000D02*
X145000000Y-67400000D01*
X146600000Y-79400000D02*
X146600000Y-69000000D01*
X145070000Y-80930000D02*
X146600000Y-79400000D01*
X143800000Y-83940000D02*
X143940000Y-83940000D01*
X143940000Y-83940000D02*
X145000000Y-85000000D01*
X145000000Y-85000000D02*
X145000000Y-87130000D01*
X153100000Y-80500000D02*
X153400000Y-80500000D01*
X147800000Y-70400000D02*
X150800000Y-67400000D01*
X147800000Y-78200000D02*
X147800000Y-70400000D01*
X150000000Y-80500000D02*
X147800000Y-78200000D01*
X150000000Y-80500000D02*
X153100000Y-80500000D01*
X153870000Y-82870000D02*
X153870000Y-81270000D01*
X153870000Y-80970000D02*
X153870000Y-81270000D01*
X153400000Y-80500000D02*
X153870000Y-80970000D01*
X152600000Y-84140000D02*
X151260000Y-84140000D01*
X150500000Y-84900000D02*
X150500000Y-87130000D01*
X151260000Y-84140000D02*
X150500000Y-84900000D01*
X140470000Y-82670000D02*
X140470000Y-81530000D01*
X143400000Y-68800000D02*
X142000000Y-67400000D01*
X145200000Y-68800000D02*
X143400000Y-68800000D01*
X146000000Y-69600000D02*
X145200000Y-68800000D01*
X146000000Y-79000000D02*
X146000000Y-69600000D01*
X144800000Y-80200000D02*
X146000000Y-79000000D01*
X141800000Y-80200000D02*
X144800000Y-80200000D01*
X140470000Y-81530000D02*
X141800000Y-80200000D01*
X139200000Y-83940000D02*
X140340000Y-83940000D01*
X142250000Y-85850000D02*
X142250000Y-87130000D01*
X140340000Y-83940000D02*
X142250000Y-85850000D01*
X138870000Y-65570000D02*
X138870000Y-65530000D01*
X138870000Y-65530000D02*
X140300000Y-64100000D01*
X140300000Y-64100000D02*
X140300000Y-58400000D01*
X140300000Y-58400000D02*
X139100000Y-57200000D01*
X139100000Y-57200000D02*
X136300000Y-57200000D01*
X136300000Y-57200000D02*
X133900000Y-54800000D01*
X142800000Y-70380000D02*
X142800000Y-70300000D01*
X142800000Y-70300000D02*
X141300000Y-68800000D01*
X141300000Y-68800000D02*
X139560000Y-68800000D01*
X139560000Y-68800000D02*
X137600000Y-66840000D01*
X133700000Y-44700000D02*
X133700000Y-45000000D01*
X133700000Y-45000000D02*
X135400000Y-46700000D01*
X135400000Y-46700000D02*
X135400000Y-48400000D01*
X135400000Y-48400000D02*
X132200000Y-51600000D01*
X132200000Y-51600000D02*
X132200000Y-55600000D01*
X132200000Y-55600000D02*
X133300000Y-56700000D01*
X133300000Y-56700000D02*
X134500000Y-56700000D01*
X134500000Y-56700000D02*
X136200000Y-58400000D01*
X136200000Y-58400000D02*
X136200000Y-59500000D01*
X136200000Y-59500000D02*
X136600000Y-59900000D01*
X136600000Y-59900000D02*
X138800000Y-59900000D01*
X138800000Y-59900000D02*
X138870000Y-59970000D01*
X140000000Y-70380000D02*
X139780000Y-70380000D01*
X139780000Y-70380000D02*
X137800000Y-68400000D01*
X137800000Y-68400000D02*
X136700000Y-68400000D01*
X136700000Y-68400000D02*
X135600000Y-67300000D01*
X135600000Y-67300000D02*
X135600000Y-63240000D01*
X135600000Y-63240000D02*
X137600000Y-61240000D01*
X134170000Y-65670000D02*
X134170000Y-63130000D01*
X132900000Y-57600000D02*
X130100000Y-54800000D01*
X133900000Y-57600000D02*
X132900000Y-57600000D01*
X135400000Y-59100000D02*
X133900000Y-57600000D01*
X135400000Y-61900000D02*
X135400000Y-59100000D01*
X134170000Y-63130000D02*
X135400000Y-61900000D01*
X132900000Y-66940000D02*
X133760000Y-66940000D01*
X133760000Y-66940000D02*
X137200000Y-70380000D01*
X134270000Y-60170000D02*
X131970000Y-60170000D01*
X132200000Y-46000000D02*
X130900000Y-44700000D01*
X132200000Y-50000000D02*
X132200000Y-46000000D01*
X129200000Y-53000000D02*
X132200000Y-50000000D01*
X129200000Y-57400000D02*
X129200000Y-53000000D01*
X131970000Y-60170000D02*
X129200000Y-57400000D01*
X133000000Y-61440000D02*
X132960000Y-61440000D01*
X132960000Y-61440000D02*
X131400000Y-63000000D01*
X131400000Y-63000000D02*
X131400000Y-67380000D01*
X131400000Y-67380000D02*
X134400000Y-70380000D01*
X160570000Y-60270000D02*
X160830000Y-60270000D01*
X160830000Y-60270000D02*
X163500000Y-57800000D01*
X163500000Y-57800000D02*
X163500000Y-53100000D01*
X163500000Y-53100000D02*
X160400000Y-49800000D01*
X160400000Y-49800000D02*
X160400000Y-46700000D01*
X160400000Y-46700000D02*
X162100000Y-44500000D01*
X159300000Y-61540000D02*
X159340000Y-61540000D01*
X159340000Y-61540000D02*
X162200000Y-64400000D01*
X162200000Y-64400000D02*
X162200000Y-67880000D01*
X162200000Y-67880000D02*
X159700000Y-70380000D01*
X157850000Y-63050000D02*
X157850000Y-58450000D01*
X161800000Y-57100000D02*
X162200000Y-54300000D01*
X161200000Y-57700000D02*
X161800000Y-57100000D01*
X158600000Y-57700000D02*
X161200000Y-57700000D01*
X157850000Y-58450000D02*
X158600000Y-57700000D01*
X160170000Y-65870000D02*
X160170000Y-63770000D01*
X158100000Y-63300000D02*
X157850000Y-63050000D01*
X157850000Y-63050000D02*
X157800000Y-63000000D01*
X159700000Y-63300000D02*
X158100000Y-63300000D01*
X160170000Y-63770000D02*
X159700000Y-63300000D01*
X158900000Y-67140000D02*
X158900000Y-68180000D01*
X158900000Y-68180000D02*
X156700000Y-70380000D01*
X155770000Y-60270000D02*
X155770000Y-59830000D01*
X155770000Y-59830000D02*
X156800000Y-58800000D01*
X156800000Y-58800000D02*
X156800000Y-58000000D01*
X156800000Y-58000000D02*
X158400000Y-56400000D01*
X158400000Y-56400000D02*
X159200000Y-56400000D01*
X159200000Y-56400000D02*
X160600000Y-55000000D01*
X160600000Y-55000000D02*
X160600000Y-53400000D01*
X160600000Y-53400000D02*
X157600000Y-50400000D01*
X157600000Y-50400000D02*
X157600000Y-45500000D01*
X157600000Y-45500000D02*
X158600000Y-44500000D01*
X158600000Y-44500000D02*
X159100000Y-44500000D01*
X154500000Y-61540000D02*
X154500000Y-62200000D01*
X156800000Y-67280000D02*
X153700000Y-70380000D01*
X156800000Y-64500000D02*
X156800000Y-67280000D01*
X154500000Y-62200000D02*
X156800000Y-64500000D01*
X155500000Y-57800000D02*
X155600000Y-57800000D01*
X157500000Y-55900000D02*
X159100000Y-54300000D01*
X155600000Y-57800000D02*
X157500000Y-55900000D01*
X155570000Y-65970000D02*
X153170000Y-65970000D01*
X153900000Y-57800000D02*
X155500000Y-57800000D01*
X153100000Y-58600000D02*
X153900000Y-57800000D01*
X153100000Y-65900000D02*
X153100000Y-58600000D01*
X153170000Y-65970000D02*
X153100000Y-65900000D01*
X154300000Y-67240000D02*
X153840000Y-67240000D01*
X153840000Y-67240000D02*
X150700000Y-70380000D01*
X149470000Y-82870000D02*
X149470000Y-80870000D01*
X147200000Y-68000000D02*
X147800000Y-67400000D01*
X147200000Y-78800000D02*
X147200000Y-68000000D01*
X147600000Y-79200000D02*
X147200000Y-78800000D01*
X147800000Y-79200000D02*
X147600000Y-79200000D01*
X149470000Y-80870000D02*
X147800000Y-79200000D01*
X148200000Y-84140000D02*
X148200000Y-84800000D01*
X147750000Y-85250000D02*
X147750000Y-87130000D01*
X148200000Y-84800000D02*
X147750000Y-85250000D01*
X145000000Y-58310000D02*
X145000000Y-59780000D01*
X141350000Y-54660000D02*
X145000000Y-58310000D01*
X141350000Y-42800000D02*
X141350000Y-54660000D01*
X143910000Y-40240000D02*
X141350000Y-42800000D01*
X145020000Y-40240000D02*
X143910000Y-40240000D01*
X145000000Y-59780000D02*
X145000000Y-59500000D01*
X150800000Y-59780000D02*
X150620000Y-59780000D01*
X150620000Y-59780000D02*
X149100000Y-62000000D01*
X149100000Y-62000000D02*
X144600000Y-62000000D01*
X144600000Y-62000000D02*
X143500000Y-60000000D01*
X143500000Y-60000000D02*
X143500000Y-59100000D01*
X143500000Y-59100000D02*
X142600000Y-58200000D01*
X142600000Y-58200000D02*
X142600000Y-57100000D01*
X142600000Y-57100000D02*
X140700000Y-54920000D01*
X140700000Y-54920000D02*
X140700000Y-40720000D01*
X140700000Y-40720000D02*
X137400000Y-37700000D01*
X137400000Y-40240000D02*
X137540000Y-40240000D01*
X137540000Y-40240000D02*
X139970000Y-42100000D01*
X139970000Y-42100000D02*
X139970000Y-55700000D01*
X139970000Y-55700000D02*
X142000000Y-58300000D01*
X142000000Y-58300000D02*
X142000000Y-59780000D01*
X137400000Y-45320000D02*
X137400000Y-45000000D01*
X137400000Y-45000000D02*
X135200000Y-42800000D01*
X135200000Y-42800000D02*
X135200000Y-38580000D01*
X135200000Y-38580000D02*
X133700000Y-37080000D01*
X145000000Y-94750000D02*
X144450000Y-94750000D01*
X144450000Y-94750000D02*
X142896000Y-96304000D01*
X142896000Y-96304000D02*
X142896000Y-99248000D01*
X150500000Y-94750000D02*
X150500000Y-95700000D01*
X151080000Y-96280000D02*
X151080000Y-101063000D01*
X150500000Y-95700000D02*
X151080000Y-96280000D01*
X142250000Y-94750000D02*
X142250000Y-95550000D01*
X142250000Y-95550000D02*
X140768000Y-97032000D01*
X140768000Y-97032000D02*
X140768000Y-101027000D01*
X139000000Y-79600000D02*
X136200000Y-82400000D01*
X136200000Y-82400000D02*
X136200000Y-82800000D01*
X142800000Y-78000000D02*
X142800000Y-78200000D01*
X142800000Y-78200000D02*
X141400000Y-79600000D01*
X141400000Y-79600000D02*
X139000000Y-79600000D01*
X136200000Y-82800000D02*
X136200000Y-88000000D01*
X136200000Y-88000000D02*
X138800000Y-90600000D01*
X138800000Y-90600000D02*
X138800000Y-102886000D01*
X138800000Y-102886000D02*
X139607000Y-103693000D01*
X140000000Y-78000000D02*
X139400000Y-78000000D01*
X139400000Y-78000000D02*
X138000000Y-79400000D01*
X138000000Y-79400000D02*
X137200000Y-79400000D01*
X137200000Y-79400000D02*
X134800000Y-81800000D01*
X134800000Y-81800000D02*
X134800000Y-88600000D01*
X134800000Y-88600000D02*
X137800000Y-91600000D01*
X137800000Y-91600000D02*
X137800000Y-104952000D01*
X137800000Y-104952000D02*
X139911000Y-107063000D01*
X137400000Y-50400000D02*
X137800000Y-50400000D01*
X137800000Y-50400000D02*
X138700000Y-49500000D01*
X138700000Y-49500000D02*
X138700000Y-47200000D01*
X138700000Y-47200000D02*
X138000000Y-46500000D01*
X138000000Y-46500000D02*
X136700000Y-46500000D01*
X136700000Y-46500000D02*
X135300000Y-45100000D01*
X135300000Y-45100000D02*
X135300000Y-43900000D01*
X135300000Y-43900000D02*
X131700000Y-40300000D01*
X131700000Y-40300000D02*
X131700000Y-37880000D01*
X131700000Y-37880000D02*
X130900000Y-37080000D01*
X136600000Y-106400000D02*
X136600000Y-106600000D01*
X136600000Y-92200000D02*
X136600000Y-106400000D01*
X133600000Y-89200000D02*
X136600000Y-92200000D01*
X133600000Y-81400000D02*
X133600000Y-89200000D01*
X137000000Y-78000000D02*
X133600000Y-81400000D01*
X139594000Y-109594000D02*
X141531000Y-109594000D01*
X136600000Y-106600000D02*
X139594000Y-109594000D01*
X137200000Y-78000000D02*
X137000000Y-78000000D01*
X134400000Y-78000000D02*
X134400000Y-79000000D01*
X140413000Y-111213000D02*
X144178000Y-111213000D01*
X135400000Y-106200000D02*
X140413000Y-111213000D01*
X135400000Y-92600000D02*
X135400000Y-106200000D01*
X132600000Y-89800000D02*
X135400000Y-92600000D01*
X132600000Y-80800000D02*
X132600000Y-89800000D01*
X134400000Y-79000000D02*
X132600000Y-80800000D01*
X159700000Y-78000000D02*
X159700000Y-79000000D01*
X153457000Y-111243000D02*
X147621000Y-111243000D01*
X157300000Y-107400000D02*
X153457000Y-111243000D01*
X157300000Y-89000000D02*
X157300000Y-107400000D01*
X159000000Y-87300000D02*
X157300000Y-89000000D01*
X159000000Y-79700000D02*
X159000000Y-87300000D01*
X159700000Y-79000000D02*
X159000000Y-79700000D01*
X156700000Y-78000000D02*
X156700000Y-79800000D01*
X152054000Y-109846000D02*
X150348000Y-109846000D01*
X155900000Y-106000000D02*
X152054000Y-109846000D01*
X155900000Y-88400000D02*
X155900000Y-106000000D01*
X157700000Y-86900000D02*
X155900000Y-88400000D01*
X157700000Y-80500000D02*
X157700000Y-86900000D01*
X156700000Y-79800000D02*
X157700000Y-80500000D01*
X137400000Y-52940000D02*
X138560000Y-52940000D01*
X160620000Y-35600000D02*
X162100000Y-36880000D01*
X137200000Y-35600000D02*
X160620000Y-35600000D01*
X135800000Y-36800000D02*
X137200000Y-35600000D01*
X135800000Y-41000000D02*
X135800000Y-36800000D01*
X136300000Y-41500000D02*
X135800000Y-41000000D01*
X138200000Y-41500000D02*
X136300000Y-41500000D01*
X139400000Y-42700000D02*
X138200000Y-41500000D01*
X139400000Y-52100000D02*
X139400000Y-42700000D01*
X138560000Y-52940000D02*
X139400000Y-52100000D01*
X162100000Y-36880000D02*
X162100000Y-37100000D01*
X153700000Y-78000000D02*
X153700000Y-78200000D01*
X153700000Y-78200000D02*
X156500000Y-80900000D01*
X156500000Y-80900000D02*
X156500000Y-85600000D01*
X156500000Y-85600000D02*
X154500000Y-87500000D01*
X154500000Y-87500000D02*
X154500000Y-104774000D01*
X154500000Y-104774000D02*
X152120000Y-107154000D01*
X150700000Y-78000000D02*
X150700000Y-78500000D01*
X150700000Y-78500000D02*
X151900000Y-79700000D01*
X151900000Y-79700000D02*
X153900000Y-79700000D01*
X153900000Y-79700000D02*
X155300000Y-81100000D01*
X155300000Y-81100000D02*
X155300000Y-85200000D01*
X155300000Y-85200000D02*
X152900000Y-87600000D01*
X152900000Y-87600000D02*
X152900000Y-103180000D01*
X152900000Y-103180000D02*
X152350000Y-103730000D01*
X147750000Y-94750000D02*
X147750000Y-95750000D01*
X148978000Y-96978000D02*
X148978000Y-99275000D01*
X147750000Y-95750000D02*
X148978000Y-96978000D01*
X159100000Y-36880000D02*
X159100000Y-36900000D01*
X159100000Y-36900000D02*
X157200000Y-38800000D01*
X157200000Y-38800000D02*
X152400000Y-38800000D01*
X152400000Y-38800000D02*
X151200000Y-37600000D01*
X151200000Y-37600000D02*
X148700000Y-37600000D01*
X148700000Y-40140000D02*
X149130000Y-40140000D01*
X149130000Y-40140000D02*
X150380000Y-41390000D01*
X160580000Y-45200000D02*
X159100000Y-46680000D01*
X160580000Y-42620000D02*
X160580000Y-45200000D01*
X159350000Y-41390000D02*
X160580000Y-42620000D01*
X150380000Y-41390000D02*
X159350000Y-41390000D01*
X147800000Y-59780000D02*
X148020000Y-59780000D01*
X148020000Y-59780000D02*
X149930000Y-57180000D01*
X149930000Y-57180000D02*
X149900000Y-44580000D01*
X149900000Y-44580000D02*
X148700000Y-42680000D01*
X156320000Y-42680000D02*
X156220000Y-42680000D01*
X156220000Y-42680000D02*
X154500000Y-44300000D01*
X146300000Y-56760000D02*
X145020000Y-55480000D01*
X146300000Y-60200000D02*
X146300000Y-56760000D01*
X147100000Y-61000000D02*
X146300000Y-60200000D01*
X148600000Y-61000000D02*
X147100000Y-61000000D01*
X149300000Y-60300000D02*
X148600000Y-61000000D01*
X149300000Y-59600000D02*
X149300000Y-60300000D01*
X150570000Y-57700000D02*
X149300000Y-59600000D01*
X150600000Y-45000000D02*
X150570000Y-57700000D01*
X151300000Y-44300000D02*
X150600000Y-45000000D01*
X154500000Y-44300000D02*
X151300000Y-44300000D01*
X156320000Y-42680000D02*
X156320000Y-42720000D01*
X181070000Y-80930000D02*
X182600000Y-79400000D01*
X182600000Y-79400000D02*
X182600000Y-69000000D01*
X182600000Y-69000000D02*
X181000000Y-67400000D01*
X181070000Y-82670000D02*
X181070000Y-80930000D01*
X181000000Y-85000000D02*
X181000000Y-87130000D01*
X179940000Y-83940000D02*
X181000000Y-85000000D01*
X179800000Y-83940000D02*
X179940000Y-83940000D01*
X189400000Y-80500000D02*
X189870000Y-80970000D01*
X189870000Y-80970000D02*
X189870000Y-81270000D01*
X189870000Y-82870000D02*
X189870000Y-81270000D01*
X186000000Y-80500000D02*
X189100000Y-80500000D01*
X186000000Y-80500000D02*
X183800000Y-78200000D01*
X183800000Y-78200000D02*
X183800000Y-70400000D01*
X183800000Y-70400000D02*
X186800000Y-67400000D01*
X189100000Y-80500000D02*
X189400000Y-80500000D01*
X187260000Y-84140000D02*
X186500000Y-84900000D01*
X186500000Y-84900000D02*
X186500000Y-87130000D01*
X188600000Y-84140000D02*
X187260000Y-84140000D01*
X176470000Y-81530000D02*
X177800000Y-80200000D01*
X177800000Y-80200000D02*
X180800000Y-80200000D01*
X180800000Y-80200000D02*
X182000000Y-79000000D01*
X182000000Y-79000000D02*
X182000000Y-69600000D01*
X182000000Y-69600000D02*
X181200000Y-68800000D01*
X181200000Y-68800000D02*
X179400000Y-68800000D01*
X179400000Y-68800000D02*
X178000000Y-67400000D01*
X176470000Y-82670000D02*
X176470000Y-81530000D01*
X176340000Y-83940000D02*
X178250000Y-85850000D01*
X178250000Y-85850000D02*
X178250000Y-87130000D01*
X175200000Y-83940000D02*
X176340000Y-83940000D01*
X172300000Y-57200000D02*
X169900000Y-54800000D01*
X175100000Y-57200000D02*
X172300000Y-57200000D01*
X176300000Y-58400000D02*
X175100000Y-57200000D01*
X176300000Y-64100000D02*
X176300000Y-58400000D01*
X174870000Y-65530000D02*
X176300000Y-64100000D01*
X174870000Y-65570000D02*
X174870000Y-65530000D01*
X175560000Y-68800000D02*
X173600000Y-66840000D01*
X177300000Y-68800000D02*
X175560000Y-68800000D01*
X178800000Y-70300000D02*
X177300000Y-68800000D01*
X178800000Y-70380000D02*
X178800000Y-70300000D01*
X174800000Y-59900000D02*
X174870000Y-59970000D01*
X172600000Y-59900000D02*
X174800000Y-59900000D01*
X172200000Y-59500000D02*
X172600000Y-59900000D01*
X172200000Y-58400000D02*
X172200000Y-59500000D01*
X170500000Y-56700000D02*
X172200000Y-58400000D01*
X169300000Y-56700000D02*
X170500000Y-56700000D01*
X168200000Y-55600000D02*
X169300000Y-56700000D01*
X168200000Y-51600000D02*
X168200000Y-55600000D01*
X171400000Y-48400000D02*
X168200000Y-51600000D01*
X171400000Y-46700000D02*
X171400000Y-48400000D01*
X169700000Y-45000000D02*
X171400000Y-46700000D01*
X169700000Y-44700000D02*
X169700000Y-45000000D01*
X171600000Y-63240000D02*
X173600000Y-61240000D01*
X171600000Y-67300000D02*
X171600000Y-63240000D01*
X172700000Y-68400000D02*
X171600000Y-67300000D01*
X173800000Y-68400000D02*
X172700000Y-68400000D01*
X175780000Y-70380000D02*
X173800000Y-68400000D01*
X176000000Y-70380000D02*
X175780000Y-70380000D01*
X170170000Y-63130000D02*
X171400000Y-61900000D01*
X171400000Y-61900000D02*
X171400000Y-59100000D01*
X171400000Y-59100000D02*
X169900000Y-57600000D01*
X169900000Y-57600000D02*
X168900000Y-57600000D01*
X168900000Y-57600000D02*
X166100000Y-54800000D01*
X170170000Y-65670000D02*
X170170000Y-63130000D01*
X169760000Y-66940000D02*
X173200000Y-70380000D01*
X168900000Y-66940000D02*
X169760000Y-66940000D01*
X167970000Y-60170000D02*
X165200000Y-57400000D01*
X165200000Y-57400000D02*
X165200000Y-53000000D01*
X165200000Y-53000000D02*
X168200000Y-50000000D01*
X168200000Y-50000000D02*
X168200000Y-46000000D01*
X168200000Y-46000000D02*
X166900000Y-44700000D01*
X170270000Y-60170000D02*
X167970000Y-60170000D01*
X167400000Y-67380000D02*
X170400000Y-70380000D01*
X167400000Y-63000000D02*
X167400000Y-67380000D01*
X168960000Y-61440000D02*
X167400000Y-63000000D01*
X169000000Y-61440000D02*
X168960000Y-61440000D01*
X196400000Y-46700000D02*
X198100000Y-44500000D01*
X196400000Y-49800000D02*
X196400000Y-46700000D01*
X199500000Y-53100000D02*
X196400000Y-49800000D01*
X199500000Y-57800000D02*
X199500000Y-53100000D01*
X196830000Y-60270000D02*
X199500000Y-57800000D01*
X196570000Y-60270000D02*
X196830000Y-60270000D01*
X198200000Y-67880000D02*
X195700000Y-70380000D01*
X198200000Y-64400000D02*
X198200000Y-67880000D01*
X195340000Y-61540000D02*
X198200000Y-64400000D01*
X195300000Y-61540000D02*
X195340000Y-61540000D01*
X196170000Y-63770000D02*
X195700000Y-63300000D01*
X195700000Y-63300000D02*
X194100000Y-63300000D01*
X193850000Y-63050000D02*
X193800000Y-63000000D01*
X194100000Y-63300000D02*
X193850000Y-63050000D01*
X196170000Y-65870000D02*
X196170000Y-63770000D01*
X193850000Y-58450000D02*
X194600000Y-57700000D01*
X194600000Y-57700000D02*
X197200000Y-57700000D01*
X197200000Y-57700000D02*
X197800000Y-57100000D01*
X197800000Y-57100000D02*
X198200000Y-54300000D01*
X193850000Y-63050000D02*
X193850000Y-58450000D01*
X194900000Y-68180000D02*
X192700000Y-70380000D01*
X194900000Y-67140000D02*
X194900000Y-68180000D01*
X194600000Y-44500000D02*
X195100000Y-44500000D01*
X193600000Y-45500000D02*
X194600000Y-44500000D01*
X193600000Y-50400000D02*
X193600000Y-45500000D01*
X196600000Y-53400000D02*
X193600000Y-50400000D01*
X196600000Y-55000000D02*
X196600000Y-53400000D01*
X195200000Y-56400000D02*
X196600000Y-55000000D01*
X194400000Y-56400000D02*
X195200000Y-56400000D01*
X192800000Y-58000000D02*
X194400000Y-56400000D01*
X192800000Y-58800000D02*
X192800000Y-58000000D01*
X191770000Y-59830000D02*
X192800000Y-58800000D01*
X191770000Y-60270000D02*
X191770000Y-59830000D01*
X190500000Y-62200000D02*
X192800000Y-64500000D01*
X192800000Y-64500000D02*
X192800000Y-67280000D01*
X192800000Y-67280000D02*
X189700000Y-70380000D01*
X190500000Y-61540000D02*
X190500000Y-62200000D01*
X189170000Y-65970000D02*
X189100000Y-65900000D01*
X189100000Y-65900000D02*
X189100000Y-58600000D01*
X189100000Y-58600000D02*
X189900000Y-57800000D01*
X189900000Y-57800000D02*
X191500000Y-57800000D01*
X191570000Y-65970000D02*
X189170000Y-65970000D01*
X191600000Y-57800000D02*
X193500000Y-55900000D01*
X193500000Y-55900000D02*
X195100000Y-54300000D01*
X191500000Y-57800000D02*
X191600000Y-57800000D01*
X189840000Y-67240000D02*
X186700000Y-70380000D01*
X190300000Y-67240000D02*
X189840000Y-67240000D01*
X185470000Y-80870000D02*
X183800000Y-79200000D01*
X183800000Y-79200000D02*
X183600000Y-79200000D01*
X183600000Y-79200000D02*
X183200000Y-78800000D01*
X183200000Y-78800000D02*
X183200000Y-68000000D01*
X183200000Y-68000000D02*
X183800000Y-67400000D01*
X185470000Y-82870000D02*
X185470000Y-80870000D01*
X184200000Y-84800000D02*
X183750000Y-85250000D01*
X183750000Y-85250000D02*
X183750000Y-87130000D01*
X184200000Y-84140000D02*
X184200000Y-84800000D01*
X181020000Y-40240000D02*
X178920000Y-40240000D01*
X181000000Y-58080000D02*
X181000000Y-59780000D01*
X177290002Y-54370002D02*
X181000000Y-58080000D01*
X177290002Y-41869998D02*
X177290002Y-54370002D01*
X178920000Y-40240000D02*
X177290002Y-41869998D01*
X181000000Y-59780000D02*
X181000000Y-59500000D01*
X176740000Y-40740000D02*
X173400000Y-37700000D01*
X176740000Y-54940000D02*
X176740000Y-40740000D01*
X178600000Y-57100000D02*
X176740000Y-54940000D01*
X178600000Y-58200000D02*
X178600000Y-57100000D01*
X179500000Y-59100000D02*
X178600000Y-58200000D01*
X179500000Y-60000000D02*
X179500000Y-59100000D01*
X180600000Y-62000000D02*
X179500000Y-60000000D01*
X185100000Y-62000000D02*
X180600000Y-62000000D01*
X186620000Y-59780000D02*
X185100000Y-62000000D01*
X186800000Y-59780000D02*
X186620000Y-59780000D01*
X178000000Y-58300000D02*
X178000000Y-59780000D01*
X176080000Y-55530000D02*
X178000000Y-58300000D01*
X176080000Y-41930000D02*
X176080000Y-55530000D01*
X173540000Y-40240000D02*
X176080000Y-41930000D01*
X173400000Y-40240000D02*
X173540000Y-40240000D01*
X171200000Y-38580000D02*
X169700000Y-37080000D01*
X171200000Y-42800000D02*
X171200000Y-38580000D01*
X173400000Y-45000000D02*
X171200000Y-42800000D01*
X173400000Y-45320000D02*
X173400000Y-45000000D01*
X178896000Y-96304000D02*
X178896000Y-99248000D01*
X180450000Y-94750000D02*
X178896000Y-96304000D01*
X181000000Y-94750000D02*
X180450000Y-94750000D01*
X186500000Y-95700000D02*
X187080000Y-96280000D01*
X187080000Y-96280000D02*
X187080000Y-101063000D01*
X186500000Y-94750000D02*
X186500000Y-95700000D01*
X176768000Y-97032000D02*
X176768000Y-101027000D01*
X178250000Y-95550000D02*
X176768000Y-97032000D01*
X178250000Y-94750000D02*
X178250000Y-95550000D01*
X174800000Y-102886000D02*
X175607000Y-103693000D01*
X174800000Y-90600000D02*
X174800000Y-102886000D01*
X172200000Y-88000000D02*
X174800000Y-90600000D01*
X172200000Y-82800000D02*
X172200000Y-88000000D01*
X177400000Y-79600000D02*
X175000000Y-79600000D01*
X178800000Y-78200000D02*
X177400000Y-79600000D01*
X178800000Y-78000000D02*
X178800000Y-78200000D01*
X172200000Y-82400000D02*
X172200000Y-82800000D01*
X175000000Y-79600000D02*
X172200000Y-82400000D01*
X173800000Y-104952000D02*
X175911000Y-107063000D01*
X173800000Y-91600000D02*
X173800000Y-104952000D01*
X170800000Y-88600000D02*
X173800000Y-91600000D01*
X170800000Y-81800000D02*
X170800000Y-88600000D01*
X173200000Y-79400000D02*
X170800000Y-81800000D01*
X174000000Y-79400000D02*
X173200000Y-79400000D01*
X175400000Y-78000000D02*
X174000000Y-79400000D01*
X176000000Y-78000000D02*
X175400000Y-78000000D01*
X167700000Y-37880000D02*
X166900000Y-37080000D01*
X167700000Y-40300000D02*
X167700000Y-37880000D01*
X171300000Y-43900000D02*
X167700000Y-40300000D01*
X171300000Y-45100000D02*
X171300000Y-43900000D01*
X172700000Y-46500000D02*
X171300000Y-45100000D01*
X174000000Y-46500000D02*
X172700000Y-46500000D01*
X174700000Y-47200000D02*
X174000000Y-46500000D01*
X174700000Y-49500000D02*
X174700000Y-47200000D01*
X173800000Y-50400000D02*
X174700000Y-49500000D01*
X173400000Y-50400000D02*
X173800000Y-50400000D01*
X173200000Y-78000000D02*
X173000000Y-78000000D01*
X172600000Y-106600000D02*
X175594000Y-109594000D01*
X175594000Y-109594000D02*
X177531000Y-109594000D01*
X173000000Y-78000000D02*
X169600000Y-81400000D01*
X169600000Y-81400000D02*
X169600000Y-89200000D01*
X169600000Y-89200000D02*
X172600000Y-92200000D01*
X172600000Y-92200000D02*
X172600000Y-106400000D01*
X172600000Y-106400000D02*
X172600000Y-106600000D01*
X170400000Y-79000000D02*
X168600000Y-80800000D01*
X168600000Y-80800000D02*
X168600000Y-89800000D01*
X168600000Y-89800000D02*
X171400000Y-92600000D01*
X171400000Y-92600000D02*
X171400000Y-106200000D01*
X171400000Y-106200000D02*
X176413000Y-111213000D01*
X176413000Y-111213000D02*
X180178000Y-111213000D01*
X170400000Y-78000000D02*
X170400000Y-79000000D01*
X195700000Y-79000000D02*
X195000000Y-79700000D01*
X195000000Y-79700000D02*
X195000000Y-87300000D01*
X195000000Y-87300000D02*
X193300000Y-89000000D01*
X193300000Y-89000000D02*
X193300000Y-107400000D01*
X193300000Y-107400000D02*
X189457000Y-111243000D01*
X189457000Y-111243000D02*
X183621000Y-111243000D01*
X195700000Y-78000000D02*
X195700000Y-79000000D01*
X192700000Y-79800000D02*
X193700000Y-80500000D01*
X193700000Y-80500000D02*
X193700000Y-86900000D01*
X193700000Y-86900000D02*
X191900000Y-88400000D01*
X191900000Y-88400000D02*
X191900000Y-106000000D01*
X191900000Y-106000000D02*
X188054000Y-109846000D01*
X188054000Y-109846000D02*
X186348000Y-109846000D01*
X192700000Y-78000000D02*
X192700000Y-79800000D01*
X198100000Y-36880000D02*
X198100000Y-37100000D01*
X174560000Y-52940000D02*
X175400000Y-52100000D01*
X175400000Y-52100000D02*
X175400000Y-42700000D01*
X175400000Y-42700000D02*
X174200000Y-41500000D01*
X174200000Y-41500000D02*
X172300000Y-41500000D01*
X172300000Y-41500000D02*
X171800000Y-41000000D01*
X171800000Y-41000000D02*
X171800000Y-36800000D01*
X171800000Y-36800000D02*
X173200000Y-35600000D01*
X173200000Y-35600000D02*
X196620000Y-35600000D01*
X196620000Y-35600000D02*
X198100000Y-36880000D01*
X173400000Y-52940000D02*
X174560000Y-52940000D01*
X190500000Y-104774000D02*
X188120000Y-107154000D01*
X190500000Y-87500000D02*
X190500000Y-104774000D01*
X192500000Y-85600000D02*
X190500000Y-87500000D01*
X192500000Y-80900000D02*
X192500000Y-85600000D01*
X189700000Y-78200000D02*
X192500000Y-80900000D01*
X189700000Y-78000000D02*
X189700000Y-78200000D01*
X188900000Y-103180000D02*
X188350000Y-103730000D01*
X188900000Y-87600000D02*
X188900000Y-103180000D01*
X191300000Y-85200000D02*
X188900000Y-87600000D01*
X191300000Y-81100000D02*
X191300000Y-85200000D01*
X189900000Y-79700000D02*
X191300000Y-81100000D01*
X187900000Y-79700000D02*
X189900000Y-79700000D01*
X186700000Y-78500000D02*
X187900000Y-79700000D01*
X186700000Y-78000000D02*
X186700000Y-78500000D01*
X183750000Y-95750000D02*
X184978000Y-96978000D01*
X184978000Y-96978000D02*
X184978000Y-99275000D01*
X183750000Y-94750000D02*
X183750000Y-95750000D01*
X187200000Y-37600000D02*
X184700000Y-37600000D01*
X188400000Y-38800000D02*
X187200000Y-37600000D01*
X193200000Y-38800000D02*
X188400000Y-38800000D01*
X195100000Y-36900000D02*
X193200000Y-38800000D01*
X195100000Y-36880000D02*
X195100000Y-36900000D01*
X184700000Y-40140000D02*
X185200000Y-40140000D01*
X185200000Y-40140000D02*
X186420000Y-41360000D01*
X196710000Y-45070000D02*
X195100000Y-46680000D01*
X196710000Y-42580000D02*
X196710000Y-45070000D01*
X195490000Y-41360000D02*
X196710000Y-42580000D01*
X186420000Y-41360000D02*
X195490000Y-41360000D01*
X185900000Y-44580000D02*
X184700000Y-42680000D01*
X185910000Y-57150000D02*
X185900000Y-44580000D01*
X184020000Y-59780000D02*
X185910000Y-57150000D01*
X183800000Y-59780000D02*
X184020000Y-59780000D01*
X192320000Y-42680000D02*
X192320000Y-42720000D01*
X190500000Y-44300000D02*
X187300000Y-44300000D01*
X187300000Y-44300000D02*
X186600000Y-45000000D01*
X186600000Y-45000000D02*
X186560000Y-57740000D01*
X186560000Y-57740000D02*
X185300000Y-59600000D01*
X185300000Y-59600000D02*
X185300000Y-60300000D01*
X185300000Y-60300000D02*
X184600000Y-61000000D01*
X184600000Y-61000000D02*
X183100000Y-61000000D01*
X183100000Y-61000000D02*
X182300000Y-60200000D01*
X182300000Y-60200000D02*
X182300000Y-56760000D01*
X182300000Y-56760000D02*
X181020000Y-55480000D01*
X192220000Y-42680000D02*
X190500000Y-44300000D01*
X192320000Y-42680000D02*
X192220000Y-42680000D01*
X217070000Y-82670000D02*
X217070000Y-80930000D01*
X218600000Y-69000000D02*
X217000000Y-67400000D01*
X218600000Y-79400000D02*
X218600000Y-69000000D01*
X217070000Y-80930000D02*
X218600000Y-79400000D01*
X215800000Y-83940000D02*
X215940000Y-83940000D01*
X215940000Y-83940000D02*
X217000000Y-85000000D01*
X217000000Y-85000000D02*
X217000000Y-87130000D01*
X225100000Y-80500000D02*
X225400000Y-80500000D01*
X219800000Y-70400000D02*
X222800000Y-67400000D01*
X219800000Y-78200000D02*
X219800000Y-70400000D01*
X222000000Y-80500000D02*
X219800000Y-78200000D01*
X222000000Y-80500000D02*
X225100000Y-80500000D01*
X225870000Y-82870000D02*
X225870000Y-81270000D01*
X225870000Y-80970000D02*
X225870000Y-81270000D01*
X225400000Y-80500000D02*
X225870000Y-80970000D01*
X224600000Y-84140000D02*
X223260000Y-84140000D01*
X222500000Y-84900000D02*
X222500000Y-87130000D01*
X223260000Y-84140000D02*
X222500000Y-84900000D01*
X212470000Y-82670000D02*
X212470000Y-81530000D01*
X215400000Y-68800000D02*
X214000000Y-67400000D01*
X217200000Y-68800000D02*
X215400000Y-68800000D01*
X218000000Y-69600000D02*
X217200000Y-68800000D01*
X218000000Y-79000000D02*
X218000000Y-69600000D01*
X216800000Y-80200000D02*
X218000000Y-79000000D01*
X213800000Y-80200000D02*
X216800000Y-80200000D01*
X212470000Y-81530000D02*
X213800000Y-80200000D01*
X211200000Y-83940000D02*
X212340000Y-83940000D01*
X214250000Y-85850000D02*
X214250000Y-87130000D01*
X212340000Y-83940000D02*
X214250000Y-85850000D01*
X210870000Y-65570000D02*
X210870000Y-65530000D01*
X210870000Y-65530000D02*
X212300000Y-64100000D01*
X212300000Y-64100000D02*
X212300000Y-58400000D01*
X212300000Y-58400000D02*
X211100000Y-57200000D01*
X211100000Y-57200000D02*
X208300000Y-57200000D01*
X208300000Y-57200000D02*
X205900000Y-54800000D01*
X214800000Y-70380000D02*
X214800000Y-70300000D01*
X214800000Y-70300000D02*
X213300000Y-68800000D01*
X213300000Y-68800000D02*
X211560000Y-68800000D01*
X211560000Y-68800000D02*
X209600000Y-66840000D01*
X205700000Y-44700000D02*
X205700000Y-45000000D01*
X205700000Y-45000000D02*
X207400000Y-46700000D01*
X207400000Y-46700000D02*
X207400000Y-48400000D01*
X207400000Y-48400000D02*
X204200000Y-51600000D01*
X204200000Y-51600000D02*
X204200000Y-55600000D01*
X204200000Y-55600000D02*
X205300000Y-56700000D01*
X205300000Y-56700000D02*
X206500000Y-56700000D01*
X206500000Y-56700000D02*
X208200000Y-58400000D01*
X208200000Y-58400000D02*
X208200000Y-59500000D01*
X208200000Y-59500000D02*
X208600000Y-59900000D01*
X208600000Y-59900000D02*
X210800000Y-59900000D01*
X210800000Y-59900000D02*
X210870000Y-59970000D01*
X212000000Y-70380000D02*
X211780000Y-70380000D01*
X211780000Y-70380000D02*
X209800000Y-68400000D01*
X209800000Y-68400000D02*
X208700000Y-68400000D01*
X208700000Y-68400000D02*
X207600000Y-67300000D01*
X207600000Y-67300000D02*
X207600000Y-63240000D01*
X207600000Y-63240000D02*
X209600000Y-61240000D01*
X206170000Y-65670000D02*
X206170000Y-63130000D01*
X204900000Y-57600000D02*
X202100000Y-54800000D01*
X205900000Y-57600000D02*
X204900000Y-57600000D01*
X207400000Y-59100000D02*
X205900000Y-57600000D01*
X207400000Y-61900000D02*
X207400000Y-59100000D01*
X206170000Y-63130000D02*
X207400000Y-61900000D01*
X204900000Y-66940000D02*
X205760000Y-66940000D01*
X205760000Y-66940000D02*
X209200000Y-70380000D01*
X206270000Y-60170000D02*
X203970000Y-60170000D01*
X204200000Y-46000000D02*
X202900000Y-44700000D01*
X204200000Y-50000000D02*
X204200000Y-46000000D01*
X201200000Y-53000000D02*
X204200000Y-50000000D01*
X201200000Y-57400000D02*
X201200000Y-53000000D01*
X203970000Y-60170000D02*
X201200000Y-57400000D01*
X205000000Y-61440000D02*
X204960000Y-61440000D01*
X204960000Y-61440000D02*
X203400000Y-63000000D01*
X203400000Y-63000000D02*
X203400000Y-67380000D01*
X203400000Y-67380000D02*
X206400000Y-70380000D01*
X232570000Y-60270000D02*
X232830000Y-60270000D01*
X232830000Y-60270000D02*
X235500000Y-57800000D01*
X235500000Y-57800000D02*
X235500000Y-53100000D01*
X235500000Y-53100000D02*
X232400000Y-49800000D01*
X232400000Y-49800000D02*
X232400000Y-46700000D01*
X232400000Y-46700000D02*
X234100000Y-44500000D01*
X231300000Y-61540000D02*
X231340000Y-61540000D01*
X231340000Y-61540000D02*
X234200000Y-64400000D01*
X234200000Y-64400000D02*
X234200000Y-67880000D01*
X234200000Y-67880000D02*
X231700000Y-70380000D01*
X229850000Y-63050000D02*
X229850000Y-58450000D01*
X233800000Y-57100000D02*
X234200000Y-54300000D01*
X233200000Y-57700000D02*
X233800000Y-57100000D01*
X230600000Y-57700000D02*
X233200000Y-57700000D01*
X229850000Y-58450000D02*
X230600000Y-57700000D01*
X232170000Y-65870000D02*
X232170000Y-63770000D01*
X230100000Y-63300000D02*
X229850000Y-63050000D01*
X229850000Y-63050000D02*
X229800000Y-63000000D01*
X231700000Y-63300000D02*
X230100000Y-63300000D01*
X232170000Y-63770000D02*
X231700000Y-63300000D01*
X230900000Y-67140000D02*
X230900000Y-68180000D01*
X230900000Y-68180000D02*
X228700000Y-70380000D01*
X227770000Y-60270000D02*
X227770000Y-59830000D01*
X227770000Y-59830000D02*
X228800000Y-58800000D01*
X228800000Y-58800000D02*
X228800000Y-58000000D01*
X228800000Y-58000000D02*
X230400000Y-56400000D01*
X230400000Y-56400000D02*
X231200000Y-56400000D01*
X231200000Y-56400000D02*
X232600000Y-55000000D01*
X232600000Y-55000000D02*
X232600000Y-53400000D01*
X232600000Y-53400000D02*
X229600000Y-50400000D01*
X229600000Y-50400000D02*
X229600000Y-45500000D01*
X229600000Y-45500000D02*
X230600000Y-44500000D01*
X230600000Y-44500000D02*
X231100000Y-44500000D01*
X226500000Y-61540000D02*
X226500000Y-62200000D01*
X228800000Y-67280000D02*
X225700000Y-70380000D01*
X228800000Y-64500000D02*
X228800000Y-67280000D01*
X226500000Y-62200000D02*
X228800000Y-64500000D01*
X227500000Y-57800000D02*
X227600000Y-57800000D01*
X229500000Y-55900000D02*
X231100000Y-54300000D01*
X227600000Y-57800000D02*
X229500000Y-55900000D01*
X227570000Y-65970000D02*
X225170000Y-65970000D01*
X225900000Y-57800000D02*
X227500000Y-57800000D01*
X225100000Y-58600000D02*
X225900000Y-57800000D01*
X225100000Y-65900000D02*
X225100000Y-58600000D01*
X225170000Y-65970000D02*
X225100000Y-65900000D01*
X226300000Y-67240000D02*
X225840000Y-67240000D01*
X225840000Y-67240000D02*
X222700000Y-70380000D01*
X221470000Y-82870000D02*
X221470000Y-80870000D01*
X219200000Y-68000000D02*
X219800000Y-67400000D01*
X219200000Y-78800000D02*
X219200000Y-68000000D01*
X219600000Y-79200000D02*
X219200000Y-78800000D01*
X219800000Y-79200000D02*
X219600000Y-79200000D01*
X221470000Y-80870000D02*
X219800000Y-79200000D01*
X220200000Y-84140000D02*
X220200000Y-84800000D01*
X219750000Y-85250000D02*
X219750000Y-87130000D01*
X220200000Y-84800000D02*
X219750000Y-85250000D01*
X217020000Y-40240000D02*
X214860000Y-40240000D01*
X217000000Y-58220000D02*
X217000000Y-59780000D01*
X213200002Y-54420002D02*
X217000000Y-58220000D01*
X213200002Y-41899998D02*
X213200002Y-54420002D01*
X214860000Y-40240000D02*
X213200002Y-41899998D01*
X217000000Y-59780000D02*
X217000000Y-59500000D01*
X222800000Y-59780000D02*
X222620000Y-59780000D01*
X222620000Y-59780000D02*
X221100000Y-62000000D01*
X221100000Y-62000000D02*
X216600000Y-62000000D01*
X216600000Y-62000000D02*
X215500000Y-60000000D01*
X215500000Y-60000000D02*
X215500000Y-59100000D01*
X215500000Y-59100000D02*
X214600000Y-58200000D01*
X214600000Y-58200000D02*
X214600000Y-57100000D01*
X214600000Y-57100000D02*
X212650000Y-54800000D01*
X212650000Y-54800000D02*
X212650000Y-40600000D01*
X212650000Y-40600000D02*
X209400000Y-37700000D01*
X209400000Y-40240000D02*
X209540000Y-40240000D01*
X209540000Y-40240000D02*
X211970000Y-42040000D01*
X211970000Y-42040000D02*
X211970000Y-55640000D01*
X211970000Y-55640000D02*
X214000000Y-58300000D01*
X214000000Y-58300000D02*
X214000000Y-59780000D01*
X209400000Y-45320000D02*
X209400000Y-45000000D01*
X209400000Y-45000000D02*
X207200000Y-42800000D01*
X207200000Y-42800000D02*
X207200000Y-38580000D01*
X207200000Y-38580000D02*
X205700000Y-37080000D01*
X217000000Y-94750000D02*
X216450000Y-94750000D01*
X216450000Y-94750000D02*
X214896000Y-96304000D01*
X214896000Y-96304000D02*
X214896000Y-99248000D01*
X222500000Y-94750000D02*
X222500000Y-95700000D01*
X223080000Y-96280000D02*
X223080000Y-101063000D01*
X222500000Y-95700000D02*
X223080000Y-96280000D01*
X214250000Y-94750000D02*
X214250000Y-95550000D01*
X214250000Y-95550000D02*
X212768000Y-97032000D01*
X212768000Y-97032000D02*
X212768000Y-101027000D01*
X211000000Y-79600000D02*
X208200000Y-82400000D01*
X208200000Y-82400000D02*
X208200000Y-82800000D01*
X214800000Y-78000000D02*
X214800000Y-78200000D01*
X214800000Y-78200000D02*
X213400000Y-79600000D01*
X213400000Y-79600000D02*
X211000000Y-79600000D01*
X208200000Y-82800000D02*
X208200000Y-88000000D01*
X208200000Y-88000000D02*
X210800000Y-90600000D01*
X210800000Y-90600000D02*
X210800000Y-102886000D01*
X210800000Y-102886000D02*
X211607000Y-103693000D01*
X212000000Y-78000000D02*
X211400000Y-78000000D01*
X211400000Y-78000000D02*
X210000000Y-79400000D01*
X210000000Y-79400000D02*
X209200000Y-79400000D01*
X209200000Y-79400000D02*
X206800000Y-81800000D01*
X206800000Y-81800000D02*
X206800000Y-88600000D01*
X206800000Y-88600000D02*
X209800000Y-91600000D01*
X209800000Y-91600000D02*
X209800000Y-104952000D01*
X209800000Y-104952000D02*
X211911000Y-107063000D01*
X209400000Y-50400000D02*
X209800000Y-50400000D01*
X209800000Y-50400000D02*
X210700000Y-49500000D01*
X210700000Y-49500000D02*
X210700000Y-47200000D01*
X210700000Y-47200000D02*
X210000000Y-46500000D01*
X210000000Y-46500000D02*
X208700000Y-46500000D01*
X208700000Y-46500000D02*
X207300000Y-45100000D01*
X207300000Y-45100000D02*
X207300000Y-43900000D01*
X207300000Y-43900000D02*
X203700000Y-40300000D01*
X203700000Y-40300000D02*
X203700000Y-37880000D01*
X203700000Y-37880000D02*
X202900000Y-37080000D01*
X208600000Y-106400000D02*
X208600000Y-106600000D01*
X208600000Y-92200000D02*
X208600000Y-106400000D01*
X205600000Y-89200000D02*
X208600000Y-92200000D01*
X205600000Y-81400000D02*
X205600000Y-89200000D01*
X209000000Y-78000000D02*
X205600000Y-81400000D01*
X211594000Y-109594000D02*
X213531000Y-109594000D01*
X208600000Y-106600000D02*
X211594000Y-109594000D01*
X209200000Y-78000000D02*
X209000000Y-78000000D01*
X206400000Y-78000000D02*
X206400000Y-79000000D01*
X212413000Y-111213000D02*
X216178000Y-111213000D01*
X207400000Y-106200000D02*
X212413000Y-111213000D01*
X207400000Y-92600000D02*
X207400000Y-106200000D01*
X204600000Y-89800000D02*
X207400000Y-92600000D01*
X204600000Y-80800000D02*
X204600000Y-89800000D01*
X206400000Y-79000000D02*
X204600000Y-80800000D01*
X231700000Y-78000000D02*
X231700000Y-79000000D01*
X225457000Y-111243000D02*
X219621000Y-111243000D01*
X229300000Y-107400000D02*
X225457000Y-111243000D01*
X229300000Y-89000000D02*
X229300000Y-107400000D01*
X231000000Y-87300000D02*
X229300000Y-89000000D01*
X231000000Y-79700000D02*
X231000000Y-87300000D01*
X231700000Y-79000000D02*
X231000000Y-79700000D01*
X228700000Y-78000000D02*
X228700000Y-79800000D01*
X224054000Y-109846000D02*
X222348000Y-109846000D01*
X227900000Y-106000000D02*
X224054000Y-109846000D01*
X227900000Y-88400000D02*
X227900000Y-106000000D01*
X229700000Y-86900000D02*
X227900000Y-88400000D01*
X229700000Y-80500000D02*
X229700000Y-86900000D01*
X228700000Y-79800000D02*
X229700000Y-80500000D01*
X209400000Y-52940000D02*
X210560000Y-52940000D01*
X232620000Y-35600000D02*
X234100000Y-36880000D01*
X209200000Y-35600000D02*
X232620000Y-35600000D01*
X207800000Y-36800000D02*
X209200000Y-35600000D01*
X207800000Y-41000000D02*
X207800000Y-36800000D01*
X208300000Y-41500000D02*
X207800000Y-41000000D01*
X210200000Y-41500000D02*
X208300000Y-41500000D01*
X211400000Y-42700000D02*
X210200000Y-41500000D01*
X211400000Y-52100000D02*
X211400000Y-42700000D01*
X210560000Y-52940000D02*
X211400000Y-52100000D01*
X234100000Y-36880000D02*
X234100000Y-37100000D01*
X225700000Y-78000000D02*
X225700000Y-78200000D01*
X225700000Y-78200000D02*
X228500000Y-80900000D01*
X228500000Y-80900000D02*
X228500000Y-85600000D01*
X228500000Y-85600000D02*
X226500000Y-87500000D01*
X226500000Y-87500000D02*
X226500000Y-104774000D01*
X226500000Y-104774000D02*
X224120000Y-107154000D01*
X222700000Y-78000000D02*
X222700000Y-78500000D01*
X222700000Y-78500000D02*
X223900000Y-79700000D01*
X223900000Y-79700000D02*
X225900000Y-79700000D01*
X225900000Y-79700000D02*
X227300000Y-81100000D01*
X227300000Y-81100000D02*
X227300000Y-85200000D01*
X227300000Y-85200000D02*
X224900000Y-87600000D01*
X224900000Y-87600000D02*
X224900000Y-103180000D01*
X224900000Y-103180000D02*
X224350000Y-103730000D01*
X219750000Y-94750000D02*
X219750000Y-95750000D01*
X220978000Y-96978000D02*
X220978000Y-99275000D01*
X219750000Y-95750000D02*
X220978000Y-96978000D01*
X231100000Y-36880000D02*
X231100000Y-36900000D01*
X231100000Y-36900000D02*
X229200000Y-38800000D01*
X229200000Y-38800000D02*
X224400000Y-38800000D01*
X224400000Y-38800000D02*
X223200000Y-37600000D01*
X223200000Y-37600000D02*
X220700000Y-37600000D01*
X220700000Y-40140000D02*
X221590000Y-40140000D01*
X232600000Y-45180000D02*
X231100000Y-46680000D01*
X232600000Y-42390000D02*
X232600000Y-45180000D01*
X231570000Y-41360000D02*
X232600000Y-42390000D01*
X222810000Y-41360000D02*
X231570000Y-41360000D01*
X221590000Y-40140000D02*
X222810000Y-41360000D01*
X219800000Y-59780000D02*
X220020000Y-59780000D01*
X220020000Y-59780000D02*
X221930000Y-57070000D01*
X221930000Y-57070000D02*
X221900000Y-44580000D01*
X221900000Y-44580000D02*
X220700000Y-42680000D01*
X228320000Y-42680000D02*
X228220000Y-42680000D01*
X228220000Y-42680000D02*
X226500000Y-44300000D01*
X218300000Y-56760000D02*
X217020000Y-55480000D01*
X218300000Y-60200000D02*
X218300000Y-56760000D01*
X219100000Y-61000000D02*
X218300000Y-60200000D01*
X220600000Y-61000000D02*
X219100000Y-61000000D01*
X221300000Y-60300000D02*
X220600000Y-61000000D01*
X221300000Y-59600000D02*
X221300000Y-60300000D01*
X222540000Y-57310000D02*
X221300000Y-59600000D01*
X222600000Y-45000000D02*
X222540000Y-57310000D01*
X223300000Y-44300000D02*
X222600000Y-45000000D01*
X226500000Y-44300000D02*
X223300000Y-44300000D01*
X228320000Y-42680000D02*
X228320000Y-42720000D01*
X253070000Y-80930000D02*
X254600000Y-79400000D01*
X254600000Y-79400000D02*
X254600000Y-69000000D01*
X254600000Y-69000000D02*
X253000000Y-67400000D01*
X253070000Y-82670000D02*
X253070000Y-80930000D01*
X253000000Y-85000000D02*
X253000000Y-87130000D01*
X251940000Y-83940000D02*
X253000000Y-85000000D01*
X251800000Y-83940000D02*
X251940000Y-83940000D01*
X261400000Y-80500000D02*
X261870000Y-80970000D01*
X261870000Y-80970000D02*
X261870000Y-81270000D01*
X261870000Y-82870000D02*
X261870000Y-81270000D01*
X258000000Y-80500000D02*
X261100000Y-80500000D01*
X258000000Y-80500000D02*
X255800000Y-78200000D01*
X255800000Y-78200000D02*
X255800000Y-70400000D01*
X255800000Y-70400000D02*
X258800000Y-67400000D01*
X261100000Y-80500000D02*
X261400000Y-80500000D01*
X259260000Y-84140000D02*
X258500000Y-84900000D01*
X258500000Y-84900000D02*
X258500000Y-87130000D01*
X260600000Y-84140000D02*
X259260000Y-84140000D01*
X248470000Y-81530000D02*
X249800000Y-80200000D01*
X249800000Y-80200000D02*
X252800000Y-80200000D01*
X252800000Y-80200000D02*
X254000000Y-79000000D01*
X254000000Y-79000000D02*
X254000000Y-69600000D01*
X254000000Y-69600000D02*
X253200000Y-68800000D01*
X253200000Y-68800000D02*
X251400000Y-68800000D01*
X251400000Y-68800000D02*
X250000000Y-67400000D01*
X248470000Y-82670000D02*
X248470000Y-81530000D01*
X248340000Y-83940000D02*
X250250000Y-85850000D01*
X250250000Y-85850000D02*
X250250000Y-87130000D01*
X247200000Y-83940000D02*
X248340000Y-83940000D01*
X244300000Y-57200000D02*
X241900000Y-54800000D01*
X247100000Y-57200000D02*
X244300000Y-57200000D01*
X248300000Y-58400000D02*
X247100000Y-57200000D01*
X248300000Y-64100000D02*
X248300000Y-58400000D01*
X246870000Y-65530000D02*
X248300000Y-64100000D01*
X246870000Y-65570000D02*
X246870000Y-65530000D01*
X247560000Y-68800000D02*
X245600000Y-66840000D01*
X249300000Y-68800000D02*
X247560000Y-68800000D01*
X250800000Y-70300000D02*
X249300000Y-68800000D01*
X250800000Y-70380000D02*
X250800000Y-70300000D01*
X246800000Y-59900000D02*
X246870000Y-59970000D01*
X244600000Y-59900000D02*
X246800000Y-59900000D01*
X244200000Y-59500000D02*
X244600000Y-59900000D01*
X244200000Y-58400000D02*
X244200000Y-59500000D01*
X242500000Y-56700000D02*
X244200000Y-58400000D01*
X241300000Y-56700000D02*
X242500000Y-56700000D01*
X240200000Y-55600000D02*
X241300000Y-56700000D01*
X240200000Y-51600000D02*
X240200000Y-55600000D01*
X243400000Y-48400000D02*
X240200000Y-51600000D01*
X243400000Y-46700000D02*
X243400000Y-48400000D01*
X241700000Y-45000000D02*
X243400000Y-46700000D01*
X241700000Y-44700000D02*
X241700000Y-45000000D01*
X243600000Y-63240000D02*
X245600000Y-61240000D01*
X243600000Y-67300000D02*
X243600000Y-63240000D01*
X244700000Y-68400000D02*
X243600000Y-67300000D01*
X245800000Y-68400000D02*
X244700000Y-68400000D01*
X247780000Y-70380000D02*
X245800000Y-68400000D01*
X248000000Y-70380000D02*
X247780000Y-70380000D01*
X242170000Y-63130000D02*
X243400000Y-61900000D01*
X243400000Y-61900000D02*
X243400000Y-59100000D01*
X243400000Y-59100000D02*
X241900000Y-57600000D01*
X241900000Y-57600000D02*
X240900000Y-57600000D01*
X240900000Y-57600000D02*
X238100000Y-54800000D01*
X242170000Y-65670000D02*
X242170000Y-63130000D01*
X241760000Y-66940000D02*
X245200000Y-70380000D01*
X240900000Y-66940000D02*
X241760000Y-66940000D01*
X239970000Y-60170000D02*
X237200000Y-57400000D01*
X237200000Y-57400000D02*
X237200000Y-53000000D01*
X237200000Y-53000000D02*
X240200000Y-50000000D01*
X240200000Y-50000000D02*
X240200000Y-46000000D01*
X240200000Y-46000000D02*
X238900000Y-44700000D01*
X242270000Y-60170000D02*
X239970000Y-60170000D01*
X239400000Y-67380000D02*
X242400000Y-70380000D01*
X239400000Y-63000000D02*
X239400000Y-67380000D01*
X240960000Y-61440000D02*
X239400000Y-63000000D01*
X241000000Y-61440000D02*
X240960000Y-61440000D01*
X268400000Y-46700000D02*
X270100000Y-44500000D01*
X268400000Y-49800000D02*
X268400000Y-46700000D01*
X271500000Y-53100000D02*
X268400000Y-49800000D01*
X271500000Y-57800000D02*
X271500000Y-53100000D01*
X268830000Y-60270000D02*
X271500000Y-57800000D01*
X268570000Y-60270000D02*
X268830000Y-60270000D01*
X270200000Y-67880000D02*
X267700000Y-70380000D01*
X270200000Y-64400000D02*
X270200000Y-67880000D01*
X267340000Y-61540000D02*
X270200000Y-64400000D01*
X267300000Y-61540000D02*
X267340000Y-61540000D01*
X268170000Y-63770000D02*
X267700000Y-63300000D01*
X267700000Y-63300000D02*
X266100000Y-63300000D01*
X265850000Y-63050000D02*
X265800000Y-63000000D01*
X266100000Y-63300000D02*
X265850000Y-63050000D01*
X268170000Y-65870000D02*
X268170000Y-63770000D01*
X265850000Y-58450000D02*
X266600000Y-57700000D01*
X266600000Y-57700000D02*
X269200000Y-57700000D01*
X269200000Y-57700000D02*
X269800000Y-57100000D01*
X269800000Y-57100000D02*
X270200000Y-54300000D01*
X265850000Y-63050000D02*
X265850000Y-58450000D01*
X266900000Y-68180000D02*
X264700000Y-70380000D01*
X266900000Y-67140000D02*
X266900000Y-68180000D01*
X266600000Y-44500000D02*
X267100000Y-44500000D01*
X265600000Y-45500000D02*
X266600000Y-44500000D01*
X265600000Y-50400000D02*
X265600000Y-45500000D01*
X268600000Y-53400000D02*
X265600000Y-50400000D01*
X268600000Y-55000000D02*
X268600000Y-53400000D01*
X267200000Y-56400000D02*
X268600000Y-55000000D01*
X266400000Y-56400000D02*
X267200000Y-56400000D01*
X264800000Y-58000000D02*
X266400000Y-56400000D01*
X264800000Y-58800000D02*
X264800000Y-58000000D01*
X263770000Y-59830000D02*
X264800000Y-58800000D01*
X263770000Y-60270000D02*
X263770000Y-59830000D01*
X262500000Y-62200000D02*
X264800000Y-64500000D01*
X264800000Y-64500000D02*
X264800000Y-67280000D01*
X264800000Y-67280000D02*
X261700000Y-70380000D01*
X262500000Y-61540000D02*
X262500000Y-62200000D01*
X261170000Y-65970000D02*
X261100000Y-65900000D01*
X261100000Y-65900000D02*
X261100000Y-58600000D01*
X261100000Y-58600000D02*
X261900000Y-57800000D01*
X261900000Y-57800000D02*
X263500000Y-57800000D01*
X263570000Y-65970000D02*
X261170000Y-65970000D01*
X263600000Y-57800000D02*
X265500000Y-55900000D01*
X265500000Y-55900000D02*
X267100000Y-54300000D01*
X263500000Y-57800000D02*
X263600000Y-57800000D01*
X261840000Y-67240000D02*
X258700000Y-70380000D01*
X262300000Y-67240000D02*
X261840000Y-67240000D01*
X257470000Y-80870000D02*
X255800000Y-79200000D01*
X255800000Y-79200000D02*
X255600000Y-79200000D01*
X255600000Y-79200000D02*
X255200000Y-78800000D01*
X255200000Y-78800000D02*
X255200000Y-68000000D01*
X255200000Y-68000000D02*
X255800000Y-67400000D01*
X257470000Y-82870000D02*
X257470000Y-80870000D01*
X256200000Y-84800000D02*
X255750000Y-85250000D01*
X255750000Y-85250000D02*
X255750000Y-87130000D01*
X256200000Y-84140000D02*
X256200000Y-84800000D01*
X253020000Y-40240000D02*
X251020000Y-40240000D01*
X253000000Y-58120000D02*
X253000000Y-59780000D01*
X249210000Y-54330000D02*
X253000000Y-58120000D01*
X249210000Y-42050000D02*
X249210000Y-54330000D01*
X251020000Y-40240000D02*
X249210000Y-42050000D01*
X253000000Y-59780000D02*
X253000000Y-59500000D01*
X248580000Y-40780000D02*
X245400000Y-37700000D01*
X248580000Y-54980000D02*
X248580000Y-40780000D01*
X250600000Y-57100000D02*
X248580000Y-54980000D01*
X250600000Y-58200000D02*
X250600000Y-57100000D01*
X251500000Y-59100000D02*
X250600000Y-58200000D01*
X251500000Y-60000000D02*
X251500000Y-59100000D01*
X252600000Y-62000000D02*
X251500000Y-60000000D01*
X257100000Y-62000000D02*
X252600000Y-62000000D01*
X258620000Y-59780000D02*
X257100000Y-62000000D01*
X258800000Y-59780000D02*
X258620000Y-59780000D01*
X250000000Y-58300000D02*
X250000000Y-59780000D01*
X248010000Y-55600000D02*
X250000000Y-58300000D01*
X248010000Y-42000000D02*
X248010000Y-55600000D01*
X245540000Y-40240000D02*
X248010000Y-42000000D01*
X245400000Y-40240000D02*
X245540000Y-40240000D01*
X243200000Y-38580000D02*
X241700000Y-37080000D01*
X243200000Y-42800000D02*
X243200000Y-38580000D01*
X245400000Y-45000000D02*
X243200000Y-42800000D01*
X245400000Y-45320000D02*
X245400000Y-45000000D01*
X250896000Y-96304000D02*
X250896000Y-99248000D01*
X252450000Y-94750000D02*
X250896000Y-96304000D01*
X253000000Y-94750000D02*
X252450000Y-94750000D01*
X258500000Y-95700000D02*
X259080000Y-96280000D01*
X259080000Y-96280000D02*
X259080000Y-101063000D01*
X258500000Y-94750000D02*
X258500000Y-95700000D01*
X248768000Y-97032000D02*
X248768000Y-101027000D01*
X250250000Y-95550000D02*
X248768000Y-97032000D01*
X250250000Y-94750000D02*
X250250000Y-95550000D01*
X246800000Y-102886000D02*
X247607000Y-103693000D01*
X246800000Y-90600000D02*
X246800000Y-102886000D01*
X244200000Y-88000000D02*
X246800000Y-90600000D01*
X244200000Y-82800000D02*
X244200000Y-88000000D01*
X249400000Y-79600000D02*
X247000000Y-79600000D01*
X250800000Y-78200000D02*
X249400000Y-79600000D01*
X250800000Y-78000000D02*
X250800000Y-78200000D01*
X244200000Y-82400000D02*
X244200000Y-82800000D01*
X247000000Y-79600000D02*
X244200000Y-82400000D01*
X245800000Y-104952000D02*
X247911000Y-107063000D01*
X245800000Y-91600000D02*
X245800000Y-104952000D01*
X242800000Y-88600000D02*
X245800000Y-91600000D01*
X242800000Y-81800000D02*
X242800000Y-88600000D01*
X245200000Y-79400000D02*
X242800000Y-81800000D01*
X246000000Y-79400000D02*
X245200000Y-79400000D01*
X247400000Y-78000000D02*
X246000000Y-79400000D01*
X248000000Y-78000000D02*
X247400000Y-78000000D01*
X239700000Y-37880000D02*
X238900000Y-37080000D01*
X239700000Y-40300000D02*
X239700000Y-37880000D01*
X243300000Y-43900000D02*
X239700000Y-40300000D01*
X243300000Y-45100000D02*
X243300000Y-43900000D01*
X244700000Y-46500000D02*
X243300000Y-45100000D01*
X246000000Y-46500000D02*
X244700000Y-46500000D01*
X246700000Y-47200000D02*
X246000000Y-46500000D01*
X246700000Y-49500000D02*
X246700000Y-47200000D01*
X245800000Y-50400000D02*
X246700000Y-49500000D01*
X245400000Y-50400000D02*
X245800000Y-50400000D01*
X245200000Y-78000000D02*
X245000000Y-78000000D01*
X244600000Y-106600000D02*
X247594000Y-109594000D01*
X247594000Y-109594000D02*
X249531000Y-109594000D01*
X245000000Y-78000000D02*
X241600000Y-81400000D01*
X241600000Y-81400000D02*
X241600000Y-89200000D01*
X241600000Y-89200000D02*
X244600000Y-92200000D01*
X244600000Y-92200000D02*
X244600000Y-106400000D01*
X244600000Y-106400000D02*
X244600000Y-106600000D01*
X242400000Y-79000000D02*
X240600000Y-80800000D01*
X240600000Y-80800000D02*
X240600000Y-89800000D01*
X240600000Y-89800000D02*
X243400000Y-92600000D01*
X243400000Y-92600000D02*
X243400000Y-106200000D01*
X243400000Y-106200000D02*
X248413000Y-111213000D01*
X248413000Y-111213000D02*
X252178000Y-111213000D01*
X242400000Y-78000000D02*
X242400000Y-79000000D01*
X267700000Y-79000000D02*
X267000000Y-79700000D01*
X267000000Y-79700000D02*
X267000000Y-87300000D01*
X267000000Y-87300000D02*
X265300000Y-89000000D01*
X265300000Y-89000000D02*
X265300000Y-107400000D01*
X265300000Y-107400000D02*
X261457000Y-111243000D01*
X261457000Y-111243000D02*
X255621000Y-111243000D01*
X267700000Y-78000000D02*
X267700000Y-79000000D01*
X264700000Y-79800000D02*
X265700000Y-80500000D01*
X265700000Y-80500000D02*
X265700000Y-86900000D01*
X265700000Y-86900000D02*
X263900000Y-88400000D01*
X263900000Y-88400000D02*
X263900000Y-106000000D01*
X263900000Y-106000000D02*
X260054000Y-109846000D01*
X260054000Y-109846000D02*
X258348000Y-109846000D01*
X264700000Y-78000000D02*
X264700000Y-79800000D01*
X270100000Y-36880000D02*
X270100000Y-37100000D01*
X246560000Y-52940000D02*
X247400000Y-52100000D01*
X247400000Y-52100000D02*
X247400000Y-42700000D01*
X247400000Y-42700000D02*
X246200000Y-41500000D01*
X246200000Y-41500000D02*
X244300000Y-41500000D01*
X244300000Y-41500000D02*
X243800000Y-41000000D01*
X243800000Y-41000000D02*
X243800000Y-36800000D01*
X243800000Y-36800000D02*
X245200000Y-35600000D01*
X245200000Y-35600000D02*
X268620000Y-35600000D01*
X268620000Y-35600000D02*
X270100000Y-36880000D01*
X245400000Y-52940000D02*
X246560000Y-52940000D01*
X262500000Y-104774000D02*
X260120000Y-107154000D01*
X262500000Y-87500000D02*
X262500000Y-104774000D01*
X264500000Y-85600000D02*
X262500000Y-87500000D01*
X264500000Y-80900000D02*
X264500000Y-85600000D01*
X261700000Y-78200000D02*
X264500000Y-80900000D01*
X261700000Y-78000000D02*
X261700000Y-78200000D01*
X260900000Y-103180000D02*
X260350000Y-103730000D01*
X260900000Y-87600000D02*
X260900000Y-103180000D01*
X263300000Y-85200000D02*
X260900000Y-87600000D01*
X263300000Y-81100000D02*
X263300000Y-85200000D01*
X261900000Y-79700000D02*
X263300000Y-81100000D01*
X259900000Y-79700000D02*
X261900000Y-79700000D01*
X258700000Y-78500000D02*
X259900000Y-79700000D01*
X258700000Y-78000000D02*
X258700000Y-78500000D01*
X255750000Y-95750000D02*
X256978000Y-96978000D01*
X256978000Y-96978000D02*
X256978000Y-99275000D01*
X255750000Y-94750000D02*
X255750000Y-95750000D01*
X259200000Y-37600000D02*
X256700000Y-37600000D01*
X260400000Y-38800000D02*
X259200000Y-37600000D01*
X265200000Y-38800000D02*
X260400000Y-38800000D01*
X267100000Y-36900000D02*
X265200000Y-38800000D01*
X267100000Y-36880000D02*
X267100000Y-36900000D01*
X256700000Y-40140000D02*
X258130000Y-40140000D01*
X268581454Y-45198546D02*
X267100000Y-46680000D01*
X268581454Y-42261454D02*
X268581454Y-45198546D01*
X267740000Y-41420000D02*
X268581454Y-42261454D01*
X259410000Y-41420000D02*
X267740000Y-41420000D01*
X258130000Y-40140000D02*
X259410000Y-41420000D01*
X257900000Y-44580000D02*
X256700000Y-42680000D01*
X257900000Y-56750000D02*
X257900000Y-44580000D01*
X256020000Y-59780000D02*
X257900000Y-56750000D01*
X255800000Y-59780000D02*
X256020000Y-59780000D01*
X262500000Y-44300000D02*
X259300000Y-44300000D01*
X264220000Y-42680000D02*
X262500000Y-44300000D01*
X254300000Y-56760000D02*
X253020000Y-55480000D01*
X254300000Y-60200000D02*
X254300000Y-56760000D01*
X255100000Y-61000000D02*
X254300000Y-60200000D01*
X256600000Y-61000000D02*
X255100000Y-61000000D01*
X257300000Y-60300000D02*
X256600000Y-61000000D01*
X257300000Y-59600000D02*
X257300000Y-60300000D01*
X258630000Y-57310000D02*
X257300000Y-59600000D01*
X258600000Y-45000000D02*
X258630000Y-57310000D01*
X259300000Y-44300000D02*
X258600000Y-45000000D01*
X264320000Y-42680000D02*
X264320000Y-42720000D01*
X264320000Y-42680000D02*
X264220000Y-42680000D01*
X106190000Y-42780000D02*
X109020000Y-42780000D01*
X106100000Y-42690000D02*
X106190000Y-42780000D01*
X142170000Y-43290000D02*
X142330000Y-43290000D01*
X144230000Y-43570000D02*
X145020000Y-42780000D01*
X142610000Y-43570000D02*
X144230000Y-43570000D01*
X142330000Y-43290000D02*
X142610000Y-43570000D01*
X178530000Y-42780000D02*
X181020000Y-42780000D01*
X178290000Y-42540000D02*
X178530000Y-42780000D01*
X214410000Y-42780000D02*
X217020000Y-42780000D01*
X214000000Y-42370000D02*
X214410000Y-42780000D01*
X250180000Y-42480000D02*
X250480000Y-42780000D01*
X250480000Y-42780000D02*
X253020000Y-42780000D01*
X51100000Y-46860000D02*
X51540000Y-46860000D01*
X51540000Y-46860000D02*
X53400000Y-45000000D01*
X53400000Y-32800000D02*
X54700000Y-31500000D01*
X53400000Y-45000000D02*
X53400000Y-32800000D01*
X51100000Y-46860000D02*
X50260000Y-46860000D01*
X54700000Y-31500000D02*
X56300000Y-31500000D01*
X272200000Y-56000000D02*
X272200000Y-33500000D01*
X272200000Y-33500000D02*
X270700000Y-32000000D01*
X270700000Y-32000000D02*
X263700000Y-32000000D01*
X263700000Y-32000000D02*
X263200000Y-31500000D01*
X263200000Y-31500000D02*
X56300000Y-31500000D01*
D29*
X38429000Y-48969000D02*
X38429000Y-47953000D01*
X45370000Y-46346000D02*
X45370000Y-47362000D01*
X43846000Y-44822000D02*
X45370000Y-46346000D01*
X41560000Y-44822000D02*
X43846000Y-44822000D01*
X38429000Y-47953000D02*
X41560000Y-44822000D01*
X35210000Y-46600000D02*
X36060000Y-46600000D01*
X36060000Y-46600000D02*
X38429000Y-48969000D01*
X38429000Y-48969000D02*
X40798000Y-51338000D01*
X40798000Y-51338000D02*
X43070000Y-53610000D01*
D30*
X42576000Y-53116000D02*
X43070000Y-53610000D01*
D29*
X35210000Y-49902000D02*
X34602000Y-49902000D01*
X34602000Y-49902000D02*
X33700000Y-49000000D01*
X34900000Y-44000000D02*
X48000000Y-44000000D01*
X33700000Y-45200000D02*
X34900000Y-44000000D01*
X33700000Y-49000000D02*
X33700000Y-45200000D01*
X50400000Y-56400000D02*
X50400000Y-54500000D01*
X48000000Y-37260000D02*
X51100000Y-34160000D01*
X48000000Y-52100000D02*
X48000000Y-44000000D01*
X48000000Y-44000000D02*
X48000000Y-37260000D01*
X50400000Y-54500000D02*
X48000000Y-52100000D01*
X35210000Y-49902000D02*
X35972000Y-49902000D01*
X35972000Y-49902000D02*
X37990000Y-51920000D01*
X37990000Y-51920000D02*
X37990000Y-53610000D01*
D30*
X42400000Y-64025000D02*
X42400000Y-64400000D01*
X42400000Y-64400000D02*
X41225000Y-66050000D01*
X34800000Y-66350000D02*
X34800000Y-67600000D01*
X36375000Y-64775000D02*
X34800000Y-66350000D01*
X37850000Y-64775000D02*
X36375000Y-64775000D01*
X39125000Y-66050000D02*
X37850000Y-64775000D01*
X41225000Y-66050000D02*
X39125000Y-66050000D01*
X42400000Y-64025000D02*
X42400000Y-64161000D01*
X38004000Y-53596000D02*
X37990000Y-53610000D01*
X38004000Y-53596000D02*
X37990000Y-53610000D01*
X42400000Y-64025000D02*
X40544000Y-63872000D01*
X40544000Y-63872000D02*
X39274000Y-62602000D01*
X39274000Y-62602000D02*
X39274000Y-60570000D01*
X39274000Y-60570000D02*
X37990000Y-59286000D01*
X37990000Y-59286000D02*
X37990000Y-53610000D01*
D29*
X45610000Y-61230000D02*
X45610000Y-61854000D01*
X45610000Y-61230000D02*
X47808000Y-61230000D01*
X47808000Y-61230000D02*
X48500000Y-61922000D01*
X50400000Y-56400000D02*
X50400000Y-56600000D01*
X50400000Y-56600000D02*
X48500000Y-58500000D01*
X48500000Y-67300000D02*
X50350000Y-69200000D01*
X48500000Y-58500000D02*
X48500000Y-61922000D01*
X48500000Y-61922000D02*
X48500000Y-67300000D01*
X50350000Y-69200000D02*
X50400000Y-73800000D01*
X50400000Y-73800000D02*
X50600000Y-74000000D01*
X44862000Y-87494000D02*
X44862000Y-89780000D01*
X44862000Y-89780000D02*
X44354000Y-90288000D01*
X50800000Y-91600000D02*
X50800000Y-90000000D01*
X50800000Y-90000000D02*
X51300000Y-89500000D01*
X38258000Y-87494000D02*
X38258000Y-86732000D01*
X38258000Y-86732000D02*
X39274000Y-85716000D01*
X48646000Y-89500000D02*
X51300000Y-89500000D01*
X51300000Y-89500000D02*
X58150000Y-89500000D01*
X44862000Y-85716000D02*
X48646000Y-89500000D01*
X39274000Y-85716000D02*
X44862000Y-85716000D01*
X56600000Y-81750000D02*
X56600000Y-82450000D01*
X56600000Y-82450000D02*
X55475000Y-83575000D01*
X55475000Y-86825000D02*
X58150000Y-89500000D01*
X55475000Y-83575000D02*
X55475000Y-86825000D01*
X42000000Y-73740000D02*
X42686000Y-73740000D01*
X42686000Y-73740000D02*
X46200000Y-75700000D01*
X46200000Y-75700000D02*
X46200000Y-79874000D01*
X44862000Y-79874000D02*
X46200000Y-79874000D01*
X46200000Y-79874000D02*
X49688000Y-79874000D01*
X49688000Y-79874000D02*
X50600000Y-80786000D01*
X50600000Y-87000000D02*
X50600000Y-80786000D01*
X50600000Y-80786000D02*
X50600000Y-80130000D01*
X50600000Y-80130000D02*
X52880000Y-77850000D01*
X52880000Y-77850000D02*
X56600000Y-74130000D01*
X35900000Y-73840000D02*
X36340000Y-73840000D01*
X36340000Y-73840000D02*
X38258000Y-75758000D01*
X38258000Y-75758000D02*
X38258000Y-79874000D01*
X35900000Y-71300000D02*
X35900000Y-73840000D01*
X37755000Y-65930000D02*
X37751000Y-65926000D01*
X37534000Y-69914000D02*
X35900000Y-71300000D01*
X37534000Y-66612000D02*
X37534000Y-69914000D01*
X37751000Y-65926000D02*
X37534000Y-66612000D01*
D30*
X35250000Y-71412000D02*
X35900000Y-71300000D01*
D29*
X38078000Y-79300000D02*
X38758000Y-79980000D01*
D30*
X34800000Y-59980000D02*
X36740000Y-59980000D01*
X36740000Y-59980000D02*
X37990000Y-61230000D01*
X37990000Y-61230000D02*
X37990000Y-62334000D01*
X39274000Y-63618000D02*
X39025000Y-64660000D01*
X37990000Y-62334000D02*
X39274000Y-63618000D01*
X42830000Y-49902000D02*
X42830000Y-50156000D01*
X42830000Y-50156000D02*
X44354000Y-51680000D01*
X44354000Y-59946000D02*
X43070000Y-61230000D01*
X44354000Y-51680000D02*
X44354000Y-59946000D01*
D29*
X42830000Y-46600000D02*
X42830000Y-49902000D01*
X35900000Y-76380000D02*
X35900000Y-80550000D01*
X39984000Y-81450000D02*
X41560000Y-79874000D01*
X36800000Y-81450000D02*
X39984000Y-81450000D01*
X35900000Y-80550000D02*
X36800000Y-81450000D01*
X35900000Y-76380000D02*
X36145000Y-76380000D01*
X41304000Y-79874000D02*
X41814000Y-79874000D01*
D30*
X42000000Y-71200000D02*
X42000000Y-71150000D01*
X42000000Y-71150000D02*
X43700000Y-69450000D01*
X43700000Y-62900000D02*
X43402000Y-62602000D01*
X43700000Y-69450000D02*
X43700000Y-62900000D01*
X43300000Y-62602000D02*
X43402000Y-62602000D01*
X43402000Y-62602000D02*
X43502000Y-62602000D01*
X42000000Y-71200000D02*
X42000000Y-70946000D01*
X43300000Y-62602000D02*
X42322000Y-62602000D01*
X42322000Y-62602000D02*
X41814000Y-62094000D01*
X41814000Y-62094000D02*
X41814000Y-54894000D01*
X41814000Y-54894000D02*
X40530000Y-53610000D01*
D29*
X53300000Y-69600000D02*
X54300000Y-70600000D01*
X50350000Y-64120000D02*
X50970000Y-64120000D01*
X50970000Y-64120000D02*
X53300000Y-66400000D01*
X53300000Y-66400000D02*
X53300000Y-69600000D01*
M02*
