M48
;DRILL file {KiCad 4.0.7} date 02/26/20 20:24:44
;FORMAT={-:-/ absolute / metric / decimal}
FMAT,2
METRIC,TZ
T1C0.400
T2C0.600
T3C0.800
T4C0.900
T5C1.000
T6C1.100
T7C1.200
T8C3.048
%
G90
G05
M71
T1
X141.Y-81.05
X141.25Y-83.
X141.3Y-82.05
X157.6Y-80.2
X157.6Y-83.
X157.7Y-78.25
X170.54Y-63.67
X178.59Y-91.53
X179.82Y-92.09
X209.41Y-63.68
X213.74Y-60.13
X216.76Y-58.9
T2
X115.67Y-97.61
X116.94Y-96.34
X118.21Y-97.61
X122.34Y-97.54
X123.61Y-96.27
X124.88Y-97.54
X128.78Y-97.61
X130.05Y-96.34
X131.32Y-97.61
T3
X117.16Y-85.69
X117.16Y-93.31
X123.48Y-85.46
X123.48Y-93.08
X129.27Y-85.69
X129.27Y-93.31
X132.492Y-61.586
X132.492Y-69.206
X135.54Y-62.094
X135.54Y-65.396
X137.005Y-90.525
X137.005Y-93.875
X139.35Y-70.278
X139.35Y-73.778
X139.99Y-79.02
X142.49Y-79.02
X142.89Y-98.6
X143.16Y-62.094
X143.16Y-65.396
X144.625Y-90.525
X144.625Y-93.875
X150.51Y-98.6
X152.28Y-53.82
X152.28Y-56.36
X152.28Y-58.9
X152.28Y-61.44
X152.28Y-63.98
X152.28Y-66.52
X152.28Y-69.06
X152.28Y-71.6
X152.28Y-74.14
X152.28Y-76.68
X152.28Y-79.22
X152.28Y-81.76
X152.28Y-84.3
X152.28Y-86.84
X152.28Y-89.38
X152.84Y-98.57
X160.46Y-98.57
X162.76Y-98.49
X167.52Y-53.82
X167.52Y-56.36
X167.52Y-58.9
X167.52Y-61.44
X167.52Y-63.98
X167.52Y-66.52
X167.52Y-69.06
X167.52Y-71.6
X167.52Y-74.14
X167.52Y-76.68
X167.52Y-79.22
X167.52Y-81.76
X167.52Y-84.3
X167.52Y-86.84
X167.52Y-89.38
X170.38Y-98.49
X177.196Y-73.524
X184.816Y-73.524
X187.102Y-73.524
X187.355Y-98.95
X194.722Y-73.524
X194.975Y-98.95
X197.008Y-73.524
X197.28Y-98.975
X204.628Y-73.524
X204.9Y-98.975
X207.18Y-98.9
X214.8Y-98.9
X219.654Y-73.524
X222.154Y-73.524
X225.33Y-98.65
X228.84Y-52.28
X231.34Y-52.28
X232.95Y-98.65
X235.155Y-98.6
X235.4Y-62.28
X235.4Y-69.9
X237.2Y-51.8
X237.44Y-74.01
X238.7Y-62.3
X238.7Y-69.92
X239.2Y-51.8
X241.2Y-51.8
X242.775Y-98.6
X243.2Y-51.8
X243.5Y-62.28
X243.5Y-69.9
X245.06Y-74.01
X245.105Y-98.65
X246.7Y-62.1
X246.7Y-69.72
X248.5Y-73.87
X251.4Y-66.3
X251.5Y-51.8
X252.725Y-98.65
X253.5Y-51.8
X255.5Y-51.8
X255.8Y-63.1
X256.12Y-73.87
X257.5Y-51.8
X258.3Y-63.1
X259.02Y-66.3
X264.55Y-73.8
X264.55Y-76.3
T4
X127.3Y-102.
X127.3Y-104.54
X129.6Y-106.2
X129.6Y-108.74
X132.Y-102.1
X132.Y-104.64
X149.5Y-102.1
X149.5Y-104.64
X151.9Y-106.5
X151.9Y-109.04
X154.3Y-102.1
X154.3Y-104.64
X171.4Y-101.95
X171.4Y-104.49
X173.75Y-106.25
X173.75Y-108.79
X176.2Y-101.95
X176.2Y-104.49
X193.45Y-101.95
X193.45Y-104.49
X195.7Y-106.4
X195.7Y-108.94
X198.1Y-101.95
X198.1Y-104.49
X215.65Y-101.8
X215.65Y-104.34
X218.Y-106.2
X218.Y-108.74
X220.3Y-101.8
X220.3Y-104.34
X237.8Y-101.7
X237.8Y-104.24
X240.25Y-106.25
X240.25Y-108.79
X242.6Y-101.8
X242.6Y-104.34
T5
X115.474Y-76.064
X115.474Y-78.604
X115.474Y-81.144
X146.7Y-52.7
X146.7Y-55.24
X174.55Y-78.05
X174.55Y-80.59
X174.55Y-83.13
X174.55Y-85.67
X174.55Y-88.21
X174.55Y-90.75
X201.28Y-67.65
X201.28Y-70.19
X201.36Y-53.04
X201.36Y-55.58
X218.852Y-77.08
X218.852Y-79.62
X218.852Y-82.16
X222.662Y-77.08
X222.662Y-79.62
X222.662Y-82.16
X229.266Y-73.778
X229.266Y-76.318
X229.266Y-78.858
X229.266Y-81.398
X229.266Y-83.938
X229.266Y-86.478
X229.266Y-89.018
X229.774Y-64.888
X229.774Y-67.428
X229.83Y-56.89
X229.83Y-59.43
X233.076Y-81.398
X233.076Y-83.938
X233.076Y-86.478
X233.076Y-89.018
X236.3Y-57.2
X238.84Y-57.2
X241.38Y-57.2
X243.92Y-57.2
X250.9Y-57.
X253.44Y-57.
X255.98Y-57.
X258.52Y-57.
X264.3Y-82.44
X264.3Y-84.98
X264.3Y-87.52
X264.3Y-90.06
X264.3Y-92.6
T6
X121.03Y-51.03
X121.03Y-57.53
X125.53Y-51.03
X125.53Y-57.53
X129.38Y-50.94
X129.38Y-57.44
X133.88Y-50.94
X133.88Y-57.44
X138.11Y-50.83
X138.11Y-57.33
X142.61Y-50.83
X142.61Y-57.33
X251.2Y-69.5
X258.82Y-69.5
T7
X179.05Y-68.06
X179.17Y-55.21
X181.59Y-68.06
X181.71Y-55.21
X184.13Y-68.06
X184.25Y-55.21
X186.67Y-68.06
X186.79Y-55.21
X189.21Y-68.06
X189.33Y-55.21
X191.75Y-68.06
X191.87Y-55.21
X194.29Y-68.06
X194.41Y-55.21
X207.94Y-55.24
X208.17Y-67.84
X210.48Y-55.24
X210.71Y-67.84
X213.02Y-55.24
X213.25Y-67.84
X215.56Y-55.24
X215.79Y-67.84
X218.1Y-55.24
X218.33Y-67.84
X220.64Y-55.24
X220.87Y-67.84
X223.18Y-55.24
X223.41Y-67.84
T8
X115.Y-51.6
X115.Y-113.6
X266.Y-51.6
X266.Y-113.6
T5
X120.7Y-64.8G85X120.7Y-66.8
G05
X122.7Y-70.5G85X124.7Y-70.5
G05
X126.7Y-64.8G85X126.7Y-66.8
G05
T0
M30
