G04 #@! TF.FileFunction,Copper,L2,Bot,Signal*
%FSLAX46Y46*%
G04 Gerber Fmt 4.6, Leading zero omitted, Abs format (unit mm)*
G04 Created by KiCad (PCBNEW 4.0.7) date 01/02/20 13:10:37*
%MOMM*%
%LPD*%
G01*
G04 APERTURE LIST*
%ADD10C,0.100000*%
%ADD11R,1.600000X1.600000*%
%ADD12C,1.600000*%
%ADD13R,2.000000X2.600000*%
%ADD14O,2.000000X2.600000*%
%ADD15C,4.064000*%
%ADD16O,1.600000X1.600000*%
%ADD17R,1.700000X1.700000*%
%ADD18O,1.700000X1.700000*%
%ADD19R,1.350000X1.350000*%
%ADD20O,1.350000X1.350000*%
%ADD21C,1.574800*%
%ADD22R,2.200000X2.200000*%
%ADD23O,2.200000X2.200000*%
%ADD24R,3.500000X3.500000*%
%ADD25R,1.800000X1.800000*%
%ADD26O,1.800000X1.800000*%
%ADD27C,1.800000*%
%ADD28C,1.000000*%
%ADD29R,1.000000X1.000000*%
%ADD30C,2.000000*%
%ADD31C,0.600000*%
%ADD32C,0.350000*%
%ADD33C,0.500000*%
%ADD34C,1.000000*%
G04 APERTURE END LIST*
D10*
D11*
X139350000Y-73778000D03*
D12*
X139350000Y-70278000D03*
D11*
X142490000Y-79020000D03*
D12*
X139990000Y-79020000D03*
D13*
X194410000Y-55210000D03*
D14*
X191870000Y-55210000D03*
X189330000Y-55210000D03*
X186790000Y-55210000D03*
X184250000Y-55210000D03*
X181710000Y-55210000D03*
X179170000Y-55210000D03*
D15*
X266000000Y-51600000D03*
X115000000Y-113600000D03*
X266000000Y-113600000D03*
X115000000Y-51600000D03*
D12*
X171400000Y-69250000D03*
X171400000Y-66750000D03*
X258300000Y-63100000D03*
X255800000Y-63100000D03*
X264550000Y-76300000D03*
X264550000Y-73800000D03*
D11*
X243500000Y-69900000D03*
D16*
X243500000Y-62280000D03*
D11*
X246700000Y-62100000D03*
D16*
X246700000Y-69720000D03*
D11*
X235400000Y-69900000D03*
D16*
X235400000Y-62280000D03*
D11*
X238700000Y-62300000D03*
D16*
X238700000Y-69920000D03*
D11*
X251400000Y-66300000D03*
D16*
X259020000Y-66300000D03*
D17*
X250900000Y-57000000D03*
D18*
X253440000Y-57000000D03*
X255980000Y-57000000D03*
X258520000Y-57000000D03*
D19*
X251500000Y-51800000D03*
D20*
X253500000Y-51800000D03*
X255500000Y-51800000D03*
X257500000Y-51800000D03*
D17*
X236300000Y-57200000D03*
D18*
X238840000Y-57200000D03*
X241380000Y-57200000D03*
X243920000Y-57200000D03*
D19*
X237200000Y-51800000D03*
D20*
X239200000Y-51800000D03*
X241200000Y-51800000D03*
X243200000Y-51800000D03*
D17*
X175100000Y-90200000D03*
D18*
X175100000Y-87660000D03*
X175100000Y-85120000D03*
X175100000Y-82580000D03*
X175100000Y-80040000D03*
X175100000Y-77500000D03*
D17*
X264300000Y-92600000D03*
D18*
X264300000Y-90060000D03*
X264300000Y-87520000D03*
X264300000Y-84980000D03*
X264300000Y-82440000D03*
D17*
X146700000Y-52700000D03*
D18*
X146700000Y-55240000D03*
D12*
X244920000Y-77530000D03*
D16*
X237300000Y-77530000D03*
D12*
X245060000Y-74010000D03*
D16*
X237440000Y-74010000D03*
D21*
X152280000Y-89380000D03*
X167520000Y-89380000D03*
X152280000Y-86840000D03*
X167520000Y-86840000D03*
X152280000Y-84300000D03*
X167520000Y-84300000D03*
X152280000Y-81760000D03*
X167520000Y-81760000D03*
X152280000Y-79220000D03*
X167520000Y-79220000D03*
X152280000Y-76680000D03*
X167520000Y-76680000D03*
X152280000Y-74140000D03*
X167520000Y-74140000D03*
X152280000Y-71600000D03*
X167520000Y-71600000D03*
X152280000Y-69060000D03*
X167520000Y-69060000D03*
X152280000Y-66520000D03*
X167520000Y-66520000D03*
X152280000Y-63980000D03*
X167520000Y-63980000D03*
X152280000Y-61440000D03*
X167520000Y-61440000D03*
X152280000Y-58900000D03*
X167520000Y-58900000D03*
X152280000Y-56360000D03*
X167520000Y-56360000D03*
X152280000Y-53820000D03*
X167520000Y-53820000D03*
D22*
X251200000Y-69500000D03*
D23*
X258820000Y-69500000D03*
D24*
X126950000Y-66790000D03*
X120950000Y-66790000D03*
X123950000Y-71490000D03*
D25*
X115474000Y-76064000D03*
D26*
X115474000Y-78604000D03*
X115474000Y-81144000D03*
D13*
X223180000Y-55240000D03*
D14*
X220640000Y-55240000D03*
X218100000Y-55240000D03*
X215560000Y-55240000D03*
X213020000Y-55240000D03*
X210480000Y-55240000D03*
X207940000Y-55240000D03*
D13*
X223410000Y-67840000D03*
D14*
X220870000Y-67840000D03*
X218330000Y-67840000D03*
X215790000Y-67840000D03*
X213250000Y-67840000D03*
X210710000Y-67840000D03*
X208170000Y-67840000D03*
D13*
X194290000Y-68060000D03*
D14*
X191750000Y-68060000D03*
X189210000Y-68060000D03*
X186670000Y-68060000D03*
X184130000Y-68060000D03*
X181590000Y-68060000D03*
X179050000Y-68060000D03*
D17*
X201360000Y-53040000D03*
D18*
X201360000Y-55580000D03*
D17*
X229830000Y-56890000D03*
D18*
X229830000Y-59430000D03*
D17*
X229110000Y-67890000D03*
D18*
X229110000Y-70430000D03*
D17*
X201280000Y-70190000D03*
D18*
X201280000Y-67650000D03*
D12*
X231340000Y-52280000D03*
X228840000Y-52280000D03*
X144625000Y-93875000D03*
D16*
X137005000Y-93875000D03*
D12*
X144625000Y-90525000D03*
D16*
X137005000Y-90525000D03*
D25*
X193450000Y-101950000D03*
D27*
X193450000Y-104490000D03*
D25*
X171400000Y-101950000D03*
D27*
X171400000Y-104490000D03*
D25*
X237800000Y-101700000D03*
D27*
X237800000Y-104240000D03*
D25*
X215650000Y-101800000D03*
D27*
X215650000Y-104340000D03*
D25*
X149500000Y-102100000D03*
D27*
X149500000Y-104640000D03*
D25*
X127300000Y-102000000D03*
D27*
X127300000Y-104540000D03*
D25*
X198100000Y-101950000D03*
D27*
X198100000Y-104490000D03*
D25*
X176200000Y-101950000D03*
D27*
X176200000Y-104490000D03*
D25*
X154300000Y-102100000D03*
D27*
X154300000Y-104640000D03*
D25*
X132000000Y-102100000D03*
D27*
X132000000Y-104640000D03*
D25*
X242600000Y-101800000D03*
D27*
X242600000Y-104340000D03*
D25*
X220300000Y-101800000D03*
D27*
X220300000Y-104340000D03*
D25*
X240250000Y-106250000D03*
D27*
X240250000Y-108790000D03*
D25*
X218000000Y-106200000D03*
D27*
X218000000Y-108740000D03*
D25*
X151900000Y-106500000D03*
D27*
X151900000Y-109040000D03*
D25*
X129600000Y-106200000D03*
D27*
X129600000Y-108740000D03*
D25*
X195700000Y-106400000D03*
D27*
X195700000Y-108940000D03*
D25*
X173750000Y-106250000D03*
D27*
X173750000Y-108790000D03*
D28*
X116940000Y-96340000D03*
X118210000Y-97610000D03*
D29*
X115670000Y-97610000D03*
D28*
X123610000Y-96270000D03*
X124880000Y-97540000D03*
D29*
X122340000Y-97540000D03*
D28*
X130050000Y-96340000D03*
X131320000Y-97610000D03*
D29*
X128780000Y-97610000D03*
D12*
X117160000Y-93310000D03*
D16*
X117160000Y-85690000D03*
D12*
X194975000Y-98950000D03*
D16*
X187355000Y-98950000D03*
D12*
X232950000Y-98650000D03*
D16*
X225330000Y-98650000D03*
D12*
X123480000Y-93080000D03*
D16*
X123480000Y-85460000D03*
D12*
X150510000Y-98600000D03*
D16*
X142890000Y-98600000D03*
D12*
X204900000Y-98975000D03*
D16*
X197280000Y-98975000D03*
D12*
X160460000Y-98570000D03*
D16*
X152840000Y-98570000D03*
D12*
X129270000Y-93310000D03*
D16*
X129270000Y-85690000D03*
D12*
X242775000Y-98600000D03*
D16*
X235155000Y-98600000D03*
D12*
X252725000Y-98650000D03*
D16*
X245105000Y-98650000D03*
D12*
X170380000Y-98490000D03*
D16*
X162760000Y-98490000D03*
D12*
X214800000Y-98900000D03*
D16*
X207180000Y-98900000D03*
D12*
X132492000Y-61586000D03*
D16*
X132492000Y-69206000D03*
D12*
X143160000Y-65396000D03*
D16*
X135540000Y-65396000D03*
D12*
X143160000Y-62094000D03*
D16*
X135540000Y-62094000D03*
D30*
X138110000Y-50830000D03*
X142610000Y-50830000D03*
X138110000Y-57330000D03*
X142610000Y-57330000D03*
X129380000Y-50940000D03*
X133880000Y-50940000D03*
X129380000Y-57440000D03*
X133880000Y-57440000D03*
X121030000Y-51030000D03*
X125530000Y-51030000D03*
X121030000Y-57530000D03*
X125530000Y-57530000D03*
D31*
X209410000Y-63680000D03*
X216760000Y-58900000D03*
X213740000Y-60130000D03*
X170540000Y-63670000D03*
X179820000Y-92090000D03*
X178590000Y-91530000D03*
D32*
X135540000Y-62094000D02*
X133000000Y-62094000D01*
X133000000Y-62094000D02*
X132492000Y-61586000D01*
X135540000Y-62094000D02*
X135540000Y-65396000D01*
D33*
X171400000Y-69250000D02*
X171400000Y-72300000D01*
X176790000Y-75290000D02*
X177980000Y-76480000D01*
X174390000Y-75290000D02*
X176790000Y-75290000D01*
X171400000Y-72300000D02*
X174390000Y-75290000D01*
X231340000Y-52280000D02*
X231340000Y-51240000D01*
X148670000Y-55240000D02*
X146700000Y-55240000D01*
X148810000Y-55100000D02*
X148670000Y-55240000D01*
X148810000Y-51020000D02*
X148810000Y-55100000D01*
X149540000Y-50290000D02*
X148810000Y-51020000D01*
X230390000Y-50290000D02*
X149540000Y-50290000D01*
X231340000Y-51240000D02*
X230390000Y-50290000D01*
X231340000Y-52280000D02*
X236720000Y-52280000D01*
X236720000Y-52280000D02*
X237200000Y-51800000D01*
X181590000Y-68060000D02*
X181590000Y-66600000D01*
X184510000Y-63680000D02*
X209410000Y-63680000D01*
X181590000Y-66600000D02*
X184510000Y-63680000D01*
X176110000Y-88190000D02*
X175630000Y-88190000D01*
X177980000Y-86320000D02*
X176110000Y-88190000D01*
X177980000Y-76480000D02*
X177980000Y-86320000D01*
X175630000Y-88190000D02*
X175100000Y-87660000D01*
X237200000Y-51800000D02*
X237200000Y-50910000D01*
X249420000Y-49720000D02*
X251500000Y-51800000D01*
D32*
X238390000Y-49720000D02*
X249420000Y-49720000D01*
D33*
X237200000Y-50910000D02*
X238390000Y-49720000D01*
X181750000Y-67900000D02*
X181590000Y-68060000D01*
D32*
X146700000Y-57510000D02*
X146930000Y-57510000D01*
X181710000Y-58320000D02*
X181710000Y-55210000D01*
X177360000Y-62670000D02*
X181710000Y-58320000D01*
X162810000Y-62670000D02*
X177360000Y-62670000D01*
X160330000Y-60190000D02*
X162810000Y-62670000D01*
X149610000Y-60190000D02*
X160330000Y-60190000D01*
X146930000Y-57510000D02*
X149610000Y-60190000D01*
X146700000Y-55240000D02*
X146700000Y-55480000D01*
X146700000Y-55480000D02*
X148900000Y-57680000D01*
X148900000Y-57680000D02*
X161010000Y-57680000D01*
X161010000Y-57680000D02*
X163450000Y-60120000D01*
X163450000Y-60120000D02*
X176800000Y-60120000D01*
X176800000Y-60120000D02*
X181710000Y-55210000D01*
X137005000Y-90525000D02*
X137005000Y-93875000D01*
X152280000Y-84300000D02*
X152810000Y-84300000D01*
X152810000Y-84300000D02*
X153950000Y-85440000D01*
X139350000Y-88180000D02*
X137005000Y-90525000D01*
X145030000Y-88180000D02*
X139350000Y-88180000D01*
X147520000Y-90670000D02*
X145030000Y-88180000D01*
X147520000Y-92900000D02*
X147520000Y-90670000D01*
X148270000Y-93650000D02*
X147520000Y-92900000D01*
X152890000Y-93650000D02*
X148270000Y-93650000D01*
X153950000Y-92590000D02*
X152890000Y-93650000D01*
X153950000Y-85440000D02*
X153950000Y-92590000D01*
D33*
X167520000Y-84300000D02*
X168450000Y-84300000D01*
X168450000Y-84300000D02*
X171810000Y-87660000D01*
X171810000Y-87660000D02*
X175100000Y-87660000D01*
X264550000Y-76300000D02*
X263950000Y-76300000D01*
X263950000Y-76300000D02*
X260950000Y-73300000D01*
X260950000Y-68230000D02*
X259020000Y-66300000D01*
X260950000Y-73300000D02*
X260950000Y-68230000D01*
X251500000Y-51800000D02*
X251500000Y-51550000D01*
X251500000Y-51550000D02*
X252850000Y-50200000D01*
X260400000Y-61000000D02*
X258300000Y-63100000D01*
X260400000Y-52200000D02*
X260400000Y-61000000D01*
X258400000Y-50200000D02*
X260400000Y-52200000D01*
X252850000Y-50200000D02*
X258400000Y-50200000D01*
X237200000Y-51800000D02*
X237200000Y-52750000D01*
X236300000Y-53650000D02*
X236300000Y-57200000D01*
X237200000Y-52750000D02*
X236300000Y-53650000D01*
X251500000Y-51800000D02*
X251500000Y-56400000D01*
X251500000Y-56400000D02*
X250900000Y-57000000D01*
X259020000Y-66300000D02*
X259020000Y-63820000D01*
X259020000Y-63820000D02*
X258300000Y-63100000D01*
X264550000Y-76300000D02*
X264850000Y-76300000D01*
X264850000Y-76300000D02*
X267000000Y-78450000D01*
X267000000Y-78450000D02*
X267000000Y-91150000D01*
X267000000Y-91150000D02*
X265550000Y-92600000D01*
X265550000Y-92600000D02*
X264300000Y-92600000D01*
D34*
X152280000Y-81760000D02*
X152280000Y-84300000D01*
X146700000Y-55240000D02*
X146700000Y-57510000D01*
X146700000Y-57510000D02*
X146690000Y-75630000D01*
X146690000Y-75630000D02*
X142490000Y-79020000D01*
D33*
X189330000Y-55210000D02*
X189330000Y-56840000D01*
X216480000Y-58620000D02*
X216760000Y-58900000D01*
X191110000Y-58620000D02*
X216480000Y-58620000D01*
X189330000Y-56840000D02*
X191110000Y-58620000D01*
X189330000Y-55210000D02*
X189330000Y-56360000D01*
X152280000Y-53820000D02*
X163580000Y-53820000D01*
X189330000Y-52820000D02*
X189330000Y-55210000D01*
X187720000Y-51210000D02*
X189330000Y-52820000D01*
X166190000Y-51210000D02*
X187720000Y-51210000D01*
X163580000Y-53820000D02*
X166190000Y-51210000D01*
X152280000Y-53820000D02*
X152540000Y-53820000D01*
X186790000Y-55210000D02*
X186790000Y-57370000D01*
X189550000Y-60130000D02*
X213740000Y-60130000D01*
X186790000Y-57370000D02*
X189550000Y-60130000D01*
X186630000Y-55370000D02*
X186790000Y-55210000D01*
X167520000Y-58900000D02*
X167220000Y-58900000D01*
X167220000Y-58900000D02*
X166050000Y-57730000D01*
X166050000Y-57730000D02*
X166050000Y-53090000D01*
X166050000Y-53090000D02*
X166950000Y-52190000D01*
X166950000Y-52190000D02*
X185720000Y-52190000D01*
X185720000Y-52190000D02*
X186790000Y-53260000D01*
X186790000Y-53260000D02*
X186790000Y-55210000D01*
X184250000Y-55210000D02*
X184250000Y-53660000D01*
X170880000Y-53000000D02*
X167520000Y-56360000D01*
X183590000Y-53000000D02*
X170880000Y-53000000D01*
X184250000Y-53660000D02*
X183590000Y-53000000D01*
D32*
X201280000Y-70190000D02*
X200880000Y-70190000D01*
X200880000Y-70190000D02*
X198790000Y-72280000D01*
X170920000Y-64050000D02*
X170540000Y-63670000D01*
X173620000Y-64050000D02*
X170920000Y-64050000D01*
X174880000Y-65310000D02*
X173620000Y-64050000D01*
X174880000Y-69770000D02*
X174880000Y-65310000D01*
X177390000Y-72280000D02*
X174880000Y-69770000D01*
X198790000Y-72280000D02*
X177390000Y-72280000D01*
D33*
X229830000Y-56890000D02*
X228610000Y-56890000D01*
X228610000Y-56890000D02*
X223000000Y-51280000D01*
X229110000Y-67890000D02*
X229720000Y-67890000D01*
X229720000Y-67890000D02*
X231400000Y-69570000D01*
X204700000Y-73610000D02*
X201280000Y-70190000D01*
X229510000Y-73610000D02*
X204700000Y-73610000D01*
X231400000Y-71720000D02*
X229510000Y-73610000D01*
X231400000Y-69570000D02*
X231400000Y-71720000D01*
X229830000Y-56890000D02*
X231010000Y-56890000D01*
X230010000Y-67890000D02*
X229110000Y-67890000D01*
X231960000Y-65940000D02*
X230010000Y-67890000D01*
X231960000Y-57840000D02*
X231960000Y-65940000D01*
X231010000Y-56890000D02*
X231960000Y-57840000D01*
X203120000Y-51280000D02*
X201360000Y-53040000D01*
X223000000Y-51280000D02*
X203120000Y-51280000D01*
D34*
X126950000Y-66790000D02*
X126950000Y-67220000D01*
X126950000Y-67220000D02*
X128936000Y-69206000D01*
X128936000Y-69206000D02*
X128936000Y-76064000D01*
X139350000Y-73778000D02*
X133000000Y-73778000D01*
X133000000Y-73778000D02*
X130968000Y-73778000D01*
X130968000Y-73778000D02*
X128936000Y-76064000D01*
X128936000Y-76064000D02*
X115474000Y-76064000D01*
D32*
X154600000Y-96375000D02*
X154555000Y-96375000D01*
X154555000Y-96375000D02*
X152840000Y-98570000D01*
X142890000Y-98600000D02*
X143410000Y-98600000D01*
X143410000Y-98600000D02*
X145025000Y-96375000D01*
X145025000Y-96375000D02*
X154600000Y-96375000D01*
X154600000Y-96375000D02*
X164655000Y-96375000D01*
X235155000Y-98600000D02*
X235155000Y-97530000D01*
X235155000Y-97530000D02*
X233525000Y-95900000D01*
X225330000Y-98650000D02*
X225330000Y-98180000D01*
X225330000Y-98180000D02*
X223050000Y-95900000D01*
X245105000Y-98650000D02*
X245105000Y-98080000D01*
X245105000Y-98080000D02*
X242925000Y-95900000D01*
X242925000Y-95900000D02*
X233525000Y-95900000D01*
X233525000Y-95900000D02*
X223050000Y-95900000D01*
X223050000Y-95900000D02*
X204425000Y-95900000D01*
X204425000Y-95900000D02*
X204425000Y-95825000D01*
X187355000Y-98950000D02*
X187355000Y-98305000D01*
X187355000Y-98305000D02*
X184875000Y-95825000D01*
X197280000Y-98975000D02*
X197280000Y-98555000D01*
X197280000Y-98555000D02*
X194550000Y-95825000D01*
X207180000Y-98900000D02*
X207180000Y-98230000D01*
X207180000Y-98230000D02*
X204775000Y-95825000D01*
X204775000Y-95825000D02*
X204425000Y-95825000D01*
X204425000Y-95825000D02*
X194550000Y-95825000D01*
X194550000Y-95825000D02*
X184875000Y-95825000D01*
X184875000Y-95825000D02*
X165205000Y-95825000D01*
X165205000Y-95825000D02*
X164655000Y-96375000D01*
X164655000Y-96375000D02*
X162760000Y-98490000D01*
X152840000Y-98570000D02*
X152840000Y-98340000D01*
D33*
X115474000Y-81144000D02*
X115982000Y-81144000D01*
X115982000Y-81144000D02*
X119284000Y-77842000D01*
X137434000Y-76064000D02*
X138540000Y-77170000D01*
X130714000Y-76064000D02*
X137434000Y-76064000D01*
X128936000Y-77842000D02*
X130714000Y-76064000D01*
X119284000Y-77842000D02*
X128936000Y-77842000D01*
X145290000Y-53960000D02*
X146700000Y-52700000D01*
X145250000Y-74710000D02*
X145290000Y-53960000D01*
X142170000Y-77170000D02*
X145250000Y-74710000D01*
X138540000Y-77170000D02*
X142170000Y-77170000D01*
X115474000Y-81144000D02*
X116024000Y-81144000D01*
X235400000Y-69900000D02*
X235400000Y-69200000D01*
X235400000Y-69200000D02*
X236350000Y-68250000D01*
X236350000Y-68250000D02*
X241850000Y-68250000D01*
X241850000Y-68250000D02*
X243500000Y-69900000D01*
X251200000Y-69500000D02*
X250300000Y-69500000D01*
X250300000Y-69500000D02*
X249000000Y-68200000D01*
X245200000Y-68200000D02*
X243500000Y-69900000D01*
X249000000Y-68200000D02*
X245200000Y-68200000D01*
X251400000Y-66300000D02*
X251400000Y-69300000D01*
X251400000Y-69300000D02*
X251200000Y-69500000D01*
D32*
X244920000Y-77530000D02*
X245670000Y-77530000D01*
X245670000Y-77530000D02*
X246770000Y-76430000D01*
X246770000Y-76430000D02*
X246770000Y-72690000D01*
X246770000Y-72690000D02*
X245560000Y-71480000D01*
X245560000Y-71480000D02*
X234280000Y-71480000D01*
X234280000Y-71480000D02*
X233670000Y-70870000D01*
X233670000Y-70870000D02*
X233670000Y-68620000D01*
X233670000Y-68620000D02*
X235770000Y-66520000D01*
X235770000Y-66520000D02*
X239260000Y-66520000D01*
X239260000Y-66520000D02*
X243500000Y-62280000D01*
D33*
X253440000Y-57000000D02*
X253440000Y-57910000D01*
X249250000Y-62100000D02*
X246700000Y-62100000D01*
X253440000Y-57910000D02*
X249250000Y-62100000D01*
X253500000Y-51800000D02*
X253500000Y-56940000D01*
X253500000Y-56940000D02*
X253440000Y-57000000D01*
X243500000Y-62280000D02*
X246520000Y-62280000D01*
X246520000Y-62280000D02*
X246700000Y-62100000D01*
X243320000Y-62280000D02*
X243500000Y-62280000D01*
D32*
X238700000Y-62300000D02*
X235420000Y-62300000D01*
X235420000Y-62300000D02*
X235400000Y-62280000D01*
X245060000Y-74010000D02*
X244700000Y-74010000D01*
X244700000Y-74010000D02*
X243120000Y-72430000D01*
X243120000Y-72430000D02*
X233020000Y-72430000D01*
X233020000Y-72430000D02*
X232410000Y-71820000D01*
X232410000Y-71820000D02*
X232410000Y-68590000D01*
X232410000Y-68590000D02*
X238700000Y-62300000D01*
D33*
X239200000Y-51800000D02*
X239200000Y-56840000D01*
X239200000Y-56840000D02*
X238840000Y-57200000D01*
X238840000Y-57200000D02*
X238840000Y-62160000D01*
X238840000Y-62160000D02*
X238700000Y-62300000D01*
D32*
X167520000Y-74140000D02*
X166080000Y-74140000D01*
X145960000Y-95210000D02*
X144625000Y-93875000D01*
X162800000Y-95210000D02*
X145960000Y-95210000D01*
X164900000Y-93110000D02*
X162800000Y-95210000D01*
X164900000Y-75320000D02*
X164900000Y-93110000D01*
X166080000Y-74140000D02*
X164900000Y-75320000D01*
D33*
X167520000Y-74140000D02*
X167990000Y-74140000D01*
X167990000Y-74140000D02*
X170300000Y-76450000D01*
X171470000Y-85120000D02*
X175100000Y-85120000D01*
X170300000Y-83950000D02*
X171470000Y-85120000D01*
X170300000Y-76450000D02*
X170300000Y-83950000D01*
X167520000Y-74140000D02*
X167940000Y-74140000D01*
D32*
X167520000Y-71600000D02*
X167210000Y-71600000D01*
X167210000Y-71600000D02*
X164020000Y-74790000D01*
X146190000Y-92090000D02*
X144625000Y-90525000D01*
X146190000Y-93580000D02*
X146190000Y-92090000D01*
X147140000Y-94530000D02*
X146190000Y-93580000D01*
X162110000Y-94530000D02*
X147140000Y-94530000D01*
X164020000Y-92620000D02*
X162110000Y-94530000D01*
X164020000Y-74790000D02*
X164020000Y-92620000D01*
D33*
X167520000Y-71600000D02*
X167520000Y-71770000D01*
X167520000Y-71770000D02*
X171550000Y-75800000D01*
X172780000Y-82580000D02*
X175100000Y-82580000D01*
X171550000Y-81350000D02*
X172780000Y-82580000D01*
X171550000Y-75800000D02*
X171550000Y-81350000D01*
X167520000Y-71600000D02*
X167900000Y-71600000D01*
X262830000Y-87520000D02*
X264300000Y-87520000D01*
X259750000Y-94150000D02*
X262000000Y-91900000D01*
X262000000Y-91900000D02*
X262000000Y-88350000D01*
X262000000Y-88350000D02*
X262830000Y-87520000D01*
X167520000Y-89380000D02*
X169030000Y-89380000D01*
X171350000Y-94150000D02*
X259750000Y-94150000D01*
X170900000Y-93700000D02*
X171350000Y-94150000D01*
X170900000Y-91250000D02*
X170900000Y-93700000D01*
X169030000Y-89380000D02*
X170900000Y-91250000D01*
X263020000Y-84980000D02*
X264300000Y-84980000D01*
X258700000Y-93050000D02*
X260750000Y-91000000D01*
X260750000Y-91000000D02*
X260750000Y-87250000D01*
X260750000Y-87250000D02*
X263020000Y-84980000D01*
X167520000Y-86840000D02*
X169340000Y-86840000D01*
X173250000Y-93050000D02*
X258700000Y-93050000D01*
X171950000Y-92400000D02*
X173250000Y-93050000D01*
X171950000Y-90100000D02*
X171950000Y-92400000D01*
X169340000Y-86840000D02*
X171950000Y-90100000D01*
X179820000Y-92090000D02*
X181050000Y-90860000D01*
X181050000Y-90860000D02*
X235580000Y-90860000D01*
X235580000Y-90860000D02*
X237300000Y-89140000D01*
X237300000Y-89140000D02*
X237300000Y-77530000D01*
X235230000Y-76990000D02*
X237440000Y-74780000D01*
X235230000Y-87750000D02*
X235230000Y-76990000D01*
X233120000Y-89860000D02*
X235230000Y-87750000D01*
X180260000Y-89860000D02*
X233120000Y-89860000D01*
X178590000Y-91530000D02*
X180260000Y-89860000D01*
X237440000Y-74780000D02*
X237440000Y-74010000D01*
X201360000Y-55580000D02*
X202280000Y-55580000D01*
X213020000Y-53730000D02*
X213020000Y-55240000D01*
X212130000Y-52840000D02*
X213020000Y-53730000D01*
X205020000Y-52840000D02*
X212130000Y-52840000D01*
X202280000Y-55580000D02*
X205020000Y-52840000D01*
X191870000Y-55210000D02*
X191870000Y-56689998D01*
X199560000Y-57380000D02*
X201360000Y-55580000D01*
X192560002Y-57380000D02*
X199560000Y-57380000D01*
X191870000Y-56689998D02*
X192560002Y-57380000D01*
X220640000Y-59740000D02*
X229520000Y-59740000D01*
X229520000Y-59740000D02*
X229830000Y-59430000D01*
X220640000Y-55240000D02*
X220640000Y-59740000D01*
X220640000Y-59740000D02*
X220640000Y-60040000D01*
X213080000Y-71760000D02*
X213250000Y-67840000D01*
X213520000Y-72200000D02*
X213080000Y-71760000D01*
X223580000Y-72200000D02*
X213520000Y-72200000D01*
X225250000Y-70530000D02*
X223580000Y-72200000D01*
X225250000Y-64650000D02*
X225250000Y-70530000D01*
X220640000Y-60040000D02*
X225250000Y-64650000D01*
X184130000Y-68060000D02*
X184130000Y-66570000D01*
X220870000Y-66260000D02*
X220870000Y-67840000D01*
X219610000Y-65000000D02*
X220870000Y-66260000D01*
X185700000Y-65000000D02*
X219610000Y-65000000D01*
X184130000Y-66570000D02*
X185700000Y-65000000D01*
X184130000Y-68060000D02*
X184130000Y-67330000D01*
X191750000Y-68060000D02*
X191750000Y-66860000D01*
X191750000Y-66860000D02*
X192900000Y-65710000D01*
X199340000Y-65710000D02*
X201280000Y-67650000D01*
X192900000Y-65710000D02*
X199340000Y-65710000D01*
D32*
X149750000Y-78350000D02*
X149750000Y-76670000D01*
X149750000Y-78350000D02*
X146429000Y-82687000D01*
X135284030Y-82682135D02*
X146429000Y-82687000D01*
X149750000Y-76670000D02*
X152280000Y-74140000D01*
X135284030Y-82682135D02*
X133254000Y-82922000D01*
X133254000Y-82922000D02*
X129270000Y-85690000D01*
X148975000Y-77325000D02*
X148975000Y-74905000D01*
X148975000Y-77325000D02*
X145354000Y-81962000D01*
X134744000Y-81962000D02*
X145354000Y-81962000D01*
X148975000Y-74905000D02*
X152280000Y-71600000D01*
X134744000Y-81962000D02*
X128174000Y-81906000D01*
X128174000Y-81906000D02*
X123480000Y-85460000D01*
X148019500Y-76605500D02*
X148019500Y-73320500D01*
X148019500Y-73320500D02*
X152280000Y-69060000D01*
X143922000Y-81144000D02*
X122579000Y-81287000D01*
X122579000Y-81287000D02*
X117160000Y-85690000D01*
X144100000Y-80525000D02*
X143922000Y-81144000D01*
X143922000Y-81144000D02*
X143812000Y-81144000D01*
X148025000Y-76600000D02*
X148019500Y-76605500D01*
X148019500Y-76605500D02*
X144100000Y-80525000D01*
X171400000Y-104490000D02*
X172485000Y-104490000D01*
X185750000Y-101950000D02*
X193450000Y-101950000D01*
X184150000Y-100350000D02*
X185750000Y-101950000D01*
X174375000Y-100350000D02*
X184150000Y-100350000D01*
X173500000Y-101225000D02*
X174375000Y-100350000D01*
X173500000Y-103475000D02*
X173500000Y-101225000D01*
X172485000Y-104490000D02*
X173500000Y-103475000D01*
D33*
X118210000Y-97610000D02*
X118210000Y-99350000D01*
X120860000Y-102000000D02*
X127300000Y-102000000D01*
X118210000Y-99350000D02*
X120860000Y-102000000D01*
D32*
X215650000Y-101800000D02*
X214550000Y-101800000D01*
X170050000Y-101950000D02*
X171400000Y-101950000D01*
X167325000Y-104675000D02*
X170050000Y-101950000D01*
X167325000Y-109900000D02*
X167325000Y-104675000D01*
X168375000Y-110950000D02*
X167325000Y-109900000D01*
X205400000Y-110950000D02*
X168375000Y-110950000D01*
X214550000Y-101800000D02*
X205400000Y-110950000D01*
X171400000Y-101950000D02*
X166950000Y-101950000D01*
X124900000Y-104475000D02*
X127300000Y-102075000D01*
X124900000Y-108750000D02*
X124900000Y-104475000D01*
X127750000Y-111600000D02*
X124900000Y-108750000D01*
X157300000Y-111600000D02*
X127750000Y-111600000D01*
X166950000Y-101950000D02*
X157300000Y-111600000D01*
X127300000Y-102075000D02*
X127300000Y-102000000D01*
X126800000Y-102000000D02*
X127300000Y-102000000D01*
X215650000Y-104340000D02*
X216660000Y-104340000D01*
X226975000Y-101700000D02*
X237800000Y-101700000D01*
X225250000Y-99975000D02*
X226975000Y-101700000D01*
X219650000Y-99975000D02*
X225250000Y-99975000D01*
X218025000Y-101600000D02*
X219650000Y-99975000D01*
X218025000Y-102975000D02*
X218025000Y-101600000D01*
X216660000Y-104340000D02*
X218025000Y-102975000D01*
X127300000Y-104540000D02*
X126160000Y-104540000D01*
X146000000Y-102100000D02*
X149500000Y-102100000D01*
X138000000Y-110100000D02*
X146000000Y-102100000D01*
X128000000Y-110100000D02*
X138000000Y-110100000D01*
X126000000Y-108100000D02*
X128000000Y-110100000D01*
X126000000Y-104700000D02*
X126000000Y-108100000D01*
X126160000Y-104540000D02*
X126000000Y-104700000D01*
D33*
X124880000Y-97540000D02*
X124940000Y-97540000D01*
X124940000Y-97540000D02*
X127110000Y-99710000D01*
X127110000Y-99710000D02*
X130960000Y-99710000D01*
X130960000Y-99710000D02*
X132000000Y-100750000D01*
X132000000Y-100750000D02*
X132000000Y-102100000D01*
D32*
X132000000Y-104640000D02*
X136760000Y-104640000D01*
X152700000Y-100500000D02*
X154300000Y-102100000D01*
X140900000Y-100500000D02*
X152700000Y-100500000D01*
X136760000Y-104640000D02*
X140900000Y-100500000D01*
D33*
X117160000Y-93310000D02*
X117160000Y-96120000D01*
X117160000Y-96120000D02*
X116940000Y-96340000D01*
X116870000Y-96270000D02*
X116940000Y-96340000D01*
X123480000Y-93080000D02*
X123480000Y-96140000D01*
X123480000Y-96140000D02*
X123610000Y-96270000D01*
X129270000Y-93310000D02*
X129270000Y-95560000D01*
X129270000Y-95560000D02*
X130050000Y-96340000D01*
D32*
X194975000Y-98950000D02*
X194975000Y-103200000D01*
X194975000Y-103200000D02*
X193685000Y-104490000D01*
X193685000Y-104490000D02*
X193450000Y-104490000D01*
D33*
X150510000Y-98600000D02*
X150510000Y-99400000D01*
D32*
X204900000Y-98975000D02*
X204900000Y-100650000D01*
X201060000Y-104490000D02*
X198100000Y-104490000D01*
X204900000Y-100650000D02*
X201060000Y-104490000D01*
D33*
X160460000Y-98570000D02*
X160400000Y-100800000D01*
X156560000Y-104640000D02*
X154300000Y-104640000D01*
X160400000Y-100800000D02*
X156560000Y-104640000D01*
D32*
X151900000Y-109040000D02*
X156885000Y-109040000D01*
X167975000Y-97950000D02*
X170380000Y-98490000D01*
X156885000Y-109040000D02*
X167975000Y-97950000D01*
X195700000Y-108940000D02*
X201410000Y-108940000D01*
X211450000Y-98900000D02*
X214800000Y-98900000D01*
X201410000Y-108940000D02*
X211450000Y-98900000D01*
X132492000Y-69206000D02*
X132492000Y-64492000D01*
X132492000Y-64492000D02*
X125530000Y-57530000D01*
X125530000Y-58434000D02*
X125530000Y-57530000D01*
D33*
X125530000Y-57530000D02*
X125530000Y-51030000D01*
D32*
X143160000Y-65396000D02*
X141836000Y-65396000D01*
X141836000Y-65396000D02*
X133880000Y-57440000D01*
D33*
X133880000Y-57440000D02*
X133880000Y-58166000D01*
X133880000Y-50940000D02*
X133880000Y-57440000D01*
D32*
X142610000Y-57330000D02*
X142610000Y-61544000D01*
X142610000Y-61544000D02*
X143160000Y-62094000D01*
D33*
X142610000Y-50830000D02*
X142610000Y-57330000D01*
X142610000Y-57330000D02*
X142082000Y-57330000D01*
M02*
