G04 #@! TF.FileFunction,Soldermask,Top*
%FSLAX46Y46*%
G04 Gerber Fmt 4.6, Leading zero omitted, Abs format (unit mm)*
G04 Created by KiCad (PCBNEW 4.0.7) date 02/26/20 20:24:43*
%MOMM*%
%LPD*%
G01*
G04 APERTURE LIST*
%ADD10C,0.100000*%
%ADD11R,2.100000X2.100000*%
%ADD12O,2.100000X2.100000*%
%ADD13R,2.000000X2.000000*%
%ADD14C,2.000000*%
%ADD15R,2.400000X3.000000*%
%ADD16O,2.400000X3.000000*%
%ADD17C,4.464000*%
%ADD18O,2.000000X2.000000*%
%ADD19R,1.750000X1.750000*%
%ADD20O,1.750000X1.750000*%
%ADD21C,1.974800*%
%ADD22R,2.600000X2.600000*%
%ADD23O,2.600000X2.600000*%
%ADD24R,3.900000X3.900000*%
%ADD25O,3.900000X3.900000*%
%ADD26R,2.200000X2.200000*%
%ADD27O,2.200000X2.200000*%
%ADD28C,2.200000*%
%ADD29C,1.400000*%
%ADD30R,1.400000X1.400000*%
%ADD31C,2.400000*%
G04 APERTURE END LIST*
D10*
D11*
X233076000Y-89018000D03*
D12*
X233076000Y-86478000D03*
X233076000Y-83938000D03*
X233076000Y-81398000D03*
D13*
X139350000Y-73778000D03*
D14*
X139350000Y-70278000D03*
D13*
X142490000Y-79020000D03*
D14*
X139990000Y-79020000D03*
D15*
X194410000Y-55210000D03*
D16*
X191870000Y-55210000D03*
X189330000Y-55210000D03*
X186790000Y-55210000D03*
X184250000Y-55210000D03*
X181710000Y-55210000D03*
X179170000Y-55210000D03*
D17*
X266000000Y-51600000D03*
X115000000Y-113600000D03*
X266000000Y-113600000D03*
X115000000Y-51600000D03*
D14*
X222154000Y-73524000D03*
X219654000Y-73524000D03*
X258300000Y-63100000D03*
X255800000Y-63100000D03*
X264550000Y-76300000D03*
X264550000Y-73800000D03*
D13*
X243500000Y-69900000D03*
D18*
X243500000Y-62280000D03*
D13*
X246700000Y-62100000D03*
D18*
X246700000Y-69720000D03*
D13*
X235400000Y-69900000D03*
D18*
X235400000Y-62280000D03*
D13*
X238700000Y-62300000D03*
D18*
X238700000Y-69920000D03*
D13*
X251400000Y-66300000D03*
D18*
X259020000Y-66300000D03*
D11*
X250900000Y-57000000D03*
D12*
X253440000Y-57000000D03*
X255980000Y-57000000D03*
X258520000Y-57000000D03*
D19*
X251500000Y-51800000D03*
D20*
X253500000Y-51800000D03*
X255500000Y-51800000D03*
X257500000Y-51800000D03*
D11*
X236300000Y-57200000D03*
D12*
X238840000Y-57200000D03*
X241380000Y-57200000D03*
X243920000Y-57200000D03*
D19*
X237200000Y-51800000D03*
D20*
X239200000Y-51800000D03*
X241200000Y-51800000D03*
X243200000Y-51800000D03*
D11*
X174550000Y-78050000D03*
D12*
X174550000Y-80590000D03*
X174550000Y-83130000D03*
X174550000Y-85670000D03*
X174550000Y-88210000D03*
X174550000Y-90750000D03*
D11*
X264300000Y-92600000D03*
D12*
X264300000Y-90060000D03*
X264300000Y-87520000D03*
X264300000Y-84980000D03*
X264300000Y-82440000D03*
D11*
X146700000Y-52700000D03*
D12*
X146700000Y-55240000D03*
D14*
X248500000Y-73870000D03*
D18*
X256120000Y-73870000D03*
D14*
X245060000Y-74010000D03*
D18*
X237440000Y-74010000D03*
D21*
X152280000Y-89380000D03*
X167520000Y-89380000D03*
X152280000Y-86840000D03*
X167520000Y-86840000D03*
X152280000Y-84300000D03*
X167520000Y-84300000D03*
X152280000Y-81760000D03*
X167520000Y-81760000D03*
X152280000Y-79220000D03*
X167520000Y-79220000D03*
X152280000Y-76680000D03*
X167520000Y-76680000D03*
X152280000Y-74140000D03*
X167520000Y-74140000D03*
X152280000Y-71600000D03*
X167520000Y-71600000D03*
X152280000Y-69060000D03*
X167520000Y-69060000D03*
X152280000Y-66520000D03*
X167520000Y-66520000D03*
X152280000Y-63980000D03*
X167520000Y-63980000D03*
X152280000Y-61440000D03*
X167520000Y-61440000D03*
X152280000Y-58900000D03*
X167520000Y-58900000D03*
X152280000Y-56360000D03*
X167520000Y-56360000D03*
X152280000Y-53820000D03*
X167520000Y-53820000D03*
D22*
X251200000Y-69500000D03*
D23*
X258820000Y-69500000D03*
D24*
X126700000Y-65800000D03*
X120700000Y-65800000D03*
X123700000Y-70500000D03*
D25*
X132134000Y-78604000D03*
D26*
X115474000Y-76064000D03*
D27*
X115474000Y-78604000D03*
X115474000Y-81144000D03*
D15*
X223180000Y-55240000D03*
D16*
X220640000Y-55240000D03*
X218100000Y-55240000D03*
X215560000Y-55240000D03*
X213020000Y-55240000D03*
X210480000Y-55240000D03*
X207940000Y-55240000D03*
D15*
X223410000Y-67840000D03*
D16*
X220870000Y-67840000D03*
X218330000Y-67840000D03*
X215790000Y-67840000D03*
X213250000Y-67840000D03*
X210710000Y-67840000D03*
X208170000Y-67840000D03*
D15*
X194290000Y-68060000D03*
D16*
X191750000Y-68060000D03*
X189210000Y-68060000D03*
X186670000Y-68060000D03*
X184130000Y-68060000D03*
X181590000Y-68060000D03*
X179050000Y-68060000D03*
D11*
X201360000Y-53040000D03*
D12*
X201360000Y-55580000D03*
D11*
X229830000Y-56890000D03*
D12*
X229830000Y-59430000D03*
D11*
X229774000Y-64888000D03*
D12*
X229774000Y-67428000D03*
D11*
X201280000Y-70190000D03*
D12*
X201280000Y-67650000D03*
D14*
X231340000Y-52280000D03*
X228840000Y-52280000D03*
X144625000Y-93875000D03*
D18*
X137005000Y-93875000D03*
D14*
X144625000Y-90525000D03*
D18*
X137005000Y-90525000D03*
D26*
X193450000Y-101950000D03*
D28*
X193450000Y-104490000D03*
D26*
X171400000Y-101950000D03*
D28*
X171400000Y-104490000D03*
D26*
X237800000Y-101700000D03*
D28*
X237800000Y-104240000D03*
D26*
X215650000Y-101800000D03*
D28*
X215650000Y-104340000D03*
D26*
X149500000Y-102100000D03*
D28*
X149500000Y-104640000D03*
D26*
X127300000Y-102000000D03*
D28*
X127300000Y-104540000D03*
D26*
X198100000Y-101950000D03*
D28*
X198100000Y-104490000D03*
D26*
X176200000Y-101950000D03*
D28*
X176200000Y-104490000D03*
D26*
X154300000Y-102100000D03*
D28*
X154300000Y-104640000D03*
D26*
X132000000Y-102100000D03*
D28*
X132000000Y-104640000D03*
D26*
X242600000Y-101800000D03*
D28*
X242600000Y-104340000D03*
D26*
X220300000Y-101800000D03*
D28*
X220300000Y-104340000D03*
D26*
X240250000Y-106250000D03*
D28*
X240250000Y-108790000D03*
D26*
X218000000Y-106200000D03*
D28*
X218000000Y-108740000D03*
D26*
X151900000Y-106500000D03*
D28*
X151900000Y-109040000D03*
D26*
X129600000Y-106200000D03*
D28*
X129600000Y-108740000D03*
D26*
X195700000Y-106400000D03*
D28*
X195700000Y-108940000D03*
D26*
X173750000Y-106250000D03*
D28*
X173750000Y-108790000D03*
D29*
X116940000Y-96340000D03*
X118210000Y-97610000D03*
D30*
X115670000Y-97610000D03*
D29*
X123610000Y-96270000D03*
X124880000Y-97540000D03*
D30*
X122340000Y-97540000D03*
D29*
X130050000Y-96340000D03*
X131320000Y-97610000D03*
D30*
X128780000Y-97610000D03*
D14*
X117160000Y-93310000D03*
D18*
X117160000Y-85690000D03*
D14*
X194975000Y-98950000D03*
D18*
X187355000Y-98950000D03*
D14*
X232950000Y-98650000D03*
D18*
X225330000Y-98650000D03*
D14*
X123480000Y-93080000D03*
D18*
X123480000Y-85460000D03*
D14*
X150510000Y-98600000D03*
D18*
X142890000Y-98600000D03*
D14*
X204900000Y-98975000D03*
D18*
X197280000Y-98975000D03*
D14*
X160460000Y-98570000D03*
D18*
X152840000Y-98570000D03*
D14*
X129270000Y-93310000D03*
D18*
X129270000Y-85690000D03*
D14*
X242775000Y-98600000D03*
D18*
X235155000Y-98600000D03*
D14*
X252725000Y-98650000D03*
D18*
X245105000Y-98650000D03*
D14*
X170380000Y-98490000D03*
D18*
X162760000Y-98490000D03*
D14*
X214800000Y-98900000D03*
D18*
X207180000Y-98900000D03*
D14*
X132492000Y-61586000D03*
D18*
X132492000Y-69206000D03*
D14*
X143160000Y-65396000D03*
D18*
X135540000Y-65396000D03*
D14*
X143160000Y-62094000D03*
D18*
X135540000Y-62094000D03*
D31*
X138110000Y-50830000D03*
X142610000Y-50830000D03*
X138110000Y-57330000D03*
X142610000Y-57330000D03*
X129380000Y-50940000D03*
X133880000Y-50940000D03*
X129380000Y-57440000D03*
X133880000Y-57440000D03*
X121030000Y-51030000D03*
X125530000Y-51030000D03*
X121030000Y-57530000D03*
X125530000Y-57530000D03*
D13*
X184816000Y-73524000D03*
D18*
X177196000Y-73524000D03*
D13*
X194722000Y-73524000D03*
D18*
X187102000Y-73524000D03*
D13*
X204628000Y-73524000D03*
D18*
X197008000Y-73524000D03*
D11*
X229266000Y-89018000D03*
D12*
X229266000Y-86478000D03*
X229266000Y-83938000D03*
X229266000Y-81398000D03*
X229266000Y-78858000D03*
X229266000Y-76318000D03*
X229266000Y-73778000D03*
D11*
X218852000Y-82160000D03*
D12*
X218852000Y-79620000D03*
X218852000Y-77080000D03*
D11*
X222662000Y-82160000D03*
D12*
X222662000Y-79620000D03*
X222662000Y-77080000D03*
M02*
