G04 #@! TF.FileFunction,Soldermask,Top*
%FSLAX46Y46*%
G04 Gerber Fmt 4.6, Leading zero omitted, Abs format (unit mm)*
G04 Created by KiCad (PCBNEW 4.0.7) date 10/23/20 17:39:24*
%MOMM*%
%LPD*%
G01*
G04 APERTURE LIST*
%ADD10C,0.100000*%
%ADD11R,2.000000X2.000000*%
%ADD12C,2.000000*%
%ADD13O,2.000000X2.000000*%
%ADD14R,2.100000X2.100000*%
%ADD15O,2.100000X2.100000*%
%ADD16C,4.464000*%
%ADD17C,1.974800*%
%ADD18R,2.600000X2.600000*%
%ADD19O,2.600000X2.600000*%
%ADD20R,3.900000X3.900000*%
%ADD21O,3.900000X3.900000*%
%ADD22R,2.200000X2.200000*%
%ADD23O,2.200000X2.200000*%
%ADD24C,2.200000*%
%ADD25C,1.400000*%
%ADD26R,1.400000X1.400000*%
%ADD27C,2.400000*%
%ADD28R,3.000000X2.400000*%
%ADD29O,3.000000X2.400000*%
G04 APERTURE END LIST*
D10*
D11*
X142490000Y-79020000D03*
D12*
X139990000Y-79020000D03*
D11*
X245975000Y-58550000D03*
D13*
X245975000Y-66170000D03*
D11*
X243225000Y-66250000D03*
D13*
X243225000Y-58630000D03*
D14*
X236220000Y-52540000D03*
D15*
X238760000Y-52540000D03*
X241300000Y-52540000D03*
X243840000Y-52540000D03*
D14*
X233076000Y-89018000D03*
D15*
X233076000Y-86478000D03*
X233076000Y-83938000D03*
X233076000Y-81398000D03*
D11*
X139350000Y-73778000D03*
D12*
X139350000Y-70278000D03*
D16*
X266000000Y-51600000D03*
X115000000Y-113600000D03*
X266000000Y-113600000D03*
X115000000Y-51600000D03*
D12*
X222154000Y-73524000D03*
X219654000Y-73524000D03*
X250010000Y-59320000D03*
X252510000Y-59320000D03*
X260750000Y-78100000D03*
X258250000Y-78100000D03*
D11*
X236325000Y-66225000D03*
D13*
X236325000Y-58605000D03*
D11*
X239150000Y-58550000D03*
D13*
X239150000Y-66170000D03*
D11*
X249730000Y-69740000D03*
D13*
X249730000Y-62120000D03*
D14*
X251920000Y-52770000D03*
D15*
X254460000Y-52770000D03*
X257000000Y-52770000D03*
X259540000Y-52770000D03*
D14*
X174550000Y-78050000D03*
D15*
X174550000Y-80590000D03*
X174550000Y-83130000D03*
X174550000Y-85670000D03*
X174550000Y-88210000D03*
X174550000Y-90750000D03*
D14*
X264300000Y-92600000D03*
D15*
X264300000Y-90060000D03*
X264300000Y-87520000D03*
X264300000Y-84980000D03*
X264300000Y-82440000D03*
D14*
X146700000Y-52700000D03*
D15*
X146700000Y-55240000D03*
D12*
X248500000Y-73870000D03*
D13*
X256120000Y-73870000D03*
D12*
X245060000Y-74010000D03*
D13*
X237440000Y-74010000D03*
D17*
X152280000Y-89380000D03*
X167520000Y-89380000D03*
X152280000Y-86840000D03*
X167520000Y-86840000D03*
X152280000Y-84300000D03*
X167520000Y-84300000D03*
X152280000Y-81760000D03*
X167520000Y-81760000D03*
X152280000Y-79220000D03*
X167520000Y-79220000D03*
X152280000Y-76680000D03*
X167520000Y-76680000D03*
X152280000Y-74140000D03*
X167520000Y-74140000D03*
X152280000Y-71600000D03*
X167520000Y-71600000D03*
X152280000Y-69060000D03*
X167520000Y-69060000D03*
X152280000Y-66520000D03*
X167520000Y-66520000D03*
X152280000Y-63980000D03*
X167520000Y-63980000D03*
X152280000Y-61440000D03*
X167520000Y-61440000D03*
X152280000Y-58900000D03*
X167520000Y-58900000D03*
X152280000Y-56360000D03*
X167520000Y-56360000D03*
X152280000Y-53820000D03*
X167520000Y-53820000D03*
D18*
X238050000Y-69075000D03*
D19*
X245670000Y-69075000D03*
D20*
X126700000Y-65800000D03*
X120700000Y-65800000D03*
X123700000Y-70500000D03*
D21*
X132134000Y-78604000D03*
D22*
X115474000Y-76064000D03*
D23*
X115474000Y-78604000D03*
X115474000Y-81144000D03*
D14*
X200525000Y-53025000D03*
D15*
X200525000Y-55565000D03*
D14*
X229830000Y-56890000D03*
D15*
X229830000Y-59430000D03*
D14*
X229774000Y-64888000D03*
D15*
X229774000Y-67428000D03*
D14*
X200225000Y-69500000D03*
D15*
X200225000Y-66960000D03*
D12*
X231340000Y-52280000D03*
X228840000Y-52280000D03*
X144625000Y-93875000D03*
D13*
X137005000Y-93875000D03*
D12*
X144625000Y-90525000D03*
D13*
X137005000Y-90525000D03*
D22*
X193450000Y-101950000D03*
D24*
X193450000Y-104490000D03*
D22*
X171400000Y-101950000D03*
D24*
X171400000Y-104490000D03*
D22*
X237800000Y-101700000D03*
D24*
X237800000Y-104240000D03*
D22*
X215650000Y-101800000D03*
D24*
X215650000Y-104340000D03*
D22*
X149500000Y-102100000D03*
D24*
X149500000Y-104640000D03*
D22*
X127300000Y-102000000D03*
D24*
X127300000Y-104540000D03*
D22*
X198100000Y-101950000D03*
D24*
X198100000Y-104490000D03*
D22*
X176200000Y-101950000D03*
D24*
X176200000Y-104490000D03*
D22*
X154300000Y-102100000D03*
D24*
X154300000Y-104640000D03*
D22*
X132000000Y-102100000D03*
D24*
X132000000Y-104640000D03*
D22*
X242600000Y-101800000D03*
D24*
X242600000Y-104340000D03*
D22*
X220300000Y-101800000D03*
D24*
X220300000Y-104340000D03*
D22*
X240250000Y-106250000D03*
D24*
X240250000Y-108790000D03*
D22*
X218000000Y-106200000D03*
D24*
X218000000Y-108740000D03*
D22*
X151900000Y-106500000D03*
D24*
X151900000Y-109040000D03*
D22*
X129600000Y-106200000D03*
D24*
X129600000Y-108740000D03*
D22*
X195700000Y-106400000D03*
D24*
X195700000Y-108940000D03*
D22*
X173750000Y-106250000D03*
D24*
X173750000Y-108790000D03*
D25*
X116940000Y-96340000D03*
X118210000Y-97610000D03*
D26*
X115670000Y-97610000D03*
D25*
X123610000Y-96270000D03*
X124880000Y-97540000D03*
D26*
X122340000Y-97540000D03*
D25*
X130050000Y-96340000D03*
X131320000Y-97610000D03*
D26*
X128780000Y-97610000D03*
D12*
X117160000Y-93310000D03*
D13*
X117160000Y-85690000D03*
D12*
X194975000Y-98950000D03*
D13*
X187355000Y-98950000D03*
D12*
X232950000Y-98650000D03*
D13*
X225330000Y-98650000D03*
D12*
X123480000Y-93080000D03*
D13*
X123480000Y-85460000D03*
D12*
X150510000Y-98600000D03*
D13*
X142890000Y-98600000D03*
D12*
X204900000Y-98975000D03*
D13*
X197280000Y-98975000D03*
D12*
X160460000Y-98570000D03*
D13*
X152840000Y-98570000D03*
D12*
X129270000Y-93310000D03*
D13*
X129270000Y-85690000D03*
D12*
X242775000Y-98600000D03*
D13*
X235155000Y-98600000D03*
D12*
X252725000Y-98650000D03*
D13*
X245105000Y-98650000D03*
D12*
X170380000Y-98490000D03*
D13*
X162760000Y-98490000D03*
D12*
X214800000Y-98900000D03*
D13*
X207180000Y-98900000D03*
D12*
X131200000Y-61575000D03*
D13*
X131200000Y-69195000D03*
D12*
X141675000Y-65475000D03*
D13*
X134055000Y-65475000D03*
D12*
X141725000Y-62200000D03*
D13*
X134105000Y-62200000D03*
D27*
X138110000Y-50830000D03*
X142610000Y-50830000D03*
X138110000Y-57330000D03*
X142610000Y-57330000D03*
X129380000Y-50940000D03*
X133880000Y-50940000D03*
X129380000Y-57440000D03*
X133880000Y-57440000D03*
X121030000Y-51030000D03*
X125530000Y-51030000D03*
X121030000Y-57530000D03*
X125530000Y-57530000D03*
D11*
X184816000Y-73524000D03*
D13*
X177196000Y-73524000D03*
D11*
X194722000Y-73524000D03*
D13*
X187102000Y-73524000D03*
D11*
X204628000Y-73524000D03*
D13*
X197008000Y-73524000D03*
D14*
X229266000Y-89018000D03*
D15*
X229266000Y-86478000D03*
X229266000Y-83938000D03*
X229266000Y-81398000D03*
X229266000Y-78858000D03*
X229266000Y-76318000D03*
X229266000Y-73778000D03*
D14*
X218852000Y-82160000D03*
D15*
X218852000Y-79620000D03*
X218852000Y-77080000D03*
D14*
X222662000Y-82160000D03*
D15*
X222662000Y-79620000D03*
X222662000Y-77080000D03*
D11*
X266150000Y-66825000D03*
D13*
X266150000Y-59205000D03*
D28*
X264825000Y-71700000D03*
D29*
X264825000Y-74240000D03*
D25*
X257968000Y-62348000D03*
X256698000Y-61078000D03*
D26*
X259238000Y-61078000D03*
D12*
X262550000Y-55820000D03*
D13*
X262550000Y-63440000D03*
D12*
X263450000Y-67060000D03*
D13*
X255830000Y-67060000D03*
D14*
X182425000Y-57625000D03*
D15*
X182425000Y-55085000D03*
X184965000Y-57625000D03*
X184965000Y-55085000D03*
X187505000Y-57625000D03*
X187505000Y-55085000D03*
X190045000Y-57625000D03*
X190045000Y-55085000D03*
X192585000Y-57625000D03*
X192585000Y-55085000D03*
D14*
X208625000Y-57425000D03*
D15*
X208625000Y-54885000D03*
X211165000Y-57425000D03*
X211165000Y-54885000D03*
X213705000Y-57425000D03*
X213705000Y-54885000D03*
X216245000Y-57425000D03*
X216245000Y-54885000D03*
X218785000Y-57425000D03*
X218785000Y-54885000D03*
D14*
X208600000Y-68125000D03*
D15*
X208600000Y-65585000D03*
X211140000Y-68125000D03*
X211140000Y-65585000D03*
X213680000Y-68125000D03*
X213680000Y-65585000D03*
X216220000Y-68125000D03*
X216220000Y-65585000D03*
X218760000Y-68125000D03*
X218760000Y-65585000D03*
D14*
X182225000Y-68100000D03*
D15*
X182225000Y-65560000D03*
X184765000Y-68100000D03*
X184765000Y-65560000D03*
X187305000Y-68100000D03*
X187305000Y-65560000D03*
X189845000Y-68100000D03*
X189845000Y-65560000D03*
X192385000Y-68100000D03*
X192385000Y-65560000D03*
D12*
X146000000Y-76450000D03*
X146000000Y-73950000D03*
X145900000Y-64200000D03*
X145900000Y-61700000D03*
X146200000Y-70575000D03*
X146200000Y-68075000D03*
M02*
