M48
;DRILL file {KiCad 4.0.7} date 10/23/20 17:39:25
;FORMAT={-:-/ absolute / metric / decimal}
FMAT,2
METRIC,TZ
T1C0.400
T2C0.600
T3C0.800
T4C0.900
T5C1.000
T6C1.100
T7C1.200
T8C3.048
%
G90
G05
M71
T1
X141.Y-81.05
X141.25Y-83.
X141.3Y-82.05
X142.25Y-73.175
X149.05Y-51.9
X157.6Y-80.2
X157.6Y-83.
X157.7Y-78.25
X162.65Y-52.675
X169.05Y-51.075
X170.54Y-63.67
X178.59Y-91.53
X179.82Y-92.09
X192.475Y-60.15
X207.175Y-62.475
X207.225Y-60.05
X210.025Y-71.35
X213.8Y-62.475
T2
X115.67Y-97.61
X116.94Y-96.34
X118.21Y-97.61
X122.34Y-97.54
X123.61Y-96.27
X124.88Y-97.54
X128.78Y-97.61
X130.05Y-96.34
X131.32Y-97.61
X256.698Y-61.078
X257.968Y-62.348
X259.238Y-61.078
T3
X117.16Y-85.69
X117.16Y-93.31
X123.48Y-85.46
X123.48Y-93.08
X129.27Y-85.69
X129.27Y-93.31
X131.2Y-61.575
X131.2Y-69.195
X134.055Y-65.475
X134.105Y-62.2
X137.005Y-90.525
X137.005Y-93.875
X139.35Y-70.278
X139.35Y-73.778
X139.99Y-79.02
X141.675Y-65.475
X141.725Y-62.2
X142.49Y-79.02
X142.89Y-98.6
X144.625Y-90.525
X144.625Y-93.875
X145.9Y-61.7
X145.9Y-64.2
X146.Y-73.95
X146.Y-76.45
X146.2Y-68.075
X146.2Y-70.575
X150.51Y-98.6
X152.28Y-53.82
X152.28Y-56.36
X152.28Y-58.9
X152.28Y-61.44
X152.28Y-63.98
X152.28Y-66.52
X152.28Y-69.06
X152.28Y-71.6
X152.28Y-74.14
X152.28Y-76.68
X152.28Y-79.22
X152.28Y-81.76
X152.28Y-84.3
X152.28Y-86.84
X152.28Y-89.38
X152.84Y-98.57
X160.46Y-98.57
X162.76Y-98.49
X167.52Y-53.82
X167.52Y-56.36
X167.52Y-58.9
X167.52Y-61.44
X167.52Y-63.98
X167.52Y-66.52
X167.52Y-69.06
X167.52Y-71.6
X167.52Y-74.14
X167.52Y-76.68
X167.52Y-79.22
X167.52Y-81.76
X167.52Y-84.3
X167.52Y-86.84
X167.52Y-89.38
X170.38Y-98.49
X177.196Y-73.524
X184.816Y-73.524
X187.102Y-73.524
X187.355Y-98.95
X194.722Y-73.524
X194.975Y-98.95
X197.008Y-73.524
X197.28Y-98.975
X204.628Y-73.524
X204.9Y-98.975
X207.18Y-98.9
X214.8Y-98.9
X219.654Y-73.524
X222.154Y-73.524
X225.33Y-98.65
X228.84Y-52.28
X231.34Y-52.28
X232.95Y-98.65
X235.155Y-98.6
X236.325Y-58.605
X236.325Y-66.225
X237.44Y-74.01
X239.15Y-58.55
X239.15Y-66.17
X242.775Y-98.6
X243.225Y-58.63
X243.225Y-66.25
X245.06Y-74.01
X245.105Y-98.65
X245.975Y-58.55
X245.975Y-66.17
X248.5Y-73.87
X249.73Y-62.12
X249.73Y-69.74
X250.01Y-59.32
X252.51Y-59.32
X252.725Y-98.65
X255.83Y-67.06
X256.12Y-73.87
X258.25Y-78.1
X260.75Y-78.1
X262.55Y-55.82
X262.55Y-63.44
X263.45Y-67.06
X266.15Y-59.205
X266.15Y-66.825
T4
X127.3Y-102.
X127.3Y-104.54
X129.6Y-106.2
X129.6Y-108.74
X132.Y-102.1
X132.Y-104.64
X149.5Y-102.1
X149.5Y-104.64
X151.9Y-106.5
X151.9Y-109.04
X154.3Y-102.1
X154.3Y-104.64
X171.4Y-101.95
X171.4Y-104.49
X173.75Y-106.25
X173.75Y-108.79
X176.2Y-101.95
X176.2Y-104.49
X193.45Y-101.95
X193.45Y-104.49
X195.7Y-106.4
X195.7Y-108.94
X198.1Y-101.95
X198.1Y-104.49
X215.65Y-101.8
X215.65Y-104.34
X218.Y-106.2
X218.Y-108.74
X220.3Y-101.8
X220.3Y-104.34
X237.8Y-101.7
X237.8Y-104.24
X240.25Y-106.25
X240.25Y-108.79
X242.6Y-101.8
X242.6Y-104.34
T5
X115.474Y-76.064
X115.474Y-78.604
X115.474Y-81.144
X146.7Y-52.7
X146.7Y-55.24
X174.55Y-78.05
X174.55Y-80.59
X174.55Y-83.13
X174.55Y-85.67
X174.55Y-88.21
X174.55Y-90.75
X182.225Y-65.56
X182.225Y-68.1
X182.425Y-55.085
X182.425Y-57.625
X184.765Y-65.56
X184.765Y-68.1
X184.965Y-55.085
X184.965Y-57.625
X187.305Y-65.56
X187.305Y-68.1
X187.505Y-55.085
X187.505Y-57.625
X189.845Y-65.56
X189.845Y-68.1
X190.045Y-55.085
X190.045Y-57.625
X192.385Y-65.56
X192.385Y-68.1
X192.585Y-55.085
X192.585Y-57.625
X200.225Y-66.96
X200.225Y-69.5
X200.525Y-53.025
X200.525Y-55.565
X208.6Y-65.585
X208.6Y-68.125
X208.625Y-54.885
X208.625Y-57.425
X211.14Y-65.585
X211.14Y-68.125
X211.165Y-54.885
X211.165Y-57.425
X213.68Y-65.585
X213.68Y-68.125
X213.705Y-54.885
X213.705Y-57.425
X216.22Y-65.585
X216.22Y-68.125
X216.245Y-54.885
X216.245Y-57.425
X218.76Y-65.585
X218.76Y-68.125
X218.785Y-54.885
X218.785Y-57.425
X218.852Y-77.08
X218.852Y-79.62
X218.852Y-82.16
X222.662Y-77.08
X222.662Y-79.62
X222.662Y-82.16
X229.266Y-73.778
X229.266Y-76.318
X229.266Y-78.858
X229.266Y-81.398
X229.266Y-83.938
X229.266Y-86.478
X229.266Y-89.018
X229.774Y-64.888
X229.774Y-67.428
X229.83Y-56.89
X229.83Y-59.43
X233.076Y-81.398
X233.076Y-83.938
X233.076Y-86.478
X233.076Y-89.018
X236.22Y-52.54
X238.76Y-52.54
X241.3Y-52.54
X243.84Y-52.54
X251.92Y-52.77
X254.46Y-52.77
X257.Y-52.77
X259.54Y-52.77
X264.3Y-82.44
X264.3Y-84.98
X264.3Y-87.52
X264.3Y-90.06
X264.3Y-92.6
T6
X121.03Y-51.03
X121.03Y-57.53
X125.53Y-51.03
X125.53Y-57.53
X129.38Y-50.94
X129.38Y-57.44
X133.88Y-50.94
X133.88Y-57.44
X138.11Y-50.83
X138.11Y-57.33
X142.61Y-50.83
X142.61Y-57.33
X238.05Y-69.075
X245.67Y-69.075
T7
X264.825Y-71.7
X264.825Y-74.24
T8
X115.Y-51.6
X115.Y-113.6
X266.Y-51.6
X266.Y-113.6
T5
X120.7Y-64.8G85X120.7Y-66.8
G05
X122.7Y-70.5G85X124.7Y-70.5
G05
X126.7Y-64.8G85X126.7Y-66.8
G05
T0
M30
