G04 #@! TF.FileFunction,Copper,L2,Bot,Signal*
%FSLAX46Y46*%
G04 Gerber Fmt 4.6, Leading zero omitted, Abs format (unit mm)*
G04 Created by KiCad (PCBNEW 4.0.7) date 03/27/20 15:31:12*
%MOMM*%
%LPD*%
G01*
G04 APERTURE LIST*
%ADD10C,0.100000*%
%ADD11R,1.600000X1.600000*%
%ADD12O,1.600000X1.600000*%
%ADD13R,1.700000X1.700000*%
%ADD14O,1.700000X1.700000*%
%ADD15C,1.600000*%
%ADD16R,2.000000X2.600000*%
%ADD17O,2.000000X2.600000*%
%ADD18C,4.064000*%
%ADD19C,1.574800*%
%ADD20R,2.200000X2.200000*%
%ADD21O,2.200000X2.200000*%
%ADD22R,3.500000X3.500000*%
%ADD23R,1.800000X1.800000*%
%ADD24O,1.800000X1.800000*%
%ADD25C,1.800000*%
%ADD26C,1.000000*%
%ADD27R,1.000000X1.000000*%
%ADD28C,2.000000*%
%ADD29R,2.600000X2.000000*%
%ADD30O,2.600000X2.000000*%
%ADD31C,0.600000*%
%ADD32C,0.350000*%
%ADD33C,0.500000*%
%ADD34C,1.000000*%
G04 APERTURE END LIST*
D10*
D11*
X245975000Y-58550000D03*
D12*
X245975000Y-66170000D03*
D11*
X243225000Y-66250000D03*
D12*
X243225000Y-58630000D03*
D13*
X236220000Y-52540000D03*
D14*
X238760000Y-52540000D03*
X241300000Y-52540000D03*
X243840000Y-52540000D03*
D13*
X233076000Y-89018000D03*
D14*
X233076000Y-86478000D03*
X233076000Y-83938000D03*
X233076000Y-81398000D03*
D11*
X139350000Y-73778000D03*
D15*
X139350000Y-70278000D03*
D11*
X142490000Y-79020000D03*
D15*
X139990000Y-79020000D03*
D16*
X194410000Y-55210000D03*
D17*
X191870000Y-55210000D03*
X189330000Y-55210000D03*
X186790000Y-55210000D03*
X184250000Y-55210000D03*
X181710000Y-55210000D03*
X179170000Y-55210000D03*
D18*
X266000000Y-51600000D03*
X115000000Y-113600000D03*
X266000000Y-113600000D03*
X115000000Y-51600000D03*
D15*
X222154000Y-73524000D03*
X219654000Y-73524000D03*
X250010000Y-59320000D03*
X252510000Y-59320000D03*
X260750000Y-78100000D03*
X258250000Y-78100000D03*
D11*
X236325000Y-66225000D03*
D12*
X236325000Y-58605000D03*
D11*
X239150000Y-58550000D03*
D12*
X239150000Y-66170000D03*
D11*
X249730000Y-69740000D03*
D12*
X249730000Y-62120000D03*
D13*
X251920000Y-52770000D03*
D14*
X254460000Y-52770000D03*
X257000000Y-52770000D03*
X259540000Y-52770000D03*
D13*
X174550000Y-78050000D03*
D14*
X174550000Y-80590000D03*
X174550000Y-83130000D03*
X174550000Y-85670000D03*
X174550000Y-88210000D03*
X174550000Y-90750000D03*
D13*
X264300000Y-92600000D03*
D14*
X264300000Y-90060000D03*
X264300000Y-87520000D03*
X264300000Y-84980000D03*
X264300000Y-82440000D03*
D13*
X146700000Y-52700000D03*
D14*
X146700000Y-55240000D03*
D15*
X248500000Y-73870000D03*
D12*
X256120000Y-73870000D03*
D15*
X245060000Y-74010000D03*
D12*
X237440000Y-74010000D03*
D19*
X152280000Y-89380000D03*
X167520000Y-89380000D03*
X152280000Y-86840000D03*
X167520000Y-86840000D03*
X152280000Y-84300000D03*
X167520000Y-84300000D03*
X152280000Y-81760000D03*
X167520000Y-81760000D03*
X152280000Y-79220000D03*
X167520000Y-79220000D03*
X152280000Y-76680000D03*
X167520000Y-76680000D03*
X152280000Y-74140000D03*
X167520000Y-74140000D03*
X152280000Y-71600000D03*
X167520000Y-71600000D03*
X152280000Y-69060000D03*
X167520000Y-69060000D03*
X152280000Y-66520000D03*
X167520000Y-66520000D03*
X152280000Y-63980000D03*
X167520000Y-63980000D03*
X152280000Y-61440000D03*
X167520000Y-61440000D03*
X152280000Y-58900000D03*
X167520000Y-58900000D03*
X152280000Y-56360000D03*
X167520000Y-56360000D03*
X152280000Y-53820000D03*
X167520000Y-53820000D03*
D20*
X238050000Y-69075000D03*
D21*
X245670000Y-69075000D03*
D22*
X126700000Y-65800000D03*
X120700000Y-65800000D03*
X123700000Y-70500000D03*
D23*
X115474000Y-76064000D03*
D24*
X115474000Y-78604000D03*
X115474000Y-81144000D03*
D16*
X223180000Y-55240000D03*
D17*
X220640000Y-55240000D03*
X218100000Y-55240000D03*
X215560000Y-55240000D03*
X213020000Y-55240000D03*
X210480000Y-55240000D03*
X207940000Y-55240000D03*
D16*
X223410000Y-67840000D03*
D17*
X220870000Y-67840000D03*
X218330000Y-67840000D03*
X215790000Y-67840000D03*
X213250000Y-67840000D03*
X210710000Y-67840000D03*
X208170000Y-67840000D03*
D16*
X194290000Y-68060000D03*
D17*
X191750000Y-68060000D03*
X189210000Y-68060000D03*
X186670000Y-68060000D03*
X184130000Y-68060000D03*
X181590000Y-68060000D03*
X179050000Y-68060000D03*
D13*
X201360000Y-53040000D03*
D14*
X201360000Y-55580000D03*
D13*
X229830000Y-56890000D03*
D14*
X229830000Y-59430000D03*
D13*
X229774000Y-64888000D03*
D14*
X229774000Y-67428000D03*
D13*
X201280000Y-70190000D03*
D14*
X201280000Y-67650000D03*
D15*
X231340000Y-52280000D03*
X228840000Y-52280000D03*
X144625000Y-93875000D03*
D12*
X137005000Y-93875000D03*
D15*
X144625000Y-90525000D03*
D12*
X137005000Y-90525000D03*
D23*
X193450000Y-101950000D03*
D25*
X193450000Y-104490000D03*
D23*
X171400000Y-101950000D03*
D25*
X171400000Y-104490000D03*
D23*
X237800000Y-101700000D03*
D25*
X237800000Y-104240000D03*
D23*
X215650000Y-101800000D03*
D25*
X215650000Y-104340000D03*
D23*
X149500000Y-102100000D03*
D25*
X149500000Y-104640000D03*
D23*
X127300000Y-102000000D03*
D25*
X127300000Y-104540000D03*
D23*
X198100000Y-101950000D03*
D25*
X198100000Y-104490000D03*
D23*
X176200000Y-101950000D03*
D25*
X176200000Y-104490000D03*
D23*
X154300000Y-102100000D03*
D25*
X154300000Y-104640000D03*
D23*
X132000000Y-102100000D03*
D25*
X132000000Y-104640000D03*
D23*
X242600000Y-101800000D03*
D25*
X242600000Y-104340000D03*
D23*
X220300000Y-101800000D03*
D25*
X220300000Y-104340000D03*
D23*
X240250000Y-106250000D03*
D25*
X240250000Y-108790000D03*
D23*
X218000000Y-106200000D03*
D25*
X218000000Y-108740000D03*
D23*
X151900000Y-106500000D03*
D25*
X151900000Y-109040000D03*
D23*
X129600000Y-106200000D03*
D25*
X129600000Y-108740000D03*
D23*
X195700000Y-106400000D03*
D25*
X195700000Y-108940000D03*
D23*
X173750000Y-106250000D03*
D25*
X173750000Y-108790000D03*
D26*
X116940000Y-96340000D03*
X118210000Y-97610000D03*
D27*
X115670000Y-97610000D03*
D26*
X123610000Y-96270000D03*
X124880000Y-97540000D03*
D27*
X122340000Y-97540000D03*
D26*
X130050000Y-96340000D03*
X131320000Y-97610000D03*
D27*
X128780000Y-97610000D03*
D15*
X117160000Y-93310000D03*
D12*
X117160000Y-85690000D03*
D15*
X194975000Y-98950000D03*
D12*
X187355000Y-98950000D03*
D15*
X232950000Y-98650000D03*
D12*
X225330000Y-98650000D03*
D15*
X123480000Y-93080000D03*
D12*
X123480000Y-85460000D03*
D15*
X150510000Y-98600000D03*
D12*
X142890000Y-98600000D03*
D15*
X204900000Y-98975000D03*
D12*
X197280000Y-98975000D03*
D15*
X160460000Y-98570000D03*
D12*
X152840000Y-98570000D03*
D15*
X129270000Y-93310000D03*
D12*
X129270000Y-85690000D03*
D15*
X242775000Y-98600000D03*
D12*
X235155000Y-98600000D03*
D15*
X252725000Y-98650000D03*
D12*
X245105000Y-98650000D03*
D15*
X170380000Y-98490000D03*
D12*
X162760000Y-98490000D03*
D15*
X214800000Y-98900000D03*
D12*
X207180000Y-98900000D03*
D15*
X132492000Y-61586000D03*
D12*
X132492000Y-69206000D03*
D15*
X143160000Y-65396000D03*
D12*
X135540000Y-65396000D03*
D15*
X143160000Y-62094000D03*
D12*
X135540000Y-62094000D03*
D28*
X138110000Y-50830000D03*
X142610000Y-50830000D03*
X138110000Y-57330000D03*
X142610000Y-57330000D03*
X129380000Y-50940000D03*
X133880000Y-50940000D03*
X129380000Y-57440000D03*
X133880000Y-57440000D03*
X121030000Y-51030000D03*
X125530000Y-51030000D03*
X121030000Y-57530000D03*
X125530000Y-57530000D03*
D11*
X184816000Y-73524000D03*
D12*
X177196000Y-73524000D03*
D11*
X194722000Y-73524000D03*
D12*
X187102000Y-73524000D03*
D11*
X204628000Y-73524000D03*
D12*
X197008000Y-73524000D03*
D13*
X229266000Y-89018000D03*
D14*
X229266000Y-86478000D03*
X229266000Y-83938000D03*
X229266000Y-81398000D03*
X229266000Y-78858000D03*
X229266000Y-76318000D03*
X229266000Y-73778000D03*
D13*
X218852000Y-82160000D03*
D14*
X218852000Y-79620000D03*
X218852000Y-77080000D03*
D13*
X222662000Y-82160000D03*
D14*
X222662000Y-79620000D03*
X222662000Y-77080000D03*
D11*
X266150000Y-66825000D03*
D12*
X266150000Y-59205000D03*
D29*
X264825000Y-71700000D03*
D30*
X264825000Y-74240000D03*
D26*
X257968000Y-62348000D03*
X256698000Y-61078000D03*
D27*
X259238000Y-61078000D03*
D15*
X262550000Y-55820000D03*
D12*
X262550000Y-63440000D03*
D15*
X263450000Y-67060000D03*
D12*
X255830000Y-67060000D03*
D31*
X209410000Y-63680000D03*
X216760000Y-58900000D03*
X213740000Y-60130000D03*
X170540000Y-63670000D03*
X179820000Y-92090000D03*
X157700000Y-78250000D03*
X141000000Y-81050000D03*
X141300000Y-82050000D03*
X157600000Y-80200000D03*
X141250000Y-83000000D03*
X157600000Y-83000000D03*
X178590000Y-91530000D03*
X149050000Y-51900000D03*
X154425000Y-58900000D03*
D32*
X235420000Y-62300000D02*
X235400000Y-62280000D01*
D33*
X251920000Y-52770000D02*
X251920000Y-52455000D01*
X251920000Y-52455000D02*
X253350000Y-51025000D01*
X251605000Y-57725000D02*
X250010000Y-59320000D01*
X252100000Y-57725000D02*
X251605000Y-57725000D01*
X253675000Y-56150000D02*
X252100000Y-57725000D01*
X259175000Y-56150000D02*
X253675000Y-56150000D01*
X261250000Y-54075000D02*
X259175000Y-56150000D01*
X261250000Y-51825000D02*
X261250000Y-54075000D01*
X260450000Y-51025000D02*
X261250000Y-51825000D01*
X253350000Y-51025000D02*
X260450000Y-51025000D01*
X236220000Y-52540000D02*
X236220000Y-51155000D01*
X249850000Y-50700000D02*
X251920000Y-52770000D01*
X236675000Y-50700000D02*
X249850000Y-50700000D01*
X236220000Y-51155000D02*
X236675000Y-50700000D01*
X260750000Y-78100000D02*
X260750000Y-77340000D01*
X260750000Y-77340000D02*
X258170000Y-74760000D01*
X252760000Y-65150000D02*
X249730000Y-62120000D01*
X252760000Y-69730000D02*
X252760000Y-65150000D01*
X254200000Y-71170000D02*
X252760000Y-69730000D01*
X257520000Y-71170000D02*
X254200000Y-71170000D01*
X258170000Y-71820000D02*
X257520000Y-71170000D01*
X258170000Y-74760000D02*
X258170000Y-71820000D01*
X250010000Y-59320000D02*
X250010000Y-61840000D01*
X250010000Y-61840000D02*
X249730000Y-62120000D01*
X264300000Y-92600000D02*
X265175000Y-92600000D01*
X263450000Y-78575000D02*
X261225000Y-78575000D01*
X267125000Y-82250000D02*
X263450000Y-78575000D01*
X267125000Y-90650000D02*
X267125000Y-82250000D01*
X265175000Y-92600000D02*
X267125000Y-90650000D01*
X261225000Y-78575000D02*
X260750000Y-78100000D01*
X265000000Y-93300000D02*
X264300000Y-92600000D01*
D32*
X164550000Y-62670000D02*
X147014654Y-62670000D01*
X146697327Y-62352673D02*
X146697327Y-62353476D01*
X147014654Y-62670000D02*
X146697327Y-62352673D01*
D33*
X142490000Y-79020000D02*
X142490000Y-79190000D01*
X142490000Y-79190000D02*
X145060000Y-81760000D01*
X145060000Y-81760000D02*
X152280000Y-81760000D01*
X142490000Y-79020000D02*
X142490000Y-85040000D01*
X142490000Y-85040000D02*
X137005000Y-90525000D01*
D32*
X152280000Y-58900000D02*
X152280000Y-57680000D01*
X152250000Y-57800000D02*
X152250000Y-57680000D01*
X152250000Y-57710000D02*
X152250000Y-57800000D01*
X152280000Y-57680000D02*
X152250000Y-57710000D01*
D33*
X137005000Y-90525000D02*
X137005000Y-93875000D01*
D32*
X174550000Y-80590000D02*
X173540000Y-80590000D01*
X172150000Y-79200000D02*
X172150000Y-68478000D01*
X173540000Y-80590000D02*
X172150000Y-79200000D01*
X222154000Y-73524000D02*
X222154000Y-76572000D01*
X222154000Y-76572000D02*
X222662000Y-77080000D01*
X218852000Y-77080000D02*
X222662000Y-77080000D01*
X177196000Y-73524000D02*
X177196000Y-73016000D01*
X177196000Y-73016000D02*
X178212000Y-72000000D01*
X220630000Y-72000000D02*
X222154000Y-73524000D01*
X178212000Y-72000000D02*
X220630000Y-72000000D01*
X169322000Y-62670000D02*
X169322000Y-65650000D01*
X169322000Y-65650000D02*
X172150000Y-68478000D01*
X172150000Y-68478000D02*
X177196000Y-73524000D01*
X135540000Y-62094000D02*
X133000000Y-62094000D01*
X133000000Y-62094000D02*
X132492000Y-61586000D01*
X135540000Y-62094000D02*
X135540000Y-65396000D01*
D33*
X231340000Y-52280000D02*
X231340000Y-51240000D01*
X150045000Y-55165000D02*
X146700000Y-55240000D01*
X150185000Y-55025000D02*
X150045000Y-55165000D01*
X150185000Y-50945000D02*
X150185000Y-55025000D01*
X150725000Y-50225000D02*
X150185000Y-50945000D01*
X230415000Y-50465000D02*
X150725000Y-50225000D01*
X231340000Y-51240000D02*
X230415000Y-50465000D01*
X231340000Y-52280000D02*
X236040000Y-52245000D01*
X181590000Y-68060000D02*
X181590000Y-66600000D01*
X184510000Y-63680000D02*
X209410000Y-63680000D01*
X181590000Y-66600000D02*
X184510000Y-63680000D01*
X181750000Y-67900000D02*
X181590000Y-68060000D01*
D32*
X181710000Y-58320000D02*
X181710000Y-55210000D01*
X177360000Y-62670000D02*
X181710000Y-58320000D01*
X164550000Y-62670000D02*
X169322000Y-62670000D01*
X169322000Y-62670000D02*
X177360000Y-62670000D01*
X146700000Y-55240000D02*
X146700000Y-55480000D01*
X146700000Y-55480000D02*
X148900000Y-57680000D01*
X148900000Y-57680000D02*
X152250000Y-57680000D01*
X152250000Y-57680000D02*
X161010000Y-57680000D01*
X161010000Y-57680000D02*
X163450000Y-60120000D01*
X163450000Y-60120000D02*
X176800000Y-60120000D01*
X176800000Y-60120000D02*
X181710000Y-55210000D01*
X152280000Y-84300000D02*
X152810000Y-84300000D01*
D33*
X252520000Y-52170000D02*
X251920000Y-52770000D01*
D34*
X152280000Y-81760000D02*
X152280000Y-84300000D01*
X146700000Y-55240000D02*
X146700000Y-57510000D01*
X146700000Y-57510000D02*
X146697327Y-62353476D01*
X146697327Y-62353476D02*
X146690000Y-75630000D01*
X146690000Y-75630000D02*
X142490000Y-79020000D01*
D33*
X229266000Y-86478000D02*
X233076000Y-86478000D01*
X189330000Y-55210000D02*
X189330000Y-56840000D01*
X216480000Y-58620000D02*
X216760000Y-58900000D01*
X191110000Y-58620000D02*
X216480000Y-58620000D01*
X189330000Y-56840000D02*
X191110000Y-58620000D01*
X189330000Y-55210000D02*
X189330000Y-56360000D01*
X152280000Y-53820000D02*
X163580000Y-53820000D01*
X189330000Y-52820000D02*
X189330000Y-55210000D01*
X187720000Y-51460000D02*
X189330000Y-52820000D01*
X166190000Y-51460000D02*
X187720000Y-51460000D01*
X163580000Y-53820000D02*
X166190000Y-51460000D01*
X152280000Y-53820000D02*
X152540000Y-53820000D01*
X186790000Y-55210000D02*
X186790000Y-57370000D01*
X189550000Y-60130000D02*
X213740000Y-60130000D01*
X186790000Y-57370000D02*
X189550000Y-60130000D01*
X186630000Y-55370000D02*
X186790000Y-55210000D01*
X167520000Y-58900000D02*
X167220000Y-58900000D01*
X167220000Y-58900000D02*
X166050000Y-57730000D01*
X166050000Y-57730000D02*
X166050000Y-53090000D01*
X166050000Y-53090000D02*
X166950000Y-52190000D01*
X166950000Y-52190000D02*
X185720000Y-52190000D01*
X185720000Y-52190000D02*
X186790000Y-53260000D01*
X186790000Y-53260000D02*
X186790000Y-55210000D01*
X184250000Y-55210000D02*
X184250000Y-53660000D01*
X170880000Y-53000000D02*
X167520000Y-56360000D01*
X183590000Y-53000000D02*
X170880000Y-53000000D01*
X184250000Y-53660000D02*
X183590000Y-53000000D01*
X201280000Y-70190000D02*
X211962000Y-70190000D01*
X229256000Y-71070000D02*
X229012000Y-70984000D01*
X231298000Y-69460000D02*
X229256000Y-71070000D01*
X231298000Y-65904000D02*
X231298000Y-69460000D01*
X230384000Y-64888000D02*
X231298000Y-65904000D01*
X211962000Y-70190000D02*
X213010000Y-70984000D01*
X213010000Y-70984000D02*
X226472000Y-70984000D01*
X226472000Y-70984000D02*
X229012000Y-70984000D01*
D32*
X201280000Y-70190000D02*
X200880000Y-70190000D01*
X200880000Y-70190000D02*
X198536000Y-70248000D01*
X170920000Y-64050000D02*
X170540000Y-63670000D01*
X173620000Y-64050000D02*
X170920000Y-64050000D01*
X174880000Y-65310000D02*
X173620000Y-64050000D01*
X174910000Y-68190000D02*
X174880000Y-65310000D01*
X177136000Y-70248000D02*
X174910000Y-68190000D01*
X198536000Y-70248000D02*
X177136000Y-70248000D01*
D33*
X229830000Y-56890000D02*
X228610000Y-56890000D01*
X228610000Y-56890000D02*
X223000000Y-51280000D01*
X229774000Y-64888000D02*
X230384000Y-64888000D01*
X229830000Y-56890000D02*
X231010000Y-56890000D01*
X230536000Y-63618000D02*
X229774000Y-64888000D01*
X232060000Y-62348000D02*
X230536000Y-63618000D01*
X231960000Y-57840000D02*
X232060000Y-62348000D01*
X231010000Y-56890000D02*
X231960000Y-57840000D01*
X203120000Y-51280000D02*
X201360000Y-53040000D01*
X223000000Y-51280000D02*
X203120000Y-51280000D01*
D34*
X126700000Y-65800000D02*
X126700000Y-66230000D01*
X126700000Y-66230000D02*
X128936000Y-69206000D01*
X128936000Y-69206000D02*
X128936000Y-76064000D01*
X139350000Y-73778000D02*
X133000000Y-73778000D01*
X133000000Y-73778000D02*
X130968000Y-73778000D01*
X130968000Y-73778000D02*
X128936000Y-76064000D01*
X128936000Y-76064000D02*
X115474000Y-76064000D01*
D32*
X154600000Y-96375000D02*
X154555000Y-96375000D01*
X154555000Y-96375000D02*
X152840000Y-98570000D01*
X142890000Y-98600000D02*
X143410000Y-98600000D01*
X143410000Y-98600000D02*
X145025000Y-96375000D01*
X145025000Y-96375000D02*
X154600000Y-96375000D01*
X154600000Y-96375000D02*
X164655000Y-96375000D01*
X235155000Y-98600000D02*
X235155000Y-97530000D01*
X235155000Y-97530000D02*
X233525000Y-95900000D01*
X225330000Y-98650000D02*
X225330000Y-98180000D01*
X225330000Y-98180000D02*
X223050000Y-95900000D01*
X245105000Y-98650000D02*
X245105000Y-98080000D01*
X245105000Y-98080000D02*
X242925000Y-95900000D01*
X242925000Y-95900000D02*
X233525000Y-95900000D01*
X233525000Y-95900000D02*
X223050000Y-95900000D01*
X223050000Y-95900000D02*
X204425000Y-95900000D01*
X204425000Y-95900000D02*
X204425000Y-95825000D01*
X187355000Y-98950000D02*
X187355000Y-98305000D01*
X187355000Y-98305000D02*
X184875000Y-95825000D01*
X197280000Y-98975000D02*
X197280000Y-98555000D01*
X197280000Y-98555000D02*
X194550000Y-95825000D01*
X207180000Y-98900000D02*
X207180000Y-98230000D01*
X207180000Y-98230000D02*
X204775000Y-95825000D01*
X204775000Y-95825000D02*
X204425000Y-95825000D01*
X204425000Y-95825000D02*
X194550000Y-95825000D01*
X194550000Y-95825000D02*
X184875000Y-95825000D01*
X184875000Y-95825000D02*
X165205000Y-95825000D01*
X165205000Y-95825000D02*
X164655000Y-96375000D01*
X164655000Y-96375000D02*
X162760000Y-98490000D01*
X152840000Y-98570000D02*
X152840000Y-98340000D01*
D33*
X115474000Y-81144000D02*
X115982000Y-81144000D01*
X115982000Y-81144000D02*
X119284000Y-77842000D01*
X137434000Y-76064000D02*
X138540000Y-77170000D01*
X130714000Y-76064000D02*
X137434000Y-76064000D01*
X128936000Y-77842000D02*
X130714000Y-76064000D01*
X119284000Y-77842000D02*
X128936000Y-77842000D01*
X145290000Y-53960000D02*
X146700000Y-52700000D01*
X145250000Y-74710000D02*
X145290000Y-53960000D01*
X142170000Y-77170000D02*
X145250000Y-74710000D01*
X138540000Y-77170000D02*
X142170000Y-77170000D01*
X115474000Y-81144000D02*
X116024000Y-81144000D01*
X236325000Y-66225000D02*
X236325000Y-65885000D01*
X236325000Y-65885000D02*
X237550000Y-64660000D01*
X241635000Y-64660000D02*
X243225000Y-66250000D01*
X237550000Y-64660000D02*
X241635000Y-64660000D01*
X236325000Y-66225000D02*
X236325000Y-67350000D01*
X236325000Y-67350000D02*
X238050000Y-69075000D01*
X243225000Y-66250000D02*
X243225000Y-66675000D01*
X243225000Y-66675000D02*
X244030000Y-67480000D01*
X244030000Y-67480000D02*
X247470000Y-67480000D01*
X247470000Y-67480000D02*
X249730000Y-69740000D01*
X248500000Y-73870000D02*
X249750000Y-73870000D01*
X247500000Y-60075000D02*
X245975000Y-58550000D01*
X247500000Y-64090000D02*
X247500000Y-60075000D01*
X251690000Y-68280000D02*
X247500000Y-64090000D01*
X251690000Y-71930000D02*
X251690000Y-68280000D01*
X249750000Y-73870000D02*
X251690000Y-71930000D01*
X254460000Y-52770000D02*
X253740000Y-54220000D01*
X253740000Y-54220000D02*
X251190000Y-56770000D01*
X251190000Y-56770000D02*
X247755000Y-56770000D01*
X247755000Y-56770000D02*
X245975000Y-58550000D01*
X243225000Y-58630000D02*
X245895000Y-58630000D01*
X245895000Y-58630000D02*
X245975000Y-58550000D01*
D32*
X248500000Y-73140000D02*
X248500000Y-73870000D01*
D33*
X254520000Y-52710000D02*
X254460000Y-52770000D01*
X238760000Y-52540000D02*
X238760000Y-58160000D01*
X238760000Y-58160000D02*
X239150000Y-58550000D01*
X245060000Y-74010000D02*
X245060000Y-72540000D01*
X233550000Y-61380000D02*
X236325000Y-58605000D01*
X233550000Y-70480000D02*
X233550000Y-61380000D01*
X234620000Y-71550000D02*
X233550000Y-70480000D01*
X244070000Y-71550000D02*
X234620000Y-71550000D01*
X245060000Y-72540000D02*
X244070000Y-71550000D01*
X239150000Y-58550000D02*
X236380000Y-58550000D01*
X236380000Y-58550000D02*
X236325000Y-58605000D01*
X239440000Y-58260000D02*
X239150000Y-58550000D01*
D32*
X245060000Y-74010000D02*
X244700000Y-74010000D01*
X152280000Y-71600000D02*
X152450000Y-71600000D01*
X152450000Y-71600000D02*
X154750000Y-73900000D01*
X154750000Y-73900000D02*
X154750000Y-93875000D01*
X144625000Y-93875000D02*
X154750000Y-93875000D01*
X154750000Y-93875000D02*
X160375000Y-93875000D01*
X166450000Y-83050000D02*
X174470000Y-83050000D01*
X165500000Y-84000000D02*
X166450000Y-83050000D01*
X165500000Y-88750000D02*
X165500000Y-84000000D01*
X160375000Y-93875000D02*
X165500000Y-88750000D01*
X174470000Y-83050000D02*
X174550000Y-83130000D01*
X174550000Y-83130000D02*
X174550000Y-83650000D01*
X174550000Y-83650000D02*
X180400000Y-89500000D01*
X226350000Y-76694000D02*
X229266000Y-73778000D01*
X226350000Y-87799998D02*
X226350000Y-76694000D01*
X224649998Y-89500000D02*
X226350000Y-87799998D01*
X180400000Y-89500000D02*
X224649998Y-89500000D01*
X233076000Y-81398000D02*
X233076000Y-77588000D01*
X233076000Y-77588000D02*
X229266000Y-73778000D01*
X144625000Y-90525000D02*
X145775000Y-90525000D01*
X153800000Y-75500000D02*
X152440000Y-74140000D01*
X153800000Y-84950000D02*
X153800000Y-75500000D01*
X153250000Y-85500000D02*
X153800000Y-84950000D01*
X150800000Y-85500000D02*
X153250000Y-85500000D01*
X145775000Y-90525000D02*
X150800000Y-85500000D01*
X152440000Y-74140000D02*
X152280000Y-74140000D01*
X144625000Y-90525000D02*
X144425000Y-90525000D01*
X144425000Y-90525000D02*
X142900000Y-92050000D01*
X142900000Y-92050000D02*
X142900000Y-95050000D01*
X142900000Y-95050000D02*
X143000000Y-95150000D01*
X143000000Y-95150000D02*
X162100000Y-95150000D01*
X162100000Y-95150000D02*
X166100000Y-91150000D01*
X166100000Y-91150000D02*
X166100000Y-86150000D01*
X166100000Y-86150000D02*
X166650000Y-85600000D01*
X166650000Y-85600000D02*
X174480000Y-85600000D01*
X174480000Y-85600000D02*
X174550000Y-85670000D01*
X229266000Y-76318000D02*
X229668000Y-76318000D01*
X229668000Y-76318000D02*
X231450000Y-78100000D01*
X231450000Y-82312000D02*
X233076000Y-83938000D01*
X231450000Y-78100000D02*
X231450000Y-82312000D01*
X174550000Y-85670000D02*
X175120000Y-85670000D01*
X175120000Y-85670000D02*
X179700000Y-90250000D01*
X227050000Y-78534000D02*
X229266000Y-76318000D01*
X227050000Y-88350000D02*
X227050000Y-78534000D01*
X225150000Y-90250000D02*
X227050000Y-88350000D01*
X179700000Y-90250000D02*
X225150000Y-90250000D01*
D33*
X262830000Y-87520000D02*
X264300000Y-87520000D01*
X259750000Y-94150000D02*
X262000000Y-91900000D01*
X262000000Y-91900000D02*
X262000000Y-88350000D01*
X262000000Y-88350000D02*
X262830000Y-87520000D01*
X167520000Y-89380000D02*
X169030000Y-89380000D01*
X171350000Y-94150000D02*
X259750000Y-94150000D01*
X170900000Y-93700000D02*
X171350000Y-94150000D01*
X170900000Y-91250000D02*
X170900000Y-93700000D01*
X169030000Y-89380000D02*
X170900000Y-91250000D01*
X263020000Y-84980000D02*
X264300000Y-84980000D01*
X258700000Y-93050000D02*
X260750000Y-91000000D01*
X260750000Y-91000000D02*
X260750000Y-87250000D01*
X260750000Y-87250000D02*
X263020000Y-84980000D01*
X167520000Y-86840000D02*
X169340000Y-86840000D01*
X173250000Y-93050000D02*
X258700000Y-93050000D01*
X171950000Y-92400000D02*
X173250000Y-93050000D01*
X171950000Y-90100000D02*
X171950000Y-92400000D01*
X169340000Y-86840000D02*
X171950000Y-90100000D01*
X236910000Y-92120000D02*
X253360000Y-92090000D01*
X256120000Y-88330000D02*
X256120000Y-73870000D01*
X253360000Y-92090000D02*
X256120000Y-88330000D01*
X179820000Y-92090000D02*
X182380000Y-92120000D01*
X182380000Y-92120000D02*
X236910000Y-92120000D01*
X201360000Y-55580000D02*
X202280000Y-55580000D01*
X213020000Y-53730000D02*
X213020000Y-55240000D01*
X212130000Y-52840000D02*
X213020000Y-53730000D01*
X205020000Y-52840000D02*
X212130000Y-52840000D01*
X202280000Y-55580000D02*
X205020000Y-52840000D01*
X191870000Y-55210000D02*
X191870000Y-56689998D01*
X199560000Y-57380000D02*
X201360000Y-55580000D01*
X192560002Y-57380000D02*
X199560000Y-57380000D01*
X191870000Y-56689998D02*
X192560002Y-57380000D01*
X224088000Y-70168000D02*
X224494000Y-70168000D01*
X224494000Y-70168000D02*
X225964000Y-68698000D01*
X213250000Y-67840000D02*
X213250000Y-68938000D01*
X213250000Y-68938000D02*
X214480000Y-70168000D01*
X220640000Y-59740000D02*
X229520000Y-59740000D01*
X229520000Y-59740000D02*
X229830000Y-59430000D01*
X220640000Y-55240000D02*
X220640000Y-59740000D01*
X220640000Y-59740000D02*
X220640000Y-60040000D01*
X225964000Y-64650000D02*
X225964000Y-68698000D01*
X220640000Y-60040000D02*
X225964000Y-64650000D01*
X224088000Y-70168000D02*
X214480000Y-70168000D01*
X184130000Y-68060000D02*
X184130000Y-66570000D01*
X220870000Y-66260000D02*
X220870000Y-67840000D01*
X219610000Y-65000000D02*
X220870000Y-66260000D01*
X185700000Y-65000000D02*
X219610000Y-65000000D01*
X184130000Y-66570000D02*
X185700000Y-65000000D01*
X184130000Y-68060000D02*
X184130000Y-67330000D01*
X191750000Y-68060000D02*
X191750000Y-66860000D01*
X191750000Y-66860000D02*
X192900000Y-65710000D01*
X199340000Y-65710000D02*
X201280000Y-67650000D01*
X192900000Y-65710000D02*
X199340000Y-65710000D01*
D32*
X167520000Y-69060000D02*
X166890000Y-69060000D01*
X166890000Y-69060000D02*
X157700000Y-78250000D01*
X141000000Y-81050000D02*
X140800000Y-80850000D01*
X140800000Y-80850000D02*
X134110000Y-80850000D01*
X134110000Y-80850000D02*
X129270000Y-85690000D01*
X167520000Y-71600000D02*
X166500000Y-71600000D01*
X123480000Y-87330000D02*
X123480000Y-85460000D01*
X125100000Y-88950000D02*
X123480000Y-87330000D01*
X130700000Y-88950000D02*
X125100000Y-88950000D01*
X132400000Y-87250000D02*
X130700000Y-88950000D01*
X132400000Y-83950000D02*
X132400000Y-87250000D01*
X134250000Y-82100000D02*
X132400000Y-83950000D01*
X141250000Y-82100000D02*
X134250000Y-82100000D01*
X141300000Y-82050000D02*
X141250000Y-82100000D01*
X157900000Y-80200000D02*
X157600000Y-80200000D01*
X166500000Y-71600000D02*
X157900000Y-80200000D01*
X167520000Y-71600000D02*
X167210000Y-71600000D01*
D33*
X167520000Y-71600000D02*
X167520000Y-71770000D01*
X167520000Y-71600000D02*
X167900000Y-71600000D01*
D32*
X167520000Y-76680000D02*
X163920000Y-76680000D01*
X117160000Y-88160000D02*
X117160000Y-85690000D01*
X119150000Y-90150000D02*
X117160000Y-88160000D01*
X130900000Y-90150000D02*
X119150000Y-90150000D01*
X133400000Y-87650000D02*
X130900000Y-90150000D01*
X133400000Y-84500000D02*
X133400000Y-87650000D01*
X134900000Y-83000000D02*
X133400000Y-84500000D01*
X141250000Y-83000000D02*
X134900000Y-83000000D01*
X163920000Y-76680000D02*
X157600000Y-83000000D01*
X171400000Y-104490000D02*
X172485000Y-104490000D01*
X185750000Y-101950000D02*
X193450000Y-101950000D01*
X184150000Y-100350000D02*
X185750000Y-101950000D01*
X174375000Y-100350000D02*
X184150000Y-100350000D01*
X173500000Y-101225000D02*
X174375000Y-100350000D01*
X173500000Y-103475000D02*
X173500000Y-101225000D01*
X172485000Y-104490000D02*
X173500000Y-103475000D01*
D33*
X118210000Y-97610000D02*
X118210000Y-99350000D01*
X120860000Y-102000000D02*
X127300000Y-102000000D01*
X118210000Y-99350000D02*
X120860000Y-102000000D01*
D32*
X215650000Y-101800000D02*
X214550000Y-101800000D01*
X170050000Y-101950000D02*
X171400000Y-101950000D01*
X167325000Y-104675000D02*
X170050000Y-101950000D01*
X167325000Y-109900000D02*
X167325000Y-104675000D01*
X168375000Y-110950000D02*
X167325000Y-109900000D01*
X205400000Y-110950000D02*
X168375000Y-110950000D01*
X214550000Y-101800000D02*
X205400000Y-110950000D01*
X171400000Y-101950000D02*
X166950000Y-101950000D01*
X124900000Y-104475000D02*
X127300000Y-102075000D01*
X124900000Y-108750000D02*
X124900000Y-104475000D01*
X127750000Y-111600000D02*
X124900000Y-108750000D01*
X157300000Y-111600000D02*
X127750000Y-111600000D01*
X166950000Y-101950000D02*
X157300000Y-111600000D01*
X127300000Y-102075000D02*
X127300000Y-102000000D01*
X126800000Y-102000000D02*
X127300000Y-102000000D01*
X215650000Y-104340000D02*
X216660000Y-104340000D01*
X226975000Y-101700000D02*
X237800000Y-101700000D01*
X225250000Y-99975000D02*
X226975000Y-101700000D01*
X219650000Y-99975000D02*
X225250000Y-99975000D01*
X218025000Y-101600000D02*
X219650000Y-99975000D01*
X218025000Y-102975000D02*
X218025000Y-101600000D01*
X216660000Y-104340000D02*
X218025000Y-102975000D01*
X127300000Y-104540000D02*
X126160000Y-104540000D01*
X146000000Y-102100000D02*
X149500000Y-102100000D01*
X138000000Y-110100000D02*
X146000000Y-102100000D01*
X128000000Y-110100000D02*
X138000000Y-110100000D01*
X126000000Y-108100000D02*
X128000000Y-110100000D01*
X126000000Y-104700000D02*
X126000000Y-108100000D01*
X126160000Y-104540000D02*
X126000000Y-104700000D01*
D33*
X124880000Y-97540000D02*
X124940000Y-97540000D01*
X124940000Y-97540000D02*
X127110000Y-99710000D01*
X127110000Y-99710000D02*
X130960000Y-99710000D01*
X130960000Y-99710000D02*
X132000000Y-100750000D01*
X132000000Y-100750000D02*
X132000000Y-102100000D01*
D32*
X132000000Y-104640000D02*
X136760000Y-104640000D01*
X152700000Y-100500000D02*
X154300000Y-102100000D01*
X140900000Y-100500000D02*
X152700000Y-100500000D01*
X136760000Y-104640000D02*
X140900000Y-100500000D01*
D33*
X117160000Y-93310000D02*
X117160000Y-96120000D01*
X117160000Y-96120000D02*
X116940000Y-96340000D01*
X116870000Y-96270000D02*
X116940000Y-96340000D01*
X123480000Y-93080000D02*
X123480000Y-96140000D01*
X123480000Y-96140000D02*
X123610000Y-96270000D01*
X129270000Y-93310000D02*
X129270000Y-95560000D01*
X129270000Y-95560000D02*
X130050000Y-96340000D01*
D32*
X194975000Y-98950000D02*
X194975000Y-103200000D01*
X194975000Y-103200000D02*
X193685000Y-104490000D01*
X193685000Y-104490000D02*
X193450000Y-104490000D01*
D33*
X150510000Y-98600000D02*
X150510000Y-99400000D01*
D32*
X204900000Y-98975000D02*
X204900000Y-100650000D01*
X201060000Y-104490000D02*
X198100000Y-104490000D01*
X204900000Y-100650000D02*
X201060000Y-104490000D01*
D33*
X160460000Y-98570000D02*
X160400000Y-100800000D01*
X156560000Y-104640000D02*
X154300000Y-104640000D01*
X160400000Y-100800000D02*
X156560000Y-104640000D01*
D32*
X151900000Y-109040000D02*
X156885000Y-109040000D01*
X167975000Y-97950000D02*
X170380000Y-98490000D01*
X156885000Y-109040000D02*
X167975000Y-97950000D01*
X195700000Y-108940000D02*
X201410000Y-108940000D01*
X211450000Y-98900000D02*
X214800000Y-98900000D01*
X201410000Y-108940000D02*
X211450000Y-98900000D01*
X132492000Y-69206000D02*
X132492000Y-64492000D01*
X132492000Y-64492000D02*
X125530000Y-57530000D01*
X125530000Y-58434000D02*
X125530000Y-57530000D01*
D33*
X125530000Y-57530000D02*
X125530000Y-51030000D01*
D32*
X143160000Y-65396000D02*
X141836000Y-65396000D01*
X141836000Y-65396000D02*
X133880000Y-57440000D01*
D33*
X133880000Y-57440000D02*
X133880000Y-58166000D01*
X133880000Y-50940000D02*
X133880000Y-57440000D01*
D32*
X142610000Y-57330000D02*
X142610000Y-61544000D01*
X142610000Y-61544000D02*
X143160000Y-62094000D01*
D33*
X142610000Y-50830000D02*
X142610000Y-57330000D01*
X142610000Y-57330000D02*
X142082000Y-57330000D01*
D32*
X184816000Y-73524000D02*
X187102000Y-73524000D01*
X222662000Y-82160000D02*
X218852000Y-82160000D01*
X218852000Y-82160000D02*
X217074000Y-82160000D01*
X215042000Y-73524000D02*
X204628000Y-73524000D01*
X216312000Y-74794000D02*
X215042000Y-73524000D01*
X216312000Y-81398000D02*
X216312000Y-74794000D01*
X217074000Y-82160000D02*
X216312000Y-81398000D01*
X194722000Y-73524000D02*
X197008000Y-73524000D01*
D33*
X167520000Y-74140000D02*
X167940000Y-74140000D01*
X233340000Y-91090000D02*
X252490000Y-91110000D01*
X178590000Y-91530000D02*
X180480000Y-91090000D01*
X180480000Y-91090000D02*
X233340000Y-91090000D01*
X252490000Y-91110000D02*
X254920000Y-87450000D01*
X254920000Y-87450000D02*
X254920000Y-76490000D01*
X254920000Y-76490000D02*
X254260000Y-75830000D01*
X254260000Y-75830000D02*
X243360000Y-75830000D01*
X243360000Y-75830000D02*
X241540000Y-74010000D01*
X241540000Y-74010000D02*
X237440000Y-74010000D01*
X237440000Y-74780000D02*
X237440000Y-74010000D01*
D32*
X167520000Y-61440000D02*
X156965000Y-61440000D01*
X262550000Y-51150000D02*
X262550000Y-55820000D01*
X260975000Y-49575000D02*
X262550000Y-51150000D01*
X149575000Y-49575000D02*
X260975000Y-49575000D01*
X149000000Y-50150000D02*
X149575000Y-49575000D01*
X149000000Y-51850000D02*
X149000000Y-50150000D01*
X149050000Y-51900000D02*
X149000000Y-51850000D01*
X156965000Y-61440000D02*
X154425000Y-58900000D01*
D33*
X256698000Y-61078000D02*
X256698000Y-61977000D01*
X255830000Y-62845000D02*
X255830000Y-67060000D01*
X256698000Y-61977000D02*
X255830000Y-62845000D01*
X256698000Y-61078000D02*
X256698000Y-59552000D01*
X265370000Y-58425000D02*
X266150000Y-59205000D01*
X257825000Y-58425000D02*
X265370000Y-58425000D01*
X256698000Y-59552000D02*
X257825000Y-58425000D01*
X263450000Y-67060000D02*
X263450000Y-68075000D01*
X262615000Y-73890000D02*
X264825000Y-74240000D01*
X262075000Y-73350000D02*
X262615000Y-73890000D01*
X262075000Y-69450000D02*
X262075000Y-73350000D01*
X263450000Y-68075000D02*
X262075000Y-69450000D01*
D32*
X257968000Y-62348000D02*
X258023000Y-62348000D01*
X258023000Y-62348000D02*
X259115000Y-63440000D01*
X259115000Y-63440000D02*
X262550000Y-63440000D01*
M02*
